<?xml version="1.0" encoding="utf-8"?>
<!-- Generator: Adobe Illustrator 19.0.1, SVG Export Plug-In . SVG Version: 6.00 Build 0)  -->
<svg version="1.1" id="Layer_1" xmlns="http://www.w3.org/2000/svg" xmlns:xlink="http://www.w3.org/1999/xlink" x="0px" y="0px"
	 viewBox="0 0 366.8 100.4" style="enable-background:new 0 0 366.8 100.4;" xml:space="preserve">
<style type="text/css">
	.st0{fill:#58595B;}
	.st1{font-family:'MyriadPro-Regular';}
	.st2{font-size:23px;}
	.st3{letter-spacing:5;}
	.st4{fill:#2E3192;}
</style>
<text transform="matrix(1.5998 0 0 1 82.9736 94.6152)" class="st0 st1 st2 st3">ELECTRIC</text>
<g>
	<path class="st4" d="M55.3,0L94,61H76.1l-8.4-13.4H26.4L17.9,61H0L38.7,0H55.3z M34.6,34.7h24.8L47.1,15.1L34.6,34.7z"/>
	<path class="st4" d="M179.3,0v13.6H119c-2.2,0-4.1,0.7-5.6,2.1c-1.5,1.3-2.3,3-2.3,5v19.6c0,2,0.8,3.7,2.3,5.1c1.5,1.3,3.4,2,5.6,2
		h49.7V35.9H144v-8.9h37.4V61h-67.3c-5.4,0-10.1-1.7-13.9-5.2c-3.8-3.5-5.7-7.7-5.7-12.6V17.8c0-4.9,1.9-9.1,5.7-12.6
		c3.8-3.5,8.5-5.2,13.9-5.2H179.3z"/>
	<path class="st4" d="M204.3,0L257,42.8V0h16.7v61H257l-52.7-42.8V61h-16.7V0H204.3z"/>
	<path class="st4" d="M364.6,0v13.6h-60.2c-2.2,0-4.1,0.7-5.6,2.1c-1.5,1.3-2.3,3-2.3,5v19.6c0,2,0.8,3.7,2.3,5.1
		c1.5,1.3,3.4,2,5.6,2h49.7V35.9h-24.8v-8.9h37.4V61h-67.3c-5.4,0-10.1-1.7-13.9-5.2c-3.8-3.5-5.7-7.7-5.7-12.6V17.8
		c0-4.9,1.9-9.1,5.7-12.6C289.4,1.7,294,0,299.5,0H364.6z"/>
	<path class="st4" d="M169.1,30.5c0-1-0.3-1.3-1.3-1.3c-2.4,0.1-4.8-0.1-7.2,0c-0.2,0-0.3,0-0.4,0v-3.1c0-2.2-0.4-4-1.3-5.5
		c-0.9-1.5-2-2.3-3.3-2.3l-0.5,0.2v-0.2h-13.6c-1.1,0-2,0.8-2.8,2.3c-0.3,0.6-0.6,1.4-0.7,2.1c-2.9-0.1-5.7-0.1-8.6-0.1
		c-1.3,0-2.3,0.3-2.3,1.8c0,1.4,1.1,1.7,2.3,1.7c2.8,0,5.5,0.1,8.3,0c0,0,0,0,0,0.1V37c-2.7-0.1-5.5,0-8.2-0.1
		c-1.2,0-2.4,0.2-2.4,1.7c0,1.5,1.1,1.8,2.3,1.8c2.9,0,5.7,0.1,8.6,0c0.2,0.9,0.5,1.7,0.8,2.4c0.8,1.5,1.7,2.3,2.8,2.3h13.6l0,0
		l0.5,0c1.3,0,2.4-0.8,3.3-2.3c0.9-1.5,1.3-3.4,1.3-5.5v-3.1c1.8,0,3.5,0,5.3,0C169.2,34.3,169.1,34.3,169.1,30.5z"/>
</g>
</svg>
