<?xml version="1.0" encoding="utf-8"?>
<!-- Generator: Adobe Illustrator 19.0.1, SVG Export Plug-In . SVG Version: 6.00 Build 0)  -->
<svg version="1.1" id="Layer_1" xmlns="http://www.w3.org/2000/svg" xmlns:xlink="http://www.w3.org/1999/xlink" x="0px" y="0px"
	 viewBox="-188.6 309.6 500 162" style="enable-background:new -188.6 309.6 500 162;" xml:space="preserve">
<style type="text/css">
	.st0{enable-background:new    ;}
	.st1{fill:#58595B;}
	.st2{fill:#2E3192;}
</style>
<g class="st0">
	<path class="st1" d="M-45.3,443.3h-12.1v7h13.5v2.1h-17.5V433h16.8v2.1h-12.8v6.1h12.1V443.3z"/>
	<path class="st1" d="M-28.7,433h4v17.3h13.3v2.1h-17.3V433z"/>
	<path class="st1" d="M19.1,443.3H7v7h13.5v2.1H3V433h16.8v2.1H7v6.1h12.1V443.3z"/>
	<path class="st1" d="M57.4,451.8c-1.5,0.5-4.4,0.9-8.2,0.9c-8.8,0-15.3-3.5-15.3-9.8c0-6.1,6.6-10.2,16.2-10.2
		c3.9,0,6.3,0.5,7.4,0.9l-1,2c-1.5-0.5-3.7-0.8-6.3-0.8c-7.3,0-12.1,2.9-12.1,8c0,4.8,4.4,7.8,11.9,7.8c2.4,0,4.9-0.3,6.5-0.8
		L57.4,451.8z"/>
	<path class="st1" d="M79.6,435.2h-9.4V433h23v2.1h-9.5v17.3h-4.1V435.2z"/>
	<path class="st1" d="M106.6,433.3c2-0.3,4.9-0.4,7.7-0.4c4.3,0,7,0.5,9,1.6c1.6,0.9,2.4,2.2,2.4,3.7c0,2.6-2.6,4.3-5.9,5v0.1
		c2.4,0.5,3.8,1.9,4.6,3.9c1,2.7,1.8,4.6,2.4,5.3h-4.1c-0.5-0.5-1.2-2.2-2.1-4.6c-0.9-2.7-2.6-3.7-6.2-3.8h-3.8v8.4h-4V433.3z
		 M110.6,442.1h4.1c4.3,0,7-1.5,7-3.7c0-2.5-2.9-3.6-7.1-3.6c-1.9,0-3.3,0.1-4,0.2V442.1z"/>
	<path class="st1" d="M145.4,433v19.4h-4V433H145.4z"/>
	<path class="st1" d="M184.2,451.8c-1.5,0.5-4.4,0.9-8.2,0.9c-8.8,0-15.3-3.5-15.3-9.8c0-6.1,6.6-10.2,16.2-10.2
		c3.9,0,6.3,0.5,7.4,0.9l-1,2c-1.5-0.5-3.7-0.8-6.3-0.8c-7.3,0-12.1,2.9-12.1,8c0,4.8,4.4,7.8,11.9,7.8c2.4,0,4.9-0.3,6.5-0.8
		L184.2,451.8z"/>
</g>
<g>
	<path class="st2" d="M-99,333.9l48.5,76.4h-22.4l-10.5-16.8h-51.7l-10.6,16.8h-22.4l48.5-76.4H-99z M-124.9,377.4h31.1l-15.4-24.5
		L-124.9,377.4z"/>
	<path class="st2" d="M87.6,333.9l66,53.6v-53.6h20.9v76.4h-20.9l-66-53.6v53.6H66.7v-76.4H87.6z"/>
	<path class="st2" d="M288.4,333.9v17H213c-2.8,0-5.1,0.9-7,2.6c-1.9,1.6-2.9,3.8-2.9,6.3v24.5c0,2.5,1,4.6,2.9,6.4
		c1.9,1.6,4.3,2.5,7,2.5h62.3v-14.4h-31.1v-11.1H291v42.6h-84.3c-6.8,0-12.7-2.1-17.4-6.5c-4.8-4.4-7.1-9.6-7.1-15.8v-31.8
		c0-6.1,2.4-11.4,7.1-15.8c4.9-4.4,10.6-6.5,17.5-6.5H288.4z"/>
	<path class="st2" d="M32.4,367.7v-1.1c0-2.8-0.5-5-1.6-6.9s-2.5-2.9-4.1-2.9l-0.6,0.3v-0.3H9c-1.4,0-2.5,1-3.5,2.9
		c-0.4,0.8-0.8,1.8-0.9,2.6c-3.6-0.1-7.1-0.1-10.8-0.1c-1.6,0-2.9,0.4-2.9,2.3c0,1.8,1.4,2.1,2.9,2.1c3.5,0,6.9,0.1,10.4,0
		c0,0,0,0,0,0.1v13.5c-3.4-0.1-6.9,0-10.3-0.1c-1.5,0-3,0.3-3,2.1s1.4,2.3,2.9,2.3c3.6,0,7.1,0.1,10.8,0c0.3,1.1,0.6,2.1,1,3
		c1,1.9,2.1,2.9,3.5,2.9h17h0.6c1.6,0,3-1,4.1-2.9s1.6-4.3,1.6-6.9v-1.8h10.5v14.4h-62.3c-2.8,0-5.1-0.9-7-2.5
		c-1.9-1.8-2.9-3.9-2.9-6.4v-24.5c0-2.5,1-4.6,2.9-6.3c1.9-1.8,4.3-2.6,7-2.6h75.5v-17h-81.7c-6.8,0-12.7,2.1-17.4,6.5
		c-4.8,4.4-7.1,9.6-7.1,15.8V388c0,6.1,2.4,11.4,7.1,15.8s10.6,6.5,17.4,6.5H59v-42.6H32.4z"/>
</g>
</svg>
