<?xml version="1.0" encoding="utf-8"?>
<!-- Generator: Adobe Illustrator 19.0.1, SVG Export Plug-In . SVG Version: 6.00 Build 0)  -->
<svg version="1.1" id="art_manua" xmlns="http://www.w3.org/2000/svg" xmlns:xlink="http://www.w3.org/1999/xlink" x="0px" y="0px"
	 viewBox="-221.4 146.9 500 500" style="enable-background:new -221.4 146.9 500 500;" xml:space="preserve">
<style type="text/css">
	.st0{fill:#B0759F;}
	.st1{fill:#6D6E70;}
	.st2{fill:#B075A0;}
	.st3{opacity:0.3;fill:#B0759F;enable-background:new    ;}
	.st4{opacity:0.3;fill:#C999BB;enable-background:new    ;}
	.st5{fill:#808285;}
	.st6{font-family:'Andriko';}
	.st7{font-size:89.9595px;}
</style>
<g>
	<path class="st0" d="M-119.4,373.8v0.3c-31.9,35.6-57.3,53.5-75.9,53.5c-4.6,0-7.7-1-9.4-2.9c1.6-2,2.9-3.3,3.7-4.2
		c2.1,1.7,5,2.6,8.6,2.6h2.3c14.5,0,35.1-13.2,61.5-39.6C-122.7,377.3-119.7,374-119.4,373.8z M-130.9,376.3v0.3
		c-11.5,12.5-20.6,21.5-27.5,26.9c-12.5,9.6-21.8,14.9-27.9,15.6v-0.3c1.7-3.3,4.2-5,7-5c8-2.3,19.3-10,33.6-23
		C-145.3,390.9-140.5,386-130.9,376.3z M-87.2,334.8h0.3c-6.4,18.5-12,38.8-16.7,61.1h0.3c6-0.7,12.6-1.7,19.6-3.1v0.3
		c-1.9,3-3.4,4.4-4.7,4.4c-8.9,1.4-14.2,2.3-15.6,2.6c-1.4,8.3-2.1,15.6-2.1,22.2c0,11.2,2.6,18.3,7.6,21.6c2,1,3.7,1.6,5.4,1.6h2.6
		v0.3c-1.4,2.7-3.1,4.2-5,4.2h-0.6c-9.4,0-14-8-14-24c0-6.2,1-14.7,2.9-25.6c-4.9,0.6-9.3,0.7-13.3,0.7h-2.6c-6.3,0-10.3-1.1-12-3.4
		v-1c0-0.3,1.3-1.4,3.7-3.7c0,2.1,4.6,3.4,13.9,3.9c7.4-0.1,11.2-0.6,11.2-1.3c4.7-21.2,9.7-39.5,15.2-54.8
		c-6.6,8.2-10,12.2-10.2,12.3v-0.3C-94.3,343.1-89.5,337.1-87.2,334.8z M-128.5,373.7v0.3c0,0.3-0.4,0.7-1.3,1.3V375
		C-129.9,374.7-129.5,374.3-128.5,373.7z M-126.5,371.3v0.3c0,0.3-0.3,0.6-0.7,0.7V372C-127.2,371.8-127,371.5-126.5,371.3z
		 M-124.6,369.3v0.3c0,0.3-0.1,0.6-0.6,0.6v-0.4C-125,369.4-124.9,369.3-124.6,369.3z M-122.7,367.1v0.3c0,0.3-0.1,0.6-0.6,0.6v-0.3
		C-123.3,367.3-123.2,367.1-122.7,367.1z M-121,365v0.3c0,0.3-0.3,0.6-0.7,0.7v-0.3C-121.7,365.5-121.4,365.2-121,365z
		 M-119.4,363.2v0.3c0,0.3-0.3,0.6-0.7,0.7V364C-120.2,363.7-119.9,363.4-119.4,363.2z M-117.3,371.5v0.3c0,0.3-0.6,0.9-1.9,1.9
		v-0.3C-119.2,373.1-118.6,372.5-117.3,371.5z M-118.2,361.7v0.3c0,0.3-0.3,0.6-0.7,0.7v-0.3C-118.9,362.1-118.6,361.8-118.2,361.7z
		 M-116.7,360.1v0.3c0,0.3-0.3,0.6-0.7,0.7v-0.3C-117.6,360.5-117.3,360.2-116.7,360.1z M-115.4,369.4v0.3c0,0.3-0.4,0.7-1.3,1.3
		v-0.3C-116.7,370.5-116.3,370.1-115.4,369.4z M-115.4,358.5v0.3c0,0.3-0.3,0.6-0.7,0.7v-0.3C-116.3,358.9-116,358.8-115.4,358.5z
		 M-114.1,356.9v0.3c0,0.3-0.3,0.6-0.7,0.7v-0.3C-115,357.4-114.7,357.2-114.1,356.9z M-113.7,367.4v0.3c0,0.3-0.4,0.7-1.3,1.3v-0.3
		C-115,368.4-114.6,368-113.7,367.4z M-112.9,355.4v0.3c0,0.3-0.3,0.6-1,1v-0.3C-113.9,356.1-113.6,355.8-112.9,355.4z
		 M-112.1,365.5v0.3c0,0.3-0.3,0.6-1,1v-0.3C-113.1,366.2-112.7,366-112.1,365.5z M-111.9,354.1v0.3c0,0.3-0.3,0.6-0.7,0.7v-0.3
		C-112.6,354.5-112.3,354.4-111.9,354.1z M-87.8,322.5v0.3c-7.9,11.3-15.7,21.8-23.8,31.1v-0.3c10.2-12.9,17.3-22.6,21.6-28.9
		L-87.8,322.5z M-110.7,364v0.3c0,0.3-0.3,0.6-0.7,0.7v-0.3C-111.6,364.5-111.3,364.2-110.7,364z M-109.3,362.1v0.3
		c0,0.3-0.3,0.6-1,1v-0.3C-110.3,363-109.9,362.5-109.3,362.1z M-107.9,360.5v0.3c0,0.3-0.3,0.6-0.7,0.7v-0.3
		C-108.7,361.1-108.4,360.8-107.9,360.5z M-106.6,358.9v0.3c0,0.3-0.3,0.6-0.7,0.7v-0.3C-107.4,359.5-107.1,359.2-106.6,358.9z
		 M-105.3,357.4v0.3c0,0.3-0.3,0.6-1,1v-0.3C-106.3,358.2-106,357.8-105.3,357.4z M-103,354.5v0.3c-1,1.6-1.7,2.3-2.1,2.3v-0.3
		C-104,355.4-103.3,354.7-103,354.5z M-101.8,353.2v0.3c0,0.3-0.3,0.6-0.7,0.7v-0.3C-102.7,353.8-102.4,353.5-101.8,353.2z"/>
	<path class="st0" d="M16.2,335.9h0.6c2.3,0,3.4,3.1,3.4,9.4v6.9c0,12-4.2,25.2-12.3,39.4h10.9c8.9,0,18,0.4,27.6,1.1v0.6l-3.4,4.3
		c-10.9-1-23.5-1.4-37.9-1.4c-3.6,5.4-6.9,9.9-10,13.2V409c3.1-4,6-8.3,8.6-12.6v-0.3c-1.9,0.1-3.3,0.3-4.3,0.3h-3.1
		c-0.7,0-1.4,4.4-2,13.5l0.6-0.3v0.3l-0.6,0.9v3.7c0,3.7,2,7,6,10c1.6,1.7,2.9,2.6,4,2.6h0.6l1.7-1.4v0.3c-2.4,4-4.6,6-6.3,6
		c-3.4-1.3-6.7-4.3-9.7-9.2c-0.4-2.3-0.6-4.2-0.6-5.4v-1.1c0-4.2,0.9-10.7,2.6-19.5c-6.6,0-15.9,1.3-27.9,4c2.1-3.6,4.4-5.4,7.2-5.4
		c9.4-2.1,16.6-3.1,21.6-3.1c4.7-21.3,9.7-37.1,14.9-47.1C11.2,340.3,14,337.3,16.2,335.9z M-10.8,416.1v0.3
		c-4.4,5.2-8.3,9-11.5,11.5h-0.3v-0.3C-22.5,426.9-18.7,423.2-10.8,416.1z M12.5,340.5c-4.2,7.6-8.7,21-13.5,40.5
		c-1.1,4.7-1.9,8.4-2.3,10.9h0.3c6.3-0.1,9.4-0.3,9.4-0.6c6.4-12.2,9.7-24.9,9.7-38.2c-0.3-8.4-1.3-12.6-2.9-12.6
		C13.4,340.5,12.5,340.5,12.5,340.5z"/>
	<path class="st1" d="M49.3,423.9v0.3C34,442.1,20.8,451.1,9.7,451.1c-4.7,0-8.2-1.3-10.4-3.9c1.6-2,2.9-3.3,3.7-4.2
		c2.7,2.4,6.2,3.7,10.2,3.7h1.3C23.4,446.5,35,439.1,49.3,423.9z M50.3,409.3v0.3c-7.9,8.4-14.3,14.3-19.3,17.5
		c-2.7,1.7-4.3,2.6-4.7,2.6c1.1-2.3,4.6-5,10.2-8.3C40,418.8,44.6,414.8,50.3,409.3z M50.7,422.1v0.3c0,0.3-0.3,0.6-1,1v-0.3
		C49.7,422.9,50.2,422.5,50.7,422.1z M51.9,407.5v0.3c0,0.3-0.4,0.7-1.3,1.3v-0.3C50.6,408.5,51,408,51.9,407.5z M100.7,342.2h0.3
		c-2.3,10.9-3.4,20.5-3.4,28.8c0,15.9,4.4,23.8,13.3,23.8c3.9,0,9.6-2.3,17.2-6.7c7.2-11.6,15.5-23.6,24.8-36.1l2.3-2.3h0.3v0.3
		c0,5.4-3.7,13.5-11,24c-6.2,7.6-11.9,13-17,16.7c-11.7,19.2-17.9,33.5-18.6,43.1v1c0,6.2,3,9.2,9.2,9.2h0.6c2.1,0,4.3-0.3,6.3-0.7
		v0.3c-1.9,3-3.6,4.4-5.2,4.4c-1.4,0.3-3.4,0.6-5.7,0.6c-5.3,0-8.3-3.1-8.9-9.4c0-9,6.7-24.6,20-46.8h-0.3
		c-7.3,4.6-13.3,6.7-17.7,6.7h-1c-6.7,0-10.7-6-12-18c-0.1-0.4-0.3-1.7-0.3-3.9V373c0-5.4,0.7-12.3,2.1-20.6
		c-8.6,16.3-18.3,32.8-29.2,49.7c-5.7,8-11,14.7-15.6,20v-0.3c15.6-20.6,29.3-42.4,41.1-65.7c3.7-7.7,6.2-11.9,7.3-12.6L100.7,342.2
		z M90.2,332.8v0.3c0,2.9-3.7,13.2-11,30.8c-5.3,11.9-11.9,23.5-19.9,34.8c-4.6,5.6-6.9,8.3-7,8.3v-0.3
		c9.9-13.2,16.9-24.6,21.2-34.5c4.3-9.3,8.6-20.6,12.7-33.9C86.4,336.6,87.7,334.9,90.2,332.8z M151.4,354.7
		C139,372.4,132,383,130.2,386.6c8.6-5.2,15.3-13.6,19.9-25.6c1-3.6,1.6-5.6,1.6-6v-0.3H151.4z"/>
	<path class="st1" d="M143.9,398.2h2.6c0.4,0,0.6,0.3,0.6,0.6c-2.4,2.9-3.7,4.3-4,4.3h-3.1c-4.9,0-9.7,2.1-14.3,6.6
		c-1.6,2.4-2.3,4.7-2.3,6.9v1.9c0,4.3,2.4,7.2,7.2,8.6h0.6c5.6,0,10.6-6.4,14.9-19.2c0.9-1.6,2.4-3.6,4.9-6v0.3
		c-4.6,11-6.9,18-6.9,21.2c0,2.7,1.4,4,4.3,4c0.3,0,1.6-1,3.7-3.1h0.3v0.3c-3.1,5.2-5.9,7.7-8.3,7.7c-2.7-0.3-4-1.4-4-3.7v-0.3
		c0-2.4,0.4-4.9,1.1-7.2v-0.3h-0.3c-5.4,7.4-10,11.2-13.7,11.2c-5.3-1.6-8-4.2-8-8v-3.1c0-4.7,4.9-11.2,14.6-19.2
		C137.6,399.3,141,398.2,143.9,398.2z"/>
	<path class="st1" d="M179.7,398.5h1.1c2.4,0,3.7,1.4,4,4.3v1.3c0,2.9-2,9-6,18.3c-0.4,0.7-0.6,1.9-0.6,3.1c0,0.7,0.4,1.3,1.1,1.7
		h1.1c0.9,0,2.1-0.7,3.7-2.3v0.3c-3.7,4.6-6.3,6.9-7.7,6.9h-1.1c-0.3,0-0.7-0.4-1.1-1.1v-0.9c0-1.9,1.7-7,5.2-15.5
		c1-2.7,1.4-5.2,1.4-7.2c-0.3-2.9-1.7-4.3-4-4.3c-3.3,0-5.7,2.4-7.2,7.4c0,3.9-1.9,9.4-5.7,16.6c-2,2.3-3.4,3.4-4,3.7h-0.6
		c-0.6-0.1-0.9-0.7-0.9-1.7c0-1.3,2.4-6.7,7.4-16.3v-2c0-4.6-1.4-6.9-4.3-6.9c-1.6,0-3.3,1.1-5.2,3.4c0,0.9-1.1,2.1-3.4,4v-0.3
		c5.3-7.9,9.3-11.7,12-11.7h2.3c1.7,1,2.6,2.9,2.6,5.7v2C174.5,401.3,177.7,398.5,179.7,398.5z M164.1,420.1c-1,2.6-1.4,4.2-1.4,4.6
		v0.3h0.3c0-0.6,0.4-2.1,1.4-4.6v-0.3H164.1z"/>
	<path class="st1" d="M221.1,398.2c0.1,0.4,0.3,0.7,0.3,0.9c-1,6-4.3,13.2-10,21.6v0.9c0,4,2.1,6,6.3,6c1.1-0.4,2.6-1.4,4-2.9v0.3
		c-3.9,4.7-6.6,7.2-8.3,7.2h-1.4c-2.7,0-4.3-2.1-4.9-6.3c-4.2,4.2-7.6,6.3-10,6.3h-1.4c-3.6-1-5.4-4-5.4-9.2v-1.7
		c0-5.9,3.4-12.6,10.3-20v0.3c-4.2,6.3-6.3,11.7-6.3,16c0,5.9,2.1,9.2,6.3,10c4.6-1,6.9-2.6,6.9-4.6c0.7-6.2,4-13.2,10-21.2
		C219.1,399.3,220.3,398.2,221.1,398.2z M201.2,399.9v0.3c0,0.4-0.1,0.6-0.6,0.6v-0.3C200.6,400.2,200.9,399.9,201.2,399.9z
		 M216.6,403.7c-3.4,7.4-5.2,12.2-5.2,14v0.3h0.3c3.4-7.7,5.2-12.5,5.2-14v-0.3C216.9,403.7,216.6,403.7,216.6,403.7z"/>
	<path class="st1" d="M251.5,398.2h2.6c0.4,0,0.6,0.3,0.6,0.6c-2.4,2.9-3.7,4.3-4,4.3h-3.1c-4.9,0-9.7,2.1-14.3,6.6
		c-1.6,2.4-2.3,4.7-2.3,6.9v1.9c0,4.3,2.4,7.2,7.2,8.6h0.6c5.6,0,10.6-6.4,14.9-19.2c0.9-1.6,2.4-3.6,4.9-6v0.3
		c-4.6,11-6.9,18-6.9,21.2c0,2.7,1.4,4,4.3,4c0.3,0,1.6-1,3.7-3.1h0.3v0.3c-3.1,5.2-5.9,7.7-8.3,7.7c-2.7-0.3-4-1.4-4-3.7v-0.3
		c0-2.4,0.4-4.9,1.1-7.2v-0.3h-0.3c-5.4,7.4-10,11.2-13.7,11.2c-5.3-1.6-8-4.2-8-8v-3.1c0-4.7,4.9-11.2,14.6-19.2
		C245.2,399.3,248.8,398.2,251.5,398.2z"/>
	<g>
		<path class="st2" d="M-209.9,471.4c0,0,7.4-0.9,20.5-2.1c6.4-0.6,14.5-1.4,23.5-2.1c4.6-0.4,9.3-0.9,14.5-1.3
			c5.2-0.4,10.4-0.7,16-1.1c11.2-0.9,23.3-1.6,36.1-2.4c6.4-0.4,13-0.7,19.8-1.1c6.7-0.3,13.6-0.7,20.6-1c14-0.6,28.5-1.3,43.1-1.7
			c7.3-0.3,14.7-0.4,22.2-0.7c7.4-0.1,14.9-0.3,22.3-0.4c7.4-0.1,14.9-0.3,22.3-0.3c7.4,0,14.9,0,22.2,0c14.7-0.1,29.2,0.3,43.1,0.4
			c14,0.1,27.5,0.7,40.4,1.1c6.4,0.1,12.6,0.4,18.6,0.6c6,0.3,11.9,0.6,17.5,0.9c11.2,0.6,21.5,1.1,30.5,1.7c9,0.7,17,1.3,23.5,1.7
			c13,1,20.5,1.6,20.5,1.6s-7.4-0.4-20.5-1.3c-6.4-0.4-14.5-0.9-23.5-1.6c-9-0.4-19.3-0.9-30.5-1.4c-5.6-0.3-11.5-0.6-17.5-0.9
			c-6-0.1-12.3-0.3-18.6-0.6c-12.9-0.4-26.3-0.9-40.4-0.9c-14-0.1-28.5-0.4-43.1-0.3c-7.3,0-14.7,0-22.2,0s-14.9,0.3-22.3,0.3
			c-7.4,0.1-14.9,0.1-22.3,0.3c-7.4,0.1-14.9,0.4-22.2,0.6c-14.7,0.3-29.1,1-43.1,1.4c-7,0.3-13.9,0.7-20.6,1
			c-6.7,0.3-13.3,0.6-19.8,1c-12.7,0.7-24.9,1.4-36.1,2.3c-11.2,0.7-21.3,1.6-30.5,2.1c-9,0.7-17,1.4-23.5,1.9
			C-202.5,470.6-209.9,471.4-209.9,471.4z"/>
	</g>
	<path class="st3" d="M-53.5,411.6c0,0-11.9,0.7-18.5-13.2c-6.6-14-4.3-27.3-1.3-34.8s5.7-11,6-12.5c0.3-1.6,1,10.2,5.6,14.6
		C-56.9,370.4-42,396-53.5,411.6z"/>
	<path class="st4" d="M-53.2,411.3c0,0,5.3-11.5,0.9-29.1c-4.4-17.5-6.3-29.2-5.7-30.5c0.6-1.3-7,10.3-4.4,20.2
		C-60,381.7-51,402.5-53.2,411.3z"/>
	<path class="st4" d="M-53,411.2c0,0,0-14.9-10.7-29.5s-16.7-25.2-16.7-26.9c0-1.7-1.9,14.7,4.2,22.9C-70.5,386-54.6,401-53,411.2z"
		/>
	<path class="st4" d="M-53.3,410.6c0,0-3.6-12.9-15.3-19.3c-11.9-6.4-19-11.7-19.5-13.2c-0.4-1.4,2,13.9,8.7,17.5
		C-72.9,399-56.9,402.6-53.3,410.6z"/>
	<path class="st3" d="M-55.9,416.3c0,0-10.6-10.7-16.7-7.7c-6.2,3-9.9,20.3-12,22.2c-2.1,1.7,7-2.1,12.5,0.3
		C-67.1,433.5-55.3,428.4-55.9,416.3z"/>
	<path class="st4" d="M-56.6,416.2c2.1-0.4-9.3-0.6-16.3-3.3c-6.9-2.7-16.2,6.3-17,7c-0.9,0.9,4.3-3.9,14.2-0.1
		C-65.9,423.6-58.9,416.6-56.6,416.2z"/>
	<path class="st4" d="M-56.2,416.3c1.4-1.6-9.4,6.7-17.2,9.2c-7.7,2.6-14.5,20-14.6,20.6c-0.1,0.6,3-7.4,14-11.2
		S-57.6,417.9-56.2,416.3z"/>
	<g>
		<path class="st5" d="M-48,398.3c0,0,0.3-0.1,0.7-0.4s1.1-0.7,1.9-1.4c0.4-0.3,0.9-0.7,1.3-1.1s1-0.9,1.4-1.3c0.4-0.6,1-1,1.6-1.6
			c0.6-0.6,1-1.3,1.6-1.9c0.6-0.6,1-1.4,1.6-2.1c0.4-0.7,1.1-1.6,1.6-2.4c0.4-0.9,0.9-1.7,1.4-2.7c0.4-1,0.9-1.9,1.1-2.9
			c1.4-4,2.4-8.6,2.4-13.2c0-2.3-0.3-4.6-1.1-6.4c-0.9-2-2.6-3.1-4.7-3.1c-1,0-2,0.1-2.9,0.6s-1.4,1.1-1.9,2
			c-0.7,1.7-0.7,3.6-0.1,5.2c0.4,1.6,1.3,3,2.6,3.3c0.6,0.1,1.1-0.1,1.7-0.4c0.4-0.4,0.9-0.9,1.1-1.1c0.6-0.9,0.9-1.6,1.1-2
			c0.3-0.4,0.3-0.7,0.3-0.7s-0.1,0.3-0.3,0.9c-0.1,0.6-0.4,1.3-1,2.1c-0.3,0.4-0.6,0.9-1,1.3c-0.4,0.4-1.1,0.9-2,0.7s-1.4-0.7-2-1.3
			c-0.6-0.7-0.9-1.4-1.3-2.3c-0.6-1.7-0.7-3.7,0-5.9c0.4-1,1.1-2,2.1-2.6c1-0.6,2.1-0.9,3.4-0.9c1.1,0,2.4,0.3,3.4,1
			c1,0.7,1.9,1.7,2.4,2.9c1,2.3,1.3,4.7,1.4,7c0,2.4-0.3,4.7-0.7,7s-1.1,4.4-1.9,6.6c-0.4,1-0.9,2-1.3,3c-0.6,0.9-1,1.9-1.6,2.7
			c-0.4,0.9-1.1,1.7-1.7,2.4c-0.6,0.7-1.1,1.6-1.7,2.1c-0.6,0.7-1.1,1.3-1.7,1.9c-0.6,0.6-1.1,1-1.7,1.6c-0.6,0.4-1,0.9-1.6,1.3
			c-0.4,0.4-0.9,0.7-1.4,1c-0.9,0.6-1.6,1-2,1.3C-47.7,398.2-48,398.3-48,398.3z"/>
	</g>
	<text transform="matrix(0.5939 8.967940e-002 -0.1493 0.9888 -55.2125 431.7485)" class="st0 st6 st7">r</text>
</g>
</svg>
