<?xml version="1.0" encoding="utf-8"?>
<!-- Generator: Adobe Illustrator 19.0.1, SVG Export Plug-In . SVG Version: 6.00 Build 0)  -->
<svg version="1.1" id="art_manua" xmlns="http://www.w3.org/2000/svg" xmlns:xlink="http://www.w3.org/1999/xlink" x="0px" y="0px"
	 viewBox="-55 292 500 210" style="enable-background:new -55 292 500 210;" xml:space="preserve">
<style type="text/css">
	.st0{fill:#B0759F;}
	.st1{fill:#6D6E70;}
	.st2{fill:#B075A0;}
	.st3{opacity:0.3;fill:#B0759F;enable-background:new    ;}
	.st4{opacity:0.3;fill:#C999BB;enable-background:new    ;}
	.st5{fill:#808285;}
	.st6{font-family:'Andriko';}
	.st7{font-size:89.9595px;}
</style>
<g>
	<path class="st0" d="M46.9,373.8v0.3C15,409.8-10.4,427.6-29,427.6c-4.6,0-7.7-1-9.4-2.9c1.6-2,2.9-3.3,3.7-4.2
		c2.1,1.7,5,2.6,8.6,2.6h2.3c14.5,0,35.1-13.2,61.5-39.6C43.6,377.3,46.6,374,46.9,373.8z M35.4,376.3v0.3
		c-11.5,12.5-20.6,21.5-27.5,26.9c-12.5,9.6-21.8,14.9-27.9,15.6v-0.3c1.7-3.3,4.2-5,7-5c8-2.3,19.3-10,33.6-23
		C21,391,25.8,386,35.4,376.3z M79.1,334.8h0.3c-6.4,18.5-12,38.8-16.7,61.1H63c6-0.7,12.6-1.7,19.6-3.1v0.3c-1.9,3-3.4,4.4-4.7,4.4
		c-8.9,1.4-14.2,2.3-15.6,2.6c-1.4,8.3-2.1,15.6-2.1,22.2c0,11.2,2.6,18.3,7.6,21.6c2,1,3.7,1.6,5.4,1.6h2.6v0.3
		c-1.4,2.7-3.1,4.2-5,4.2h-0.6c-9.4,0-14-8-14-24c0-6.2,1-14.7,2.9-25.6c-4.9,0.6-9.3,0.7-13.3,0.7h-2.6c-6.3,0-10.3-1.1-12-3.4v-1
		c0-0.3,1.3-1.4,3.7-3.7c0,2.1,4.6,3.4,13.9,3.9c7.4-0.1,11.2-0.6,11.2-1.3c4.7-21.2,9.7-39.5,15.2-54.8c-6.6,8.2-10,12.2-10.2,12.3
		v-0.3C72,343.2,76.8,337.2,79.1,334.8z M37.8,373.8v0.3c0,0.3-0.4,0.7-1.3,1.3V375C36.4,374.8,36.8,374.3,37.8,373.8z M39.8,371.3
		v0.3c0,0.3-0.3,0.6-0.7,0.7V372C39.1,371.8,39.3,371.5,39.8,371.3z M41.7,369.3v0.3c0,0.3-0.1,0.6-0.6,0.6v-0.4
		C41.3,369.5,41.4,369.3,41.7,369.3z M43.6,367.2v0.3c0,0.3-0.1,0.6-0.6,0.6v-0.3C43,367.3,43.1,367.2,43.6,367.2z M45.3,365v0.3
		c0,0.3-0.3,0.6-0.7,0.7v-0.3C44.6,365.5,44.9,365.3,45.3,365z M46.9,363.3v0.3c0,0.3-0.3,0.6-0.7,0.7V364
		C46.1,363.8,46.4,363.5,46.9,363.3z M49,371.5v0.3c0,0.3-0.6,0.9-1.9,1.9v-0.3C47.1,373.2,47.7,372.5,49,371.5z M48.1,361.8v0.3
		c0,0.3-0.3,0.6-0.7,0.7v-0.3C47.4,362.2,47.7,361.8,48.1,361.8z M49.6,360.2v0.3c0,0.3-0.3,0.6-0.7,0.7v-0.3
		C48.7,360.5,49,360.3,49.6,360.2z M50.9,369.5v0.3c0,0.3-0.4,0.7-1.3,1.3v-0.3C49.6,370.5,50,370.2,50.9,369.5z M50.9,358.5v0.3
		c0,0.3-0.3,0.6-0.7,0.7v-0.3C50,359,50.3,358.8,50.9,358.5z M52.2,357v0.3c0,0.3-0.3,0.6-0.7,0.7v-0.3
		C51.3,357.5,51.6,357.3,52.2,357z M52.6,367.5v0.3c0,0.3-0.4,0.7-1.3,1.3v-0.3C51.3,368.5,51.7,368,52.6,367.5z M53.4,355.5v0.3
		c0,0.3-0.3,0.6-1,1v-0.3C52.4,356.2,52.7,355.8,53.4,355.5z M54.2,365.5v0.3c0,0.3-0.3,0.6-1,1v-0.3
		C53.2,366.3,53.6,366,54.2,365.5z M54.4,354.2v0.3c0,0.3-0.3,0.6-0.7,0.7v-0.3C53.7,354.5,54,354.5,54.4,354.2z M78.5,322.5v0.3
		c-7.9,11.3-15.7,21.8-23.8,31.1v-0.3C64.9,340.8,72,331,76.3,324.8L78.5,322.5z M55.6,364v0.3c0,0.3-0.3,0.6-0.7,0.7v-0.3
		C54.7,364.5,55,364.3,55.6,364z M57,362.2v0.3c0,0.3-0.3,0.6-1,1v-0.3C56,363,56.4,362.5,57,362.2z M58.4,360.5v0.3
		c0,0.3-0.3,0.6-0.7,0.7v-0.3C57.6,361.2,57.9,360.8,58.4,360.5z M59.7,359v0.3c0,0.3-0.3,0.6-0.7,0.7v-0.3
		C58.9,359.5,59.2,359.3,59.7,359z M61,357.5v0.3c0,0.3-0.3,0.6-1,1v-0.3C60,358.3,60.3,357.8,61,357.5z M63.3,354.5v0.3
		c-1,1.6-1.7,2.3-2.1,2.3v-0.3C62.3,355.5,63,354.8,63.3,354.5z M64.5,353.3v0.3c0,0.3-0.3,0.6-0.7,0.7V354
		C63.6,353.8,63.9,353.5,64.5,353.3z"/>
	<path class="st0" d="M182.5,336h0.6c2.3,0,3.4,3.1,3.4,9.4v6.9c0,12-4.2,25.2-12.3,39.4h10.9c8.9,0,18,0.4,27.6,1.1v0.6l-3.4,4.3
		c-10.9-1-23.5-1.4-37.9-1.4c-3.6,5.4-6.9,9.9-10,13.2V409c3.1-4,6-8.3,8.6-12.6v-0.3c-1.9,0.1-3.3,0.3-4.3,0.3h-3.1
		c-0.7,0-1.4,4.4-2,13.5l0.6-0.3v0.3l-0.6,0.9v3.7c0,3.7,2,7,6,10c1.6,1.7,2.9,2.6,4,2.6h0.6l1.7-1.4v0.3c-2.4,4-4.6,6-6.3,6
		c-3.4-1.3-6.7-4.3-9.7-9.2c-0.4-2.3-0.6-4.2-0.6-5.4v-1.1c0-4.2,0.9-10.7,2.6-19.5c-6.6,0-15.9,1.3-27.9,4c2.1-3.6,4.4-5.4,7.2-5.4
		c9.4-2.1,16.6-3.1,21.6-3.1c4.7-21.3,9.7-37.1,14.9-47.1C177.5,340.3,180.3,337.3,182.5,336z M155.5,416.2v0.3
		c-4.4,5.2-8.3,9-11.5,11.5h-0.3v-0.3C143.8,427,147.6,423.3,155.5,416.2z M178.8,340.5c-4.2,7.6-8.7,21-13.5,40.5
		c-1.1,4.7-1.9,8.4-2.3,10.9h0.3c6.3-0.1,9.4-0.3,9.4-0.6c6.4-12.2,9.7-24.9,9.7-38.2c-0.3-8.4-1.3-12.6-2.9-12.6
		C179.7,340.5,178.8,340.5,178.8,340.5z"/>
	<path class="st1" d="M215.6,424v0.3c-15.3,17.9-28.5,26.9-39.6,26.9c-4.7,0-8.2-1.3-10.4-3.9c1.6-2,2.9-3.3,3.7-4.2
		c2.7,2.4,6.2,3.7,10.2,3.7h1.3C189.7,446.5,201.3,439.2,215.6,424z M216.6,409.3v0.3c-7.9,8.4-14.3,14.3-19.3,17.5
		c-2.7,1.7-4.3,2.6-4.7,2.6c1.1-2.3,4.6-5,10.2-8.3C206.3,418.8,210.9,414.8,216.6,409.3z M217,422.2v0.3c0,0.3-0.3,0.6-1,1v-0.3
		C216,423,216.5,422.5,217,422.2z M218.2,407.5v0.3c0,0.3-0.4,0.7-1.3,1.3v-0.3C216.9,408.5,217.3,408,218.2,407.5z M267,342.3h0.3
		c-2.3,10.9-3.4,20.5-3.4,28.8c0,15.9,4.4,23.8,13.3,23.8c3.9,0,9.6-2.3,17.2-6.7c7.2-11.6,15.5-23.6,24.8-36.1l2.3-2.3h0.3v0.3
		c0,5.4-3.7,13.5-11,24c-6.2,7.6-11.9,13-17,16.7c-11.7,19.2-17.9,33.5-18.6,43.1v1c0,6.2,3,9.2,9.2,9.2h0.6c2.1,0,4.3-0.3,6.3-0.7
		v0.3c-1.9,3-3.6,4.4-5.2,4.4c-1.4,0.3-3.4,0.6-5.7,0.6c-5.3,0-8.3-3.1-8.9-9.4c0-9,6.7-24.6,20-46.8h-0.3
		c-7.3,4.6-13.3,6.7-17.7,6.7h-1c-6.7,0-10.7-6-12-18c-0.1-0.4-0.3-1.7-0.3-3.9V373c0-5.4,0.7-12.3,2.1-20.6
		c-8.6,16.3-18.3,32.8-29.2,49.7c-5.7,8-11,14.7-15.6,20v-0.3c15.6-20.6,29.3-42.4,41.1-65.7c3.7-7.7,6.2-11.9,7.3-12.6L267,342.3z
		 M256.5,332.8v0.3c0,2.9-3.7,13.2-11,30.8c-5.3,11.9-11.9,23.5-19.9,34.8c-4.6,5.6-6.9,8.3-7,8.3v-0.3
		c9.9-13.2,16.9-24.6,21.2-34.5c4.3-9.3,8.6-20.6,12.7-33.9C252.7,336.7,254,335,256.5,332.8z M317.7,354.8
		c-12.4,17.7-19.4,28.3-21.2,31.9c8.6-5.2,15.3-13.6,19.9-25.6c1-3.6,1.6-5.6,1.6-6v-0.3H317.7z"/>
	<path class="st1" d="M310.2,398.3h2.6c0.4,0,0.6,0.3,0.6,0.6c-2.4,2.9-3.7,4.3-4,4.3h-3.1c-4.9,0-9.7,2.1-14.3,6.6
		c-1.6,2.4-2.3,4.7-2.3,6.9v1.9c0,4.3,2.4,7.2,7.2,8.6h0.6c5.6,0,10.6-6.4,14.9-19.2c0.9-1.6,2.4-3.6,4.9-6v0.3
		c-4.6,11-6.9,18-6.9,21.2c0,2.7,1.4,4,4.3,4c0.3,0,1.6-1,3.7-3.1h0.3v0.3c-3.1,5.2-5.9,7.7-8.3,7.7c-2.7-0.3-4-1.4-4-3.7v-0.3
		c0-2.4,0.4-4.9,1.1-7.2v-0.3h-0.3c-5.4,7.4-10,11.2-13.7,11.2c-5.3-1.6-8-4.2-8-8V421c0-4.7,4.9-11.2,14.6-19.2
		C303.9,399.3,307.3,398.3,310.2,398.3z"/>
	<path class="st1" d="M346,398.5h1.1c2.4,0,3.7,1.4,4,4.3v1.3c0,2.9-2,9-6,18.3c-0.4,0.7-0.6,1.9-0.6,3.1c0,0.7,0.4,1.3,1.1,1.7h1.1
		c0.9,0,2.1-0.7,3.7-2.3v0.3c-3.7,4.6-6.3,6.9-7.7,6.9h-1.1c-0.3,0-0.7-0.4-1.1-1.1v-0.9c0-1.9,1.7-7,5.2-15.5
		c1-2.7,1.4-5.2,1.4-7.2c-0.3-2.9-1.7-4.3-4-4.3c-3.3,0-5.7,2.4-7.2,7.4c0,3.9-1.9,9.4-5.7,16.6c-2,2.3-3.4,3.4-4,3.7h-0.6
		c-0.6-0.1-0.9-0.7-0.9-1.7c0-1.3,2.4-6.7,7.4-16.3v-2c0-4.6-1.4-6.9-4.3-6.9c-1.6,0-3.3,1.1-5.2,3.4c0,0.9-1.1,2.1-3.4,4V411
		c5.3-7.9,9.3-11.7,12-11.7h2.3c1.7,1,2.6,2.9,2.6,5.7v2C340.8,401.3,344,398.5,346,398.5z M330.4,420.2c-1,2.6-1.4,4.2-1.4,4.6v0.3
		h0.3c0-0.6,0.4-2.1,1.4-4.6v-0.3H330.4z"/>
	<path class="st1" d="M387.4,398.3c0.1,0.4,0.3,0.7,0.3,0.9c-1,6-4.3,13.2-10,21.6v0.9c0,4,2.1,6,6.3,6c1.1-0.4,2.6-1.4,4-2.9v0.3
		c-3.9,4.7-6.6,7.2-8.3,7.2h-1.4c-2.7,0-4.3-2.1-4.9-6.3c-4.2,4.2-7.6,6.3-10,6.3H362c-3.6-1-5.4-4-5.4-9.2v-1.7
		c0-5.9,3.4-12.6,10.3-20v0.3c-4.2,6.3-6.3,11.7-6.3,16c0,5.9,2.1,9.2,6.3,10c4.6-1,6.9-2.6,6.9-4.6c0.7-6.2,4-13.2,10-21.2
		C385.4,399.3,386.6,398.3,387.4,398.3z M367.5,400v0.3c0,0.4-0.1,0.6-0.6,0.6v-0.3C366.9,400.3,367.2,400,367.5,400z M382.9,403.8
		c-3.4,7.4-5.2,12.2-5.2,14v0.3h0.3c3.4-7.7,5.2-12.5,5.2-14v-0.3C383.2,403.8,382.9,403.8,382.9,403.8z"/>
	<path class="st1" d="M417.8,398.3h2.6c0.4,0,0.6,0.3,0.6,0.6c-2.4,2.9-3.7,4.3-4,4.3h-3.1c-4.9,0-9.7,2.1-14.3,6.6
		c-1.6,2.4-2.3,4.7-2.3,6.9v1.9c0,4.3,2.4,7.2,7.2,8.6h0.6c5.6,0,10.6-6.4,14.9-19.2c0.9-1.6,2.4-3.6,4.9-6v0.3
		c-4.6,11-6.9,18-6.9,21.2c0,2.7,1.4,4,4.3,4c0.3,0,1.6-1,3.7-3.1h0.3v0.3c-3.1,5.2-5.9,7.7-8.3,7.7c-2.7-0.3-4-1.4-4-3.7v-0.3
		c0-2.4,0.4-4.9,1.1-7.2v-0.3h-0.3c-5.4,7.4-10,11.2-13.7,11.2c-5.3-1.6-8-4.2-8-8V421c0-4.7,4.9-11.2,14.6-19.2
		C411.5,399.3,415.1,398.3,417.8,398.3z"/>
	<g>
		<path class="st2" d="M-43.6,471.5c0,0,7.4-0.9,20.5-2.1c6.4-0.6,14.5-1.4,23.5-2.1c4.6-0.4,9.3-0.9,14.5-1.3
			c5.2-0.4,10.4-0.7,16-1.1c11.2-0.9,23.3-1.6,36.1-2.4c6.4-0.4,13-0.7,19.8-1.1c6.7-0.3,13.6-0.7,20.6-1c14-0.6,28.5-1.3,43.1-1.7
			c7.3-0.3,14.7-0.4,22.2-0.7c7.4-0.1,14.9-0.3,22.3-0.4c7.4-0.1,14.9-0.3,22.3-0.3c7.4,0,14.9,0,22.2,0c14.7-0.1,29.2,0.3,43.1,0.4
			c14,0.1,27.5,0.7,40.4,1.1c6.4,0.1,12.6,0.4,18.6,0.6c6,0.3,11.9,0.6,17.5,0.9c11.2,0.6,21.5,1.1,30.5,1.7c9,0.7,17,1.3,23.5,1.7
			c13,1,20.5,1.6,20.5,1.6s-7.4-0.4-20.5-1.3c-6.4-0.4-14.5-0.9-23.5-1.6c-9-0.4-19.3-0.9-30.5-1.4c-5.6-0.3-11.5-0.6-17.5-0.9
			c-6-0.1-12.3-0.3-18.6-0.6c-12.9-0.4-26.3-0.9-40.4-0.9c-14-0.1-28.5-0.4-43.1-0.3c-7.3,0-14.7,0-22.2,0s-14.9,0.3-22.3,0.3
			c-7.4,0.1-14.9,0.1-22.3,0.3c-7.4,0.1-14.9,0.4-22.2,0.6c-14.7,0.3-29.1,1-43.1,1.4c-7,0.3-13.9,0.7-20.6,1s-13.3,0.6-19.8,1
			c-12.7,0.7-24.9,1.4-36.1,2.3c-11.2,0.7-21.3,1.6-30.5,2.1c-9,0.7-17,1.4-23.5,1.9C-36.2,470.7-43.6,471.5-43.6,471.5z"/>
	</g>
	<path class="st3" d="M112.8,411.7c0,0-11.9,0.7-18.5-13.2c-6.6-14-4.3-27.3-1.3-34.8s5.7-11,6-12.5c0.3-1.6,1,10.2,5.6,14.6
		C109.4,370.5,124.3,396,112.8,411.7z"/>
	<path class="st4" d="M113.1,411.3c0,0,5.3-11.5,0.9-29.1c-4.4-17.5-6.3-29.2-5.7-30.5s-7,10.3-4.4,20.2
		C106.3,381.8,115.3,402.5,113.1,411.3z"/>
	<path class="st4" d="M113.3,411.3c0,0,0-14.9-10.7-29.5c-10.7-14.6-16.7-25.2-16.7-26.9c0-1.7-1.9,14.7,4.2,22.9
		C95.8,386,111.7,401,113.3,411.3z"/>
	<path class="st4" d="M113,410.7c0,0-3.6-12.9-15.3-19.3c-11.9-6.4-19-11.7-19.5-13.2c-0.4-1.4,2,13.9,8.7,17.5
		C93.4,399,109.4,402.7,113,410.7z"/>
	<path class="st3" d="M110.4,416.3c0,0-10.6-10.7-16.7-7.7c-6.2,3-9.9,20.3-12,22.2c-2.1,1.7,7-2.1,12.5,0.3
		C99.2,433.5,111,428.5,110.4,416.3z"/>
	<path class="st4" d="M109.7,416.3c2.1-0.4-9.3-0.6-16.3-3.3c-6.9-2.7-16.2,6.3-17,7c-0.9,0.9,4.3-3.9,14.2-0.1
		C100.4,423.7,107.4,416.7,109.7,416.3z"/>
	<path class="st4" d="M110.1,416.3c1.4-1.6-9.4,6.7-17.2,9.2c-7.7,2.6-14.5,20-14.6,20.6c-0.1,0.6,3-7.4,14-11.2
		C103.3,431.1,108.7,418,110.1,416.3z"/>
	<g>
		<path class="st5" d="M118.3,398.3c0,0,0.3-0.1,0.7-0.4c0.4-0.3,1.1-0.7,1.9-1.4c0.4-0.3,0.9-0.7,1.3-1.1c0.4-0.4,1-0.9,1.4-1.3
			c0.4-0.6,1-1,1.6-1.6c0.6-0.6,1-1.3,1.6-1.9c0.6-0.6,1-1.4,1.6-2.1c0.4-0.7,1.1-1.6,1.6-2.4c0.4-0.9,0.9-1.7,1.4-2.7
			c0.4-1,0.9-1.9,1.1-2.9c1.4-4,2.4-8.6,2.4-13.2c0-2.3-0.3-4.6-1.1-6.4c-0.9-2-2.6-3.1-4.7-3.1c-1,0-2,0.1-2.9,0.6s-1.4,1.1-1.9,2
			c-0.7,1.7-0.7,3.6-0.1,5.2c0.4,1.6,1.3,3,2.6,3.3c0.6,0.1,1.1-0.1,1.7-0.4c0.4-0.4,0.9-0.9,1.1-1.1c0.6-0.9,0.9-1.6,1.1-2
			c0.3-0.4,0.3-0.7,0.3-0.7s-0.1,0.3-0.3,0.9c-0.1,0.6-0.4,1.3-1,2.1c-0.3,0.4-0.6,0.9-1,1.3c-0.4,0.4-1.1,0.9-2,0.7
			c-0.9-0.2-1.4-0.7-2-1.3c-0.6-0.7-0.9-1.4-1.3-2.3c-0.6-1.7-0.7-3.7,0-5.9c0.4-1,1.1-2,2.1-2.6c1-0.6,2.1-0.9,3.4-0.9
			c1.1,0,2.4,0.3,3.4,1s1.9,1.7,2.4,2.9c1,2.3,1.3,4.7,1.4,7c0,2.4-0.3,4.7-0.7,7c-0.4,2.3-1.1,4.4-1.9,6.6c-0.4,1-0.9,2-1.3,3
			c-0.6,0.9-1,1.9-1.6,2.7c-0.4,0.9-1.1,1.7-1.7,2.4c-0.6,0.7-1.1,1.6-1.7,2.1c-0.6,0.7-1.1,1.3-1.7,1.9c-0.6,0.6-1.1,1-1.7,1.6
			c-0.6,0.4-1,0.9-1.6,1.3c-0.4,0.4-0.9,0.7-1.4,1c-0.9,0.6-1.6,1-2,1.3C118.6,398.3,118.3,398.3,118.3,398.3z"/>
	</g>
	<text transform="matrix(0.5939 8.967940e-002 -0.1493 0.9888 111.0875 431.7982)" class="st0 st6 st7">r</text>
</g>
</svg>
