<?xml version="1.0" encoding="utf-8"?>
<!-- Generator: Adobe Illustrator 19.0.1, SVG Export Plug-In . SVG Version: 6.00 Build 0)  -->
<svg version="1.1" id="Layer_1" xmlns="http://www.w3.org/2000/svg" xmlns:xlink="http://www.w3.org/1999/xlink" x="0px" y="0px"
	 viewBox="0 0 500 434" style="enable-background:new 0 0 500 434;" xml:space="preserve">
<style type="text/css">
	.st0{fill:#3F403F;}
	.st1{fill:#6B6B6A;}
</style>
<g>
	<path class="st0" d="M313.7,187.5c2.1-5.2,4-10.1,6-15.1c3.1-7.9,5-16.2,6.1-24.7c0.8-6.3,0.9-12.7,0.6-19
		c-0.8-15.4-5.4-29.3-16.3-40.7c-7.6-8-16.9-13.1-27.4-16.3c-8.5-2.5-17.2-3.8-26-3.9c-7.2-0.1-14.3,0-21.4,1.1
		c-12.7,1.9-24.7,5.8-35,13.8c-10.6,8.2-17.3,19-20,32.2c-1.9,9.5-1.7,18.9,0,28.4c1,5.5,1,5.5,6.6,5.5c14.5,0,28.9,0,43.4,0
		c0.8,0,1.6,0,2.5,0c0.8,0,1.1-0.4,1.1-1.1c0-0.7,0-1.4,0-2.2c0-8,0-16,0-24c0-3.1,0-3.1,3-3.1c8.6,0,17.2,0,25.8,0
		c2.8,0,3.1-0.6,3.1,2.9c0,15.3,0,30.5,0,45.8c0,1.8-0.5,2.8-2.2,3.5c-12.4,5.2-24.9,10.4-37.3,15.7c-1.6,0.7-3.1,0.9-4.8,0.9
		c-21,0-42,0-63,0c-2.5,0-2.5,0-3.3-2.3c-3.7-10.9-6.1-22.1-7.7-33.4c-1.6-11.4-2.2-22.8-1.5-34.3c0.9-14.8,3.8-29.2,10.4-42.6
		c8-16.2,20.2-28.2,36.2-36.3c11.3-5.7,23.3-9.3,35.8-11.2c14.1-2.1,28.2-2.3,42.3-0.6c18.5,2.2,35.6,8.3,50.7,19.4
		c15.8,11.7,26.5,27.1,33,45.5c6.3,17.8,7.7,36.2,6.2,54.8c-0.8,10-2.6,19.9-5.6,29.5c-1.1,3.4-2.2,6.8-3.1,10.2c-0.4,1.4-1,2-2.6,2
		c-11.5-0.1-23,0-34.4-0.1C314.6,187.9,314.3,187.7,313.7,187.5z"/>
	<path class="st0" d="M313.7,193.5c2.1,5.2,4,10.1,6,15.1c3.1,7.9,5,16.2,6.1,24.7c0.8,6.3,0.9,12.7,0.6,19
		c-0.8,15.4-5.4,29.3-16.3,40.7c-7.6,8-16.9,13.1-27.4,16.3c-8.5,2.5-17.2,3.8-26,3.9c-7.2,0.1-14.3,0-21.4-1.1
		c-12.7-1.9-24.7-5.8-35-13.8c-10.6-8.2-17.3-19-20-32.2c-1.9-9.5-1.7-18.9,0-28.4c1-5.5,1-5.5,6.6-5.5c14.5,0,28.9,0,43.4,0
		c0.8,0,1.6,0,2.5,0c0.8,0,1.1,0.4,1.1,1.1c0,0.7,0,1.4,0,2.2c0,8,0,16,0,24c0,3.1,0,3.1,3,3.1c8.6,0,17.2,0,25.8,0
		c2.8,0,3.1,0.6,3.1-2.9c0-15.3,0-30.5,0-45.8c0-1.8-0.5-2.8-2.2-3.5c-12.4-5.2-24.9-10.4-37.3-15.7c-1.6-0.7-3.1-0.9-4.8-0.9
		c-21,0-42,0-63,0c-2.5,0-2.5,0-3.3,2.3c-3.7,10.9-6.1,22.1-7.7,33.4c-1.6,11.4-2.2,22.8-1.5,34.3c0.9,14.8,3.8,29.2,10.4,42.6
		c8,16.2,20.2,28.2,36.2,36.3c11.3,5.7,23.3,9.3,35.8,11.2c14.1,2.1,28.2,2.3,42.3,0.6c18.5-2.2,35.6-8.3,50.7-19.4
		c15.8-11.7,26.5-27.1,33-45.5c6.3-17.8,7.7-36.2,6.2-54.8c-0.8-10-2.6-19.9-5.6-29.5c-1.1-3.4-2.2-6.8-3.1-10.2c-0.4-1.4-1-2-2.6-2
		c-11.5,0.1-23,0-34.4,0.1C314.6,193.2,314.3,193.3,313.7,193.5z"/>
	<g>
		<path class="st1" d="M73.3,387.4l-3,1.8c-2.2-1.4-4.5-2.4-7.1-3.1c-2.6-0.7-5.1-1.1-7.5-1.1c-3,0-5.9,0.5-8.7,1.4
			c-2.7,1-4.9,2.3-6.4,3.9c-1.5,1.6-2.3,3.4-2.3,5.2c0,1.9,0.8,3.7,2.3,5.3c1.6,1.7,3.7,3,6.5,4c2.8,1,5.8,1.4,9,1.4
			c4,0,7.3-0.7,10.1-2.2c2.8-1.4,4.4-3.3,4.9-5.6H58.9v-2.4h16.7c0,3.9-1.8,6.9-5.3,9.2s-8.2,3.4-14.1,3.4c-7.2,0-12.8-1.6-17-4.7
			c-3.2-2.4-4.8-5.2-4.8-8.4c0-2.4,0.9-4.6,2.8-6.6c1.8-2,4.4-3.6,7.6-4.8s6.8-1.7,10.9-1.7c3.3,0,6.4,0.4,9.3,1.1
			C67.7,384.5,70.6,385.7,73.3,387.4z"/>
		<path class="st1" d="M91.9,389h-3.9c0.7-2.1,2.1-3.6,4.1-4.7c2-1.1,4.4-1.7,7.2-1.7c2,0,3.9,0.3,5.6,0.9c1.7,0.6,3.1,1.4,4,2.4
			c1,1,1.4,2.1,1.4,3.2c0,2.1-1.7,3.8-5,5.1c1.9,0.5,3.4,1.2,4.6,2.1c1.7,1.3,2.5,2.8,2.5,4.4c0,1.4-0.6,2.8-1.7,4
			c-1.2,1.3-2.7,2.3-4.7,3c-2,0.7-4.2,1.1-6.7,1.1c-3.3,0-6.1-0.6-8.3-1.9c-2.2-1.2-3.7-3.1-4.4-5.5h3.8c0.7,1.6,1.6,2.8,2.9,3.5
			c1.6,0.9,3.6,1.4,6.1,1.4c2.8,0,5.1-0.5,6.8-1.6c1.7-1.1,2.6-2.4,2.6-3.8c0-1-0.4-1.9-1.3-2.7c-0.9-0.8-2-1.5-3.4-1.9
			c-1.4-0.4-3.6-0.7-6.6-0.8v-2.3c1.8,0,3.4-0.2,4.8-0.6c1.5-0.4,2.5-0.9,3.2-1.5c0.7-0.6,1-1.3,1-2c0-1.1-0.7-2-2-2.8
			c-1.3-0.8-3-1.2-5.1-1.2c-1.7,0-3.1,0.3-4.3,0.9C93.7,386.5,92.7,387.6,91.9,389z"/>
		<path class="st1" d="M147.1,408.2v-24.9h0.8l25.7,19.1v-19.1h3.8v24.9h-0.9l-25.5-18.9v18.9H147.1z"/>
		<path class="st1" d="M193.4,383.2h22.2v2.4h-18.3v7.8h18.1v2.4h-18.1v9.8h18.1v2.4h-22V383.2z"/>
		<path class="st1" d="M224.9,385.7v-2.4h21.2v2.4h-8.6v22.5h-3.9v-22.5H224.9z"/>
		<path class="st1" d="M255.9,383.2h4l7.9,18l11.1-18h0.8l11,18l8-18h3.9l-11.1,24.9h-0.7l-11.5-18.9l-11.7,18.9h-0.7L255.9,383.2z"
			/>
		<path class="st1" d="M334.7,382.6c5.9,0,10.8,1.3,14.7,3.8s5.9,5.6,5.9,9.3c0,3.7-2,6.7-5.9,9.3s-8.7,3.8-14.4,3.8
			c-5.7,0-10.6-1.3-14.5-3.8c-3.9-2.5-5.9-5.6-5.9-9.2c0-2.4,0.9-4.6,2.7-6.7c1.8-2,4.2-3.6,7.4-4.8
			C327.7,383.2,331.1,382.6,334.7,382.6z M334.9,385c-2.9,0-5.6,0.5-8.1,1.4c-2.6,1-4.6,2.3-6,3.9s-2.2,3.4-2.2,5.4
			c0,3,1.6,5.5,4.8,7.5c3.2,2,7,3.1,11.5,3.1c3,0,5.8-0.5,8.3-1.4c2.6-0.9,4.5-2.2,6-3.9c1.4-1.6,2.1-3.4,2.1-5.4
			c0-2-0.7-3.8-2.1-5.4c-1.4-1.6-3.4-2.9-6-3.8C340.5,385.5,337.8,385,334.9,385z"/>
		<path class="st1" d="M369.8,383.2h7.7c4.3,0,7.2,0.1,8.7,0.3c2.3,0.3,4.2,1.1,5.6,2.2c1.4,1.1,2.2,2.5,2.2,4.1
			c0,1.4-0.5,2.6-1.5,3.6c-1,1-2.4,1.8-4.2,2.3c-1.8,0.5-4.4,0.8-7.6,0.8l13.9,11.6h-4.8l-13.9-11.6h-2.2v11.6h-3.9V383.2z
			 M373.6,385.7v8.5l6.7,0c2.6,0,4.5-0.2,5.7-0.5c1.2-0.3,2.2-0.8,2.9-1.5c0.7-0.7,1-1.5,1-2.3c0-0.8-0.4-1.6-1.1-2.3
			c-0.7-0.7-1.6-1.2-2.8-1.5c-1.1-0.3-3-0.4-5.7-0.4H373.6z"/>
		<path class="st1" d="M408.7,383.2h3.9v9.4l15.5-9.4h5.2l-18.6,11.2l20,13.7h-5.1l-17-11.6v11.6h-3.9V383.2z"/>
		<path class="st1" d="M443,403.5l3.3-1.3c2.3,2.7,5,4.1,8,4.1c1.3,0,2.5-0.2,3.7-0.6c1.1-0.4,2-0.9,2.6-1.6
			c0.6-0.7,0.9-1.4,0.9-2.1c0-0.8-0.4-1.7-1.3-2.5c-1.2-1.1-3.4-2.4-6.6-4c-3.2-1.6-5.2-2.7-6-3.4c-1.4-1.2-2-2.4-2-3.8
			c0-1.1,0.4-2.1,1.2-3c0.8-0.9,1.9-1.6,3.4-2.1c1.5-0.5,3.1-0.8,4.8-0.8c1.8,0,3.5,0.3,5.1,0.9c1.6,0.6,3.3,1.7,5,3.2l-3.2,1.5
			c-1.5-1.2-2.7-2.1-3.7-2.5c-1-0.4-2.1-0.6-3.4-0.6c-1.6,0-2.8,0.3-3.8,0.9c-1,0.6-1.5,1.4-1.5,2.3c0,0.5,0.2,1.1,0.5,1.6
			c0.4,0.5,1,1.1,1.9,1.7c0.5,0.3,2.2,1.1,5,2.5c3.3,1.6,5.6,3,6.9,4.3c1.2,1.2,1.9,2.5,1.9,3.7c0,1.8-1.1,3.4-3.2,4.7
			c-2.1,1.3-4.7,2-7.8,2c-2.3,0-4.5-0.4-6.4-1.2C446.4,406.8,444.6,405.4,443,403.5z"/>
	</g>
</g>
</svg>
