<?xml version="1.0" encoding="utf-8"?>
<!-- Generator: Adobe Illustrator 19.0.1, SVG Export Plug-In . SVG Version: 6.00 Build 0)  -->
<svg version="1.1" id="letter_E_logo" xmlns="http://www.w3.org/2000/svg" xmlns:xlink="http://www.w3.org/1999/xlink" x="0px"
	 y="0px" viewBox="-55 220 500 354" style="enable-background:new -55 220 500 354;" xml:space="preserve">
<style type="text/css">
	.st0{fill:none;stroke:#FFFFFF;stroke-miterlimit:10;}
	.st1{display:none;}
	.st2{enable-background:new    ;}
	.st3{fill:#6D6E71;}
	.st4{fill:#A4A940;}
</style>
<path class="st0" d="M-3079.8,578.8"/>
<g id="Layer_3">
</g>
<path class="st1" d="M-2652.2,477.9c-0.1-1.2-0.1-2.5-0.2-3.7c-1.5-3.7-0.4-6.9,2.2-9.7c5.3-2.7,10.4-2.8,15.1,1.1
	c-3.9-4.6-8.7-4.7-14-2.5c-0.8,0.4-1.6,0.8-2.3,1.5c-3,2.6-2.7,6.3-3.6,9.6c0,0.4,0,0.9,0.1,1.3c0.2,0.6,0.3,1.3,0.6,1.9
	c-0.3,0.6,0.9,1.7-1,1.9c-5.2,0.5-10.4,1.3-15.5,2.2c-2.5,0.4-2.2-0.3-1.7-2c1.1-3.4,2.2-6.9,1.5-10.6c-0.3-1.5-0.5-3-2.2-3.6
	c-3.7-1-6.7,0.8-9.6,2.5c-3.5,2-6.3,4.8-8.8,8.4c3.6-3.2,6.6-6.3,10.8-8.1c2.1-0.9,4.2-1.7,6.4-0.3c1.8,1.6,1.7,3.8,1.2,5.7
	c-2.8,10.7-6.7,20.9-13.1,30.2c-1.7,2.4-3.6,4.8-7.4,3.5c-3-1-3.4-1.8-1.7-4.3c3.1-4.7,6-9.5,5.5-15.8c-5.5,1.7-10.8,2.9-16.3,3.5
	c-4.3,0.5-8.5,0.3-12.1-2.4c-0.6-0.4-1.4-0.8-2.1-0.8c-10.4,0-19.4-3.4-26.7-10.5c0-0.9,0-1.7,0-2.6c3.9-1.8,8.1-0.5,12.1-1.3
	c0.8,0,1.5,0,2.4-0.1c-0.4-0.4-0.5,0.1-0.7,0.1c-2,0.1-4,0-6,0.3c-0.3,0-0.7,0-1,0c-6.8,0-7.6-1.1-4.6-7.1c1.7-3.3,3.4-6.5,4.1-10.3
	c0.9-4.8,6.7-7,11.4-4.6c2.4,1.2,4.3,1.1,6.6-0.1c4-2.1,8.4-3.5,12.7-5c1.6-0.5,3.2-0.9,4.9-1c3.9-0.1,4.6,0.6,4.5,4.4
	c-1,3.9-1.5,7.9-3.4,11.5c-0.3,0.7-0.7,1.4-1,2.1c-0.4,1.1-0.7,2.2-1.4,3.1c0.1,0.2-0.4,0.3-0.1,0.5c0-0.2,0.1-0.3,0.2-0.5
	c0.3-0.8,0.8-1.4,0.9-2.2c0.4-0.8,0.7-1.6,1.1-2.4c1.7-3.9,3.6-7.8,4-12.1c-0.3-3.1,1.3-5.2,4-6.8c9.3-5.8,19.5-9.5,30.5-10.9
	c0.6-0.1,1.1-0.2,1.5-0.6c5.8,0,11.7,0,17.5,0c4.5,0.8,9,0.5,13.5,2c21.1,6.8,35.1,24.1,36.4,45.3c0.1,1.6,0,3.2,0.6,4.7
	c0,1.3,0,2.6,0,3.9c-0.6,1.3-0.6,2.6,0,3.8c0,8.6,0,17.1,0,25.7c-0.8,6.7-1.8,13.3-3.9,19.7c-3.5,10.4-8.3,20-16.3,28
	c-6.1,6.1-13.1,10.6-22.2,11.3c-3.6,0-7.2,0-10.8,0c-5.2-1.5-10.2-3.4-13.9-7.6c-5.1-5.8-5.2-16.2,0-22.7c5.1-6.3,14.7-9.1,21.2-6.2
	c9.7,4.3,11.6,16.7,3.5,22.6c-2.6,1.9-5.4,1.8-8.2,0.6c-2.8-1.2-4.8-3.2-5.3-6.2c-0.4-2.6,1.4-5.3,3.7-5.8s3.8,0.4,5,3.2
	c-1.5,0.3-3-1.3-4.4-0.1c-1.4,1.1-0.9,4.2,0.8,5.4c2.2,1.5,5.9,0.9,7.4-1.2c2.4-3.4,2.1-7.7-0.7-11.5c-2-2.6-5.5-3.4-9.6-2.7
	c-8.4,1.6-12.5,8.1-10.9,15.2c1.6,7.4,9.2,12.2,17.1,10.9c5.5-0.9,10.4-3.1,14.4-6.9c0.3-0.6,0.6-1.1,1.4-1.2
	c5.8-3.9,8.5-9.8,10.6-15.9c4.9-13.9,6.6-28,3.4-42.5c-2.1-9.6-6.1-18-16.2-22.5c-2.3-1-4.6-1.4-7.4-1.8c1.7,6.3,3.4,12.4,3.8,18.8
	c0.3,4.1,0.3,8.1-1.7,11.8c-0.9,1.7-2.6,2.4-4.3,2.8c-2.1,0.4-3.2-1-3.3-2.8c-0.6-9-5.7-16.6-7.8-25.1
	C-2651.8,482.3-2651.9,480.1-2652.2,477.9z M-2712.7,512.7c2.3,1.3,4.7,0,7.5,0.4c-2,2.1-3.8,4.1-5.6,6c0.5,1.7,1.6,0.8,2.5,0.5
	c1.6-0.6,2.9-1.6,4.3-2.4c-0.1,2.1-2.7,3.4-1.4,5.7c2.4-1.2,3.7-3.5,5.7-5.1c1.1-0.9,1.8-1.2,1.5,0.7c-0.5,1.1,0.1,2.3-0.5,3.4
	c-0.1,0.7-0.2,1.5-0.3,2.2c3.4-4.4,6.4-9,9.1-13.8c0.7-1.3-0.3-1.4-1.6-1.2c-2.2,0.3-4.7,0-5.6-1.9c-1.3-2.7-3.2-2.3-5.4-1.8
	c-1.6,0.3-3.3,0.4-4.9,0.7c-0.5,0.1-1.8-0.6-1.5,0.9c0.6,1.2,1.9,0.6,2.8,1.1c1.4-0.1,1.3,0.6,0.4,1.1c-1.8,1-3.6,1.9-5.5,2.8
	C-2711.5,512.4-2712.4,512.1-2712.7,512.7z M-2652.2,518.5c-1.4,1.6-2.8,3.2-4.6,5.2c3.3-0.5,5.2-2.5,7.6-3c1,1.1-0.5,1.7-0.4,2.6
	c-0.3,0.8,0.1,1.3,0.8,1.6c1.3-0.3,1.6-2.6,3.1-1.7c1.4,0.8-0.9,1.9-0.3,3c0.2,0.3-0.4,0.8,0.5,1c3.3-4.6,6.5-9.2,10.2-14.4
	c-3.1,0.6-6.4,1.8-7.6-0.6c-1.8-3.4-4.2-2.6-6.8-2.2c-1.7,0.3-3.4,0.6-5.8,1c2,0.8,3.3,1.3,5.1,2c-2.8,1.5-5.3,2.8-8.6,4.6
	c1.7,0,2.5,0,3.3,0C-2654.5,517.8-2652.9,516.4-2652.2,518.5z M-2651.5,527.3c1.3-0.5,2-1.4,2.6-2.3c-0.3-0.5-0.5-1.1-0.8-1.6
	C-2650.6,524.5-2651.2,525.7-2651.5,527.3z M-2732.9,454.4c-2,0-2.9,1.3-2.9,3.1c0.1,2,1.6,2.7,3.4,2.7c1.8-0.1,2.8-1.2,2.8-3
	C-2729.9,455.4-2731,454.4-2732.9,454.4z"/>
<g>
	<g id="typography">
		<g class="st2">
			<path class="st3" d="M-34.4,502.7h23.7l2.7,7.7l-1.8,0.7c-0.5-1.3-1-2.2-1.5-3c-0.5-0.7-1.2-1.3-2-1.8s-1.5-0.8-2.3-1
				s-2.2-0.3-4.2-0.3h-7.1v10.7h3.5c1.3,0,2.3-0.2,2.9-0.7c0.7-0.4,1.1-1,1.4-1.6c0.2-0.5,0.3-1.3,0.3-2.5v-0.5h2v12.8h-2v-1.1
				c0-1-0.1-1.7-0.2-2.1c-0.1-0.4-0.4-0.8-0.8-1.2s-0.8-0.6-1.3-0.8c-0.5-0.1-1.2-0.2-2.3-0.2h-3.5v9.5c0,1,0,1.6,0.1,1.8
				s0.2,0.4,0.4,0.5s0.8,0.1,1.7,0.1h4.4c2.4,0,4.3-0.3,5.7-0.9c1.4-0.6,2.6-1.5,3.6-2.7c0.8-0.9,1.6-2.3,2.4-4l1.9,0.7l-3.3,9.1
				h-24.4v-1.8h0.8c1,0,1.6-0.1,1.8-0.2c0.4-0.2,0.6-0.5,0.8-0.9c0.1-0.3,0.2-0.9,0.2-1.8v-20.1c0-0.9-0.1-1.5-0.3-1.8
				s-0.5-0.5-0.9-0.7c-0.2-0.1-1.1-0.1-2.5-0.1L-34.4,502.7L-34.4,502.7z"/>
			<path class="st3" d="M-3.6,504.4v-1.8H6.8c4.8,0,8.1,0.3,10,0.9c2.8,0.9,5,2.5,6.7,4.9c1.9,2.6,2.9,5.7,2.9,9.1
				c0,2.3-0.5,4.5-1.4,6.5s-2.2,3.6-3.7,4.9c-1.3,1-2.8,1.8-4.6,2.2s-3.6,0.6-5.4,0.6H-3.6v-1.8h1.2H-2c0.5,0,0.9-0.1,1.3-0.3
				s0.6-0.5,0.7-0.8s0.1-0.9,0.1-1.8v-19.5c0-1.1-0.1-1.8-0.2-2.1c-0.2-0.4-0.5-0.7-0.9-0.9C-1.3,504.4-2.1,504.4-3.6,504.4z
				 M4,529.6h6.3c0.6,0,1.7-0.1,3.1-0.3c1.5-0.2,2.5-0.5,3.1-0.8c0.9-0.5,1.8-1.2,2.7-2.3s1.5-2.3,2-3.8s0.7-3.2,0.7-5
				c0-1.9-0.2-3.5-0.7-4.9c-0.5-1.4-1.2-2.6-2.1-3.7s-2-1.9-3.1-2.5s-2.4-0.9-3.9-1.1c-0.8-0.1-2-0.1-3.8-0.1H4V529.6z"/>
			<path class="st3" d="M30.6,502.7h23.7l2.7,7.7l-1.8,0.7c-0.5-1.3-1-2.2-1.5-3c-0.5-0.7-1.2-1.3-2-1.8c-0.8-0.5-1.5-0.8-2.3-1
				c-0.8-0.2-2.2-0.3-4.2-0.3h-7.1v10.7h3.5c1.3,0,2.3-0.2,2.9-0.7c0.7-0.4,1.1-1,1.4-1.6c0.2-0.5,0.3-1.3,0.3-2.5v-0.5h2v12.8h-2
				v-1.1c0-1-0.1-1.7-0.2-2.1c-0.1-0.4-0.4-0.8-0.8-1.2c-0.4-0.4-0.8-0.6-1.3-0.8c-0.5-0.1-1.2-0.2-2.3-0.2h-3.5v9.5
				c0,1,0,1.6,0.1,1.8s0.2,0.4,0.4,0.5c0.2,0.1,0.8,0.1,1.7,0.1h4.4c2.4,0,4.3-0.3,5.7-0.9c1.4-0.6,2.6-1.5,3.6-2.7
				c0.8-0.9,1.6-2.3,2.4-4l1.9,0.7l-3.3,9.1H30.6v-1.8h0.8c1,0,1.6-0.1,1.8-0.2c0.4-0.2,0.6-0.5,0.8-0.9c0.1-0.3,0.2-0.9,0.2-1.8
				v-20.1c0-0.9-0.1-1.5-0.3-1.8c-0.2-0.3-0.5-0.5-0.9-0.7c-0.2-0.1-1.1-0.1-2.5-0.1L30.6,502.7L30.6,502.7z"/>
			<path class="st3" d="M61.2,502.7h8.9l13.2,21.8v-16.6c0-1-0.1-1.7-0.3-2.1c-0.2-0.4-0.5-0.8-0.9-1s-1-0.3-1.7-0.3h-0.8v-1.8h9.7
				v1.8h-0.5c-0.9,0-1.4,0.1-1.7,0.2c-0.4,0.2-0.8,0.6-1,1.1s-0.3,1.2-0.3,2.2v23.9h-2.5l-16-26.2v20.7c0,1.2,0,1.9,0.1,2.1
				c0.1,0.3,0.3,0.6,0.5,0.9c0.3,0.3,0.6,0.4,0.9,0.5s1.1,0.2,2.1,0.2v1.8H61v-1.8h0.5c1,0,1.7-0.1,2-0.3c0.3-0.2,0.6-0.5,0.8-1
				c0.2-0.5,0.3-1.3,0.3-2.4v-18.5c0-1.2,0-1.9-0.1-2.1c-0.1-0.5-0.4-0.8-0.7-1c-0.4-0.2-1.1-0.3-2.1-0.3h-0.8v-1.8L61.2,502.7
				L61.2,502.7z"/>
			<path class="st3" d="M106.8,502.7h15c2.9,0,5,0.3,6.5,0.9s2.6,1.4,3.4,2.6c0.8,1.1,1.2,2.4,1.2,3.9s-0.4,2.9-1.2,4
				c-0.8,1.2-1.9,2.1-3.3,2.8c-1.4,0.7-3.4,1-5.7,1.1l7.7,9.4c0.6,0.8,1,1.3,1.2,1.4c0.5,0.4,1,0.8,1.5,1s1.1,0.3,1.8,0.3h0.5v1.8
				h-6.6l-10.7-14h-3.7v9c0,1,0,1.6,0.1,1.9c0.2,0.5,0.4,0.8,0.7,1c0.3,0.2,1,0.3,2,0.3h0.8v1.8h-11.1v-1.8h1c0.8,0,1.3,0,1.5-0.1
				c0.3-0.1,0.5-0.3,0.7-0.5s0.3-0.6,0.4-0.9c0-0.2,0-0.9,0.1-2.1v-19.1c0-0.8-0.1-1.5-0.3-1.8c-0.2-0.4-0.4-0.6-0.7-0.8
				c-0.3-0.2-0.8-0.2-1.6-0.2h-1.2C106.8,504.7,106.8,502.7,106.8,502.7z M114.3,504.9v11h6c2,0,3.5-0.1,4.3-0.4
				c1.2-0.3,2.1-0.9,2.8-1.8c0.7-0.9,1-2,1-3.4c0-1.2-0.2-2.2-0.7-3s-1.2-1.4-2-1.8s-2.1-0.6-3.8-0.6H114.3z"/>
			<path class="st3" d="M137.5,502.7h23.7l2.7,7.7l-1.8,0.7c-0.5-1.3-1-2.2-1.5-3c-0.5-0.7-1.2-1.3-2-1.8s-1.5-0.8-2.3-1
				s-2.2-0.3-4.2-0.3H145v10.7h3.5c1.3,0,2.3-0.2,2.9-0.7c0.7-0.4,1.1-1,1.4-1.6c0.2-0.5,0.3-1.3,0.3-2.5v-0.5h2v12.8h-2v-1.1
				c0-1-0.1-1.7-0.2-2.1c-0.1-0.4-0.4-0.8-0.8-1.2c-0.4-0.4-0.8-0.6-1.3-0.8c-0.5-0.1-1.2-0.2-2.3-0.2H145v9.5c0,1,0,1.6,0.1,1.8
				s0.2,0.4,0.4,0.5s0.8,0.1,1.7,0.1h4.4c2.4,0,4.3-0.3,5.7-0.9c1.4-0.6,2.6-1.5,3.6-2.7c0.8-0.9,1.6-2.3,2.4-4l1.9,0.7l-3.3,9.1
				h-24.6v-1.8h0.8c1,0,1.6-0.1,1.8-0.2c0.4-0.2,0.6-0.5,0.8-0.9c0.1-0.3,0.2-0.9,0.2-1.8v-20.1c0-0.9-0.1-1.5-0.3-1.8
				s-0.5-0.5-0.9-0.7c-0.2-0.1-1.1-0.1-2.5-0.1v-1.8H137.5z"/>
		</g>
		<g class="st2">
			<path class="st3" d="M168.2,502.7h11.5c3.5,0,5.9,0.2,7.2,0.7c1.7,0.5,3,1.4,4.1,2.7c1.1,1.3,1.6,2.9,1.6,4.9
				c0,1.7-0.4,3.1-1.2,4.4c-1,1.5-2.2,2.5-3.6,3.1c-1.4,0.6-3.6,0.9-6.7,0.9h-5.3v7.5c0,1.1,0.1,1.8,0.2,2.1
				c0.2,0.4,0.4,0.7,0.7,0.8c0.3,0.2,0.9,0.2,1.8,0.2h1v1.8h-11.3V530h0.7c1,0,1.6-0.1,2-0.2c0.3-0.2,0.6-0.4,0.8-0.8
				c0.2-0.3,0.2-1,0.2-1.9v-19.9c0-0.9-0.1-1.5-0.2-1.9c-0.1-0.3-0.4-0.5-0.7-0.7c-0.3-0.1-1-0.2-2-0.2h-0.7L168.2,502.7
				L168.2,502.7z M175.8,504.9v12.2h4.5c2.3,0,3.9-0.2,4.8-0.6c0.9-0.4,1.7-1.1,2.3-2.1s0.9-2.2,0.9-3.5c0-1.5-0.3-2.7-1-3.7
				s-1.6-1.6-2.8-2c-0.8-0.2-2.5-0.4-4.9-0.4L175.8,504.9L175.8,504.9z"/>
			<path class="st3" d="M196.4,501.8h1.5l0.2,1H216l0.2-1h1.4l3.1,8.6l-1.9,0.7c-0.9-2.3-2-3.9-3.2-4.8s-2.8-1.4-4.8-1.4
				c-0.8,0-1.3,0-1.4,0.1c-0.2,0.1-0.3,0.2-0.3,0.3c-0.1,0.2-0.1,0.6-0.1,1.5v20.1c0,1,0.1,1.6,0.2,1.9c0.1,0.3,0.3,0.6,0.4,0.8
				c0.2,0.2,0.5,0.3,0.8,0.4c0.3,0.1,1.1,0.1,2.3,0.1v1.8h-11.3v-1.8c1.2,0,2-0.1,2.3-0.1c0.5-0.1,0.8-0.4,1-0.8
				c0.2-0.4,0.3-1.1,0.3-2.2v-20.7c0-0.6,0-1-0.1-1.2c-0.1-0.1-0.2-0.2-0.4-0.3c-0.2-0.1-0.5-0.1-1.1-0.1c-1.5,0-2.7,0.2-3.6,0.6
				c-0.9,0.4-1.8,1.1-2.6,2s-1.5,2.1-2.1,3.6l-1.9-0.7L196.4,501.8z"/>
		</g>
		<g class="st2">
			<path class="st3" d="M224.4,502.7h11.2v1.8h-0.9c-0.8,0-1.4,0.1-1.8,0.3c-0.4,0.2-0.6,0.5-0.8,1c-0.2,0.4-0.3,1.2-0.3,2.4v18.7
				c0,0.9,0.1,1.6,0.3,2s0.4,0.7,0.8,0.9c0.3,0.2,0.9,0.3,1.8,0.3h0.9v1.8h-11.2v-1.8h0.9c0.8,0,1.4-0.1,1.7-0.3s0.6-0.5,0.7-0.8
				c0.2-0.4,0.2-1,0.2-2.1v-19.2c0-1.1-0.1-1.8-0.2-2.2c-0.2-0.4-0.4-0.6-0.7-0.8c-0.3-0.2-0.9-0.3-1.7-0.3h-0.9V502.7z"/>
			<path class="st3" d="M239.2,502.7h11.3v1.8h-1c-0.8,0-1.4,0.1-1.7,0.2c-0.3,0.2-0.6,0.4-0.7,0.7c-0.2,0.3-0.2,0.8-0.2,1.6v20.3
				c0,0.9,0,1.5,0.1,1.7c0.1,0.3,0.3,0.4,0.5,0.5s0.8,0.1,1.7,0.1h1.6c1.8,0,3.4-0.3,4.7-0.8c1.3-0.5,2.5-1.3,3.4-2.3
				c1-1,1.9-2.5,2.8-4.5l1.9,0.6l-3.3,9.1h-21v-1.8h0.9c0.9,0,1.5-0.1,1.8-0.2c0.3-0.2,0.5-0.4,0.7-0.8c0.2-0.4,0.3-1,0.3-1.8v-19.8
				c0-1-0.1-1.7-0.2-2c-0.2-0.3-0.4-0.6-0.7-0.7s-0.9-0.2-1.9-0.2h-0.9v-1.7H239.2z"/>
			<path class="st3" d="M265,502.7h23.6l2.7,7.7l-1.8,0.7c-0.5-1.3-1-2.2-1.5-3c-0.5-0.7-1.2-1.3-2-1.8s-1.5-0.8-2.3-1
				s-2.2-0.3-4.2-0.3h-7.1v10.7h3.5c1.3,0,2.3-0.2,2.9-0.7c0.7-0.4,1.1-1,1.4-1.6c0.2-0.5,0.3-1.3,0.3-2.5v-0.5h2v12.8h-2v-1.1
				c0-1-0.1-1.7-0.2-2.1c-0.1-0.4-0.4-0.8-0.8-1.2s-0.8-0.6-1.3-0.8c-0.5-0.1-1.2-0.2-2.3-0.2h-3.5v9.5c0,1,0,1.6,0.1,1.8
				s0.2,0.4,0.4,0.5c0.2,0.1,0.8,0.1,1.7,0.1h4.4c2.4,0,4.3-0.3,5.7-0.9c1.4-0.6,2.6-1.5,3.6-2.7c0.8-0.9,1.6-2.3,2.4-4l1.9,0.7
				l-3.3,9.1H265v-1.8h0.8c1,0,1.6-0.1,1.8-0.2c0.4-0.2,0.6-0.5,0.8-0.9c0.1-0.3,0.2-0.9,0.2-1.8v-20.1c0-0.9-0.1-1.5-0.3-1.8
				c-0.2-0.3-0.5-0.5-0.9-0.7c-0.2-0.1-1.1-0.1-2.5-0.1v-1.8H265z"/>
			<path class="st3" d="M309.3,502.7h11.5c3.5,0,5.9,0.2,7.2,0.7c1.7,0.5,3,1.4,4.1,2.7c1.1,1.3,1.6,2.9,1.6,4.9
				c0,1.7-0.4,3.1-1.2,4.4c-1,1.5-2.2,2.5-3.6,3.1s-3.6,0.9-6.7,0.9h-5.3v7.5c0,1.1,0.1,1.8,0.2,2.1c0.2,0.4,0.4,0.7,0.7,0.8
				c0.3,0.2,0.9,0.2,1.8,0.2h1v1.8h-11.3V530h0.7c1,0,1.6-0.1,2-0.2c0.3-0.2,0.6-0.4,0.8-0.8c0.2-0.3,0.2-1,0.2-1.9v-19.9
				c0-0.9-0.1-1.5-0.2-1.9c-0.1-0.3-0.4-0.5-0.7-0.7c-0.3-0.1-1-0.2-2-0.2h-0.7v-1.7L309.3,502.7L309.3,502.7z M316.9,504.9v12.2
				h4.5c2.3,0,3.9-0.2,4.8-0.6c0.9-0.4,1.7-1.1,2.3-2.1s0.9-2.2,0.9-3.5c0-1.5-0.3-2.7-1-3.7s-1.6-1.6-2.8-2
				c-0.8-0.2-2.5-0.4-4.9-0.4L316.9,504.9L316.9,504.9z"/>
			<path class="st3" d="M346.7,502.7h3.4l9.1,24.3c0.4,1.2,0.9,2,1.3,2.4c0.5,0.4,1.1,0.6,1.8,0.6h0.5v1.8h-10.4v-1.9
				c0.3,0,0.7,0,1,0c0.7,0,1.1-0.1,1.3-0.2c0.4-0.3,0.6-0.6,0.6-1c0-0.3-0.2-1-0.6-2.2l-1.9-5.6h-10.6l-2.3,6.3
				c-0.2,0.7-0.4,1.1-0.4,1.4c0,0.3,0.1,0.5,0.2,0.7s0.3,0.4,0.6,0.5c0.2,0.1,0.7,0.2,1.2,0.2c0.4,0,0.7,0,0.9,0v1.8h-8.7V530
				c0.8,0,1.4-0.1,1.7-0.2c0.4-0.2,0.7-0.4,0.9-0.8c0.3-0.4,0.6-1.1,1-2.2L346.7,502.7z M343.1,518.9h9l-4.5-12.5L343.1,518.9z"/>
			<path class="st3" d="M365,502.7h15c2.9,0,5,0.3,6.5,0.9s2.6,1.4,3.4,2.6c0.8,1.1,1.2,2.4,1.2,3.9s-0.4,2.9-1.2,4
				c-0.8,1.2-1.9,2.1-3.3,2.8s-3.4,1-5.7,1.1l7.7,9.4c0.6,0.8,1,1.3,1.2,1.4c0.5,0.4,1,0.8,1.5,1s1.1,0.3,1.8,0.3h0.5v1.8H387
				l-10.7-14h-3.7v9c0,1,0,1.6,0.1,1.9c0.2,0.5,0.4,0.8,0.7,1s1,0.3,2,0.3h0.8v1.8h-11.1v-1.8h1c0.8,0,1.3,0,1.5-0.1
				c0.3-0.1,0.5-0.3,0.7-0.5s0.3-0.6,0.4-0.9c0-0.2,0-0.9,0.1-2.1v-19.1c0-0.8-0.1-1.5-0.3-1.8c-0.2-0.4-0.4-0.6-0.7-0.8
				s-0.8-0.2-1.6-0.2H365V502.7z M372.6,504.9v11h6c2,0,3.5-0.1,4.3-0.4c1.2-0.3,2.1-0.9,2.8-1.8c0.7-0.9,1-2,1-3.4
				c0-1.2-0.2-2.2-0.7-3s-1.2-1.4-2-1.8s-2.1-0.6-3.8-0.6H372.6z"/>
			<path class="st3" d="M395.9,502.7h11.3v1.8h-0.8c-0.9,0-1.6,0.1-1.9,0.3c-0.4,0.2-0.6,0.6-0.8,1c-0.1,0.3-0.2,0.9-0.2,1.7v11.1
				l10.9-11.6c0.6-0.6,0.9-1,1-1.2s0.2-0.4,0.2-0.6c0-0.3-0.1-0.4-0.4-0.6c-0.2-0.1-0.8-0.2-1.6-0.2h-0.7v-1.8h10.4v1.8
				c-0.8,0-1.6,0.1-2.2,0.3c-0.7,0.2-1.2,0.4-1.6,0.7c-0.8,0.6-1.5,1.1-1.8,1.5l-7.8,8l8.9,11.8c0.8,1.1,1.4,1.8,1.9,2.2
				s1,0.7,1.5,0.8c0.5,0.2,1.3,0.2,2.3,0.2v1.8h-12.4v-1.8h0.7c0.8,0,1.3,0,1.5-0.1s0.4-0.2,0.6-0.3s0.2-0.3,0.2-0.5
				c0-0.4-0.5-1.2-1.4-2.5l-6.5-8.9l-3.7,3.8v5.6c0,1,0.1,1.6,0.3,2c0.2,0.3,0.5,0.6,0.9,0.8c0.3,0.1,1.2,0.2,2.5,0.2v1.8h-11.3
				v-1.9h0.9c0.9,0,1.5-0.1,1.8-0.3s0.6-0.5,0.7-0.9c0.2-0.4,0.3-1.1,0.3-2.2v-19.2c0-1-0.1-1.7-0.3-2.1c-0.2-0.4-0.4-0.6-0.7-0.8
				s-1-0.2-2-0.2H396L395.9,502.7L395.9,502.7z"/>
		</g>
		<g class="st2">
			<path class="st4" d="M-14.9,556.8v-0.5c0.3-0.1,0.5-0.2,0.7-0.2c0.1-0.1,0.2-0.2,0.3-0.3s0.1-0.3,0.2-0.5c0-0.2,0.1-0.6,0.1-1
				v-8.9c0-0.5,0-0.8-0.1-1c0-0.2-0.1-0.4-0.2-0.5c-0.1-0.1-0.2-0.2-0.3-0.3s-0.4-0.2-0.7-0.2v-0.5h4.5c1.3,0,2.4,0.1,3.2,0.4
				c0.8,0.3,1.5,0.7,2.1,1.3s1,1.2,1.3,2.1c0.3,0.8,0.4,1.8,0.4,3s-0.1,2.2-0.4,3.1s-0.7,1.6-1.2,2.2c-0.4,0.5-1,1-1.6,1.3
				c-0.5,0.3-1.1,0.5-1.8,0.6s-1.6,0.2-2.8,0.2h-3.7V556.8z M-11.7,555.8c0.3,0,0.7,0,1.2,0c0.6,0,1.1,0,1.5-0.1
				c0.5-0.1,0.9-0.2,1.2-0.5c0.4-0.2,0.7-0.5,1-0.9s0.5-0.8,0.7-1.3s0.3-1,0.4-1.6s0.1-1.2,0.1-1.9c0-1.4-0.2-2.5-0.6-3.4
				s-1-1.6-1.7-2s-1.6-0.6-2.6-0.6c-0.5,0-0.9,0-1.3,0v12.3H-11.7z"/>
			<path class="st4" d="M4.1,554.2c0,0.5,0,0.8,0,1s0.1,0.4,0.2,0.5s0.2,0.2,0.3,0.3s0.4,0.2,0.7,0.2v0.5H1v-0.5
				c0.4-0.1,0.7-0.2,0.9-0.4c0.1-0.1,0.2-0.3,0.3-0.6c0-0.2,0.1-0.6,0.1-1.1v-8.9c0-0.5,0-0.8-0.1-1c0-0.2-0.1-0.4-0.2-0.5
				c-0.1-0.1-0.2-0.2-0.3-0.3s-0.4-0.2-0.7-0.2v-0.5h4.3v0.5c-0.3,0.1-0.5,0.2-0.7,0.2c-0.1,0.1-0.2,0.2-0.3,0.3s-0.1,0.3-0.2,0.5
				c0,0.2-0.1,0.6-0.1,1.1L4.1,554.2L4.1,554.2z"/>
			<path class="st4" d="M10.7,553.6c0.1,0.6,0.3,1.1,0.6,1.4c0.2,0.3,0.5,0.6,0.9,0.8s0.8,0.3,1.4,0.3c0.8,0,1.4-0.2,1.8-0.6
				c0.4-0.4,0.6-1,0.6-1.8c0-0.5-0.1-0.9-0.3-1.3c-0.2-0.3-0.5-0.7-0.9-1s-1-0.7-1.9-1.1c-0.8-0.4-1.4-0.8-1.9-1.2s-0.8-0.8-1-1.2
				s-0.3-0.9-0.3-1.5c0-0.8,0.2-1.4,0.5-2c0.4-0.6,0.9-1,1.6-1.3c0.7-0.3,1.5-0.5,2.4-0.5c0.5,0,1,0,1.5,0.1s1.1,0.2,1.9,0.4v2.8h-1
				c-0.2-0.6-0.4-1.1-0.6-1.4s-0.5-0.6-0.8-0.7c-0.3-0.1-0.7-0.2-1.3-0.2c-0.4,0-0.8,0.1-1.2,0.2c-0.4,0.2-0.6,0.4-0.8,0.7
				s-0.3,0.7-0.3,1.2s0.1,0.9,0.3,1.2s0.4,0.6,0.8,0.9c0.4,0.3,0.9,0.6,1.6,1c0.9,0.4,1.6,0.8,2,1.2c0.5,0.4,0.9,0.8,1.1,1.3
				c0.3,0.5,0.4,1,0.4,1.7s-0.1,1.3-0.3,1.8s-0.5,0.9-0.9,1.2s-0.9,0.5-1.4,0.7c-0.6,0.1-1.2,0.2-1.8,0.2c-1.1,0-2.3-0.2-3.7-0.5
				v-2.8L10.7,553.6L10.7,553.6z"/>
			<path class="st4" d="M31.6,542.9v2.9h-1c-0.2-0.6-0.4-1.1-0.6-1.4c-0.3-0.4-0.5-0.6-0.9-0.8c-0.3-0.2-0.7-0.2-1.2-0.2
				c-0.7,0-1.3,0.2-1.9,0.7s-1,1.2-1.3,2.1c-0.3,0.9-0.5,2.1-0.5,3.4c0,1.3,0.1,2.5,0.4,3.4c0.3,1,0.6,1.7,1.2,2.2
				c0.5,0.5,1.1,0.7,1.9,0.7c0.6,0,1-0.1,1.4-0.2c0.4-0.2,0.7-0.4,0.9-0.8c0.2-0.3,0.5-0.9,0.7-1.5h1v2.9c-0.6,0.2-1.3,0.3-2,0.4
				c-0.7,0.1-1.4,0.1-2.2,0.1c-1.7,0-3.1-0.6-4-1.8s-1.3-2.9-1.3-5.3c0-1.5,0.2-2.8,0.7-3.9c0.5-1.1,1.1-2,2-2.6s2-0.9,3.2-0.9
				c0.6,0,1.2,0,1.7,0.1C30.3,542.7,30.9,542.8,31.6,542.9z"/>
			<path class="st4" d="M41.2,556.9c-0.8,0-1.6-0.1-2.3-0.4c-0.7-0.3-1.3-0.7-1.7-1.3c-0.5-0.6-0.9-1.3-1.1-2.2
				c-0.3-0.9-0.4-2-0.4-3.2c0-1.5,0.2-2.8,0.7-3.9c0.5-1.1,1.1-1.9,2-2.5s1.9-0.9,3-0.9c1.2,0,2.3,0.3,3.1,0.8
				c0.8,0.5,1.5,1.3,1.9,2.4c0.4,1,0.6,2.3,0.6,3.8c0,1.6-0.2,3-0.7,4.1s-1.2,1.9-2,2.5C43.4,556.7,42.4,556.9,41.2,556.9z
				 M37.8,549.6c0,2.1,0.3,3.7,0.9,4.8c0.6,1.1,1.5,1.6,2.7,1.6c0.7,0,1.4-0.2,1.9-0.7s0.9-1.2,1.2-2.1c0.3-0.9,0.4-2,0.4-3.2
				c0-1.5-0.2-2.7-0.5-3.7c-0.3-1-0.7-1.7-1.3-2.1c-0.5-0.4-1.1-0.7-1.8-0.7c-0.6,0-1.1,0.1-1.6,0.4c-0.4,0.3-0.8,0.7-1.1,1.2
				c-0.3,0.5-0.5,1.2-0.6,1.9C37.9,547.8,37.8,548.6,37.8,549.6z"/>
			<path class="st4" d="M54.7,542.7v0.5c-0.3,0.1-0.6,0.1-0.7,0.2c-0.2,0.1-0.3,0.2-0.4,0.3c-0.1,0.2-0.1,0.4-0.1,0.6
				c0,0.2,0,0.5,0.1,0.8s0.1,0.6,0.2,0.9l2.4,8.4l3-8.5c0-0.1,0.1-0.3,0.1-0.4c0-0.1,0.1-0.3,0.1-0.4c0-0.1,0.1-0.3,0.1-0.4
				c0-0.1,0-0.2,0-0.3c0-0.4-0.1-0.7-0.3-0.9c-0.2-0.2-0.5-0.3-1-0.4v-0.5h4.3v0.5c-0.3,0.1-0.5,0.2-0.7,0.3
				c-0.2,0.1-0.3,0.3-0.5,0.6c-0.2,0.3-0.4,0.7-0.6,1.4l-4.3,11.4h-1.3l-3.5-11.5c-0.2-0.6-0.3-1.1-0.5-1.3
				c-0.1-0.3-0.3-0.5-0.5-0.6c-0.2-0.1-0.4-0.2-0.7-0.3v-0.5h4.8C54.7,542.6,54.7,542.7,54.7,542.7z"/>
			<path class="st4" d="M75.3,542.7v3.1h-1c-0.1-0.3-0.2-0.6-0.3-0.9c-0.1-0.3-0.2-0.5-0.3-0.6c-0.1-0.2-0.2-0.3-0.4-0.4
				c-0.1-0.1-0.3-0.2-0.5-0.2s-0.4-0.1-0.7-0.1h-3.3v5.4H71c0.3,0,0.5,0,0.7-0.1s0.3-0.2,0.4-0.4s0.2-0.5,0.3-1h1v4h-1
				c-0.1-0.4-0.2-0.7-0.3-0.9c-0.1-0.2-0.3-0.4-0.4-0.4c-0.2-0.1-0.4-0.1-0.7-0.1h-2.2v5.9H72c0.3,0,0.6,0,0.8-0.1
				c0.2-0.1,0.4-0.2,0.5-0.3c0.2-0.1,0.3-0.3,0.4-0.6c0.1-0.2,0.2-0.5,0.3-0.7c0.1-0.2,0.2-0.6,0.3-1.1h1l-0.2,3.6h-9.5v-0.5
				c0.4-0.1,0.7-0.2,0.9-0.4c0.1-0.1,0.2-0.3,0.3-0.6c0-0.2,0.1-0.6,0.1-1.1v-8.9c0-0.5,0-0.8-0.1-1c0-0.2-0.1-0.4-0.2-0.5
				s-0.2-0.2-0.3-0.3c-0.1-0.1-0.4-0.2-0.7-0.2v-0.5h9.7L75.3,542.7L75.3,542.7z"/>
			<path class="st4" d="M82.9,550.7v3.5c0,0.5,0,0.9,0.1,1.1c0,0.2,0.1,0.4,0.2,0.5s0.2,0.2,0.3,0.3c0.1,0.1,0.4,0.2,0.7,0.2v0.5
				h-4.3v-0.5c0.4-0.1,0.7-0.2,0.9-0.4c0.1-0.1,0.2-0.3,0.3-0.6c0-0.2,0.1-0.6,0.1-1.1v-8.9c0-0.5,0-0.8-0.1-1
				c0-0.2-0.1-0.4-0.2-0.5s-0.2-0.2-0.3-0.3c-0.1-0.1-0.4-0.2-0.7-0.2v-0.5H85c1.6,0,2.8,0.3,3.6,0.9s1.2,1.5,1.2,2.7
				c0,0.9-0.3,1.7-0.8,2.4s-1.3,1.2-2.3,1.5v0.1c0.4,0.2,0.8,0.4,1.1,0.7c0.3,0.3,0.6,0.8,1,1.5l0.9,1.7c0.3,0.5,0.5,0.9,0.7,1.1
				c0.2,0.3,0.4,0.5,0.6,0.6s0.5,0.2,0.8,0.3v0.5h-2.9c-0.3-0.4-0.5-0.8-0.7-1.2s-0.5-0.8-0.7-1.3l-0.9-1.7
				c-0.3-0.5-0.5-0.9-0.7-1.2c-0.2-0.2-0.3-0.4-0.5-0.5c-0.1-0.1-0.3-0.2-0.5-0.2s-0.4-0.1-0.8-0.1h-1.2
				C82.9,550.6,82.9,550.7,82.9,550.7z M82.9,543.7v6.1h1.2c0.6,0,1.1,0,1.5-0.1s0.7-0.2,1-0.5c0.3-0.2,0.6-0.6,0.8-1
				c0.2-0.4,0.3-1,0.3-1.6c0-0.7-0.1-1.2-0.3-1.6c-0.2-0.4-0.6-0.8-1-1c-0.5-0.2-1.1-0.3-1.8-0.3C83.8,543.6,83.3,543.6,82.9,543.7z
				"/>
			<path class="st4" d="M100.7,542.7h11.1v3.6h-1c-0.2-0.6-0.3-1.1-0.4-1.4c-0.1-0.3-0.3-0.6-0.5-0.8s-0.3-0.3-0.5-0.4
				c-0.2-0.1-0.5-0.1-0.8-0.1h-1.3v10.5c0,0.4,0,0.7,0.1,1c0,0.2,0.1,0.4,0.2,0.6c0.1,0.1,0.2,0.3,0.4,0.3c0.2,0.1,0.4,0.2,0.7,0.2
				v0.5H104v-0.5c0.2,0,0.4-0.1,0.5-0.2c0.2-0.1,0.3-0.1,0.4-0.2c0.1-0.1,0.2-0.2,0.2-0.3c0.1-0.1,0.1-0.3,0.2-0.5
				c0-0.2,0.1-0.5,0.1-0.9v-10.5h-1.3c-0.3,0-0.6,0-0.8,0.1c-0.2,0.1-0.4,0.2-0.6,0.4s-0.3,0.5-0.5,0.8c-0.1,0.4-0.3,0.8-0.4,1.4h-1
				L100.7,542.7L100.7,542.7z"/>
			<path class="st4" d="M126.5,554.2c0,0.4,0,0.7,0,0.9s0.1,0.4,0.1,0.5s0.1,0.2,0.2,0.3s0.2,0.1,0.3,0.2c0.1,0.1,0.3,0.1,0.6,0.2
				v0.5h-4.3v-0.5c0.4-0.1,0.6-0.2,0.8-0.3c0.2-0.1,0.3-0.3,0.3-0.5c0.1-0.2,0.1-0.6,0.1-1.2V550h-5.7v4.3c0,0.5,0,0.8,0,1
				s0.1,0.4,0.2,0.5s0.2,0.2,0.3,0.3c0.1,0.1,0.4,0.2,0.7,0.2v0.5h-4.3v-0.5c0.4-0.1,0.7-0.2,0.9-0.4c0.1-0.1,0.2-0.3,0.3-0.6
				c0-0.2,0.1-0.6,0.1-1.1v-8.9c0-0.5,0-0.8-0.1-1c0-0.2-0.1-0.4-0.2-0.5s-0.2-0.2-0.3-0.3c-0.1-0.1-0.4-0.2-0.7-0.2v-0.5h4.3v0.5
				c-0.3,0.1-0.5,0.2-0.7,0.2c-0.1,0.1-0.2,0.2-0.3,0.3c-0.1,0.1-0.1,0.3-0.2,0.5c0,0.2-0.1,0.6-0.1,1.1v3.6h5.7v-3.6
				c0-0.6,0-1-0.1-1.2s-0.2-0.4-0.3-0.5c-0.1-0.1-0.4-0.2-0.8-0.3v-0.5h4.3v0.5c-0.4,0.1-0.7,0.2-0.8,0.3c-0.2,0.1-0.3,0.3-0.3,0.5
				c-0.1,0.2-0.1,0.6-0.1,1.2L126.5,554.2L126.5,554.2z"/>
			<path class="st4" d="M141.7,542.7v3.1h-1c-0.1-0.3-0.2-0.6-0.3-0.9c-0.1-0.3-0.2-0.5-0.3-0.6c-0.1-0.2-0.2-0.3-0.4-0.4
				c-0.1-0.1-0.3-0.2-0.5-0.2s-0.4-0.1-0.7-0.1h-3.3v5.4h2.2c0.3,0,0.5,0,0.7-0.1s0.3-0.2,0.4-0.4c0.1-0.2,0.2-0.5,0.3-1h1v4h-1
				c-0.1-0.4-0.2-0.7-0.3-0.9s-0.3-0.4-0.4-0.4c-0.2-0.1-0.4-0.1-0.7-0.1h-2.2v5.9h3.2c0.3,0,0.6,0,0.8-0.1s0.4-0.2,0.5-0.3
				c0.2-0.1,0.3-0.3,0.4-0.6c0.1-0.2,0.2-0.5,0.3-0.7s0.2-0.6,0.3-1.1h1l-0.2,3.6H132v-0.5c0.4-0.1,0.7-0.2,0.9-0.4
				c0.1-0.1,0.2-0.3,0.3-0.6c0-0.2,0.1-0.6,0.1-1.1v-8.9c0-0.5,0-0.8-0.1-1c0-0.2-0.1-0.4-0.2-0.5c-0.1-0.1-0.2-0.2-0.3-0.3
				s-0.4-0.2-0.7-0.2v-0.5h9.7V542.7z"/>
			<path class="st4" d="M161.1,545.3l-3.3,11.5h-1.7l-3-11.2c-0.1-0.5-0.2-0.8-0.3-1.1s-0.2-0.5-0.3-0.7s-0.2-0.3-0.3-0.4
				c-0.1-0.1-0.3-0.2-0.5-0.2v-0.5h4.4v0.5c-0.4,0.1-0.7,0.2-0.9,0.4s-0.3,0.4-0.3,0.7c0,0.2,0,0.5,0.1,0.9c0.1,0.3,0.1,0.7,0.3,1.1
				l2.1,8.1l3.3-11.7h1.7l2.7,11.7l2.4-7.9c0.3-1,0.4-1.6,0.4-2s-0.1-0.7-0.3-0.9s-0.5-0.3-0.9-0.4v-0.5h4.1v0.5
				c-0.2,0.1-0.4,0.1-0.5,0.2c-0.1,0.1-0.2,0.2-0.4,0.4c-0.1,0.1-0.2,0.4-0.4,0.7c-0.1,0.3-0.3,0.7-0.5,1.2l-3.7,11.1h-1.5
				L161.1,545.3z"/>
			<path class="st4" d="M179.1,556.9c-0.8,0-1.6-0.1-2.3-0.4c-0.7-0.3-1.3-0.7-1.7-1.3c-0.5-0.6-0.9-1.3-1.1-2.2
				c-0.2-0.9-0.4-2-0.4-3.2c0-1.5,0.2-2.8,0.7-3.9c0.5-1.1,1.1-1.9,2-2.5s1.9-0.9,3-0.9c1.2,0,2.3,0.3,3.1,0.8s1.5,1.3,1.9,2.4
				c0.4,1,0.6,2.3,0.6,3.8c0,1.6-0.2,3-0.7,4.1s-1.2,1.9-2,2.5C181.2,556.7,180.2,556.9,179.1,556.9z M175.7,549.6
				c0,2.1,0.3,3.7,0.9,4.8s1.5,1.6,2.7,1.6c0.7,0,1.4-0.2,1.9-0.7s0.9-1.2,1.2-2.1c0.3-0.9,0.4-2,0.4-3.2c0-1.5-0.2-2.7-0.5-3.7
				s-0.7-1.7-1.3-2.1c-0.5-0.4-1.1-0.7-1.8-0.7c-0.6,0-1.1,0.1-1.6,0.4c-0.4,0.3-0.8,0.7-1.1,1.2s-0.5,1.2-0.6,1.9
				C175.7,547.8,175.7,548.6,175.7,549.6z"/>
			<path class="st4" d="M197.5,551.2c0.2,0.4,0.5,0.8,0.6,1.1c0.2,0.3,0.3,0.7,0.5,1h0.1c0-0.4-0.1-1.3-0.1-2.5s0-2.4,0-3.4v-2.2
				c0-0.5,0-0.8,0-1s-0.1-0.4-0.1-0.5c-0.1-0.1-0.2-0.2-0.3-0.3s-0.3-0.2-0.7-0.2v-0.5h3.7v0.5c-0.3,0.1-0.5,0.2-0.6,0.2
				c-0.1,0.1-0.2,0.2-0.3,0.3s-0.1,0.3-0.2,0.5c0,0.2-0.1,0.6-0.1,1.1v11.5h-1.3l-5.7-9.6c-0.4-0.6-0.6-1-0.8-1.3s-0.3-0.5-0.4-0.8
				h-0.2c0,0.5,0.1,1.5,0.1,2.9s0,2.8,0,4.1v2.1c0,0.5,0,0.8,0,1s0.1,0.4,0.2,0.5c0.1,0.1,0.2,0.2,0.3,0.3s0.4,0.2,0.7,0.2v0.5h-3.8
				v-0.5c0.4-0.1,0.7-0.2,0.9-0.4c0.1-0.1,0.2-0.3,0.3-0.6c0-0.2,0.1-0.6,0.1-1.1v-8.9c0-0.5,0-0.8-0.1-1c0-0.2-0.1-0.4-0.2-0.5
				s-0.2-0.2-0.3-0.3s-0.4-0.2-0.7-0.2v-0.5h3.2L197.5,551.2z"/>
			<path class="st4" d="M205.5,556.8v-0.5c0.3-0.1,0.5-0.2,0.7-0.2c0.1-0.1,0.2-0.2,0.3-0.3s0.1-0.3,0.2-0.5c0-0.2,0.1-0.6,0.1-1
				v-8.9c0-0.5,0-0.8-0.1-1c0-0.2-0.1-0.4-0.2-0.5c-0.1-0.1-0.2-0.2-0.3-0.3s-0.4-0.2-0.7-0.2v-0.5h4.5c1.3,0,2.4,0.1,3.2,0.4
				c0.8,0.3,1.5,0.7,2.1,1.3s1,1.2,1.3,2.1c0.3,0.8,0.4,1.8,0.4,3s-0.1,2.2-0.4,3.1c-0.3,0.9-0.7,1.6-1.2,2.2c-0.4,0.5-1,1-1.6,1.3
				c-0.5,0.3-1.1,0.5-1.8,0.6s-1.6,0.2-2.8,0.2h-3.7V556.8z M208.6,555.8c0.3,0,0.7,0,1.2,0c0.6,0,1.1,0,1.5-0.1s0.9-0.2,1.2-0.5
				c0.4-0.2,0.7-0.5,1-0.9s0.5-0.8,0.7-1.3s0.3-1,0.4-1.6c0.1-0.6,0.1-1.2,0.1-1.9c0-1.4-0.2-2.5-0.6-3.4c-0.4-0.9-1-1.6-1.7-2
				s-1.6-0.6-2.6-0.6c-0.5,0-0.9,0-1.3,0L208.6,555.8L208.6,555.8z"/>
			<path class="st4" d="M231,542.7v3.1h-1c-0.1-0.3-0.2-0.6-0.3-0.9c-0.1-0.3-0.2-0.5-0.3-0.6c-0.1-0.2-0.2-0.3-0.4-0.4
				c-0.1-0.1-0.3-0.2-0.5-0.2s-0.4-0.1-0.7-0.1h-3.3v5.4h2.2c0.3,0,0.5,0,0.7-0.1s0.3-0.2,0.4-0.4c0.1-0.2,0.2-0.5,0.3-1h1v4h-1
				c-0.1-0.4-0.2-0.7-0.3-0.9s-0.3-0.4-0.4-0.4c-0.2-0.1-0.4-0.1-0.7-0.1h-2.2v5.9h3.2c0.3,0,0.6,0,0.8-0.1s0.4-0.2,0.5-0.3
				c0.2-0.1,0.3-0.3,0.4-0.6c0.1-0.2,0.2-0.5,0.3-0.7s0.2-0.6,0.3-1.1h1l-0.2,3.6h-9.5v-0.5c0.4-0.1,0.7-0.2,0.9-0.4
				c0.1-0.1,0.2-0.3,0.3-0.6c0-0.2,0.1-0.6,0.1-1.1v-8.9c0-0.5,0-0.8-0.1-1c0-0.2-0.1-0.4-0.2-0.5s-0.2-0.2-0.3-0.3
				s-0.4-0.2-0.7-0.2v-0.5h9.7V542.7z"/>
			<path class="st4" d="M238.5,550.7v3.5c0,0.5,0,0.9,0.1,1.1c0,0.2,0.1,0.4,0.2,0.5s0.2,0.2,0.3,0.3s0.4,0.2,0.7,0.2v0.5h-4.3v-0.5
				c0.4-0.1,0.7-0.2,0.9-0.4c0.1-0.1,0.2-0.3,0.3-0.6c0-0.2,0.1-0.6,0.1-1.1v-8.9c0-0.5,0-0.8-0.1-1c0-0.2-0.1-0.4-0.2-0.5
				c-0.1-0.1-0.2-0.2-0.3-0.3s-0.4-0.2-0.7-0.2v-0.5h5.1c1.6,0,2.8,0.3,3.6,0.9c0.8,0.6,1.2,1.5,1.2,2.7c0,0.9-0.3,1.7-0.8,2.4
				s-1.3,1.2-2.3,1.5v0.1c0.4,0.2,0.8,0.4,1.1,0.7s0.6,0.8,1,1.5l0.9,1.7c0.3,0.5,0.5,0.9,0.7,1.1c0.2,0.3,0.4,0.5,0.6,0.6
				s0.5,0.2,0.8,0.3v0.5h-2.9c-0.3-0.4-0.5-0.8-0.7-1.2s-0.5-0.8-0.7-1.3l-0.9-1.7c-0.3-0.5-0.5-0.9-0.7-1.2
				c-0.2-0.2-0.3-0.4-0.5-0.5c-0.1-0.1-0.3-0.2-0.5-0.2s-0.4-0.1-0.8-0.1h-1.2L238.5,550.7L238.5,550.7z M238.5,543.7v6.1h1.2
				c0.6,0,1.1,0,1.5-0.1s0.7-0.2,1-0.5c0.3-0.2,0.6-0.6,0.8-1s0.3-1,0.3-1.6c0-0.7-0.1-1.2-0.3-1.6c-0.2-0.4-0.6-0.8-1-1
				c-0.5-0.2-1.1-0.3-1.8-0.3C239.4,543.6,238.9,543.6,238.5,543.7z"/>
			<path class="st4" d="M251,553.6c0.1,0.6,0.3,1.1,0.6,1.4c0.2,0.3,0.5,0.6,0.9,0.8s0.8,0.3,1.4,0.3c0.8,0,1.4-0.2,1.8-0.6
				c0.4-0.4,0.6-1,0.6-1.8c0-0.5-0.1-0.9-0.3-1.3c-0.2-0.3-0.5-0.7-0.9-1s-1-0.7-1.9-1.1c-0.8-0.4-1.4-0.8-1.9-1.2s-0.8-0.8-1-1.2
				s-0.3-0.9-0.3-1.5c0-0.8,0.2-1.4,0.5-2c0.4-0.6,0.9-1,1.6-1.3s1.5-0.5,2.4-0.5c0.5,0,1,0,1.5,0.1c0.5,0.1,1.1,0.2,1.9,0.4v2.8h-1
				c-0.2-0.6-0.4-1.1-0.6-1.4c-0.2-0.3-0.5-0.6-0.8-0.7c-0.3-0.1-0.7-0.2-1.3-0.2c-0.4,0-0.8,0.1-1.2,0.2c-0.4,0.2-0.6,0.4-0.8,0.7
				s-0.3,0.7-0.3,1.2s0.1,0.9,0.3,1.2s0.4,0.6,0.8,0.9c0.4,0.3,0.9,0.6,1.6,1c0.9,0.4,1.6,0.8,2,1.2c0.5,0.4,0.9,0.8,1.1,1.3
				c0.3,0.5,0.4,1,0.4,1.7s-0.1,1.3-0.3,1.8s-0.5,0.9-0.9,1.2s-0.9,0.5-1.4,0.7c-0.6,0.1-1.2,0.2-1.8,0.2c-1.1,0-2.3-0.2-3.7-0.5
				v-2.8L251,553.6L251,553.6z"/>
			<path class="st4" d="M274.5,556.9c-0.8,0-1.6-0.1-2.2-0.4c-0.7-0.3-1.3-0.7-1.7-1.3c-0.5-0.6-0.9-1.3-1.1-2.2
				c-0.3-0.9-0.4-2-0.4-3.2c0-1.5,0.2-2.8,0.7-3.9c0.5-1.1,1.1-1.9,2-2.5s1.9-0.9,3-0.9c1.2,0,2.3,0.3,3.1,0.8
				c0.8,0.5,1.5,1.3,1.9,2.4c0.4,1,0.6,2.3,0.6,3.8c0,1.6-0.2,3-0.7,4.1s-1.2,1.9-2,2.5C276.7,556.7,275.6,556.9,274.5,556.9z
				 M271.1,549.6c0,2.1,0.3,3.7,0.9,4.8s1.5,1.6,2.7,1.6c0.7,0,1.4-0.2,1.9-0.7s0.9-1.2,1.2-2.1c0.3-0.9,0.4-2,0.4-3.2
				c0-1.5-0.2-2.7-0.5-3.7s-0.7-1.7-1.3-2.1c-0.5-0.4-1.1-0.7-1.8-0.7c-0.6,0-1.1,0.1-1.6,0.4c-0.4,0.3-0.8,0.7-1.1,1.2
				c-0.3,0.5-0.5,1.2-0.6,1.9C271.2,547.8,271.1,548.6,271.1,549.6z"/>
			<path class="st4" d="M294.1,542.7v3.1h-1c-0.2-0.5-0.3-0.8-0.4-1.1s-0.3-0.5-0.4-0.7c-0.2-0.2-0.3-0.3-0.5-0.3
				c-0.2-0.1-0.5-0.1-0.8-0.1h-3v5.6h2.1c0.3,0,0.5,0,0.7-0.1s0.3-0.3,0.4-0.5s0.2-0.6,0.3-1.1h1v4.3h-1c-0.1-0.5-0.2-0.8-0.3-1.1
				c-0.1-0.2-0.3-0.4-0.4-0.5c-0.2-0.1-0.4-0.1-0.7-0.1H288v4c0,0.4,0,0.7,0.1,1c0,0.2,0.1,0.4,0.2,0.6c0.1,0.1,0.3,0.3,0.4,0.3
				c0.2,0.1,0.4,0.1,0.7,0.2v0.5h-4.6v-0.5c0.4-0.1,0.7-0.2,0.9-0.4c0.1-0.1,0.2-0.3,0.3-0.6c0-0.2,0.1-0.6,0.1-1.1v-8.9
				c0-0.5,0-0.8-0.1-1c0-0.2-0.1-0.4-0.2-0.5s-0.2-0.2-0.3-0.3c-0.1-0.1-0.4-0.2-0.7-0.2v-0.5L294.1,542.7L294.1,542.7z"/>
			<path class="st4" d="M312.7,551.2c0.2,0.4,0.5,0.8,0.6,1.1c0.2,0.3,0.3,0.7,0.5,1h0.1c0-0.4-0.1-1.3-0.1-2.5s0-2.4,0-3.4v-2.2
				c0-0.5,0-0.8,0-1s-0.1-0.4-0.1-0.5c-0.1-0.1-0.2-0.2-0.3-0.3s-0.3-0.2-0.7-0.2v-0.5h3.7v0.5c-0.3,0.1-0.5,0.2-0.7,0.2
				c-0.1,0.1-0.2,0.2-0.3,0.3s-0.1,0.3-0.2,0.5c0,0.2-0.1,0.6-0.1,1.1v11.5h-1.3l-5.7-9.6c-0.4-0.6-0.6-1-0.8-1.3s-0.3-0.5-0.4-0.8
				h-0.2c0,0.5,0.1,1.5,0.1,2.9s0,2.8,0,4.1v2.1c0,0.5,0,0.8,0,1s0.1,0.4,0.2,0.5s0.2,0.2,0.3,0.3s0.4,0.2,0.7,0.2v0.5h-3.8v-0.5
				c0.4-0.1,0.7-0.2,0.9-0.4c0.1-0.1,0.2-0.3,0.3-0.6c0-0.2,0.1-0.6,0.1-1.1v-8.9c0-0.5,0-0.8-0.1-1c0-0.2-0.1-0.4-0.2-0.5
				s-0.2-0.2-0.3-0.3s-0.4-0.2-0.7-0.2v-0.5h3.2L312.7,551.2z"/>
			<path class="st4" d="M327.2,556.8v-0.5c0.3-0.1,0.6-0.1,0.8-0.2c0.2-0.1,0.3-0.2,0.4-0.3s0.1-0.3,0.1-0.6c0-0.2,0-0.5-0.1-0.8
				s-0.1-0.6-0.2-0.9l-0.4-1.3H323l-0.3,1c-0.2,0.5-0.3,0.9-0.4,1.2s-0.1,0.5-0.1,0.7c0,0.4,0.1,0.7,0.3,0.9s0.5,0.3,1,0.4v0.5h-4.4
				v-0.5c0.4-0.1,0.7-0.3,1-0.7s0.6-0.9,0.8-1.6l4.3-11.4h1.6l3.5,11.5c0.2,0.5,0.3,0.9,0.4,1.2s0.3,0.5,0.5,0.7s0.4,0.3,0.7,0.3
				v0.5h-4.7L327.2,556.8L327.2,556.8z M323.3,551.2h4.3l-2-6.6L323.3,551.2z"/>
			<path class="st4" d="M333.5,542.7h11.1v3.6h-1c-0.2-0.6-0.3-1.1-0.4-1.4c-0.1-0.3-0.3-0.6-0.5-0.8s-0.3-0.3-0.5-0.4
				c-0.2-0.1-0.5-0.1-0.9-0.1H340v10.5c0,0.4,0,0.7,0.1,1c0,0.2,0.1,0.4,0.2,0.6c0.1,0.1,0.2,0.3,0.4,0.3c0.2,0.1,0.4,0.2,0.7,0.2
				v0.5h-4.7v-0.5c0.2,0,0.4-0.1,0.5-0.2c0.2-0.1,0.3-0.1,0.4-0.2c0.1-0.1,0.2-0.2,0.2-0.3c0.1-0.1,0.1-0.3,0.2-0.5
				c0-0.2,0.1-0.5,0.1-0.9v-10.5h-1.3c-0.3,0-0.6,0-0.8,0.1c-0.2,0.1-0.4,0.2-0.6,0.4s-0.3,0.5-0.5,0.8c-0.1,0.4-0.3,0.8-0.4,1.4h-1
				L333.5,542.7L333.5,542.7z"/>
			<path class="st4" d="M358.8,551.9c0,0.7-0.1,1.4-0.2,1.9s-0.3,1-0.6,1.4c-0.2,0.4-0.5,0.7-0.9,0.9c-0.4,0.3-0.8,0.4-1.3,0.6
				c-0.5,0.1-1.1,0.2-1.8,0.2c-0.8,0-1.5-0.1-2.1-0.3s-1.1-0.5-1.5-0.9s-0.7-0.9-0.8-1.5c-0.2-0.6-0.3-1.3-0.3-2.2v-6.8
				c0-0.5,0-0.9-0.1-1.1c0-0.2-0.1-0.3-0.1-0.4c-0.1-0.1-0.2-0.2-0.3-0.3s-0.4-0.2-0.7-0.3v-0.5h4.3v0.5c-0.4,0.1-0.7,0.2-0.8,0.3
				c-0.2,0.1-0.3,0.3-0.3,0.5c-0.1,0.2-0.1,0.6-0.1,1.2v7.3c0,0.7,0.1,1.2,0.2,1.7s0.3,0.8,0.6,1.1c0.3,0.3,0.6,0.4,0.9,0.5
				c0.4,0.1,0.8,0.2,1.3,0.2s0.9-0.1,1.3-0.3s0.7-0.4,0.9-0.8c0.2-0.3,0.4-0.8,0.5-1.3s0.1-1.2,0.1-2v-6.4c0-0.6,0-1-0.1-1.2
				s-0.2-0.4-0.3-0.5s-0.4-0.2-0.8-0.3v-0.5h4.1v0.5c-0.4,0.1-0.7,0.2-0.8,0.3s-0.2,0.3-0.3,0.5c-0.1,0.2-0.1,0.6-0.1,1.2
				L358.8,551.9L358.8,551.9L358.8,551.9z"/>
			<path class="st4" d="M367.2,550.7v3.5c0,0.5,0,0.9,0.1,1.1c0,0.2,0.1,0.4,0.2,0.5s0.2,0.2,0.3,0.3c0.1,0.1,0.4,0.2,0.7,0.2v0.5
				h-4.3v-0.5c0.4-0.1,0.7-0.2,0.9-0.4c0.1-0.1,0.2-0.3,0.3-0.6c0-0.2,0.1-0.6,0.1-1.1v-8.9c0-0.5,0-0.8-0.1-1
				c0-0.2-0.1-0.4-0.2-0.5s-0.2-0.2-0.3-0.3s-0.4-0.2-0.7-0.2v-0.5h5.1c1.6,0,2.8,0.3,3.6,0.9c0.8,0.6,1.2,1.5,1.2,2.7
				c0,0.9-0.3,1.7-0.8,2.4s-1.3,1.2-2.3,1.5v0.1c0.4,0.2,0.8,0.4,1.1,0.7s0.6,0.8,1,1.5l0.9,1.7c0.3,0.5,0.5,0.9,0.7,1.1
				c0.2,0.3,0.4,0.5,0.6,0.6s0.5,0.2,0.8,0.3v0.5h-2.9c-0.3-0.4-0.5-0.8-0.7-1.2s-0.5-0.8-0.7-1.3l-0.9-1.7
				c-0.3-0.5-0.5-0.9-0.7-1.2c-0.2-0.2-0.3-0.4-0.5-0.5c-0.1-0.1-0.3-0.2-0.5-0.2s-0.4-0.1-0.8-0.1h-1.2L367.2,550.7L367.2,550.7z
				 M367.2,543.7v6.1h1.2c0.6,0,1.1,0,1.5-0.1s0.7-0.2,1-0.5c0.3-0.2,0.6-0.6,0.8-1c0.2-0.4,0.3-1,0.3-1.6c0-0.7-0.1-1.2-0.3-1.6
				c-0.2-0.4-0.6-0.8-1-1c-0.5-0.2-1.1-0.3-1.8-0.3C368.1,543.6,367.6,543.6,367.2,543.7z"/>
			<path class="st4" d="M388.7,542.7v3.1h-1c-0.1-0.3-0.2-0.6-0.3-0.9c-0.1-0.3-0.2-0.5-0.3-0.6c-0.1-0.2-0.2-0.3-0.4-0.4
				c-0.1-0.1-0.3-0.2-0.5-0.2s-0.4-0.1-0.7-0.1h-3.3v5.4h2.2c0.3,0,0.5,0,0.7-0.1s0.3-0.2,0.4-0.4s0.2-0.5,0.3-1h1v4h-1
				c-0.1-0.4-0.2-0.7-0.3-0.9c-0.1-0.2-0.3-0.4-0.4-0.4c-0.2-0.1-0.4-0.1-0.7-0.1h-2.2v5.9h3.2c0.3,0,0.6,0,0.8-0.1
				c0.2-0.1,0.4-0.2,0.5-0.3c0.2-0.1,0.3-0.3,0.4-0.6c0.1-0.2,0.2-0.5,0.3-0.7s0.2-0.6,0.3-1.1h1l-0.2,3.6H379v-0.5
				c0.4-0.1,0.7-0.2,0.9-0.4c0.1-0.1,0.2-0.3,0.3-0.6c0-0.2,0.1-0.6,0.1-1.1v-8.9c0-0.5,0-0.8-0.1-1c0-0.2-0.1-0.4-0.2-0.5
				s-0.2-0.2-0.3-0.3c-0.1-0.1-0.4-0.2-0.7-0.2v-0.5h9.7L388.7,542.7L388.7,542.7z"/>
		</g>
	</g>
	<path class="st4" d="M278.8,455.8c-0.1-0.8-0.3-0.9-0.9-0.5c-0.8,0.6-1.3,0.4-2,0c-2.1-1.2-3.6-3.1-5-5.2c-0.2-0.3-0.2-0.6-0.2-1
		s-0.2-0.6-0.6-0.4c-0.9,0.4-1.4,0-2-0.5c-1-0.8-1.7-1.7-2.4-2.8c-1.1-1.6-2.3-3.2-3.8-4.4c-0.6-0.5-0.9-1.1-1.1-1.7
		c-0.3-0.6-0.5-1.1-0.9-1.6c-0.3-0.4-0.6-0.6-1.1-0.5c-1.3,0.4-1.5,0.3-2.3-1c-0.3-0.4-0.5-0.8-0.8-1.2c-0.3-0.6-0.7-1-1.4-1.1
		c-0.3-0.1-0.6-0.3-0.8-0.6c-0.4-0.5-0.7-1-1.1-1.4c-0.5-0.7-1-1.3-1.8-1.6c-0.5-0.2-0.7-0.7-1-1.1c-0.5-0.6-0.9-1.2-1.7-1.1
		c-0.3,0.1-0.5-0.1-0.6-0.4c-0.2-0.3-0.3-0.6-0.5-1c-0.4-0.9-0.6-1-1.4-0.7c-0.1,0-0.2,0-0.2,0.1c-0.9,0.3-1.6,0.2-2.3-0.5
		c-0.5-0.5-1.1-0.7-1.7-0.4c-0.6,0.3-1.1,0.1-1.6-0.3c-0.8-0.8-1.6-1-2.7-0.7c-0.4,0.1-0.9,0.1-1.2-0.1c-1.7-0.5-3.4-0.4-5.2-0.2
		c-1.6,0.2-3.3,0.5-4.9,0.8c-2.2,0.5-4.4,0.7-6.7,0.6c-3.4-0.1-6.9,0-10.3-0.2c-3.2-0.1-6.3-0.6-9.5-0.9c-3-0.3-6-0.8-9-0.9
		c-2.5-0.1-5,0.1-7.5,0.1c-4,0.1-8,0.1-12-0.6c-1.6-0.3-3.1-1-4.3-2c-1.7-1.5-3.4-3.2-5.1-4.7c-0.9-0.8-1.1-2.5-0.6-3.4
		c0.3-0.5,0.2-0.9,0-1.2c-1.3-2.8-1.2-5.6-0.4-8.3c0,0,0,0,0.1-0.1c0.4,1,0.3,2,0.8,3c0.4-0.8,0.7-1.4,1.1-2.2
		c0.4,1,0.6,1.9,0.8,2.8c0.4,1.3,0.7,2.8,1.6,3.9c0.3,0.4,0.6,0.8,1,1.1c0.9,0.6,1.5,0.3,1.6-0.8c0-0.2,0-0.3,0.1-0.4
		c0.2,0,0.2,0.1,0.3,0.2c0.2,0.5,0.4,1.1,1.1,1.2c0.9,0.2,1.8,0.2,2.7-0.3c0.3-0.2,0.4-0.6,0.5-0.9c0.1-0.6,0.2-1.1,0.2-1.6
		c0-0.3-0.1-0.6,0.1-1c0.2,0.6,0.4,1.1,0.6,1.6c0.1,0.3,0.3,0.6,0.5,0.9s0.5,0.4,0.8,0.1c0.5-0.5,0.7-1.1,0.8-1.7
		c0.1-1.2,0-2.5-0.1-3.7c0-0.5,0.1-0.9,0.4-1.2c0.5-0.5,0.9-1.1,1.4-1.6c0.4,1.7,0.8,3.4,1.1,5.1c0.5-0.9,0.6-1.6,0.9-2.4
		c0.6,0.1,0.9,0.3,0.9,0.9c0,0.9,0.3,1.7,0.5,2.5c0.1,0.3,0.2,0.6,0.3,0.9s0.3,0.7,0.7,0.7c0.5,0,0.5-0.5,0.6-0.8
		c0.3-0.7,0.4-1.5,0.7-2.3c0.2,0.8,0.1,1.5,0.4,2.2c0.1,0.2,0.1,0.4,0.2,0.6c0.1,0.3,0.3,0.5,0.6,0.3s0.6-0.1,0.8,0.1
		c0.4,0.3,0.6,0.1,0.8-0.2c0.3-0.5,0.4-1.1,0.6-1.7c0.4,0.5,0.4,1,0.5,1.4c0.1,0.3,0.1,0.6,0.3,0.8c0.3,0.4,0.7,0.9,1.2,0.8
		c0.5,0,0.5-0.6,0.7-1c0.1-0.1,0.1-0.2,0.2-0.4c0.3,0.4,0,1.1,0.6,1.2c0.4,0.2,0.9,0.1,1.2,0c0.8-0.2,0.9-0.3,0.5-2.1
		c0.4,0.2,0.4,0.7,0.6,1c0.5,0.8,0.7,0.9,1.5,0.7c0.3-0.1,0.6-0.2,0.9-0.3c1.1-0.5,1.3-1,1.2-2.1c0-0.4-0.1-0.9,0.1-1.3
		c0.2,0.4,0.4,0.9,0.7,1.2c0.5,0.8,0.8,0.8,1.4,0.3c0.7-0.5,1.1-1.1,1.1-2c0-0.8,0-1.5-0.1-2.3c0-0.3-0.2-0.6,0.1-0.9
		c0.6,0.9,1,1.7,1.6,2.6c0.4,0.5,0.8,0.9,1.3,1.1s0.7,0.1,0.9-0.4c0.3-0.7,0.3-1.4,0.4-2.1c0-0.7,0-1.3,0.1-2
		c0.1,0.4,0.3,0.9,0.4,1.2c0.2,0.5,0.4,1,0.6,1.4c0.5,0.9,1.2,1.1,2.2,0.9c0.3-0.1,0.4-0.3,0.5-0.5c0.2-0.4,0.3-0.8,0.5-1.2
		c0.3,0.4,0.3,0.7,0.4,1.1c0.1,0.4,0.2,0.9,0.8,0.9s1.1-0.1,1.4-0.6c0.3-0.4,0.4-0.9,0.6-1.2c0.1-0.3,0.1-0.5,0.4-0.8
		c0.1,0.5,0.3,1,0.4,1.4s0.3,0.8,0.8,0.7c0.5,0,1-0.2,1.1-0.8c0.1-0.4,0.2-0.8,0.2-1.1c0.1-0.3,0-0.6,0.2-1c0.3,0.5,0.4,0.9,0.7,1.2
		c0.4,0.6,0.9,0.6,1.3,0c0.4-0.5,0.5-1.1,0.8-1.7c0.4,0.9,1,1.3,1.9,1.1c1-0.3,0.9-1.1,1.2-1.8c0.3,0.3,0.3,0.7,0.5,1
		s0.4,0.6,0.8,0.5s0.8-0.1,1-0.6s0.4-1.1,0.6-1.6c0.2,0.4,0.4,0.7,0.6,1s0.5,0.4,0.8,0.1c0.6-0.4,0.8-1.1,1.3-1.6
		c0.5,0.7,1.1,0.4,1.7,0.1c0.5-0.2,0.9-0.4,1.3-0.6c0.8-0.3,1.4-0.7,1.9-1.4c0.6-0.9,1.4-1.3,2.5-1.3c0.6,0,1.2-0.1,1.8-0.3
		c0.5-0.2,1.1-0.2,1.5-0.5c-0.8-0.7-1.5-1.2-2.5-1.6c-1.8-0.7-3.7-1.1-5.6-1.9c-0.3,0.2-0.3,0.6-0.7,0.8c-0.7,0.3-1.1,0-1.4-0.7
		c-0.1-0.3-0.1-0.7-0.5-0.9c-0.6-0.2-0.9-0.1-1.1,0.5c-0.1,0.2-0.2,0.4-0.3,0.6s-0.1,0.7-0.6,0.6c-0.4-0.1-0.8-0.2-0.9-0.7
		c-0.1-0.3-0.1-0.5-0.2-0.8c-0.1-0.3-0.3-0.5-0.6-0.6c-0.9-0.1-1-0.1-1.1,0.8c-0.1,0.3-0.1,0.7-0.2,1c-0.1,0.3,0,0.6-0.5,0.6
		c-0.4,0-0.9,0-1-0.6c0-0.2-0.1-0.4-0.1-0.7c-0.2-0.9-1-1.2-1.8-1c-0.3,0.1-0.3,0.4-0.4,0.6c-0.3,0.9-0.6,1.8-0.9,2.8
		c-0.9-0.8-1.6-1.6-1.7-2.8c-0.1-0.6-0.2-1-0.9-1.1c-0.8-0.1-1.1,0-1.5,0.7s-0.6,1.3-1,2.1c-0.4-0.9-0.4-1.6-0.7-2.4
		c-0.2-0.5-0.5-1-1-1.1c-0.6-0.3-0.9-0.2-1.1,0.3c-0.2,0.4-0.5,0.8-0.8,1.2c-0.4-1.1-0.4-2.1-1.7-2.4c-1.2-0.2-1.8,0.6-2.5,1.5
		c-0.2-0.6-0.3-1-0.5-1.3c-0.3-0.8-0.8-1-1.8-0.8c-0.9,0.1-1.1,0.3-1.1,1.1c-0.1,0.7-0.1,1.3-0.1,2.1c-0.4-0.6-0.8-1.1-1.1-1.6
		c-0.4-0.5-0.9-0.8-1.4-0.6c-0.2,0.1-0.5,0.1-0.7,0.2c-1.5,0.6-1.8,1.1-1.6,2.7c0.1,0.5,0.1,0.9,0.2,1.3c0.3,1.1-0.1,1.8-0.9,2.6
		c-0.8-0.8-1.5-1.4-1.5-2.6c0-0.8-0.2-1.5-0.5-2.2c-0.2-0.4-0.4-1-0.9-1c-0.4,0-0.5,0.6-0.6,1c-0.3,1.1-0.2,2.1-0.2,3.3
		c-0.5-0.3-0.5-0.8-0.8-1.1c-0.3,0.2-0.4,0.5-0.7,0.9c-0.2-0.8-0.4-1.5-0.6-2.2c-0.4-1.3-0.7-2.7-1.3-4c-0.2-0.3-0.3-0.8-0.7-0.7
		c-0.4,0-0.5,0.5-0.6,0.8c-0.2,0.7-0.3,1.3-0.4,2c0,0.2,0,0.5-0.2,0.8c-0.1-0.7-0.2-1.2-0.3-1.8c-0.1-0.7-0.2-1.3-0.4-2
		c-0.1-0.3-0.2-0.6-0.4-0.9c-0.7-0.9-1.1-0.9-1.5,0.2c-0.2,0.4-0.4,0.9-0.7,1.5c-0.2-0.7-0.3-1.1-0.4-1.5c-0.1-0.7-0.5-1.1-1.1-1.3
		c-1-0.4-1.8-1-2.5-1.7l-0.1-0.1c-0.8-0.5-1.1-0.4-1.2,0.5c-0.1,0.8,0,1.5,0,2.4c-0.5-0.5-1-0.9-1.3-1.3c-0.6-0.6-1.1-0.7-1.9-0.5
		c-0.3,0.1-0.6,0.2-0.9,0.3c-0.9,0.4-1.3,1-1.4,2c-0.1,1.2-0.1,2.6,0.1,3.8c0.1,1,0.3,1.9,0.4,3c-1.7-1.5-2.4-3.5-3.3-5.5
		c-0.4,0-0.5,0.5-0.9,0.6c-0.2-0.7-0.5-1.3-0.7-2c-0.2-0.5-0.4-1-0.8-1.4c-0.2-0.3-0.4-0.5-0.7-0.5s-0.5,0.3-0.6,0.6
		c-0.3,0.9-0.4,1.7-0.4,2.6c0,0.4,0,0.9-0.1,1.2c-0.1-0.6-0.3-1.1-0.4-1.7c-0.1-0.4-0.2-0.8-0.5-1.1c-0.1-0.2-0.2-0.4-0.5-0.4
		s-0.3,0.3-0.4,0.5c-0.1,0.5-0.2,1-0.3,1.5c-0.8-1.1-1.3-2.1-1.1-3.4c0.1-0.4,0-0.9,0-1.2s-0.1-0.6-0.4-0.7
		c-0.3-0.1-0.5,0.1-0.7,0.2c-0.2,0.2-0.5,0.4-0.7,0.6c-0.3-0.3-0.5-0.6-0.6-1c-0.3-0.8-0.9-1.1-1.5-1.2c-0.9-0.2-1.2-0.7-1.3-1.5
		c-0.2-1.2,0-2.3,0.7-3.4c1.4-2.3,3.4-4,5.7-5.4c2-1.1,4-2,6.3-2.2c1.5-0.1,2.7,0.2,3.5,1.5c0.3,0.5,0.8,1,1.1,1.5
		c0.9,1.5,2.2,2,3.8,2c1.2,0,2.5,0,3.6-0.2c3.5-0.6,7.2-0.5,10.8-0.2c6.2,0.4,12.4-0.1,18.4-1.3c1.7-0.4,3.3-1.1,4.8-1.8
		c2.5-1.1,4.9-2.5,7.2-3.9c1.3-0.9,2.5-1.9,3.6-3c1.2-1.1,2.5-2.4,4.1-3.1c1.7-0.8,3.4-1.3,5.3-1.6c1.1-0.2,1.9,0,2.8,0.7
		c0.8,0.6,1.5,1.1,2.3,1.7c1,0.9,2.1,1.3,3.4,1.6c3.9,1,7.9,1.4,11.9,1.4c1.1,0,2.4,0.1,3.5,0.2s2.3,0.5,3.4,1.1
		c0.1,0,0.1,0.1,0.2,0.1v-35c-13.3-0.3-25.9-5.1-38-12.9c1.9,3.8,4,6.6,5.7,9.8c1.9,3.5,1,5.6-2.6,6.5c-4,0.9-9.7,2.3-11,4
		c-1.1,1.4,3.9,1.4-1.2,2.6c-2,0.5-3.8-0.6-3.5-2c0.2-1.5,5-2.6,3.9-5.1c-1.8,0.5-12.7-0.6-10.3,2.2c-4.5,0.1-2.6-2.7-2.4-3
		c1.5-2.9,6.9-0.4,6.5-3.5c0-1-1.8-1.7-3.4-2.3c-1.1-0.4-2.6-1.3-2-0.2c1.3,2.4-2,0-1.7-0.9c2.7-4,7.7,0.9,9.1-0.4
		c0.6-0.7-5.2-2.1-3.2-4.9c1.7-2.5,10.5,6.5,13.9,5.5c-1.7-2.5-6.8-6.9-8-9.3c-2.1-4-12.7-6.8-16.1-5.7c-8,2.7-6.7,5.3-17.9,15.2
		c-7.8,2.9-16.3,3.6-21.3-0.4c-5.1-4.1,1.6-19.6,10.8-27.6s8.2-1.1,20-9.3c4.7-2.8,8.8-4.4,13.6-6c2.8-1,6.1-1.1,7.7-4.8
		c1.9-4.3,4.5-7.9,7.2-12.8c-2,0.7-8.5-0.5-11.4,1.4c-6,4-10.6,4-12.9,2.9c-1.7-0.8,1.8-4,2.5-4.8c0.5-0.5-0.2,1.5,0.4,1.1
		c2.2-1.6,4.9-2.7,4.3-3c-0.7-0.5-6.7-0.5-9.5-2.7s0.7-4.9,1.2-5.3c-1,1.9,1.7,4.5,7.4,4.3c-6.2-4.2-6.3-12.9,3.4-9.8
		c-5.4,1.6-6.1,5.5,2.2,6.6c-3.3-8.2,3.3-10.2,6.9-6.7c-3.6,0.3-4.2,2-4.3,3.3c-0.2,4,5.4,4.5,6.8,4.6c3,0,6.1-0.3,9.1,0.2
		c4.8,0.7,5.6,2.9,3.4,8.6c-1.8,4.8-4.8,8.8-8.2,13.5c12.6,0,24.4-4.8,36.4-3.3c9.5,1.3,17.8,5.3,25.8,10.3l-14.6-50.7H112.9
		l-0.2,14.8c9.7,0,13.1,4.7,14.3,7.3c1.2,2.7,1.8,7.7,1.8,15.5v170.1c0,7.8-0.4,12.9-1.4,15.2c-1.3,3.4-3.2,5.9-5.7,7.4
		c-1.6,1-9,1.5-9,1.5v14.8h159l7.6-26.4C279.1,456.6,278.9,456.2,278.8,455.8z"/>
</g>
</svg>
