<?xml version="1.0" encoding="utf-8"?>
<!-- Generator: Adobe Illustrator 19.0.1, SVG Export Plug-In . SVG Version: 6.00 Build 0)  -->
<svg version="1.1" id="letter_E_logo" xmlns="http://www.w3.org/2000/svg" xmlns:xlink="http://www.w3.org/1999/xlink" x="0px"
	 y="0px" viewBox="-250 542 500 500" style="enable-background:new -250 542 500 500;" xml:space="preserve">
<style type="text/css">
	.st0{fill:none;stroke:#FFFFFF;stroke-miterlimit:10;}
	.st1{fill:#A4A940;}
	.st2{enable-background:new    ;}
	.st3{fill:#6D6E71;}
	.st4{display:none;}
	.st5{fill:#FFFFFF;}
</style>
<path class="st0" d="M-2969.8,284.8"/>
<rect x="-62.8" y="648.9" class="st1" width="132.2" height="215.6"/>
<g id="typography">
	<g class="st2">
		<path class="st3" d="M-226,899.3h23.7l2.7,7.7l-1.8,0.7c-0.5-1.3-1-2.2-1.5-3c-0.5-0.7-1.2-1.3-2-1.8c-0.8-0.5-1.5-0.8-2.3-1
			c-0.8-0.2-2.2-0.3-4.2-0.3h-7.1v10.7h3.5c1.3,0,2.3-0.2,2.9-0.7c0.7-0.4,1.1-1,1.4-1.6c0.2-0.5,0.3-1.3,0.3-2.5V907h2v12.8h-2
			v-1.1c0-1-0.1-1.7-0.2-2.1c-0.1-0.4-0.4-0.8-0.8-1.2c-0.4-0.4-0.8-0.6-1.3-0.8c-0.5-0.1-1.2-0.2-2.3-0.2h-3.5v9.5
			c0,1,0,1.6,0.1,1.8c0.1,0.2,0.2,0.4,0.4,0.5c0.2,0.1,0.8,0.1,1.7,0.1h4.4c2.4,0,4.3-0.3,5.7-0.9c1.4-0.6,2.6-1.5,3.6-2.7
			c0.8-0.9,1.6-2.3,2.4-4l1.9,0.7l-3.3,9.1H-226v-1.8h0.8c1,0,1.6-0.1,1.8-0.2c0.4-0.2,0.6-0.5,0.8-0.9c0.1-0.3,0.2-0.9,0.2-1.8
			v-20.1c0-0.9-0.1-1.5-0.3-1.8c-0.2-0.3-0.5-0.5-0.9-0.7c-0.2-0.1-1.1-0.1-2.5-0.1V899.3z"/>
		<path class="st3" d="M-195.2,901.1v-1.8h10.4c4.8,0,8.1,0.3,10,0.9c2.8,0.9,5,2.5,6.7,4.9c1.9,2.6,2.9,5.7,2.9,9.1
			c0,2.3-0.5,4.5-1.4,6.5c-0.9,2-2.2,3.6-3.7,4.9c-1.3,1-2.8,1.8-4.6,2.2c-1.8,0.4-3.6,0.6-5.4,0.6h-14.9v-1.8h1.2l0.4,0
			c0.5,0,0.9-0.1,1.3-0.3s0.6-0.5,0.7-0.8c0.1-0.3,0.1-0.9,0.1-1.8v-19.5c0-1.1-0.1-1.8-0.2-2.1c-0.2-0.4-0.5-0.7-0.9-0.9
			C-192.9,901.1-193.7,901.1-195.2,901.1z M-187.6,926.2h6.3c0.6,0,1.7-0.1,3.1-0.3c1.5-0.2,2.5-0.5,3.1-0.8
			c0.9-0.5,1.8-1.2,2.7-2.3c0.9-1.1,1.5-2.3,2-3.8c0.5-1.5,0.7-3.2,0.7-5c0-1.9-0.2-3.5-0.7-4.9c-0.5-1.4-1.2-2.6-2.1-3.7
			c-0.9-1.1-2-1.9-3.1-2.5c-1.1-0.6-2.4-0.9-3.9-1.1c-0.8-0.1-2-0.1-3.8-0.1h-4.3V926.2z"/>
		<path class="st3" d="M-161,899.3h23.7l2.7,7.7l-1.8,0.7c-0.5-1.3-1-2.2-1.5-3c-0.5-0.7-1.2-1.3-2-1.8c-0.8-0.5-1.5-0.8-2.3-1
			c-0.8-0.2-2.2-0.3-4.2-0.3h-7.1v10.7h3.5c1.3,0,2.3-0.2,2.9-0.7c0.7-0.4,1.1-1,1.4-1.6c0.2-0.5,0.3-1.3,0.3-2.5V907h2v12.8h-2
			v-1.1c0-1-0.1-1.7-0.2-2.1c-0.1-0.4-0.4-0.8-0.8-1.2c-0.4-0.4-0.8-0.6-1.3-0.8c-0.5-0.1-1.2-0.2-2.3-0.2h-3.5v9.5
			c0,1,0,1.6,0.1,1.8s0.2,0.4,0.4,0.5c0.2,0.1,0.8,0.1,1.7,0.1h4.4c2.4,0,4.3-0.3,5.7-0.9c1.4-0.6,2.6-1.5,3.6-2.7
			c0.8-0.9,1.6-2.3,2.4-4l1.9,0.7l-3.3,9.1H-161v-1.8h0.8c1,0,1.6-0.1,1.8-0.2c0.4-0.2,0.6-0.5,0.8-0.9c0.1-0.3,0.2-0.9,0.2-1.8
			v-20.1c0-0.9-0.1-1.5-0.3-1.8c-0.2-0.3-0.5-0.5-0.9-0.7c-0.2-0.1-1.1-0.1-2.5-0.1V899.3z"/>
		<path class="st3" d="M-130.4,899.3h8.9l13.2,21.8v-16.6c0-1-0.1-1.7-0.3-2.1c-0.2-0.4-0.5-0.8-0.9-1c-0.4-0.2-1-0.3-1.7-0.3h-0.8
			v-1.8h9.7v1.8h-0.5c-0.9,0-1.4,0.1-1.7,0.2c-0.4,0.2-0.8,0.6-1,1.1c-0.2,0.5-0.3,1.2-0.3,2.2v23.9h-2.5l-16-26.2V923
			c0,1.2,0,1.9,0.1,2.1c0.1,0.3,0.3,0.6,0.5,0.9c0.3,0.3,0.6,0.4,0.9,0.5s1.1,0.2,2.1,0.2v1.8h-9.9v-1.8h0.5c1,0,1.7-0.1,2-0.3
			s0.6-0.5,0.8-1c0.2-0.5,0.3-1.3,0.3-2.4v-18.5c0-1.2,0-1.9-0.1-2.1c-0.1-0.5-0.4-0.8-0.7-1c-0.4-0.2-1.1-0.3-2.1-0.3h-0.8V899.3z"
			/>
		<path class="st3" d="M-84.8,899.3h15c2.9,0,5,0.3,6.5,0.9c1.5,0.6,2.6,1.4,3.4,2.6c0.8,1.1,1.2,2.4,1.2,3.9c0,1.5-0.4,2.9-1.2,4
			c-0.8,1.2-1.9,2.1-3.3,2.8c-1.4,0.7-3.4,1-5.7,1.1l7.7,9.4c0.6,0.8,1,1.3,1.2,1.4c0.5,0.4,1,0.8,1.5,1c0.5,0.2,1.1,0.3,1.8,0.3
			h0.5v1.8h-6.6l-10.7-13.9h-3.7v9c0,1,0,1.6,0.1,1.9c0.2,0.5,0.4,0.8,0.7,1c0.3,0.2,1,0.3,2,0.3h0.8v1.8h-11.1v-1.8h1
			c0.8,0,1.3,0,1.5-0.1c0.3-0.1,0.5-0.3,0.7-0.5c0.2-0.2,0.3-0.6,0.4-0.9c0-0.2,0-0.9,0.1-2.1v-19.1c0-0.8-0.1-1.5-0.3-1.8
			c-0.2-0.4-0.4-0.6-0.7-0.8c-0.3-0.2-0.8-0.2-1.6-0.2h-1.2V899.3z M-77.3,901.6v11h6c2,0,3.5-0.1,4.3-0.4c1.2-0.3,2.1-0.9,2.8-1.8
			c0.7-0.9,1-2,1-3.4c0-1.2-0.2-2.2-0.7-3s-1.2-1.4-2-1.8c-0.8-0.4-2.1-0.6-3.8-0.6H-77.3z"/>
		<path class="st3" d="M-54.1,899.3h23.7l2.7,7.7l-1.8,0.7c-0.5-1.3-1-2.2-1.5-3c-0.5-0.7-1.2-1.3-2-1.8c-0.8-0.5-1.5-0.8-2.3-1
			c-0.8-0.2-2.2-0.3-4.2-0.3h-7.1v10.7h3.5c1.3,0,2.3-0.2,2.9-0.7c0.7-0.4,1.1-1,1.4-1.6c0.2-0.5,0.3-1.3,0.3-2.5V907h2v12.8h-2
			v-1.1c0-1-0.1-1.7-0.2-2.1c-0.1-0.4-0.4-0.8-0.8-1.2c-0.4-0.4-0.8-0.6-1.3-0.8c-0.5-0.1-1.2-0.2-2.3-0.2h-3.5v9.5
			c0,1,0,1.6,0.1,1.8s0.2,0.4,0.4,0.5s0.8,0.1,1.7,0.1h4.4c2.4,0,4.3-0.3,5.7-0.9c1.4-0.6,2.6-1.5,3.6-2.7c0.8-0.9,1.6-2.3,2.4-4
			l1.9,0.7l-3.3,9.1h-24.6v-1.8h0.8c1,0,1.6-0.1,1.8-0.2c0.4-0.2,0.6-0.5,0.8-0.9c0.1-0.3,0.2-0.9,0.2-1.8v-20.1
			c0-0.9-0.1-1.5-0.3-1.8c-0.2-0.3-0.5-0.5-0.9-0.7c-0.2-0.1-1.1-0.1-2.5-0.1V899.3z"/>
	</g>
	<g class="st2">
		<path class="st3" d="M-23.4,899.3h11.5c3.5,0,5.9,0.2,7.2,0.7c1.7,0.5,3,1.4,4.1,2.7c1.1,1.3,1.6,2.9,1.6,4.9
			c0,1.7-0.4,3.1-1.2,4.4c-1,1.5-2.2,2.5-3.6,3.1c-1.4,0.6-3.6,0.9-6.7,0.9h-5.3v7.5c0,1.1,0.1,1.8,0.2,2.1c0.2,0.4,0.4,0.7,0.7,0.8
			c0.3,0.2,0.9,0.2,1.8,0.2h1v1.8h-11.3v-1.8h0.7c1,0,1.6-0.1,2-0.2c0.3-0.2,0.6-0.4,0.8-0.8c0.2-0.3,0.2-1,0.2-1.9v-19.9
			c0-0.9-0.1-1.5-0.2-1.9c-0.1-0.3-0.4-0.5-0.7-0.7c-0.3-0.1-1-0.2-2-0.2h-0.7V899.3z M-15.8,901.6v12.2h4.5c2.3,0,3.9-0.2,4.8-0.6
			c0.9-0.4,1.7-1.1,2.3-2.1c0.6-1,0.9-2.2,0.9-3.5c0-1.5-0.3-2.7-1-3.7c-0.7-1-1.6-1.6-2.8-2c-0.8-0.2-2.5-0.4-4.9-0.4H-15.8z"/>
		<path class="st3" d="M4.8,898.4h1.5l0.2,1h17.9l0.2-1H26l3.1,8.6l-1.9,0.7c-0.9-2.3-2-3.9-3.2-4.8c-1.2-0.9-2.8-1.4-4.8-1.4
			c-0.8,0-1.3,0-1.4,0.1c-0.2,0.1-0.3,0.2-0.3,0.3c-0.1,0.2-0.1,0.6-0.1,1.5v20.2c0,1,0.1,1.6,0.2,1.9c0.1,0.3,0.3,0.6,0.4,0.8
			c0.2,0.2,0.5,0.3,0.8,0.4c0.3,0.1,1.1,0.1,2.3,0.1v1.8H9.8v-1.8c1.2,0,2-0.1,2.3-0.1c0.5-0.1,0.8-0.4,1-0.8
			c0.2-0.4,0.3-1.1,0.3-2.2V903c0-0.6,0-1-0.1-1.2c-0.1-0.1-0.2-0.2-0.4-0.3c-0.2-0.1-0.5-0.1-1.1-0.1c-1.5,0-2.7,0.2-3.6,0.6
			c-0.9,0.4-1.8,1.1-2.6,2s-1.5,2.1-2.1,3.6l-1.9-0.7L4.8,898.4z"/>
	</g>
	<g class="st2">
		<path class="st3" d="M32.8,899.3H44v1.8h-0.9c-0.8,0-1.4,0.1-1.8,0.3c-0.4,0.2-0.6,0.5-0.8,1c-0.2,0.4-0.3,1.2-0.3,2.4v18.8
			c0,0.9,0.1,1.6,0.3,2c0.2,0.4,0.4,0.7,0.8,0.9c0.3,0.2,0.9,0.3,1.8,0.3H44v1.8H32.8v-1.8h0.9c0.8,0,1.4-0.1,1.7-0.3
			s0.6-0.5,0.7-0.8c0.2-0.4,0.2-1,0.2-2.1v-19.2c0-1.1-0.1-1.8-0.2-2.2c-0.2-0.4-0.4-0.6-0.7-0.8s-0.9-0.3-1.7-0.3h-0.9V899.3z"/>
		<path class="st3" d="M47.6,899.3h11.3v1.8h-1c-0.8,0-1.4,0.1-1.7,0.2c-0.3,0.2-0.6,0.4-0.7,0.7c-0.2,0.3-0.2,0.8-0.2,1.6v20.3
			c0,0.9,0,1.5,0.1,1.7c0.1,0.3,0.3,0.4,0.5,0.5c0.2,0.1,0.8,0.1,1.7,0.1h1.6c1.8,0,3.4-0.3,4.7-0.8c1.3-0.5,2.5-1.3,3.4-2.3
			c1-1,1.9-2.5,2.8-4.5l1.9,0.6l-3.3,9.1h-21v-1.8h0.9c0.9,0,1.5-0.1,1.8-0.2c0.3-0.2,0.5-0.4,0.7-0.8c0.2-0.4,0.3-1,0.3-1.8v-19.8
			c0-1-0.1-1.7-0.2-2c-0.2-0.3-0.4-0.6-0.7-0.7c-0.3-0.1-0.9-0.2-1.9-0.2h-0.9V899.3z"/>
		<path class="st3" d="M73.4,899.3H97l2.7,7.7l-1.8,0.7c-0.5-1.3-1-2.2-1.5-3c-0.5-0.7-1.2-1.3-2-1.8c-0.8-0.5-1.5-0.8-2.3-1
			c-0.8-0.2-2.2-0.3-4.2-0.3h-7.1v10.7h3.5c1.3,0,2.3-0.2,2.9-0.7c0.7-0.4,1.1-1,1.4-1.6c0.2-0.5,0.3-1.3,0.3-2.5V907h2v12.8h-2
			v-1.1c0-1-0.1-1.7-0.2-2.1c-0.1-0.4-0.4-0.8-0.8-1.2c-0.4-0.4-0.8-0.6-1.3-0.8c-0.5-0.1-1.2-0.2-2.3-0.2h-3.5v9.5
			c0,1,0,1.6,0.1,1.8s0.2,0.4,0.4,0.5c0.2,0.1,0.8,0.1,1.7,0.1h4.4c2.4,0,4.3-0.3,5.7-0.9c1.4-0.6,2.6-1.5,3.6-2.7
			c0.8-0.9,1.6-2.3,2.4-4l1.9,0.7l-3.3,9.1H73.4v-1.8h0.8c1,0,1.6-0.1,1.8-0.2c0.4-0.2,0.6-0.5,0.8-0.9c0.1-0.3,0.2-0.9,0.2-1.8
			v-20.1c0-0.9-0.1-1.5-0.3-1.8c-0.2-0.3-0.5-0.5-0.9-0.7c-0.2-0.1-1.1-0.1-2.5-0.1V899.3z"/>
		<path class="st3" d="M117.7,899.3h11.5c3.5,0,5.9,0.2,7.2,0.7c1.7,0.5,3,1.4,4.1,2.7c1.1,1.3,1.6,2.9,1.6,4.9
			c0,1.7-0.4,3.1-1.2,4.4c-1,1.5-2.2,2.5-3.6,3.1c-1.4,0.6-3.6,0.9-6.7,0.9h-5.3v7.5c0,1.1,0.1,1.8,0.2,2.1c0.2,0.4,0.4,0.7,0.7,0.8
			c0.3,0.2,0.9,0.2,1.8,0.2h1v1.8h-11.3v-1.8h0.7c1,0,1.6-0.1,2-0.2c0.3-0.2,0.6-0.4,0.8-0.8c0.2-0.3,0.2-1,0.2-1.9v-19.9
			c0-0.9-0.1-1.5-0.2-1.9c-0.1-0.3-0.4-0.5-0.7-0.7c-0.3-0.1-1-0.2-2-0.2h-0.7V899.3z M125.3,901.6v12.2h4.5c2.3,0,3.9-0.2,4.8-0.6
			c0.9-0.4,1.7-1.1,2.3-2.1c0.6-1,0.9-2.2,0.9-3.5c0-1.5-0.3-2.7-1-3.7c-0.7-1-1.6-1.6-2.8-2c-0.8-0.2-2.5-0.4-4.9-0.4H125.3z"/>
		<path class="st3" d="M155.1,899.3h3.4l9.1,24.3c0.4,1.2,0.9,2,1.3,2.4c0.5,0.4,1.1,0.6,1.8,0.6h0.5v1.8h-10.4v-1.8
			c0.3,0,0.7,0,1,0c0.7,0,1.1-0.1,1.3-0.2c0.4-0.3,0.6-0.6,0.6-1c0-0.3-0.2-1-0.6-2.2l-1.9-5.6h-10.6l-2.3,6.3
			c-0.2,0.7-0.4,1.1-0.4,1.4c0,0.3,0.1,0.5,0.2,0.7c0.1,0.2,0.3,0.4,0.6,0.5c0.2,0.1,0.7,0.2,1.2,0.2c0.4,0,0.7,0,0.9,0v1.8h-8.7
			v-1.8c0.8,0,1.4-0.1,1.7-0.2c0.4-0.2,0.7-0.4,0.9-0.8c0.3-0.4,0.6-1.1,1-2.2L155.1,899.3z M151.5,915.6h9l-4.5-12.5L151.5,915.6z"
			/>
		<path class="st3" d="M173.4,899.3h15c2.9,0,5,0.3,6.5,0.9c1.5,0.6,2.6,1.4,3.4,2.6c0.8,1.1,1.2,2.4,1.2,3.9c0,1.5-0.4,2.9-1.2,4
			c-0.8,1.2-1.9,2.1-3.3,2.8s-3.4,1-5.7,1.1l7.7,9.4c0.6,0.8,1,1.3,1.2,1.4c0.5,0.4,1,0.8,1.5,1c0.5,0.2,1.1,0.3,1.8,0.3h0.5v1.8
			h-6.6l-10.7-13.9H181v9c0,1,0,1.6,0.1,1.9c0.2,0.5,0.4,0.8,0.7,1c0.3,0.2,1,0.3,2,0.3h0.8v1.8h-11.1v-1.8h1c0.8,0,1.3,0,1.5-0.1
			c0.3-0.1,0.5-0.3,0.7-0.5c0.2-0.2,0.3-0.6,0.4-0.9c0-0.2,0-0.9,0.1-2.1v-19.1c0-0.8-0.1-1.5-0.3-1.8c-0.2-0.4-0.4-0.6-0.7-0.8
			c-0.3-0.2-0.8-0.2-1.6-0.2h-1.2V899.3z M181,901.6v11h6c2,0,3.5-0.1,4.3-0.4c1.2-0.3,2.1-0.9,2.8-1.8c0.7-0.9,1-2,1-3.4
			c0-1.2-0.2-2.2-0.7-3c-0.5-0.8-1.2-1.4-2-1.8c-0.8-0.4-2.1-0.6-3.8-0.6H181z"/>
		<path class="st3" d="M204.3,899.3h11.3v1.8h-0.8c-0.9,0-1.6,0.1-1.9,0.3c-0.4,0.2-0.6,0.6-0.8,1c-0.1,0.3-0.2,0.9-0.2,1.7v11.1
			l10.9-11.6c0.6-0.6,0.9-1,1-1.2c0.1-0.2,0.2-0.4,0.2-0.6c0-0.3-0.1-0.4-0.4-0.6c-0.2-0.1-0.8-0.2-1.6-0.2h-0.7v-1.8h10.4v1.8
			c-0.8,0-1.6,0.1-2.2,0.3c-0.7,0.2-1.2,0.4-1.6,0.7c-0.8,0.6-1.5,1.1-1.8,1.5l-7.8,8l8.9,11.8c0.8,1.1,1.4,1.8,1.9,2.2
			c0.5,0.4,1,0.7,1.5,0.8c0.5,0.2,1.3,0.2,2.3,0.2v1.8h-12.4v-1.8h0.7c0.8,0,1.3,0,1.5-0.1c0.2-0.1,0.4-0.2,0.6-0.3s0.2-0.3,0.2-0.5
			c0-0.4-0.5-1.2-1.4-2.5l-6.5-8.9l-3.7,3.8v5.6c0,1,0.1,1.6,0.3,2c0.2,0.3,0.5,0.6,0.9,0.8c0.3,0.1,1.2,0.2,2.5,0.2v1.8h-11.3v-1.8
			h0.9c0.9,0,1.5-0.1,1.8-0.3c0.3-0.2,0.6-0.5,0.7-0.9c0.2-0.4,0.3-1.1,0.3-2.2v-19.2c0-1-0.1-1.7-0.3-2.1c-0.2-0.4-0.4-0.6-0.7-0.8
			c-0.3-0.2-1-0.2-2-0.2h-0.6V899.3z"/>
	</g>
	<g class="st2">
		<path class="st1" d="M-206.5,953.4v-0.5c0.3-0.1,0.5-0.2,0.7-0.2c0.1-0.1,0.2-0.2,0.3-0.3c0.1-0.1,0.1-0.3,0.2-0.5
			c0-0.2,0.1-0.6,0.1-1v-8.9c0-0.5,0-0.8-0.1-1c0-0.2-0.1-0.4-0.2-0.5c-0.1-0.1-0.2-0.2-0.3-0.3c-0.1-0.1-0.4-0.2-0.7-0.2v-0.5h4.5
			c1.3,0,2.4,0.1,3.2,0.4c0.8,0.3,1.5,0.7,2.1,1.3c0.6,0.6,1,1.2,1.3,2.1c0.3,0.8,0.4,1.8,0.4,3c0,1.2-0.1,2.2-0.4,3.1
			s-0.7,1.6-1.2,2.2c-0.4,0.5-1,1-1.6,1.3c-0.5,0.3-1.1,0.5-1.8,0.6c-0.7,0.1-1.6,0.2-2.8,0.2H-206.5z M-203.3,952.4
			c0.3,0,0.7,0,1.2,0c0.6,0,1.1,0,1.5-0.1c0.5-0.1,0.9-0.2,1.2-0.5c0.4-0.2,0.7-0.5,1-0.9c0.3-0.4,0.5-0.8,0.7-1.3
			c0.2-0.5,0.3-1,0.4-1.6c0.1-0.6,0.1-1.2,0.1-1.9c0-1.4-0.2-2.5-0.6-3.4c-0.4-0.9-1-1.6-1.7-2c-0.7-0.4-1.6-0.6-2.6-0.6
			c-0.5,0-0.9,0-1.3,0V952.4z"/>
		<path class="st1" d="M-187.5,950.8c0,0.5,0,0.8,0,1c0,0.2,0.1,0.4,0.2,0.5c0.1,0.1,0.2,0.2,0.3,0.3s0.4,0.2,0.7,0.2v0.5h-4.3v-0.5
			c0.4-0.1,0.7-0.2,0.9-0.4c0.1-0.1,0.2-0.3,0.3-0.6c0-0.2,0.1-0.6,0.1-1.1v-8.9c0-0.5,0-0.8-0.1-1c0-0.2-0.1-0.4-0.2-0.5
			c-0.1-0.1-0.2-0.2-0.3-0.3c-0.1-0.1-0.4-0.2-0.7-0.2v-0.5h4.3v0.5c-0.3,0.1-0.5,0.2-0.7,0.2c-0.1,0.1-0.2,0.2-0.3,0.3
			c-0.1,0.1-0.1,0.3-0.2,0.5c0,0.2-0.1,0.6-0.1,1.1V950.8z"/>
		<path class="st1" d="M-180.9,950.2c0.1,0.6,0.3,1.1,0.6,1.4c0.2,0.3,0.5,0.6,0.9,0.8c0.4,0.2,0.8,0.3,1.4,0.3
			c0.8,0,1.4-0.2,1.8-0.6c0.4-0.4,0.6-1,0.6-1.8c0-0.5-0.1-0.9-0.3-1.3c-0.2-0.3-0.5-0.7-0.9-1c-0.4-0.3-1-0.7-1.9-1.1
			c-0.8-0.4-1.4-0.8-1.9-1.2c-0.5-0.4-0.8-0.8-1-1.2c-0.2-0.4-0.3-0.9-0.3-1.5c0-0.8,0.2-1.4,0.5-2c0.4-0.6,0.9-1,1.6-1.3
			c0.7-0.3,1.5-0.5,2.4-0.5c0.5,0,1,0,1.5,0.1c0.5,0.1,1.1,0.2,1.9,0.4v2.8h-1c-0.2-0.6-0.4-1.1-0.6-1.4s-0.5-0.6-0.8-0.7
			c-0.3-0.1-0.7-0.2-1.3-0.2c-0.4,0-0.8,0.1-1.2,0.2c-0.4,0.2-0.6,0.4-0.8,0.7c-0.2,0.3-0.3,0.7-0.3,1.2c0,0.5,0.1,0.9,0.3,1.2
			c0.2,0.3,0.4,0.6,0.8,0.9c0.4,0.3,0.9,0.6,1.6,1c0.9,0.4,1.6,0.8,2,1.2c0.5,0.4,0.9,0.8,1.1,1.3c0.3,0.5,0.4,1,0.4,1.7
			c0,0.7-0.1,1.3-0.3,1.8c-0.2,0.5-0.5,0.9-0.9,1.2c-0.4,0.3-0.9,0.5-1.4,0.7c-0.6,0.1-1.2,0.2-1.8,0.2c-1.1,0-2.3-0.2-3.7-0.5v-2.8
			H-180.9z"/>
		<path class="st1" d="M-160,939.6v2.9h-1c-0.2-0.6-0.4-1.1-0.6-1.4c-0.3-0.4-0.5-0.6-0.9-0.8c-0.3-0.2-0.7-0.2-1.2-0.2
			c-0.7,0-1.3,0.2-1.9,0.7c-0.6,0.5-1,1.2-1.3,2.1c-0.3,0.9-0.5,2.1-0.5,3.4c0,1.3,0.1,2.5,0.4,3.4c0.3,1,0.6,1.7,1.2,2.2
			c0.5,0.5,1.1,0.7,1.9,0.7c0.6,0,1-0.1,1.4-0.2c0.4-0.2,0.7-0.4,0.9-0.8c0.2-0.3,0.5-0.9,0.7-1.5h1v2.9c-0.6,0.2-1.3,0.3-2,0.4
			c-0.7,0.1-1.4,0.1-2.2,0.1c-1.7,0-3.1-0.6-4-1.8c-0.9-1.2-1.3-2.9-1.3-5.3c0-1.5,0.2-2.8,0.7-3.9c0.5-1.1,1.1-2,2-2.6
			c0.9-0.6,2-0.9,3.2-0.9c0.6,0,1.2,0,1.7,0.1C-161.3,939.3-160.7,939.4-160,939.6z"/>
		<path class="st1" d="M-150.4,953.5c-0.8,0-1.6-0.1-2.3-0.4c-0.7-0.3-1.3-0.7-1.7-1.3c-0.5-0.6-0.9-1.3-1.1-2.2
			c-0.3-0.9-0.4-2-0.4-3.2c0-1.5,0.2-2.8,0.7-3.9c0.5-1.1,1.1-1.9,2-2.5c0.9-0.6,1.9-0.9,3-0.9c1.2,0,2.3,0.3,3.1,0.8
			c0.8,0.5,1.5,1.3,1.9,2.4c0.4,1,0.6,2.3,0.6,3.8c0,1.6-0.2,3-0.7,4.1c-0.5,1.1-1.2,1.9-2,2.5
			C-148.2,953.3-149.2,953.5-150.4,953.5z M-153.8,946.2c0,2.1,0.3,3.7,0.9,4.8c0.6,1.1,1.5,1.6,2.7,1.6c0.7,0,1.4-0.2,1.9-0.7
			c0.5-0.5,0.9-1.2,1.2-2.1c0.3-0.9,0.4-2,0.4-3.2c0-1.5-0.2-2.7-0.5-3.7c-0.3-1-0.7-1.7-1.3-2.1c-0.5-0.4-1.1-0.7-1.8-0.7
			c-0.6,0-1.1,0.1-1.6,0.4c-0.4,0.3-0.8,0.7-1.1,1.2s-0.5,1.2-0.6,1.9C-153.7,944.4-153.8,945.2-153.8,946.2z"/>
		<path class="st1" d="M-136.9,939.3v0.5c-0.3,0.1-0.6,0.1-0.7,0.2c-0.2,0.1-0.3,0.2-0.4,0.3c-0.1,0.2-0.1,0.4-0.1,0.6
			c0,0.2,0,0.5,0.1,0.8c0.1,0.3,0.1,0.6,0.2,0.9l2.4,8.4l3-8.5c0-0.1,0.1-0.3,0.1-0.4c0-0.1,0.1-0.3,0.1-0.4c0-0.1,0.1-0.3,0.1-0.4
			c0-0.1,0-0.2,0-0.3c0-0.4-0.1-0.7-0.3-0.9c-0.2-0.2-0.5-0.3-1-0.4v-0.5h4.3v0.5c-0.3,0.1-0.5,0.2-0.7,0.3
			c-0.2,0.1-0.3,0.3-0.5,0.6c-0.2,0.3-0.4,0.7-0.6,1.4l-4.3,11.4h-1.3l-3.5-11.5c-0.2-0.6-0.3-1.1-0.5-1.3c-0.1-0.3-0.3-0.5-0.5-0.6
			s-0.4-0.2-0.7-0.3v-0.5H-136.9z"/>
		<path class="st1" d="M-116.3,939.3v3.1h-1c-0.1-0.3-0.2-0.6-0.3-0.9c-0.1-0.3-0.2-0.5-0.3-0.6c-0.1-0.2-0.2-0.3-0.4-0.4
			c-0.1-0.1-0.3-0.2-0.5-0.2c-0.2,0-0.4-0.1-0.7-0.1h-3.3v5.4h2.2c0.3,0,0.5,0,0.7-0.1c0.2-0.1,0.3-0.2,0.4-0.4
			c0.1-0.2,0.2-0.5,0.3-1h1v4h-1c-0.1-0.4-0.2-0.7-0.3-0.9c-0.1-0.2-0.3-0.4-0.4-0.4c-0.2-0.1-0.4-0.1-0.7-0.1h-2.2v5.9h3.2
			c0.3,0,0.6,0,0.8-0.1c0.2-0.1,0.4-0.2,0.5-0.3c0.2-0.1,0.3-0.3,0.4-0.6c0.1-0.2,0.2-0.5,0.3-0.7c0.1-0.2,0.2-0.6,0.3-1.1h1
			l-0.2,3.6h-9.5v-0.5c0.4-0.1,0.7-0.2,0.9-0.4c0.1-0.1,0.2-0.3,0.3-0.6c0-0.2,0.1-0.6,0.1-1.1v-8.9c0-0.5,0-0.8-0.1-1
			c0-0.2-0.1-0.4-0.2-0.5c-0.1-0.1-0.2-0.2-0.3-0.3c-0.1-0.1-0.4-0.2-0.7-0.2v-0.5H-116.3z"/>
		<path class="st1" d="M-108.7,947.3v3.5c0,0.5,0,0.9,0.1,1.1c0,0.2,0.1,0.4,0.2,0.5c0.1,0.1,0.2,0.2,0.3,0.3
			c0.1,0.1,0.4,0.2,0.7,0.2v0.5h-4.3v-0.5c0.4-0.1,0.7-0.2,0.9-0.4c0.1-0.1,0.2-0.3,0.3-0.6c0-0.2,0.1-0.6,0.1-1.1v-8.9
			c0-0.5,0-0.8-0.1-1c0-0.2-0.1-0.4-0.2-0.5c-0.1-0.1-0.2-0.2-0.3-0.3c-0.1-0.1-0.4-0.2-0.7-0.2v-0.5h5.1c1.6,0,2.8,0.3,3.6,0.9
			s1.2,1.5,1.2,2.7c0,0.9-0.3,1.7-0.8,2.4c-0.5,0.7-1.3,1.2-2.3,1.5v0.1c0.4,0.2,0.8,0.4,1.1,0.7c0.3,0.3,0.6,0.8,1,1.5l0.9,1.7
			c0.3,0.5,0.5,0.9,0.7,1.1c0.2,0.3,0.4,0.5,0.6,0.6c0.2,0.1,0.5,0.2,0.8,0.3v0.5h-2.9c-0.3-0.4-0.5-0.8-0.7-1.2
			c-0.2-0.4-0.5-0.8-0.7-1.3l-0.9-1.7c-0.3-0.5-0.5-0.9-0.7-1.2c-0.2-0.2-0.3-0.4-0.5-0.5c-0.1-0.1-0.3-0.2-0.5-0.2
			c-0.2,0-0.4-0.1-0.8-0.1H-108.7z M-108.7,940.3v6.1h1.2c0.6,0,1.1,0,1.5-0.1s0.7-0.2,1-0.5c0.3-0.2,0.6-0.6,0.8-1
			c0.2-0.4,0.3-1,0.3-1.6c0-0.7-0.1-1.2-0.3-1.6c-0.2-0.4-0.6-0.8-1-1c-0.5-0.2-1.1-0.3-1.8-0.3
			C-107.8,940.2-108.3,940.2-108.7,940.3z"/>
		<path class="st1" d="M-90.9,939.3h11.1v3.6h-1c-0.2-0.6-0.3-1.1-0.4-1.4c-0.1-0.3-0.3-0.6-0.5-0.8c-0.2-0.2-0.3-0.3-0.5-0.4
			c-0.2-0.1-0.5-0.1-0.8-0.1h-1.3v10.5c0,0.4,0,0.7,0.1,1c0,0.2,0.1,0.4,0.2,0.6c0.1,0.1,0.2,0.3,0.4,0.3c0.2,0.1,0.4,0.2,0.7,0.2
			v0.5h-4.7v-0.5c0.2,0,0.4-0.1,0.5-0.2c0.2-0.1,0.3-0.1,0.4-0.2c0.1-0.1,0.2-0.2,0.2-0.3c0.1-0.1,0.1-0.3,0.2-0.5
			c0-0.2,0.1-0.5,0.1-0.9v-10.5h-1.3c-0.3,0-0.6,0-0.8,0.1c-0.2,0.1-0.4,0.2-0.6,0.4c-0.2,0.2-0.3,0.5-0.5,0.8
			c-0.1,0.4-0.3,0.8-0.4,1.4h-1V939.3z"/>
		<path class="st1" d="M-65.1,950.8c0,0.4,0,0.7,0,0.9c0,0.2,0.1,0.4,0.1,0.5c0,0.1,0.1,0.2,0.2,0.3c0.1,0.1,0.2,0.1,0.3,0.2
			c0.1,0.1,0.3,0.1,0.6,0.2v0.5h-4.3v-0.5c0.4-0.1,0.6-0.2,0.8-0.3c0.2-0.1,0.3-0.3,0.3-0.5c0.1-0.2,0.1-0.6,0.1-1.2v-4.3h-5.7v4.3
			c0,0.5,0,0.8,0,1c0,0.2,0.1,0.4,0.2,0.5c0.1,0.1,0.2,0.2,0.3,0.3c0.1,0.1,0.4,0.2,0.7,0.2v0.5h-4.3v-0.5c0.4-0.1,0.7-0.2,0.9-0.4
			c0.1-0.1,0.2-0.3,0.3-0.6c0-0.2,0.1-0.6,0.1-1.1v-8.9c0-0.5,0-0.8-0.1-1c0-0.2-0.1-0.4-0.2-0.5c-0.1-0.1-0.2-0.2-0.3-0.3
			c-0.1-0.1-0.4-0.2-0.7-0.2v-0.5h4.3v0.5c-0.3,0.1-0.5,0.2-0.7,0.2c-0.1,0.1-0.2,0.2-0.3,0.3c-0.1,0.1-0.1,0.3-0.2,0.5
			c0,0.2-0.1,0.6-0.1,1.1v3.6h5.7v-3.6c0-0.6,0-1-0.1-1.2c-0.1-0.2-0.2-0.4-0.3-0.5c-0.1-0.1-0.4-0.2-0.8-0.3v-0.5h4.3v0.5
			c-0.4,0.1-0.7,0.2-0.8,0.3c-0.2,0.1-0.3,0.3-0.3,0.5c-0.1,0.2-0.1,0.6-0.1,1.2V950.8z"/>
		<path class="st1" d="M-49.9,939.3v3.1h-1c-0.1-0.3-0.2-0.6-0.3-0.9c-0.1-0.3-0.2-0.5-0.3-0.6c-0.1-0.2-0.2-0.3-0.4-0.4
			c-0.1-0.1-0.3-0.2-0.5-0.2c-0.2,0-0.4-0.1-0.7-0.1h-3.3v5.4h2.2c0.3,0,0.5,0,0.7-0.1c0.2-0.1,0.3-0.2,0.4-0.4
			c0.1-0.2,0.2-0.5,0.3-1h1v4h-1c-0.1-0.4-0.2-0.7-0.3-0.9c-0.1-0.2-0.3-0.4-0.4-0.4c-0.2-0.1-0.4-0.1-0.7-0.1h-2.2v5.9h3.2
			c0.3,0,0.6,0,0.8-0.1c0.2-0.1,0.4-0.2,0.5-0.3c0.2-0.1,0.3-0.3,0.4-0.6c0.1-0.2,0.2-0.5,0.3-0.7c0.1-0.2,0.2-0.6,0.3-1.1h1
			l-0.2,3.6h-9.5v-0.5c0.4-0.1,0.7-0.2,0.9-0.4c0.1-0.1,0.2-0.3,0.3-0.6c0-0.2,0.1-0.6,0.1-1.1v-8.9c0-0.5,0-0.8-0.1-1
			c0-0.2-0.1-0.4-0.2-0.5c-0.1-0.1-0.2-0.2-0.3-0.3c-0.1-0.1-0.4-0.2-0.7-0.2v-0.5H-49.9z"/>
		<path class="st1" d="M-30.5,941.9l-3.3,11.5h-1.7l-3-11.2c-0.1-0.5-0.2-0.8-0.3-1.1c-0.1-0.3-0.2-0.5-0.3-0.7
			c-0.1-0.2-0.2-0.3-0.3-0.4c-0.1-0.1-0.3-0.2-0.5-0.2v-0.5h4.4v0.5c-0.4,0.1-0.7,0.2-0.9,0.4c-0.2,0.2-0.3,0.4-0.3,0.7
			c0,0.2,0,0.5,0.1,0.9c0.1,0.3,0.1,0.7,0.3,1.1l2.1,8.1l3.3-11.7h1.7l2.7,11.7l2.4-7.9c0.3-1,0.4-1.6,0.4-2c0-0.4-0.1-0.7-0.3-0.9
			c-0.2-0.2-0.5-0.3-0.9-0.4v-0.5h4.1v0.5c-0.2,0.1-0.4,0.1-0.5,0.2c-0.1,0.1-0.2,0.2-0.4,0.4c-0.1,0.1-0.2,0.4-0.4,0.7
			c-0.1,0.3-0.3,0.7-0.5,1.2l-3.7,11.1h-1.5L-30.5,941.9z"/>
		<path class="st1" d="M-12.5,953.5c-0.8,0-1.6-0.1-2.3-0.4c-0.7-0.3-1.3-0.7-1.7-1.3c-0.5-0.6-0.9-1.3-1.1-2.2s-0.4-2-0.4-3.2
			c0-1.5,0.2-2.8,0.7-3.9c0.5-1.1,1.1-1.9,2-2.5c0.9-0.6,1.9-0.9,3-0.9c1.2,0,2.3,0.3,3.1,0.8c0.8,0.5,1.5,1.3,1.9,2.4
			c0.4,1,0.6,2.3,0.6,3.8c0,1.6-0.2,3-0.7,4.1s-1.2,1.9-2,2.5C-10.4,953.3-11.4,953.5-12.5,953.5z M-15.9,946.2
			c0,2.1,0.3,3.7,0.9,4.8c0.6,1.1,1.5,1.6,2.7,1.6c0.7,0,1.4-0.2,1.9-0.7c0.5-0.5,0.9-1.2,1.2-2.1c0.3-0.9,0.4-2,0.4-3.2
			c0-1.5-0.2-2.7-0.5-3.7c-0.3-1-0.7-1.7-1.3-2.1c-0.5-0.4-1.1-0.7-1.8-0.7c-0.6,0-1.1,0.1-1.6,0.4c-0.4,0.3-0.8,0.7-1.1,1.2
			c-0.3,0.5-0.5,1.2-0.6,1.9C-15.9,944.4-15.9,945.2-15.9,946.2z"/>
		<path class="st1" d="M5.9,947.8c0.2,0.4,0.5,0.8,0.6,1.1c0.2,0.3,0.3,0.7,0.5,1h0.1c0-0.4-0.1-1.3-0.1-2.5c0-1.2,0-2.4,0-3.4v-2.2
			c0-0.5,0-0.8,0-1c0-0.2-0.1-0.4-0.1-0.5c-0.1-0.1-0.2-0.2-0.3-0.3c-0.1-0.1-0.3-0.2-0.7-0.2v-0.5h3.7v0.5C9.3,939.9,9.1,940,9,940
			c-0.1,0.1-0.2,0.2-0.3,0.3c-0.1,0.1-0.1,0.3-0.2,0.5c0,0.2-0.1,0.6-0.1,1.1v11.5H7.1l-5.7-9.6c-0.4-0.6-0.6-1-0.8-1.3
			c-0.2-0.3-0.3-0.5-0.4-0.8H0c0,0.5,0.1,1.5,0.1,2.9c0,1.4,0,2.8,0,4.1v2.1c0,0.5,0,0.8,0,1c0,0.2,0.1,0.4,0.2,0.5
			c0.1,0.1,0.2,0.2,0.3,0.3s0.4,0.2,0.7,0.2v0.5h-3.8v-0.5c0.4-0.1,0.7-0.2,0.9-0.4c0.1-0.1,0.2-0.3,0.3-0.6c0-0.2,0.1-0.6,0.1-1.1
			v-8.9c0-0.5,0-0.8-0.1-1c0-0.2-0.1-0.4-0.2-0.5c-0.1-0.1-0.2-0.2-0.3-0.3c-0.1-0.1-0.4-0.2-0.7-0.2v-0.5h3.2L5.9,947.8z"/>
		<path class="st1" d="M13.9,953.4v-0.5c0.3-0.1,0.5-0.2,0.7-0.2c0.1-0.1,0.2-0.2,0.3-0.3c0.1-0.1,0.1-0.3,0.2-0.5
			c0-0.2,0.1-0.6,0.1-1v-8.9c0-0.5,0-0.8-0.1-1c0-0.2-0.1-0.4-0.2-0.5c-0.1-0.1-0.2-0.2-0.3-0.3c-0.1-0.1-0.4-0.2-0.7-0.2v-0.5h4.5
			c1.3,0,2.4,0.1,3.2,0.4c0.8,0.3,1.5,0.7,2.1,1.3c0.6,0.6,1,1.2,1.3,2.1c0.3,0.8,0.4,1.8,0.4,3c0,1.2-0.1,2.2-0.4,3.1
			c-0.3,0.9-0.7,1.6-1.2,2.2c-0.4,0.5-1,1-1.6,1.3c-0.5,0.3-1.1,0.5-1.8,0.6s-1.6,0.2-2.8,0.2H13.9z M17,952.4c0.3,0,0.7,0,1.2,0
			c0.6,0,1.1,0,1.5-0.1s0.9-0.2,1.2-0.5c0.4-0.2,0.7-0.5,1-0.9c0.3-0.4,0.5-0.8,0.7-1.3c0.2-0.5,0.3-1,0.4-1.6
			c0.1-0.6,0.1-1.2,0.1-1.9c0-1.4-0.2-2.5-0.6-3.4c-0.4-0.9-1-1.6-1.7-2c-0.7-0.4-1.6-0.6-2.6-0.6c-0.5,0-0.9,0-1.3,0V952.4z"/>
		<path class="st1" d="M39.4,939.3v3.1h-1c-0.1-0.3-0.2-0.6-0.3-0.9c-0.1-0.3-0.2-0.5-0.3-0.6c-0.1-0.2-0.2-0.3-0.4-0.4
			c-0.1-0.1-0.3-0.2-0.5-0.2c-0.2,0-0.4-0.1-0.7-0.1h-3.3v5.4h2.2c0.3,0,0.5,0,0.7-0.1c0.2-0.1,0.3-0.2,0.4-0.4s0.2-0.5,0.3-1h1v4
			h-1c-0.1-0.4-0.2-0.7-0.3-0.9c-0.1-0.2-0.3-0.4-0.4-0.4c-0.2-0.1-0.4-0.1-0.7-0.1h-2.2v5.9h3.2c0.3,0,0.6,0,0.8-0.1
			c0.2-0.1,0.4-0.2,0.5-0.3c0.2-0.1,0.3-0.3,0.4-0.6c0.1-0.2,0.2-0.5,0.3-0.7c0.1-0.2,0.2-0.6,0.3-1.1h1l-0.2,3.6h-9.5v-0.5
			c0.4-0.1,0.7-0.2,0.9-0.4c0.1-0.1,0.2-0.3,0.3-0.6c0-0.2,0.1-0.6,0.1-1.1v-8.9c0-0.5,0-0.8-0.1-1c0-0.2-0.1-0.4-0.2-0.5
			c-0.1-0.1-0.2-0.2-0.3-0.3c-0.1-0.1-0.4-0.2-0.7-0.2v-0.5H39.4z"/>
		<path class="st1" d="M46.9,947.3v3.5c0,0.5,0,0.9,0.1,1.1c0,0.2,0.1,0.4,0.2,0.5c0.1,0.1,0.2,0.2,0.3,0.3c0.1,0.1,0.4,0.2,0.7,0.2
			v0.5h-4.3v-0.5c0.4-0.1,0.7-0.2,0.9-0.4c0.1-0.1,0.2-0.3,0.3-0.6c0-0.2,0.1-0.6,0.1-1.1v-8.9c0-0.5,0-0.8-0.1-1
			c0-0.2-0.1-0.4-0.2-0.5c-0.1-0.1-0.2-0.2-0.3-0.3c-0.1-0.1-0.4-0.2-0.7-0.2v-0.5h5.1c1.6,0,2.8,0.3,3.6,0.9
			c0.8,0.6,1.2,1.5,1.2,2.7c0,0.9-0.3,1.7-0.8,2.4c-0.5,0.7-1.3,1.2-2.3,1.5v0.1c0.4,0.2,0.8,0.4,1.1,0.7c0.3,0.3,0.6,0.8,1,1.5
			l0.9,1.7c0.3,0.5,0.5,0.9,0.7,1.1c0.2,0.3,0.4,0.5,0.6,0.6s0.5,0.2,0.8,0.3v0.5h-2.9c-0.3-0.4-0.5-0.8-0.7-1.2
			c-0.2-0.4-0.5-0.8-0.7-1.3l-0.9-1.7c-0.3-0.5-0.5-0.9-0.7-1.2c-0.2-0.2-0.3-0.4-0.5-0.5c-0.1-0.1-0.3-0.2-0.5-0.2
			c-0.2,0-0.4-0.1-0.8-0.1H46.9z M46.9,940.3v6.1h1.2c0.6,0,1.1,0,1.5-0.1c0.4-0.1,0.7-0.2,1-0.5c0.3-0.2,0.6-0.6,0.8-1
			c0.2-0.4,0.3-1,0.3-1.6c0-0.7-0.1-1.2-0.3-1.6c-0.2-0.4-0.6-0.8-1-1c-0.5-0.2-1.1-0.3-1.8-0.3C47.8,940.2,47.3,940.2,46.9,940.3z"
			/>
		<path class="st1" d="M59.4,950.2c0.1,0.6,0.3,1.1,0.6,1.4c0.2,0.3,0.5,0.6,0.9,0.8c0.4,0.2,0.8,0.3,1.4,0.3c0.8,0,1.4-0.2,1.8-0.6
			c0.4-0.4,0.6-1,0.6-1.8c0-0.5-0.1-0.9-0.3-1.3c-0.2-0.3-0.5-0.7-0.9-1c-0.4-0.3-1-0.7-1.9-1.1c-0.8-0.4-1.4-0.8-1.9-1.2
			c-0.5-0.4-0.8-0.8-1-1.2c-0.2-0.4-0.3-0.9-0.3-1.5c0-0.8,0.2-1.4,0.5-2c0.4-0.6,0.9-1,1.6-1.3c0.7-0.3,1.5-0.5,2.4-0.5
			c0.5,0,1,0,1.5,0.1c0.5,0.1,1.1,0.2,1.9,0.4v2.8h-1c-0.2-0.6-0.4-1.1-0.6-1.4c-0.2-0.3-0.5-0.6-0.8-0.7c-0.3-0.1-0.7-0.2-1.3-0.2
			c-0.4,0-0.8,0.1-1.2,0.2c-0.4,0.2-0.6,0.4-0.8,0.7c-0.2,0.3-0.3,0.7-0.3,1.2c0,0.5,0.1,0.9,0.3,1.2c0.2,0.3,0.4,0.6,0.8,0.9
			c0.4,0.3,0.9,0.6,1.6,1c0.9,0.4,1.6,0.8,2,1.2c0.5,0.4,0.9,0.8,1.1,1.3c0.3,0.5,0.4,1,0.4,1.7c0,0.7-0.1,1.3-0.3,1.8
			c-0.2,0.5-0.5,0.9-0.9,1.2c-0.4,0.3-0.9,0.5-1.4,0.7c-0.6,0.1-1.2,0.2-1.8,0.2c-1.1,0-2.3-0.2-3.7-0.5v-2.8H59.4z"/>
		<path class="st1" d="M82.9,953.5c-0.8,0-1.6-0.1-2.2-0.4c-0.7-0.3-1.3-0.7-1.7-1.3c-0.5-0.6-0.9-1.3-1.1-2.2
			c-0.3-0.9-0.4-2-0.4-3.2c0-1.5,0.2-2.8,0.7-3.9c0.5-1.1,1.1-1.9,2-2.5c0.9-0.6,1.9-0.9,3-0.9c1.2,0,2.3,0.3,3.1,0.8
			c0.8,0.5,1.5,1.3,1.9,2.4c0.4,1,0.6,2.3,0.6,3.8c0,1.6-0.2,3-0.7,4.1c-0.5,1.1-1.2,1.9-2,2.5C85.1,953.3,84,953.5,82.9,953.5z
			 M79.5,946.2c0,2.1,0.3,3.7,0.9,4.8c0.6,1.1,1.5,1.6,2.7,1.6c0.7,0,1.4-0.2,1.9-0.7c0.5-0.5,0.9-1.2,1.2-2.1
			c0.3-0.9,0.4-2,0.4-3.2c0-1.5-0.2-2.7-0.5-3.7c-0.3-1-0.7-1.7-1.3-2.1c-0.5-0.4-1.1-0.7-1.8-0.7c-0.6,0-1.1,0.1-1.6,0.4
			c-0.4,0.3-0.8,0.7-1.1,1.2s-0.5,1.2-0.6,1.9C79.6,944.4,79.5,945.2,79.5,946.2z"/>
		<path class="st1" d="M102.5,939.3v3.1h-1c-0.2-0.5-0.3-0.8-0.4-1.1c-0.1-0.3-0.3-0.5-0.4-0.7c-0.2-0.2-0.3-0.3-0.5-0.3
			c-0.2-0.1-0.5-0.1-0.8-0.1h-3v5.6h2.1c0.3,0,0.5,0,0.7-0.1c0.2-0.1,0.3-0.3,0.4-0.5c0.1-0.2,0.2-0.6,0.3-1.1h1v4.3h-1
			c-0.1-0.5-0.2-0.8-0.3-1.1c-0.1-0.2-0.3-0.4-0.4-0.5c-0.2-0.1-0.4-0.1-0.7-0.1h-2.1v4c0,0.4,0,0.7,0.1,1c0,0.2,0.1,0.4,0.2,0.6
			c0.1,0.1,0.3,0.3,0.4,0.3c0.2,0.1,0.4,0.1,0.7,0.2v0.5h-4.6v-0.5c0.4-0.1,0.7-0.2,0.9-0.4c0.1-0.1,0.2-0.3,0.3-0.6
			c0-0.2,0.1-0.6,0.1-1.1v-8.9c0-0.5,0-0.8-0.1-1c0-0.2-0.1-0.4-0.2-0.5c-0.1-0.1-0.2-0.2-0.3-0.3c-0.1-0.1-0.4-0.2-0.7-0.2v-0.5
			H102.5z"/>
		<path class="st1" d="M121.1,947.8c0.2,0.4,0.5,0.8,0.6,1.1c0.2,0.3,0.3,0.7,0.5,1h0.1c0-0.4-0.1-1.3-0.1-2.5c0-1.2,0-2.4,0-3.4
			v-2.2c0-0.5,0-0.8,0-1c0-0.2-0.1-0.4-0.1-0.5c-0.1-0.1-0.2-0.2-0.3-0.3c-0.1-0.1-0.3-0.2-0.7-0.2v-0.5h3.7v0.5
			c-0.3,0.1-0.5,0.2-0.7,0.2c-0.1,0.1-0.2,0.2-0.3,0.3c-0.1,0.1-0.1,0.3-0.2,0.5c0,0.2-0.1,0.6-0.1,1.1v11.5h-1.3l-5.7-9.6
			c-0.4-0.6-0.6-1-0.8-1.3c-0.2-0.3-0.3-0.5-0.4-0.8h-0.2c0,0.5,0.1,1.5,0.1,2.9c0,1.4,0,2.8,0,4.1v2.1c0,0.5,0,0.8,0,1
			c0,0.2,0.1,0.4,0.2,0.5c0.1,0.1,0.2,0.2,0.3,0.3c0.1,0.1,0.4,0.2,0.7,0.2v0.5h-3.8v-0.5c0.4-0.1,0.7-0.2,0.9-0.4
			c0.1-0.1,0.2-0.3,0.3-0.6c0-0.2,0.1-0.6,0.1-1.1v-8.9c0-0.5,0-0.8-0.1-1c0-0.2-0.1-0.4-0.2-0.5c-0.1-0.1-0.2-0.2-0.3-0.3
			c-0.1-0.1-0.4-0.2-0.7-0.2v-0.5h3.2L121.1,947.8z"/>
		<path class="st1" d="M135.6,953.4v-0.5c0.3-0.1,0.6-0.1,0.8-0.2c0.2-0.1,0.3-0.2,0.4-0.3c0.1-0.1,0.1-0.3,0.1-0.6
			c0-0.2,0-0.5-0.1-0.8s-0.1-0.6-0.2-0.9l-0.4-1.3h-4.8l-0.3,1c-0.2,0.5-0.3,0.9-0.4,1.2c-0.1,0.3-0.1,0.5-0.1,0.7
			c0,0.4,0.1,0.7,0.3,0.9c0.2,0.2,0.5,0.3,1,0.4v0.5h-4.4v-0.5c0.4-0.1,0.7-0.3,1-0.7c0.3-0.4,0.6-0.9,0.8-1.6l4.3-11.4h1.6
			l3.5,11.5c0.2,0.5,0.3,0.9,0.4,1.2c0.1,0.3,0.3,0.5,0.5,0.7s0.4,0.3,0.7,0.3v0.5H135.6z M131.7,947.8h4.3l-2-6.6L131.7,947.8z"/>
		<path class="st1" d="M141.9,939.3h11.1v3.6h-1c-0.2-0.6-0.3-1.1-0.4-1.4c-0.1-0.3-0.3-0.6-0.5-0.8c-0.2-0.2-0.3-0.3-0.5-0.4
			c-0.2-0.1-0.5-0.1-0.9-0.1h-1.3v10.5c0,0.4,0,0.7,0.1,1c0,0.2,0.1,0.4,0.2,0.6c0.1,0.1,0.2,0.3,0.4,0.3c0.2,0.1,0.4,0.2,0.7,0.2
			v0.5h-4.7v-0.5c0.2,0,0.4-0.1,0.5-0.2c0.2-0.1,0.3-0.1,0.4-0.2c0.1-0.1,0.2-0.2,0.2-0.3c0.1-0.1,0.1-0.3,0.2-0.5
			c0-0.2,0.1-0.5,0.1-0.9v-10.5h-1.3c-0.3,0-0.6,0-0.8,0.1c-0.2,0.1-0.4,0.2-0.6,0.4c-0.2,0.2-0.3,0.5-0.5,0.8
			c-0.1,0.4-0.3,0.8-0.4,1.4h-1V939.3z"/>
		<path class="st1" d="M167.2,948.5c0,0.7-0.1,1.4-0.2,1.9c-0.1,0.5-0.3,1-0.6,1.4c-0.2,0.4-0.5,0.7-0.9,0.9
			c-0.4,0.3-0.8,0.4-1.3,0.6c-0.5,0.1-1.1,0.2-1.8,0.2c-0.8,0-1.5-0.1-2.1-0.3c-0.6-0.2-1.1-0.5-1.5-0.9c-0.4-0.4-0.7-0.9-0.8-1.5
			c-0.2-0.6-0.3-1.3-0.3-2.2v-6.8c0-0.5,0-0.9-0.1-1.1c0-0.2-0.1-0.3-0.1-0.4c-0.1-0.1-0.2-0.2-0.3-0.3c-0.1-0.1-0.4-0.2-0.7-0.3
			v-0.5h4.3v0.5c-0.4,0.1-0.7,0.2-0.8,0.3c-0.2,0.1-0.3,0.3-0.3,0.5c-0.1,0.2-0.1,0.6-0.1,1.2v7.3c0,0.7,0.1,1.2,0.2,1.7
			c0.1,0.5,0.3,0.8,0.6,1.1c0.3,0.3,0.6,0.4,0.9,0.5c0.4,0.1,0.8,0.2,1.3,0.2c0.5,0,0.9-0.1,1.3-0.3c0.4-0.2,0.7-0.4,0.9-0.8
			c0.2-0.3,0.4-0.8,0.5-1.3c0.1-0.5,0.1-1.2,0.1-2v-6.4c0-0.6,0-1-0.1-1.2c-0.1-0.2-0.2-0.4-0.3-0.5s-0.4-0.2-0.8-0.3v-0.5h4.1v0.5
			c-0.4,0.1-0.7,0.2-0.8,0.3c-0.1,0.1-0.2,0.3-0.3,0.5c-0.1,0.2-0.1,0.6-0.1,1.2V948.5z"/>
		<path class="st1" d="M175.6,947.3v3.5c0,0.5,0,0.9,0.1,1.1c0,0.2,0.1,0.4,0.2,0.5c0.1,0.1,0.2,0.2,0.3,0.3
			c0.1,0.1,0.4,0.2,0.7,0.2v0.5h-4.3v-0.5c0.4-0.1,0.7-0.2,0.9-0.4c0.1-0.1,0.2-0.3,0.3-0.6c0-0.2,0.1-0.6,0.1-1.1v-8.9
			c0-0.5,0-0.8-0.1-1c0-0.2-0.1-0.4-0.2-0.5c-0.1-0.1-0.2-0.2-0.3-0.3c-0.1-0.1-0.4-0.2-0.7-0.2v-0.5h5.1c1.6,0,2.8,0.3,3.6,0.9
			c0.8,0.6,1.2,1.5,1.2,2.7c0,0.9-0.3,1.7-0.8,2.4c-0.5,0.7-1.3,1.2-2.3,1.5v0.1c0.4,0.2,0.8,0.4,1.1,0.7c0.3,0.3,0.6,0.8,1,1.5
			l0.9,1.7c0.3,0.5,0.5,0.9,0.7,1.1c0.2,0.3,0.4,0.5,0.6,0.6c0.2,0.1,0.5,0.2,0.8,0.3v0.5h-2.9c-0.3-0.4-0.5-0.8-0.7-1.2
			c-0.2-0.4-0.5-0.8-0.7-1.3l-0.9-1.7c-0.3-0.5-0.5-0.9-0.7-1.2c-0.2-0.2-0.3-0.4-0.5-0.5c-0.1-0.1-0.3-0.2-0.5-0.2
			s-0.4-0.1-0.8-0.1H175.6z M175.6,940.3v6.1h1.2c0.6,0,1.1,0,1.5-0.1c0.4-0.1,0.7-0.2,1-0.5c0.3-0.2,0.6-0.6,0.8-1
			c0.2-0.4,0.3-1,0.3-1.6c0-0.7-0.1-1.2-0.3-1.6c-0.2-0.4-0.6-0.8-1-1c-0.5-0.2-1.1-0.3-1.8-0.3C176.5,940.2,176,940.2,175.6,940.3z
			"/>
		<path class="st1" d="M197.1,939.3v3.1h-1c-0.1-0.3-0.2-0.6-0.3-0.9c-0.1-0.3-0.2-0.5-0.3-0.6c-0.1-0.2-0.2-0.3-0.4-0.4
			c-0.1-0.1-0.3-0.2-0.5-0.2c-0.2,0-0.4-0.1-0.7-0.1h-3.3v5.4h2.2c0.3,0,0.5,0,0.7-0.1c0.2-0.1,0.3-0.2,0.4-0.4s0.2-0.5,0.3-1h1v4
			h-1c-0.1-0.4-0.2-0.7-0.3-0.9c-0.1-0.2-0.3-0.4-0.4-0.4c-0.2-0.1-0.4-0.1-0.7-0.1h-2.2v5.9h3.2c0.3,0,0.6,0,0.8-0.1
			c0.2-0.1,0.4-0.2,0.5-0.3c0.2-0.1,0.3-0.3,0.4-0.6c0.1-0.2,0.2-0.5,0.3-0.7c0.1-0.2,0.2-0.6,0.3-1.1h1l-0.2,3.6h-9.5v-0.5
			c0.4-0.1,0.7-0.2,0.9-0.4c0.1-0.1,0.2-0.3,0.3-0.6c0-0.2,0.1-0.6,0.1-1.1v-8.9c0-0.5,0-0.8-0.1-1c0-0.2-0.1-0.4-0.2-0.5
			c-0.1-0.1-0.2-0.2-0.3-0.3c-0.1-0.1-0.4-0.2-0.7-0.2v-0.5H197.1z"/>
	</g>
</g>
<g id="Layer_3">
</g>
<g>
	<path class="st1" d="M-78.7,633.4H74.1l18.7,64.9l-12.5,5.8c-3.2-10.6-6.6-19-10.3-25s-8.1-11.2-13.4-15.4
		c-5.2-4.2-10.4-7.1-15.7-8.4c-5.3-1.4-14.8-2.1-28.6-2.1h-48.4v90.2h24c8.9,0,15.6-1.8,20.1-5.6c4.5-3.7,7.7-8.3,9.4-13.9
		c1.3-4.1,2-11.3,2-21.6v-4h14v108.1h-14V797c0-8.2-0.5-14.2-1.5-17.8c-1-3.6-2.9-7.1-5.6-10.3s-5.6-5.5-8.6-6.6s-8.3-1.7-15.8-1.7
		h-24v80.1c0,8.3,0.3,13.4,1,15.2c0.6,1.8,1.6,3.2,3.1,3.9c1.4,0.9,5.4,1.2,11.7,1.2H9.4c16.7,0,29.7-2.5,39.1-7.4
		c9.4-5,17.6-12.5,24.8-22.7c5.7-8,11-19.3,16.1-33.8l13,5.7L80.1,880h-159v-14.8c0,0,7.4-0.5,9-1.5c2.5-1.5,4.4-4,5.7-7.4
		c1-2.3,1.4-7.4,1.4-15.2V671c0-7.8-0.6-12.8-1.8-15.5c-1.2-2.6-4.6-7.3-14.3-7.3L-78.7,633.4L-78.7,633.4z"/>
</g>
<path class="st4" d="M-2542.2,183.9c-0.1-1.2-0.1-2.5-0.2-3.7c-1.5-3.7-0.4-6.9,2.2-9.7c5.3-2.7,10.4-2.8,15.1,1.1
	c-3.9-4.6-8.7-4.7-14-2.5c-0.8,0.4-1.6,0.8-2.3,1.5c-3,2.6-2.7,6.3-3.6,9.6c0,0.4,0,0.9,0.1,1.3c0.2,0.6,0.3,1.3,0.6,1.9
	c-0.3,0.6,0.9,1.7-1,1.9c-5.2,0.5-10.4,1.3-15.5,2.2c-2.5,0.4-2.2-0.3-1.7-2c1.1-3.4,2.2-6.9,1.5-10.6c-0.3-1.5-0.5-3-2.2-3.6
	c-3.7-1-6.7,0.8-9.6,2.5c-3.5,2-6.3,4.8-8.8,8.4c3.6-3.2,6.6-6.3,10.8-8.1c2.1-0.9,4.2-1.7,6.4-0.3c1.8,1.6,1.7,3.8,1.2,5.7
	c-2.8,10.7-6.7,20.9-13.1,30.2c-1.7,2.4-3.6,4.8-7.4,3.5c-3-1-3.4-1.8-1.7-4.3c3.1-4.7,6-9.5,5.5-15.8c-5.5,1.7-10.8,2.9-16.3,3.5
	c-4.3,0.5-8.5,0.3-12.1-2.4c-0.6-0.4-1.4-0.8-2.1-0.8c-10.4,0-19.4-3.4-26.7-10.5c0-0.9,0-1.7,0-2.6c3.9-1.8,8.1-0.5,12.1-1.3
	c0.8,0,1.5,0,2.4-0.1c-0.4-0.4-0.5,0.1-0.7,0.1c-2,0.1-4,0-6,0.3c-0.3,0-0.7,0-1,0c-6.8,0-7.6-1.1-4.6-7.1c1.7-3.3,3.4-6.5,4.1-10.3
	c0.9-4.8,6.7-7,11.4-4.6c2.4,1.2,4.3,1.1,6.6-0.1c4-2.1,8.4-3.5,12.7-5c1.6-0.5,3.2-0.9,4.9-1c3.9-0.1,4.6,0.6,4.5,4.4
	c-1,3.9-1.5,7.9-3.4,11.5c-0.3,0.7-0.7,1.4-1,2.1c-0.4,1.1-0.7,2.2-1.4,3.1c0.1,0.2-0.4,0.3-0.1,0.5c0-0.2,0.1-0.3,0.2-0.5
	c0.3-0.8,0.8-1.4,0.9-2.2c0.4-0.8,0.7-1.6,1.1-2.4c1.7-3.9,3.6-7.8,4-12.1c-0.3-3.1,1.3-5.2,4-6.8c9.3-5.8,19.5-9.5,30.5-10.9
	c0.6-0.1,1.1-0.2,1.5-0.6c5.8,0,11.7,0,17.5,0c4.5,0.8,9,0.5,13.5,2c21.1,6.8,35.1,24.1,36.4,45.3c0.1,1.6,0,3.2,0.6,4.7
	c0,1.3,0,2.6,0,3.9c-0.6,1.3-0.6,2.6,0,3.8c0,8.6,0,17.1,0,25.7c-0.8,6.7-1.8,13.3-3.9,19.7c-3.5,10.4-8.3,20-16.3,28
	c-6.1,6.1-13.1,10.6-22.2,11.3c-3.6,0-7.2,0-10.8,0c-5.2-1.5-10.2-3.4-13.9-7.6c-5.1-5.8-5.2-16.2,0-22.7c5.1-6.3,14.7-9.1,21.2-6.2
	c9.7,4.3,11.6,16.7,3.5,22.6c-2.6,1.9-5.4,1.8-8.2,0.6c-2.8-1.2-4.8-3.2-5.3-6.2c-0.4-2.6,1.4-5.3,3.7-5.8s3.8,0.4,5,3.2
	c-1.5,0.3-3-1.3-4.4-0.1c-1.4,1.1-0.9,4.2,0.8,5.4c2.2,1.5,5.9,0.9,7.4-1.2c2.4-3.4,2.1-7.7-0.7-11.5c-2-2.6-5.5-3.4-9.6-2.7
	c-8.4,1.6-12.5,8.1-10.9,15.2c1.6,7.4,9.2,12.2,17.1,10.9c5.5-0.9,10.4-3.1,14.4-6.9c0.3-0.6,0.6-1.1,1.4-1.2
	c5.8-3.9,8.5-9.8,10.6-15.9c4.9-13.9,6.6-28,3.4-42.5c-2.1-9.6-6.1-18-16.2-22.5c-2.3-1-4.6-1.4-7.4-1.8c1.7,6.3,3.4,12.4,3.8,18.8
	c0.3,4.1,0.3,8.1-1.7,11.8c-0.9,1.7-2.6,2.4-4.3,2.8c-2.1,0.4-3.2-1-3.3-2.8c-0.6-9-5.7-16.6-7.8-25.1
	C-2541.8,188.3-2541.9,186.1-2542.2,183.9z M-2602.7,218.7c2.3,1.3,4.7,0,7.5,0.4c-2,2.1-3.8,4.1-5.6,6c0.5,1.7,1.6,0.8,2.5,0.5
	c1.6-0.6,2.9-1.6,4.3-2.4c-0.1,2.1-2.7,3.4-1.4,5.7c2.4-1.2,3.7-3.5,5.7-5.1c1.1-0.9,1.8-1.2,1.5,0.7c-0.5,1.1,0.1,2.3-0.5,3.4
	c-0.1,0.7-0.2,1.5-0.3,2.2c3.4-4.4,6.4-9,9.1-13.8c0.7-1.3-0.3-1.4-1.6-1.2c-2.2,0.3-4.7,0-5.6-1.9c-1.3-2.7-3.2-2.3-5.4-1.8
	c-1.6,0.3-3.3,0.4-4.9,0.7c-0.5,0.1-1.8-0.6-1.5,0.9c0.6,1.2,1.9,0.6,2.8,1.1c1.4-0.1,1.3,0.6,0.4,1.1c-1.8,1-3.6,1.9-5.5,2.8
	C-2601.5,218.4-2602.4,218.1-2602.7,218.7z M-2542.2,224.5c-1.4,1.6-2.8,3.2-4.6,5.2c3.3-0.5,5.2-2.5,7.6-3c1,1.1-0.5,1.7-0.4,2.6
	c-0.3,0.8,0.1,1.3,0.8,1.6c1.3-0.3,1.6-2.6,3.1-1.7c1.4,0.8-0.9,1.9-0.3,3c0.2,0.3-0.4,0.8,0.5,1c3.3-4.6,6.5-9.2,10.2-14.4
	c-3.1,0.6-6.4,1.8-7.6-0.6c-1.8-3.4-4.2-2.6-6.8-2.2c-1.7,0.3-3.4,0.6-5.8,1c2,0.8,3.3,1.3,5.1,2c-2.8,1.5-5.3,2.8-8.6,4.6
	c1.7,0,2.5,0,3.3,0C-2544.5,223.8-2542.9,222.4-2542.2,224.5z M-2541.5,233.3c1.3-0.5,2-1.4,2.6-2.3c-0.3-0.5-0.5-1.1-0.8-1.6
	C-2540.6,230.5-2541.2,231.7-2541.5,233.3z M-2622.9,160.4c-2,0-2.9,1.3-2.9,3.1c0.1,2,1.6,2.7,3.4,2.7c1.8-0.1,2.8-1.2,2.8-3
	C-2619.9,161.4-2621,160.4-2622.9,160.4z"/>
<path class="st5" d="M113.8,859.9c-0.5,0-1,0-1.4,0c-1.1-0.3-2.1-0.6-3.3-0.7c-0.7-0.1-1.3-0.1-1.9,0.5c-0.4,0.5-1,0.4-1.4,0.4
	c-1.1-0.1-2.1-0.5-3.2-0.8c-0.8-0.2-1.5-0.6-2.2-1.1c-0.6-0.5-1.3-0.9-2.1-1.1c-0.5-0.2-0.9-0.2-1.1,0.4c-0.3,0.6-0.8,0.7-1.3,0.6
	c-1-0.1-1.9-0.4-2.8-0.8c-1.8-0.8-3.4-1.8-4.9-3.2c-0.5-0.5-0.9-1-1-1.7c-0.1-0.8-0.3-0.9-0.9-0.5c-0.8,0.6-1.3,0.4-2,0
	c-2.1-1.2-3.6-3.1-5-5.2c-0.2-0.3-0.2-0.6-0.2-1s-0.2-0.6-0.6-0.4c-0.9,0.4-1.4,0-2-0.5c-1-0.8-1.7-1.7-2.4-2.8
	c-1.1-1.6-2.3-3.2-3.8-4.4c-0.6-0.5-0.9-1.1-1.1-1.7c-0.3-0.6-0.5-1.1-0.9-1.6c-0.3-0.4-0.6-0.6-1.1-0.5c-1.3,0.4-1.5,0.3-2.3-1
	c-0.3-0.4-0.5-0.8-0.8-1.2c-0.3-0.6-0.7-1-1.4-1.1c-0.3-0.1-0.6-0.3-0.8-0.6c-0.4-0.5-0.7-1-1.1-1.4c-0.5-0.7-1-1.3-1.8-1.6
	c-0.5-0.2-0.7-0.7-1-1.1c-0.5-0.6-0.9-1.2-1.7-1.1c-0.3,0.1-0.5-0.1-0.6-0.4c-0.2-0.3-0.3-0.6-0.5-1c-0.4-0.9-0.6-1-1.4-0.7
	c-0.1,0-0.2,0-0.2,0.1c-0.9,0.3-1.6,0.2-2.3-0.5c-0.5-0.5-1.1-0.7-1.7-0.4c-0.6,0.3-1.1,0.1-1.6-0.3c-0.8-0.8-1.6-1-2.7-0.7
	c-0.4,0.1-0.9,0.1-1.2-0.1c-1.7-0.5-3.4-0.4-5.2-0.2c-1.6,0.2-3.3,0.5-4.9,0.8c-2.2,0.5-4.4,0.7-6.7,0.6c-3.4-0.1-6.9,0-10.3-0.2
	c-3.2-0.1-6.3-0.6-9.5-0.9c-3-0.3-6-0.8-9-0.9c-2.5-0.1-5,0.1-7.5,0.1c-4,0.1-8,0.1-12-0.6c-1.6-0.3-3.1-1-4.3-2
	c-1.7-1.5-3.4-3.2-5.1-4.7c-0.9-0.8-1.1-2.5-0.6-3.4c0.3-0.5,0.2-0.9,0-1.2c-1.3-2.8-1.2-5.6-0.4-8.3c0,0,0,0,0.1-0.1
	c0.4,1,0.3,2,0.8,3c0.4-0.8,0.7-1.4,1.1-2.2c0.4,1,0.6,1.9,0.8,2.8c0.4,1.3,0.7,2.8,1.6,3.9c0.3,0.4,0.6,0.8,1,1.1
	c0.9,0.6,1.5,0.3,1.6-0.8c0-0.2,0-0.3,0.1-0.4c0.2,0,0.2,0.1,0.3,0.2c0.2,0.5,0.4,1.1,1.1,1.2c0.9,0.2,1.8,0.2,2.7-0.3
	c0.3-0.2,0.4-0.6,0.5-0.9c0.1-0.6,0.2-1.1,0.2-1.6c0-0.3-0.1-0.6,0.1-1c0.2,0.6,0.4,1.1,0.6,1.6c0.1,0.3,0.3,0.6,0.5,0.9
	c0.2,0.3,0.5,0.4,0.8,0.1c0.5-0.5,0.7-1.1,0.8-1.7c0.1-1.2,0-2.5-0.1-3.7c0-0.5,0.1-0.9,0.4-1.2c0.5-0.5,0.9-1.1,1.4-1.6
	c0.4,1.7,0.8,3.4,1.1,5.1c0.5-0.9,0.6-1.6,0.9-2.4c0.6,0.1,0.9,0.3,0.9,0.9c0,0.9,0.3,1.7,0.5,2.5c0.1,0.3,0.2,0.6,0.3,0.9
	c0.1,0.3,0.3,0.7,0.7,0.7c0.5,0,0.5-0.5,0.6-0.8c0.3-0.7,0.4-1.5,0.7-2.3c0.2,0.8,0.1,1.5,0.4,2.2c0.1,0.2,0.1,0.4,0.2,0.6
	c0.1,0.3,0.3,0.5,0.6,0.3c0.3-0.2,0.6-0.1,0.8,0.1c0.4,0.3,0.6,0.1,0.8-0.2c0.3-0.5,0.4-1.1,0.6-1.7c0.4,0.5,0.4,1,0.5,1.4
	c0.1,0.3,0.1,0.6,0.3,0.8c0.3,0.4,0.7,0.9,1.2,0.8c0.5,0,0.5-0.6,0.7-1c0.1-0.1,0.1-0.2,0.2-0.4c0.3,0.4,0,1.1,0.6,1.2
	c0.4,0.2,0.9,0.1,1.2,0c0.8-0.2,0.9-0.3,0.5-2.1c0.4,0.2,0.4,0.7,0.6,1c0.5,0.8,0.7,0.9,1.5,0.7c0.3-0.1,0.6-0.2,0.9-0.3
	c1.1-0.5,1.3-1,1.2-2.1c0-0.4-0.1-0.9,0.1-1.3c0.2,0.4,0.4,0.9,0.7,1.2c0.5,0.8,0.8,0.8,1.4,0.3c0.7-0.5,1.1-1.1,1.1-2
	c0-0.8,0-1.5-0.1-2.3c0-0.3-0.2-0.6,0.1-0.9c0.6,0.9,1,1.7,1.6,2.6c0.4,0.5,0.8,0.9,1.3,1.1c0.5,0.2,0.7,0.1,0.9-0.4
	c0.3-0.7,0.3-1.4,0.4-2.1c0-0.7,0-1.3,0.1-2c0.1,0.4,0.3,0.9,0.4,1.2c0.2,0.5,0.4,1,0.6,1.4c0.5,0.9,1.2,1.1,2.2,0.9
	c0.3-0.1,0.4-0.3,0.5-0.5c0.2-0.4,0.3-0.8,0.5-1.2c0.3,0.4,0.3,0.7,0.4,1.1c0.1,0.4,0.2,0.9,0.8,0.9c0.6,0,1.1-0.1,1.4-0.6
	c0.3-0.4,0.4-0.9,0.6-1.2c0.1-0.3,0.1-0.5,0.4-0.8c0.1,0.5,0.3,1,0.4,1.4c0.1,0.4,0.3,0.8,0.8,0.7c0.5,0,1-0.2,1.1-0.8
	c0.1-0.4,0.2-0.8,0.2-1.1c0.1-0.3,0-0.6,0.2-1c0.3,0.5,0.4,0.9,0.7,1.2c0.4,0.6,0.9,0.6,1.3,0c0.4-0.5,0.5-1.1,0.8-1.7
	c0.4,0.9,1,1.3,1.9,1.1c1-0.3,0.9-1.1,1.2-1.8c0.3,0.3,0.3,0.7,0.5,1c0.2,0.3,0.4,0.6,0.8,0.5c0.4-0.1,0.8-0.1,1-0.6
	c0.2-0.5,0.4-1.1,0.6-1.6c0.2,0.4,0.4,0.7,0.6,1c0.2,0.3,0.5,0.4,0.8,0.1c0.6-0.4,0.8-1.1,1.3-1.6c0.5,0.7,1.1,0.4,1.7,0.1
	c0.5-0.2,0.9-0.4,1.3-0.6c0.8-0.3,1.4-0.7,1.9-1.4c0.6-0.9,1.4-1.3,2.5-1.3c0.6,0,1.2-0.1,1.8-0.3c0.5-0.2,1.1-0.2,1.5-0.5
	c-0.8-0.7-1.5-1.2-2.5-1.6c-1.8-0.7-3.7-1.1-5.6-1.9c-0.3,0.2-0.3,0.6-0.7,0.8c-0.7,0.3-1.1,0-1.4-0.7c-0.1-0.3-0.1-0.7-0.5-0.9
	c-0.6-0.2-0.9-0.1-1.1,0.5c-0.1,0.2-0.2,0.4-0.3,0.6c-0.1,0.2-0.1,0.7-0.6,0.6c-0.4-0.1-0.8-0.2-0.9-0.7c-0.1-0.3-0.1-0.5-0.2-0.8
	c-0.1-0.3-0.3-0.5-0.6-0.6c-0.9-0.1-1-0.1-1.1,0.8c-0.1,0.3-0.1,0.7-0.2,1c-0.1,0.3,0,0.6-0.5,0.6c-0.4,0-0.9,0-1-0.6
	c0-0.2-0.1-0.4-0.1-0.7c-0.2-0.9-1-1.2-1.8-1c-0.3,0.1-0.3,0.4-0.4,0.6c-0.3,0.9-0.6,1.8-0.9,2.8c-0.9-0.8-1.6-1.6-1.7-2.8
	c-0.1-0.6-0.2-1-0.9-1.1c-0.8-0.1-1.1,0-1.5,0.7c-0.4,0.7-0.6,1.3-1,2.1c-0.4-0.9-0.4-1.6-0.7-2.4c-0.2-0.5-0.5-1-1-1.1
	c-0.6-0.3-0.9-0.2-1.1,0.3c-0.2,0.4-0.5,0.8-0.8,1.2c-0.4-1.1-0.4-2.1-1.7-2.4c-1.2-0.2-1.8,0.6-2.5,1.5c-0.2-0.6-0.3-1-0.5-1.3
	c-0.3-0.8-0.8-1-1.8-0.8c-0.9,0.1-1.1,0.3-1.1,1.1c-0.1,0.7-0.1,1.3-0.1,2.1c-0.4-0.6-0.8-1.1-1.1-1.6c-0.4-0.5-0.9-0.8-1.4-0.6
	c-0.2,0.1-0.5,0.1-0.7,0.2c-1.5,0.6-1.8,1.1-1.6,2.7c0.1,0.5,0.1,0.9,0.2,1.3c0.3,1.1-0.1,1.8-0.9,2.6c-0.8-0.8-1.5-1.4-1.5-2.6
	c0-0.8-0.2-1.5-0.5-2.2c-0.2-0.4-0.4-1-0.9-1c-0.4,0-0.5,0.6-0.6,1c-0.3,1.1-0.2,2.1-0.2,3.3c-0.5-0.3-0.5-0.8-0.8-1.1
	c-0.3,0.2-0.4,0.5-0.7,0.9c-0.2-0.8-0.4-1.5-0.6-2.2c-0.4-1.3-0.7-2.7-1.3-4c-0.2-0.3-0.3-0.8-0.7-0.7c-0.4,0-0.5,0.5-0.6,0.8
	c-0.2,0.7-0.3,1.3-0.4,2c0,0.2,0,0.5-0.2,0.8c-0.1-0.7-0.2-1.2-0.3-1.8c-0.1-0.7-0.2-1.3-0.4-2c-0.1-0.3-0.2-0.6-0.4-0.9
	c-0.7-0.9-1.1-0.9-1.5,0.2c-0.2,0.4-0.4,0.9-0.7,1.5c-0.2-0.7-0.3-1.1-0.4-1.5c-0.1-0.7-0.5-1.1-1.1-1.3c-1-0.4-1.8-1-2.5-1.7
	l-0.1-0.1c-0.8-0.5-1.1-0.4-1.2,0.5c-0.1,0.8,0,1.5,0,2.4c-0.5-0.5-1-0.9-1.3-1.3c-0.6-0.6-1.1-0.7-1.9-0.5
	c-0.3,0.1-0.6,0.2-0.9,0.3c-0.9,0.4-1.3,1-1.4,2c-0.1,1.2-0.1,2.6,0.1,3.8c0.1,1,0.3,1.9,0.4,3c-1.7-1.5-2.4-3.5-3.3-5.5
	c-0.4,0-0.5,0.5-0.9,0.6c-0.2-0.7-0.5-1.3-0.7-2c-0.2-0.5-0.4-1-0.8-1.4c-0.2-0.3-0.4-0.5-0.7-0.5c-0.3,0-0.5,0.3-0.6,0.6
	c-0.3,0.9-0.4,1.7-0.4,2.6c0,0.4,0,0.9-0.1,1.2c-0.1-0.6-0.3-1.1-0.4-1.7c-0.1-0.4-0.2-0.8-0.5-1.1c-0.1-0.2-0.2-0.4-0.5-0.4
	s-0.3,0.3-0.4,0.5c-0.1,0.5-0.2,1-0.3,1.5c-0.8-1.1-1.3-2.1-1.1-3.4c0.1-0.4,0-0.9,0-1.2c0-0.3-0.1-0.6-0.4-0.7
	c-0.3-0.1-0.5,0.1-0.7,0.2c-0.2,0.2-0.5,0.4-0.7,0.6c-0.3-0.3-0.5-0.6-0.6-1c-0.3-0.8-0.9-1.1-1.5-1.2c-0.9-0.2-1.2-0.7-1.3-1.5
	c-0.2-1.2,0-2.3,0.7-3.4c1.4-2.3,3.4-4,5.7-5.4c2-1.1,4-2,6.3-2.2c1.5-0.1,2.7,0.2,3.5,1.5c0.3,0.5,0.8,1,1.1,1.5
	c0.9,1.5,2.2,2,3.8,2c1.2,0,2.5,0,3.6-0.2c3.5-0.6,7.2-0.5,10.8-0.2c6.2,0.4,12.4-0.1,18.4-1.3c1.7-0.4,3.3-1.1,4.8-1.8
	c2.5-1.1,4.9-2.5,7.2-3.9c1.3-0.9,2.5-1.9,3.6-3c1.2-1.1,2.5-2.4,4.1-3.1c1.7-0.8,3.4-1.3,5.3-1.6c1.1-0.2,1.9,0,2.8,0.7
	c0.8,0.6,1.5,1.1,2.3,1.7c1,0.9,2.1,1.3,3.4,1.6c3.9,1,7.9,1.4,11.9,1.4c1.1,0,2.4,0.1,3.5,0.2s2.3,0.5,3.4,1.1
	c1.7,0.9,3.4,1.8,5,2.8c1.6,1,3.4,1.7,5.3,2.2c2.8,0.7,5.4,1.6,7.9,3c2.9,1.4,6,2.3,9.1,3c4,0.9,8,2.1,11.9,3.5
	c1.6,0.7,3.2,1.5,4.6,2.5c0.3,0.2,0.5,0.3,0.8,0.5c0.2-0.3,0.1-0.5,0.1-0.7l0,0c0.1,0.1,0.1,0.1,0.2,0.2l10.7,78.5l-8.9,1.2
	C115.1,860.1,114.6,859.9,113.8,859.9z"/>
<path class="st5" d="M90.6,725.5c-4.2,3.4-8.7,6.7-12.7,10.4c-4.7,4.4-4.6,8.5,0.1,12.5c1.9,1.6,4,2.9,6.1,3.8c2,1,4.2,1.3,6,1.9
	c-4.6,2.1-9.1,1.3-13.7-1.8c0.5,4.3,3.9,4.2,4.8,7.1c-4.2,3.3-9.4,3.4-14.2,8c4.9,1,8.6-2.3,13.1-2.7c-2.4,9.5-7.6,17.2-9.7,26.6
	c2.7-0.4,3.4-3.2,4.4-5.2c2.6-5.5,4.8-11,7.2-16.6c3.2-7.4,8.2-8.7,13-3.4c2.5,2.8,4.8,6,8.8,7.7c-1.6-4.6-4.4-6.8-6.3-10
	c-0.6-1-1.7-1.4-0.4-3.4c5.7-8.5,4.3-14.1-4-16.7c-1.4-0.5-2.9-0.7-5.3-1.2c7.5-4.6,13.4-9.7,19.3-15.1c3.5-3.4,8.3-1.5,12.5-1.1
	c36.8,8.7,54.3,1.7,115.5,32.8c0.6,0.7,1,1.8,2.8,0.9c-3-4.1-53.3-28-94.4-47c-8.9-4.1-17.8-8-26.7-11.9c-2.4-1.1-3.8-2.8-4.6-5.8
	c-1.9-7.5-4.7-14.6-8.1-21c-1.7-3.3-1.8-4.9,1.9-5.6c4.7-0.9,8.9-3.5,12.7-7.2c1.4-1.3,3-2.8,2.8-5.2c-0.5-7.1,3.4-7.4,7.3-7.5
	c1.5,0,3.1,0.1,5.3,0.2c-2.8-4.2-6.1-3.4-9.4-3c-6.6,1-9.3-2.9-7.5-11.2c1.3-5.9,3.2-11.9,4.9-17.7c1.1-3.8,2-7.8,1.9-12.5
	c-2.9,2.7-3.1,6.3-4,9.5c-1.9,5.8-3.4,11.7-5.4,17.5c-1.1,3.2-2.5,4.1-4.1,0.6c-1.7-3.7-3.6-7.4-5.5-11.1c-0.4,0.3-0.8,0.6-1.1,0.8
	c1.3,4,2.6,8,4.3,13.4c-1.7-1.8-2.6-2.7-4.2-4.5c1.1,5.7,3.6,8.7,5.1,12.6c-1.7,0.9-2.6-2-4.5-0.7c2.2,4.2,6.4,6.1,7.9,11.2
	c-5.5,2.6-10.9,4.9-16.2,8c-6.5,3.7-7.5,6.7-5.4,14.6c1.1,4,2.4,8,4.5,11.9c-10.2-6.8-20.3-13-32.5-14.6c-12-1.5-23.8,3.3-36.4,3.3
	c3.4-4.7,6.4-8.7,8.2-13.5c2.2-5.7,1.4-7.9-3.4-8.6c-3-0.5-6.1-0.2-9.1-0.2c-1.4-0.1-7-0.6-6.8-4.6c0.1-1.3,0.7-3,4.3-3.3
	c-3.6-3.5-10.2-1.5-6.9,6.7c-8.3-1.1-7.6-5-2.2-6.6c-9.7-3.1-9.6,5.6-3.4,9.8c-5.7,0.2-8.4-2.4-7.4-4.3c-0.5,0.4-4,3.1-1.2,5.3
	c2.8,2.2,8.8,2.2,9.5,2.7c0.6,0.3-2.1,1.4-4.3,3c-0.6,0.4,0.1-1.6-0.4-1.1c-0.7,0.8-4.2,4-2.5,4.8c2.3,1.1,6.9,1.1,12.9-2.9
	c2.9-1.9,9.4-0.7,11.4-1.4c-2.7,4.9-5.3,8.5-7.2,12.8c-1.6,3.7-4.9,3.8-7.7,4.8c-4.8,1.6-8.9,3.2-13.6,6c-11.8,8.2-10.8,1.3-20,9.3
	c-9.2,8-15.9,23.5-10.8,27.6c5,4,13.5,3.3,21.3,0.4c11.2-9.9,9.9-12.5,17.9-15.2c3.4-1.1,14,1.7,16.1,5.7c1.2,2.4,6.3,6.8,8,9.3
	c-3.4,1-12.2-8-13.9-5.5c-2,2.8,3.8,4.2,3.2,4.9c-1.4,1.3-6.4-3.6-9.1,0.4c-0.3,0.9,3,3.3,1.7,0.9c-0.6-1.1,0.9-0.2,2,0.2
	c1.6,0.6,3.4,1.3,3.4,2.3c0.4,3.1-5,0.6-6.5,3.5c-0.2,0.3-2.1,3.1,2.4,3c-2.4-2.8,8.5-1.7,10.3-2.2c1.1,2.5-3.7,3.6-3.9,5.1
	c-0.3,1.4,1.5,2.5,3.5,2c5.1-1.2,0.1-1.2,1.2-2.6c1.3-1.7,7-3.1,11-4c3.6-0.9,4.5-3,2.6-6.5c-1.7-3.2-3.8-6-5.7-9.8
	c17.9,11.5,36.8,16.5,57.5,10c4.7-1.1,9.1-4.3,13.2-3.7C98.7,721.6,94.5,722.2,90.6,725.5z"/>
</svg>
