<?xml version="1.0" encoding="utf-8"?>
<!-- Generator: Adobe Illustrator 19.0.1, SVG Export Plug-In . SVG Version: 6.00 Build 0)  -->
<svg version="1.1" id="letter_E_logo" xmlns="http://www.w3.org/2000/svg" xmlns:xlink="http://www.w3.org/1999/xlink" x="0px"
	 y="0px" viewBox="0 0 612 792" style="enable-background:new 0 0 612 792;" xml:space="preserve">
<style type="text/css">
	.st0{fill-rule:evenodd;clip-rule:evenodd;fill:none;stroke:#FFFFFF;stroke-miterlimit:10;}
	.st1{fill:#A4A940;}
	.st2{fill:#6D6E71;}
	.st3{font-family:'BookmanOldStyle';}
	.st4{font-size:44.637px;}
	.st5{letter-spacing:1;}
	.st6{font-family:'Cambria';}
	.st7{font-size:22.022px;}
	.st8{letter-spacing:2;}
	.st9{display:none;fill-rule:evenodd;clip-rule:evenodd;}
	.st10{fill-rule:evenodd;clip-rule:evenodd;fill:#FFFFFF;}
</style>
<path class="st0" d="M-2969.8,284.8"/>
<rect x="220" y="215.2" class="st1" width="138" height="225.1"/>
<g id="typography">
	<text transform="matrix(1 0 0 1 43.411 507.0166)"><tspan x="0" y="0" class="st2 st3 st4">EDEN RE</tspan><tspan x="211.6" y="0" class="st2 st3 st4 st5">PT</tspan><tspan x="270.5" y="0" class="st2 st3 st4">ILE PARK</tspan></text>
	<text transform="matrix(1 0 0 1 64.5834 533.0234)" class="st1 st6 st7 st8">DISCOVER THE WONDERS OF NATURE</text>
</g>
<g id="lizard">
	<g id="Layer_3">
	</g>
	<g>
		<path class="st1" d="M203.4,199h159.6l19.5,67.7l-13.1,6.1c-3.3-11.1-6.9-19.8-10.8-26.1c-3.9-6.3-8.5-11.7-14-16.1
			c-5.4-4.4-10.9-7.4-16.4-8.8c-5.5-1.5-15.5-2.2-29.9-2.2h-50.5v94.2h25.1c9.3,0,16.3-1.9,21-5.8c4.7-3.9,8-8.7,9.8-14.5
			c1.4-4.3,2.1-11.8,2.1-22.5v-4.2h14.6v112.8h-14.6v-9.8c0-8.6-0.5-14.8-1.6-18.6c-1-3.8-3-7.4-5.8-10.8c-2.8-3.4-5.8-5.7-9-6.9
			c-3.2-1.2-8.7-1.8-16.5-1.8h-25.1v83.6c0,8.7,0.3,14,1,15.9c0.6,1.9,1.7,3.3,3.2,4.1c1.5,0.9,5.6,1.3,12.2,1.3h31.2
			c17.4,0,31-2.6,40.8-7.7c9.8-5.2,18.4-13.1,25.9-23.7c5.9-8.3,11.5-20.1,16.8-35.3l13.6,5.9l-23.3,80.6h-166v-15.5
			c0,0,7.7-0.5,9.4-1.6c2.6-1.6,4.6-4.2,6-7.7c1-2.4,1.5-7.7,1.5-15.9V238.3c0-8.1-0.6-13.4-1.9-16.2c-1.3-2.7-4.8-7.6-14.9-7.6V199
			z"/>
	</g>
	<path class="st9" d="M-2542.2,183.9c-0.1-1.2-0.1-2.5-0.2-3.7c-1.5-3.7-0.4-6.9,2.2-9.7c5.3-2.7,10.4-2.8,15.1,1.1
		c-3.9-4.6-8.7-4.7-14-2.5c-0.8,0.4-1.6,0.8-2.3,1.5c-3,2.6-2.7,6.3-3.6,9.6c0,0.4,0,0.9,0.1,1.3c0.2,0.6,0.3,1.3,0.6,1.9
		c-0.3,0.6,0.9,1.7-1,1.9c-5.2,0.5-10.4,1.3-15.5,2.2c-2.5,0.4-2.2-0.3-1.7-2c1.1-3.4,2.2-6.9,1.5-10.6c-0.3-1.5-0.5-3-2.2-3.6
		c-3.7-1-6.7,0.8-9.6,2.5c-3.5,2-6.3,4.8-8.8,8.4c3.6-3.2,6.6-6.3,10.8-8.1c2.1-0.9,4.2-1.7,6.4-0.3c1.8,1.6,1.7,3.8,1.2,5.7
		c-2.8,10.7-6.7,20.9-13.1,30.2c-1.7,2.4-3.6,4.8-7.4,3.5c-3-1-3.4-1.8-1.7-4.3c3.1-4.7,6-9.5,5.5-15.8c-5.5,1.7-10.8,2.9-16.3,3.5
		c-4.3,0.5-8.5,0.3-12.1-2.4c-0.6-0.4-1.4-0.8-2.1-0.8c-10.4,0-19.4-3.4-26.7-10.5c0-0.9,0-1.7,0-2.6c3.9-1.8,8.1-0.5,12.1-1.3
		c0.8,0,1.5,0,2.4-0.1c-0.4-0.4-0.5,0.1-0.7,0.1c-2,0.1-4,0-6,0.3c-0.3,0-0.7,0-1,0c-6.8,0-7.6-1.1-4.6-7.1
		c1.7-3.3,3.4-6.5,4.1-10.3c0.9-4.8,6.7-7,11.4-4.6c2.4,1.2,4.3,1.1,6.6-0.1c4-2.1,8.4-3.5,12.7-5c1.6-0.5,3.2-0.9,4.9-1
		c3.9-0.1,4.6,0.6,4.5,4.4c-1,3.9-1.5,7.9-3.4,11.5c-0.3,0.7-0.7,1.4-1,2.1c-0.4,1.1-0.7,2.2-1.4,3.1c0.1,0.2-0.4,0.3-0.1,0.5
		c0-0.2,0.1-0.3,0.2-0.5c0.3-0.8,0.8-1.4,0.9-2.2c0.4-0.8,0.7-1.6,1.1-2.4c1.7-3.9,3.6-7.8,4-12.1c-0.3-3.1,1.3-5.2,4-6.8
		c9.3-5.8,19.5-9.5,30.5-10.9c0.6-0.1,1.1-0.2,1.5-0.6c5.8,0,11.7,0,17.5,0c4.5,0.8,9,0.5,13.5,2c21.1,6.8,35.1,24.1,36.4,45.3
		c0.1,1.6,0,3.2,0.6,4.7c0,1.3,0,2.6,0,3.9c-0.6,1.3-0.6,2.6,0,3.8c0,8.6,0,17.1,0,25.7c-0.8,6.7-1.8,13.3-3.9,19.7
		c-3.5,10.4-8.3,20-16.3,28c-6.1,6.1-13.1,10.6-22.2,11.3c-3.6,0-7.2,0-10.8,0c-5.2-1.5-10.2-3.4-13.9-7.6c-5.1-5.8-5.2-16.2,0-22.7
		c5.1-6.3,14.7-9.1,21.2-6.2c9.7,4.3,11.6,16.7,3.5,22.6c-2.6,1.9-5.4,1.8-8.2,0.6c-2.8-1.2-4.8-3.2-5.3-6.2
		c-0.4-2.6,1.4-5.3,3.7-5.8c2.3-0.5,3.8,0.4,5,3.2c-1.5,0.3-3-1.3-4.4-0.1c-1.4,1.1-0.9,4.2,0.8,5.4c2.2,1.5,5.9,0.9,7.4-1.2
		c2.4-3.4,2.1-7.7-0.7-11.5c-2-2.6-5.5-3.4-9.6-2.7c-8.4,1.6-12.5,8.1-10.9,15.2c1.6,7.4,9.2,12.2,17.1,10.9
		c5.5-0.9,10.4-3.1,14.4-6.9c0.3-0.6,0.6-1.1,1.4-1.2c5.8-3.9,8.5-9.8,10.6-15.9c4.9-13.9,6.6-28,3.4-42.5
		c-2.1-9.6-6.1-18-16.2-22.5c-2.3-1-4.6-1.4-7.4-1.8c1.7,6.3,3.4,12.4,3.8,18.8c0.3,4.1,0.3,8.1-1.7,11.8c-0.9,1.7-2.6,2.4-4.3,2.8
		c-2.1,0.4-3.2-1-3.3-2.8c-0.6-9-5.7-16.6-7.8-25.1C-2541.8,188.3-2541.9,186.1-2542.2,183.9z M-2602.7,218.7c2.3,1.3,4.7,0,7.5,0.4
		c-2,2.1-3.8,4.1-5.6,6c0.5,1.7,1.6,0.8,2.5,0.5c1.6-0.6,2.9-1.6,4.3-2.4c-0.1,2.1-2.7,3.4-1.4,5.7c2.4-1.2,3.7-3.5,5.7-5.1
		c1.1-0.9,1.8-1.2,1.5,0.7c-0.5,1.1,0.1,2.3-0.5,3.4c-0.1,0.7-0.2,1.5-0.3,2.2c3.4-4.4,6.4-9,9.1-13.8c0.7-1.3-0.3-1.4-1.6-1.2
		c-2.2,0.3-4.7,0-5.6-1.9c-1.3-2.7-3.2-2.3-5.4-1.8c-1.6,0.3-3.3,0.4-4.9,0.7c-0.5,0.1-1.8-0.6-1.5,0.9c0.6,1.2,1.9,0.6,2.8,1.1
		c1.4-0.1,1.3,0.6,0.4,1.1c-1.8,1-3.6,1.9-5.5,2.8C-2601.5,218.4-2602.4,218.1-2602.7,218.7z M-2542.2,224.5
		c-1.4,1.6-2.8,3.2-4.6,5.2c3.3-0.5,5.2-2.5,7.6-3c1,1.1-0.5,1.7-0.4,2.6c-0.3,0.8,0.1,1.3,0.8,1.6c1.3-0.3,1.6-2.6,3.1-1.7
		c1.4,0.8-0.9,1.9-0.3,3c0.2,0.3-0.4,0.8,0.5,1c3.3-4.6,6.5-9.2,10.2-14.4c-3.1,0.6-6.4,1.8-7.6-0.6c-1.8-3.4-4.2-2.6-6.8-2.2
		c-1.7,0.3-3.4,0.6-5.8,1c2,0.8,3.3,1.3,5.1,2c-2.8,1.5-5.3,2.8-8.6,4.6c1.7,0,2.5,0,3.3,0C-2544.5,223.8-2542.9,222.4-2542.2,224.5
		z M-2541.5,233.3c1.3-0.5,2-1.4,2.6-2.3c-0.3-0.5-0.5-1.1-0.8-1.6C-2540.6,230.5-2541.2,231.7-2541.5,233.3z M-2622.9,160.4
		c-2,0-2.9,1.3-2.9,3.1c0.1,2,1.6,2.7,3.4,2.7c1.8-0.1,2.8-1.2,2.8-3C-2619.9,161.4-2621,160.4-2622.9,160.4z"/>
	<path class="st10" d="M404.4,435.4c-0.5,0-1,0-1.5,0c-1.1-0.3-2.2-0.6-3.4-0.7c-0.7-0.1-1.4-0.1-2,0.5c-0.4,0.5-1,0.4-1.5,0.4
		c-1.1-0.1-2.2-0.5-3.3-0.8c-0.8-0.2-1.6-0.6-2.3-1.1c-0.6-0.5-1.4-0.9-2.2-1.2c-0.5-0.2-0.9-0.2-1.2,0.4c-0.3,0.6-0.8,0.7-1.4,0.6
		c-1-0.1-2-0.4-2.9-0.8c-1.9-0.8-3.5-1.9-5.1-3.3c-0.5-0.5-0.9-1-1-1.8c-0.1-0.8-0.3-0.9-0.9-0.5c-0.8,0.6-1.4,0.4-2.1,0
		c-2.2-1.3-3.8-3.2-5.2-5.4c-0.2-0.3-0.2-0.6-0.2-1c0-0.4-0.2-0.6-0.6-0.4c-0.9,0.4-1.5,0-2.1-0.5c-1-0.8-1.8-1.8-2.5-2.9
		c-1.2-1.7-2.4-3.3-4-4.6c-0.6-0.5-0.9-1.1-1.2-1.8c-0.3-0.6-0.5-1.2-0.9-1.7c-0.3-0.4-0.6-0.6-1.2-0.5c-1.4,0.4-1.6,0.3-2.4-1
		c-0.3-0.4-0.5-0.8-0.8-1.3c-0.3-0.6-0.7-1-1.5-1.1c-0.3-0.1-0.6-0.3-0.8-0.6c-0.4-0.5-0.7-1-1.1-1.5c-0.5-0.7-1-1.4-1.9-1.7
		c-0.5-0.2-0.7-0.7-1-1.1c-0.5-0.6-0.9-1.3-1.8-1.1c-0.3,0.1-0.5-0.1-0.6-0.4c-0.2-0.3-0.3-0.6-0.5-1c-0.4-0.9-0.6-1-1.5-0.7
		c-0.1,0-0.2,0-0.2,0.1c-0.9,0.3-1.7,0.2-2.4-0.5c-0.5-0.5-1.1-0.7-1.8-0.4c-0.6,0.3-1.2,0.1-1.7-0.3c-0.8-0.8-1.7-1-2.8-0.7
		c-0.4,0.1-0.9,0.1-1.3-0.1c-1.8-0.5-3.6-0.4-5.4-0.2c-1.7,0.2-3.4,0.5-5.1,0.8c-2.3,0.5-4.6,0.7-7,0.6c-3.6-0.1-7.2,0-10.8-0.2
		c-3.3-0.1-6.6-0.6-9.9-0.9c-3.1-0.3-6.3-0.8-9.4-0.9c-2.6-0.1-5.2,0.1-7.8,0.1c-4.2,0.1-8.4,0.1-12.5-0.6c-1.7-0.3-3.2-1-4.5-2.1
		c-1.8-1.6-3.5-3.3-5.3-4.9c-0.9-0.8-1.1-2.6-0.6-3.6c0.3-0.5,0.2-0.9,0-1.3c-1.4-2.9-1.3-5.8-0.4-8.7c0,0,0,0,0.1-0.1
		c0.4,1,0.3,2.1,0.8,3.1c0.4-0.8,0.7-1.5,1.1-2.3c0.4,1,0.6,2,0.8,2.9c0.4,1.4,0.7,2.9,1.7,4.1c0.3,0.4,0.6,0.8,1,1.1
		c0.9,0.6,1.6,0.3,1.7-0.8c0-0.2,0-0.3,0.1-0.4c0.2,0,0.2,0.1,0.3,0.2c0.2,0.5,0.4,1.1,1.1,1.3c0.9,0.2,1.9,0.2,2.8-0.3
		c0.3-0.2,0.4-0.6,0.5-0.9c0.1-0.6,0.2-1.1,0.2-1.7c0-0.3-0.1-0.6,0.1-1c0.2,0.6,0.4,1.1,0.6,1.7c0.1,0.3,0.3,0.6,0.5,0.9
		c0.2,0.3,0.5,0.4,0.8,0.1c0.5-0.5,0.7-1.1,0.8-1.8c0.1-1.3,0-2.6-0.1-3.9c0-0.5,0.1-0.9,0.4-1.3c0.5-0.5,0.9-1.1,1.5-1.7
		c0.4,1.8,0.8,3.5,1.2,5.3c0.5-0.9,0.6-1.7,0.9-2.5c0.6,0.1,0.9,0.3,0.9,0.9c0,0.9,0.3,1.8,0.5,2.6c0.1,0.3,0.2,0.6,0.3,0.9
		c0.1,0.3,0.3,0.7,0.7,0.7c0.5,0,0.5-0.5,0.6-0.8c0.3-0.7,0.4-1.6,0.7-2.4c0.2,0.8,0.1,1.6,0.4,2.3c0.1,0.2,0.1,0.4,0.2,0.6
		c0.1,0.3,0.3,0.5,0.6,0.3c0.3-0.2,0.6-0.1,0.8,0.1c0.4,0.3,0.6,0.1,0.8-0.2c0.3-0.5,0.4-1.1,0.6-1.8c0.4,0.5,0.4,1,0.5,1.5
		c0.1,0.3,0.1,0.6,0.3,0.8c0.3,0.4,0.7,0.9,1.3,0.8c0.5,0,0.5-0.6,0.7-1c0.1-0.1,0.1-0.2,0.2-0.4c0.3,0.4,0,1.1,0.6,1.3
		c0.4,0.2,0.9,0.1,1.3,0c0.8-0.2,0.9-0.3,0.5-2.2c0.4,0.2,0.4,0.7,0.6,1c0.5,0.8,0.7,0.9,1.6,0.7c0.3-0.1,0.6-0.2,0.9-0.3
		c1.1-0.5,1.4-1,1.3-2.2c0-0.4-0.1-0.9,0.1-1.4c0.2,0.4,0.4,0.9,0.7,1.3c0.5,0.8,0.8,0.8,1.5,0.3c0.7-0.5,1.1-1.2,1.1-2.1
		c0-0.8,0-1.6-0.1-2.4c0-0.3-0.2-0.6,0.1-0.9c0.6,0.9,1,1.8,1.7,2.7c0.4,0.5,0.8,0.9,1.4,1.2c0.5,0.2,0.7,0.1,0.9-0.4
		c0.3-0.7,0.3-1.5,0.4-2.2c0-0.7,0-1.4,0.1-2.1c0.1,0.4,0.3,0.9,0.4,1.3c0.2,0.5,0.4,1,0.6,1.5c0.5,0.9,1.3,1.2,2.3,0.9
		c0.3-0.1,0.4-0.3,0.5-0.5c0.2-0.4,0.3-0.8,0.5-1.3c0.3,0.4,0.3,0.7,0.4,1.1c0.1,0.4,0.2,0.9,0.8,0.9c0.6,0,1.2-0.1,1.5-0.6
		c0.3-0.4,0.4-0.9,0.6-1.3c0.1-0.3,0.1-0.5,0.4-0.8c0.1,0.5,0.3,1,0.4,1.5c0.1,0.4,0.3,0.8,0.8,0.7c0.5,0,1-0.2,1.2-0.8
		c0.1-0.4,0.2-0.8,0.2-1.1c0.1-0.3,0-0.6,0.2-1c0.3,0.5,0.4,0.9,0.7,1.3c0.4,0.6,0.9,0.6,1.4,0c0.4-0.5,0.5-1.2,0.8-1.8
		c0.4,0.9,1,1.4,2,1.1c1-0.3,0.9-1.2,1.3-1.9c0.3,0.3,0.3,0.7,0.5,1c0.2,0.3,0.4,0.6,0.8,0.5c0.4-0.1,0.8-0.1,1-0.6
		c0.2-0.5,0.4-1.1,0.6-1.7c0.2,0.4,0.4,0.7,0.6,1c0.2,0.3,0.5,0.4,0.8,0.1c0.6-0.4,0.8-1.1,1.4-1.7c0.5,0.7,1.2,0.4,1.8,0.1
		c0.5-0.2,0.9-0.4,1.4-0.6c0.8-0.3,1.5-0.7,2-1.5c0.6-0.9,1.5-1.4,2.6-1.4c0.6,0,1.3-0.1,1.9-0.3c0.5-0.2,1.1-0.2,1.6-0.5
		c-0.8-0.7-1.6-1.3-2.6-1.7c-1.9-0.7-3.9-1.2-5.8-2c-0.3,0.2-0.3,0.6-0.7,0.8c-0.7,0.3-1.2,0-1.5-0.7c-0.1-0.3-0.1-0.7-0.5-0.9
		c-0.6-0.2-0.9-0.1-1.2,0.5c-0.1,0.2-0.2,0.4-0.3,0.6c-0.1,0.2-0.1,0.7-0.6,0.6c-0.4-0.1-0.8-0.2-0.9-0.7c-0.1-0.3-0.1-0.5-0.2-0.8
		c-0.1-0.3-0.3-0.5-0.6-0.6c-0.9-0.1-1-0.1-1.1,0.8c-0.1,0.3-0.1,0.7-0.2,1c-0.1,0.3,0,0.6-0.5,0.6c-0.4,0-0.9,0-1-0.6
		c0-0.2-0.1-0.4-0.1-0.7c-0.2-0.9-1-1.3-1.9-1c-0.3,0.1-0.3,0.4-0.4,0.6c-0.3,0.9-0.6,1.9-0.9,2.9c-0.9-0.8-1.7-1.7-1.8-2.9
		c-0.1-0.6-0.2-1-0.9-1.1c-0.8-0.1-1.2,0-1.6,0.7c-0.4,0.7-0.6,1.4-1,2.2c-0.4-0.9-0.4-1.7-0.7-2.5c-0.2-0.5-0.5-1-1-1.2
		c-0.6-0.3-0.9-0.2-1.2,0.3c-0.2,0.4-0.5,0.8-0.8,1.3c-0.4-1.1-0.4-2.2-1.8-2.5c-1.3-0.2-1.9,0.6-2.6,1.6c-0.2-0.6-0.3-1-0.5-1.4
		c-0.3-0.8-0.8-1-1.9-0.8c-0.9,0.1-1.1,0.3-1.2,1.2c-0.1,0.7-0.1,1.4-0.1,2.2c-0.4-0.6-0.8-1.1-1.1-1.7c-0.4-0.5-0.9-0.8-1.5-0.6
		c-0.2,0.1-0.5,0.1-0.7,0.2c-1.6,0.6-1.9,1.1-1.7,2.8c0.1,0.5,0.1,0.9,0.2,1.4c0.3,1.1-0.1,1.9-0.9,2.7c-0.8-0.8-1.6-1.5-1.6-2.7
		c0-0.8-0.2-1.6-0.5-2.3c-0.2-0.4-0.4-1-0.9-1c-0.4,0-0.5,0.6-0.6,1c-0.3,1.1-0.2,2.2-0.2,3.4c-0.5-0.3-0.5-0.8-0.8-1.1
		c-0.3,0.2-0.4,0.5-0.7,0.9c-0.2-0.8-0.4-1.6-0.6-2.3c-0.4-1.4-0.7-2.8-1.4-4.2c-0.2-0.3-0.3-0.8-0.7-0.7c-0.4,0-0.5,0.5-0.6,0.8
		c-0.2,0.7-0.3,1.4-0.4,2.1c0,0.2,0,0.5-0.2,0.8c-0.1-0.7-0.2-1.3-0.3-1.9c-0.1-0.7-0.2-1.4-0.4-2.1c-0.1-0.3-0.2-0.6-0.4-0.9
		c-0.7-0.9-1.1-0.9-1.6,0.2c-0.2,0.4-0.4,0.9-0.7,1.6c-0.2-0.7-0.3-1.1-0.4-1.6c-0.1-0.7-0.5-1.1-1.1-1.4c-1-0.4-1.9-1-2.6-1.8
		c0,0-0.1-0.1-0.1-0.1c-0.8-0.5-1.1-0.4-1.3,0.5c-0.1,0.8,0,1.6,0,2.5c-0.5-0.5-1-0.9-1.4-1.4c-0.6-0.6-1.2-0.7-2-0.5
		c-0.3,0.1-0.6,0.2-0.9,0.3c-0.9,0.4-1.4,1-1.5,2.1c-0.1,1.3-0.1,2.7,0.1,4c0.1,1,0.3,2,0.4,3.1c-1.8-1.6-2.5-3.7-3.4-5.7
		c-0.4,0-0.5,0.5-0.9,0.6c-0.2-0.7-0.5-1.4-0.7-2.1c-0.2-0.5-0.4-1-0.8-1.5c-0.2-0.3-0.4-0.5-0.7-0.5c-0.3,0-0.5,0.3-0.6,0.6
		c-0.3,0.9-0.4,1.8-0.4,2.7c0,0.4,0,0.9-0.1,1.3c-0.1-0.6-0.3-1.2-0.4-1.8c-0.1-0.4-0.2-0.8-0.5-1.2c-0.1-0.2-0.2-0.4-0.5-0.4
		c-0.3,0-0.3,0.3-0.4,0.5c-0.1,0.5-0.2,1-0.3,1.6c-0.8-1.1-1.4-2.2-1.2-3.6c0.1-0.4,0-0.9,0-1.3c0-0.3-0.1-0.6-0.4-0.7
		c-0.3-0.1-0.5,0.1-0.7,0.2c-0.2,0.2-0.5,0.4-0.7,0.6c-0.3-0.3-0.5-0.6-0.6-1c-0.3-0.8-0.9-1.2-1.6-1.3c-0.9-0.2-1.3-0.7-1.4-1.6
		c-0.2-1.3,0-2.4,0.7-3.5c1.5-2.4,3.5-4.2,5.9-5.6c2.1-1.2,4.2-2.1,6.6-2.3c1.6-0.1,2.8,0.2,3.7,1.6c0.3,0.5,0.8,1,1.1,1.6
		c0.9,1.6,2.3,2.1,4,2.1c1.3,0,2.6,0,3.8-0.2c3.7-0.6,7.5-0.5,11.3-0.2c6.5,0.4,12.9-0.1,19.2-1.4c1.8-0.4,3.4-1.1,5-1.9
		c2.6-1.2,5.1-2.6,7.5-4.1c1.4-0.9,2.6-2,3.8-3.1c1.3-1.2,2.6-2.5,4.3-3.2c1.8-0.8,3.5-1.4,5.5-1.7c1.1-0.2,2,0,2.9,0.7
		c0.8,0.6,1.6,1.2,2.4,1.8c1,0.9,2.2,1.4,3.5,1.7c4.1,1,8.2,1.5,12.4,1.5c1.2,0,2.5,0.1,3.7,0.2c1.2,0.1,2.4,0.5,3.5,1.1
		c1.8,0.9,3.5,1.9,5.2,2.9c1.7,1,3.5,1.8,5.5,2.3c2.9,0.7,5.6,1.7,8.2,3.1c3,1.5,6.3,2.4,9.5,3.1c4.2,0.9,8.3,2.2,12.4,3.7
		c1.7,0.7,3.3,1.6,4.8,2.6c0.3,0.2,0.5,0.3,0.8,0.5c0.2-0.3,0.1-0.5,0.1-0.7l0,0c0.1,0.1,0.1,0.1,0.2,0.2l11.2,81.9l-9.3,1.3
		C405.8,435.7,405.2,435.5,404.4,435.4z"/>
	<path class="st10" d="M380.2,295.1c-4.4,3.6-9.1,7-13.3,10.9c-4.9,4.6-4.8,8.9,0.1,13c2,1.7,4.2,3,6.4,4c2.1,1,4.4,1.4,6.3,2
		c-4.8,2.2-9.5,1.4-14.3-1.9c0.5,4.5,4.1,4.4,5,7.4c-4.4,3.4-9.8,3.6-14.8,8.4c5.1,1,9-2.4,13.7-2.8c-2.5,9.9-7.9,18-10.1,27.8
		c2.8-0.4,3.6-3.3,4.6-5.4c2.7-5.7,5-11.5,7.5-17.3c3.3-7.7,8.6-9.1,13.6-3.5c2.6,2.9,5,6.3,9.2,8c-1.7-4.8-4.6-7.1-6.6-10.4
		c-0.6-1-1.8-1.5-0.4-3.6c6-8.9,4.5-14.7-4.2-17.4c-1.5-0.5-3-0.7-5.5-1.3c7.8-4.8,14-10.1,20.1-15.8c3.7-3.5,8.7-1.6,13-1.2
		c30.6,2.5,57.9,15.5,83.7,33.6c25.7,18.1,49.7,38.9,71.4,63.4c0.6,0.7,1,1.9,2.9,0.9c-3.1-4.3-6-8.5-9-12.5
		c-3.2-4.2-6.3-8.4-9.7-12.4c-32.6-39.4-71.5-67.1-114.4-86.9c-9.3-4.3-18.6-8.4-27.9-12.4c-2.5-1.1-4-2.9-4.8-6.1
		c-2-7.8-4.9-15.2-8.5-21.9c-1.8-3.4-1.9-5.1,2-5.8c4.9-0.9,9.3-3.7,13.3-7.5c1.5-1.4,3.1-2.9,2.9-5.4c-0.5-7.4,3.5-7.7,7.6-7.8
		c1.6,0,3.2,0.1,5.5,0.2c-2.9-4.4-6.4-3.6-9.8-3.1c-6.9,1-9.7-3-7.8-11.7c1.4-6.2,3.3-12.4,5.1-18.5c1.1-4,2.1-8.1,2-13.1
		c-3,2.8-3.2,6.6-4.2,9.9c-2,6.1-3.6,12.2-5.6,18.3c-1.1,3.3-2.6,4.3-4.3,0.6c-1.8-3.9-3.8-7.7-5.7-11.6c-0.4,0.3-0.8,0.6-1.2,0.8
		c1.4,4.2,2.7,8.4,4.5,14c-1.8-1.9-2.7-2.8-4.4-4.7c1.1,5.9,3.8,9.1,5.3,13.2c-1.8,0.9-2.7-2.1-4.7-0.7c2.3,4.4,6.7,6.4,8.2,11.7
		c-5.7,2.7-11.4,5.1-16.9,8.3c-6.8,3.9-7.8,7-5.6,15.2c1.1,4.2,2.5,8.4,4.7,12.4c-10.6-7.1-21.2-13.6-33.9-15.2
		c-12.5-1.6-24.8,3.4-38,3.4c3.6-4.9,6.7-9.1,8.6-14.1c2.3-6,1.5-8.2-3.6-9c-3.1-0.5-6.4-0.2-9.5-0.2c-1.5-0.1-7.3-0.6-7.1-4.8
		c0.1-1.4,0.7-3.1,4.5-3.4c-3.8-3.7-10.6-1.6-7.2,7c-8.7-1.2-7.9-5.2-2.3-6.9c-10.1-3.2-10,5.8-3.6,10.2c-6,0.2-8.8-2.5-7.7-4.5
		c-0.5,0.4-4.2,3.2-1.3,5.5c2.9,2.3,9.2,2.3,9.9,2.8c0.6,0.3-2.2,1.5-4.5,3.1c-0.6,0.4,0.1-1.7-0.4-1.2c-0.7,0.8-4.4,4.2-2.6,5
		c2.4,1.2,7.2,1.2,13.5-3c3-2,9.8-0.7,11.9-1.5c-2.8,5.1-5.5,8.9-7.5,13.4c-1.7,3.9-5.1,4-8,5c-5,1.7-9.3,3.3-14.2,6.3
		c-12.3,8.6-11.3,1.4-20.9,9.7c-9.6,8.4-16.6,24.5-11.3,28.8c5.2,4.2,14.1,3.4,22.2,0.4c11.7-10.3,10.3-13.1,18.7-15.9
		c3.5-1.2,14.6,1.8,16.8,5.9c1.3,2.5,6.6,7.1,8.4,9.7c-3.6,1-12.7-8.3-14.5-5.7c-2.1,2.9,4,4.4,3.3,5.1c-1.5,1.4-6.7-3.8-9.5,0.4
		c-0.3,0.9,3.1,3.4,1.8,0.9c-0.6-1.1,0.9-0.2,2.1,0.2c1.7,0.6,3.5,1.4,3.6,2.4c0.4,3.2-5.2,0.6-6.8,3.7c-0.2,0.3-2.2,3.2,2.5,3.1
		c-2.5-2.9,8.9-1.8,10.8-2.3c1.2,2.6-3.9,3.8-4.1,5.3c-0.3,1.5,1.6,2.6,3.7,2.1c5.3-1.3,0.1-1.3,1.3-2.7c1.4-1.8,7.3-3.2,11.5-4.2
		c3.8-0.9,4.7-3.1,2.7-6.8c-1.8-3.3-4-6.3-5.9-10.2c18.7,12,38.4,17.2,60,10.4c4.9-1.1,9.5-4.5,13.8-3.9
		C388.6,291.1,384.2,291.7,380.2,295.1z"/>
	<rect x="-1346.2" y="374.2" class="st1" width="138" height="225.1"/>
</g>
</svg>
