<?xml version="1.0" encoding="utf-8"?>
<!-- Generator: Adobe Illustrator 19.0.1, SVG Export Plug-In . SVG Version: 6.00 Build 0)  -->
<svg version="1.1" id="Layer_1" xmlns="http://www.w3.org/2000/svg" xmlns:xlink="http://www.w3.org/1999/xlink" x="0px" y="0px"
	 viewBox="-55 174 500 446" style="enable-background:new -55 174 500 446;" xml:space="preserve">
<style type="text/css">
	.st0{fill:#80171B;}
	.st1{fill:#FFFDF9;}
	.st2{fill:#414042;}
	.st3{opacity:0.7;}
	.st4{fill:#F1F2F2;}
</style>
<g>
	<g>
		<g>
			<path class="st0" d="M340.2,197.4L215.6,197l-20.2,80.3l-19.3-79.9l-125-0.4L6,503.3h116.8c0,0,0.2-46.8,0.1-89.4
				c-0.4-1.1-0.8-2.2-1.3-3.3c-6.1-18.6-7.9-45.7-12.3-66.9c-2.7-13-3.1-31.8-0.3-44.7c0.5-2.4,2.7-7.3,3.8-11.3
				c0.6-2.2,3.3-3,2.5-5.9c-1.1-4.1-12-11.2-18.7-15.9c-3.6-2.5-3.7,1.2-7.8-3.9c-1.3-1.6-2.8-6.9-2.9-7.4c-1-4.4,0.2-7.7,3.7-7.6
				c3.2,0.1,4.6-0.3,6.5-0.9c1.7-0.5,2.8-1.5,3.2-0.2c0.5,1.6-3.9,3.3-3.9,3.3s9.7,2.1,9.4,4.1c-0.2,1.4-5.3-1.2-5.3-1.2
				s4.9,7,9.2,9.6c1.9,1.1,1.8,2.8,11.3,5.7c5.4,1.7,13.1,7.3,14.7,2.1c4.5-14.7-0.7-5-0.7-15.5c0-2.1,2.5-1.6,2.5-3.6
				c0-6,1.9-14,6-17.2c3.1-2.5,6.5-3.6,12.4-1.8c11.2,3.3,12.5,24.1,6.8,36.4c-1.8,3.9-5,6.9-6.8,10.5c10.4,2.7,21.3,12.2,27.3,19.7
				c2.1,2.6,6,7.2,8.9,8.6c8.3,4.1,19.4,6,30.4,9.2c8.7,2.6,17.4,5.1,26.1,7.7c1.8-2.3,5-2.6,9.2-2.5c1-4.4,4.3-7.5,3.7-12.9
				c-7.8-8-20.9-8.6-31.3-14.2c-6.2-3.3-4.6-4.5-12-6.2c-1.8,2.4-4.1,5.7-3.7,7.4c0.4,1.7-2,1.2-2.1-0.6c-0.1-1.9-0.1-3.2-0.3-5.2
				c-0.2-0.1-0.4-0.2-0.6-0.3c-4,2.4-9,5.6-10.4,4.9c-0.5-0.2-0.6-1.3,0-1.5c0.6-0.2,1.1-0.4,4.6-2.8c-2.8,0-5.8-1.9-5.8-1.9
				s-0.5-0.9,0-1.2c2.1-0.5,5.6,1.1,9.5-0.9c3.2-1.5,5.3-6.3,11.4-4.9c0.6,0.3,4.7,1.4,5.5,2c8.2,2.3,14.7,3.6,22.2,6.3
				c8,2,15.7-1.4,22.7-1.8c-5.1-17.9,4.5-41.3,21.5-28c7.7,6,3.7,22.2,0.3,29.9c-1.2,2.8-5.7,7.4-4.9,10.5c2.7,6.3,12,8.1,13.5,15.1
				c1.2,5.4-1,14.3-4,22.7c-3.5,10.1-7,17.2-8.9,21.1c-1.3,2.5-10.4,18.2-9.5,31.1c0.8,10.8-0.1,15.3-0.6,23c-0.1,2,0,5.4-0.2,10.3
				s-1.5,7.5-1.8,10.2c-1.9,17.9-1.3,35.5,1.7,51.1c1.5,7.8,0.5,13.8,2.2,19.4H384L340.2,197.4z M239.2,372.7
				c2.6-7.8,25.8-30.8,25.8-33c-0.8-1.9-4.9,0.2-5.2,0.6c-0.3,0.5,1.6,1.8,1.2,2.5c-0.4,0.7-1.8,0-2.8,0c-3.9-1.5-7.9-3-11.1-5.2
				c-1.5-1.3-3.1-2.7-4.6-4c-6.2-0.4-12.5-0.8-18.7-1.2c-12.1-2.3-23.2-5-33.5-9.2c-5.9-2.4-18.3-11.5-25.5-9.6
				c-1.8,9.5-8.5,17.3-9.2,28.3c2.1,6.3,4.3,12.5,6.4,18.8c2.3,8.3,2.5,20.8,2.1,29.3c-0.3,6.5-1.4,9.1-2.1,12.9
				c-1.7,8.8-0.3,24,0,27.7c0.6,9,6,29.1,7.2,38.2s0.8,17.3,0.1,28.7c-0.1,1.7,0.1,3.8,0,5.8h60.9l23.1-86c-0.9-2.7-1.8-4.9-1.7-5.7
				c0.3-2.2-8.5-0.9-9.4-4.2c-2.1-7.8-8.7-3.5-10.6-9.1s-8.5-6.5-10.7-10.4C219.3,384.6,234.7,386.3,239.2,372.7z"/>
		</g>
	</g>
	<rect x="-31.6" y="514.3" class="st0" width="453.2" height="51.6"/>
	<g>
		<path class="st1" d="M11.7,540c0,4.1-1.6,7.7-4.7,10.8c-3.2,3.1-7.5,4.6-13,4.6c-1.8,0-4.8-0.1-9-0.3c0.3-4.5,0.4-9.4,0.4-14.9
			c0-5.1-0.1-9.6-0.4-13.4h2.9c0.7,0,1.8,0,3.2-0.1c1.4,0,2.4-0.1,2.8-0.1c6.1,0,10.7,1.3,13.6,3.8C10.2,533,11.7,536.2,11.7,540z
			 M7.1,541c0-3.2-1.2-5.9-3.7-8.1c-2.5-2.2-6.3-3.2-11.4-3.2c-0.7,0-1.7,0.1-3,0.2c0.1,3.4,0.2,6.8,0.2,10.4
			c0,3.9,0.1,7.9,0.3,11.9c1.4,0.2,2.7,0.3,4,0.3c4.6,0,8-1.1,10.2-3.4C6,546.9,7.1,544.2,7.1,541z"/>
		<path class="st1" d="M90.8,555.1h-3.6c0-0.2-2.8-3.7-8.5-10.4c-6-7-9.4-11.5-10.2-13.3h-0.3c0.3,3.5,0.5,6.5,0.5,9
			c0,4.9,0.1,9.8,0.4,14.7h-4.4c0.3-4.7,0.4-9.7,0.4-14.9c0-5.1-0.1-9.6-0.4-13.4h5c0,0.4,2.6,3.7,7.9,9.9
			c5.5,6.5,8.6,10.8,9.4,12.7h0.3c-0.3-3.5-0.4-6.5-0.4-9c0-5.4-0.1-9.9-0.4-13.6H91c-0.3,3.8-0.4,8.3-0.4,13.4
			C90.4,545.5,90.5,550.4,90.8,555.1z"/>
		<path class="st1" d="M131.1,551.7l-0.3,3.2c-2.1,0.5-4.5,0.8-7,0.8c-6,0-10.5-1.4-13.5-4.1c-3-2.7-4.5-6.1-4.5-10
			c0-4.1,1.7-7.7,5-10.7c3.4-3,7.9-4.5,13.5-4.5c1.6,0,3.2,0.2,4.9,0.6l-0.7,3.5c-2-0.5-3.8-0.8-5.3-0.8c-4.2,0-7.4,1.1-9.6,3.3
			c-2.2,2.2-3.3,4.8-3.3,8s1.3,5.9,3.8,8.2s6,3.4,10.4,3.4C126.2,552.6,128.4,552.3,131.1,551.7z"/>
		<path class="st1" d="M166,551.9l-0.2,3.3h-21c0.2-4.5,0.4-9.4,0.4-14.9c0-5.1-0.1-9.6-0.4-13.4h19.7l-0.2,3.2
			c-4.8-0.2-9.8-0.3-15.2-0.3c0.1,2.2,0.2,5.3,0.2,9.1c4.6,0,8.7-0.1,12.3-0.3v3.2c-3.9-0.1-8-0.2-12.3-0.2c0,3.7,0.1,7.2,0.2,10.5
			C155.3,552.2,160.8,552.1,166,551.9z"/>
		<path class="st1" d="M218.9,547.8c0,5.4-4.5,8-13.4,8c-3.3,0-6.2-0.3-8.7-0.9l0.9-3.4c2.9,0.8,5.7,1.3,8.3,1.3
			c5.9,0,8.9-1.4,8.9-4.2c0-1.4-0.8-2.6-2.3-3.6c-1-0.7-3-1.6-6-2.7c-3.2-1.2-5.4-2.3-6.6-3.2c-1.8-1.4-2.6-3.1-2.6-5.1
			c0-2.1,0.9-3.9,2.7-5.2c2-1.5,4.8-2.3,8.5-2.3c4.1,0,7,0.2,8.5,0.7l-0.6,3.5c-2.6-0.7-5.4-1-8.4-1c-4.5,0-6.7,1.2-6.7,3.7
			c0,1.2,0.6,2.2,1.9,3c0.8,0.5,2.7,1.3,5.5,2.3c3.2,1.2,5.6,2.3,7,3.3C217.8,543.6,218.9,545.5,218.9,547.8z"/>
		<path class="st1" d="M255.6,526.9l-0.1,3.1c-3.4-0.1-7-0.2-10.7-0.2c0,2.8-0.1,6.3-0.1,10.6c0,4.7,0.1,9.7,0.3,14.9h-4.8
			c0.2-4.9,0.3-9.9,0.3-14.9c0-4.2-0.1-7.7-0.2-10.6c-2.6,0-6.2,0.1-10.8,0.3l0.1-3.1L255.6,526.9L255.6,526.9z"/>
		<path class="st1" d="M295.7,526.9c-0.1,2.7-0.1,5.3-0.2,7.7c0,2.4-0.1,4.6-0.1,6.6c0,9.7-4.6,14.5-13.8,14.5
			c-2.4,0-4.5-0.3-6.2-0.9c-1.7-0.6-3.1-1.4-4.2-2.6s-1.9-2.7-2.4-4.5s-0.8-3.9-0.8-6.4c0-2.1,0-4.4-0.1-6.8c0-2.4-0.1-5-0.2-7.7
			h4.9c-0.2,5.5-0.3,9.8-0.3,13c0,2.5,0.1,4.6,0.4,6.2c0.3,1.6,0.8,2.9,1.6,4c0.8,1.1,1.7,1.8,2.9,2.2c1.1,0.4,2.6,0.7,4.4,0.7
			c1.9,0,3.4-0.2,4.5-0.7c1.2-0.4,2.1-1.2,2.8-2.2c0.7-1,1.2-2.3,1.6-3.9c0.3-1.6,0.5-3.7,0.5-6.3c0-1.5,0-3.4-0.1-5.5
			s-0.2-4.6-0.3-7.4H295.7L295.7,526.9z"/>
		<path class="st1" d="M339.2,540c0,4.1-1.6,7.7-4.7,10.8c-3.2,3.1-7.5,4.6-13,4.6c-1.8,0-4.8-0.1-9-0.3c0.3-4.5,0.4-9.4,0.4-14.9
			c0-5.1-0.1-9.6-0.4-13.4h2.9c0.7,0,1.8,0,3.2-0.1c1.4,0,2.4-0.1,2.8-0.1c6.1,0,10.7,1.3,13.6,3.8C337.7,533,339.2,536.2,339.2,540
			z M334.7,541c0-3.2-1.2-5.9-3.7-8.1c-2.5-2.2-6.3-3.2-11.4-3.2c-0.7,0-1.7,0.1-3,0.2c0.1,3.4,0.2,6.8,0.2,10.4
			c0,3.9,0.1,7.9,0.3,11.9c1.4,0.2,2.7,0.3,4,0.3c4.6,0,8-1.1,10.2-3.4C333.6,546.9,334.7,544.2,334.7,541z"/>
		<path class="st1" d="M359.1,555.1h-4.9c0.3-4.7,0.4-9.6,0.4-14.9c0-5.1-0.1-9.6-0.4-13.4h4.9c-0.2,4-0.4,8.4-0.4,13.4
			C358.7,545.5,358.9,550.5,359.1,555.1z"/>
		<path class="st1" d="M405.9,540.6c0,4.7-1.6,8.4-4.9,11.2c-3.3,2.8-7.1,4.2-11.4,4.2c-4.1,0-7.8-1.3-10.9-3.9s-4.7-6-4.7-10.4
			c0-4.7,1.6-8.5,4.9-11.3c3.3-2.8,7.1-4.2,11.4-4.2c4.1,0,7.8,1.3,10.9,3.9C404.3,532.7,405.9,536.2,405.9,540.6z M401.3,541.1
			c0-3.7-1.2-6.6-3.5-8.7c-2.4-2-5.1-3.1-8.1-3.1c-2.8,0-5.4,1.1-7.6,3.2c-2.2,2.2-3.3,5-3.3,8.6c0,3.7,1.2,6.6,3.6,8.7
			c2.4,2,5.1,3.1,8.1,3.1c2.8,0,5.4-1.1,7.6-3.3C400.2,547.5,401.3,544.6,401.3,541.1z"/>
	</g>
	<g>
		<path class="st2" d="M57.2,581.1c0,0.1,0,0.1-0.1,0.2c0,0.1-0.1,0.2-0.1,0.3c-0.1,0.1-0.1,0.2-0.2,0.3s-0.1,0.2-0.2,0.2
			c-0.1,0.1-0.2,0.2-0.5,0.4c-0.2,0.2-0.5,0.4-0.8,0.6c-0.3,0.2-0.6,0.4-0.9,0.6s-0.6,0.4-0.8,0.5c-0.5,0.3-0.9,0.5-1.4,0.8
			s-0.9,0.5-1.4,0.8s-0.9,0.5-1.4,0.8s-1,0.6-1.6,0.9c-0.3,0.2-0.6,0.3-0.9,0.5c-0.3,0.2-0.6,0.3-0.9,0.5c-0.3,0.2-0.6,0.3-0.8,0.5
			c-0.3,0.2-0.6,0.3-0.8,0.5c-0.4,0.3-0.8,0.6-1.2,0.9c-0.4,0.3-0.8,0.6-1.3,0.9c-0.5,0.3-1,0.4-1.7,0.4c-0.1,0-0.3,0-0.4,0
			c-0.2,0-0.3-0.1-0.4-0.1c-0.1-0.1-0.3-0.1-0.3-0.2c-0.1-0.1-0.1-0.2-0.1-0.3c0-0.2,0.1-0.3,0.2-0.4c0.3-0.2,0.5-0.4,0.8-0.6
			c0.2-0.2,0.5-0.3,0.7-0.5c0.2-0.1,0.5-0.3,0.8-0.4c0.3-0.2,0.6-0.3,1-0.6c0.5-0.3,0.9-0.5,1.2-0.7c0.3-0.2,0.7-0.4,0.9-0.6
			c0.3-0.2,0.6-0.4,0.8-0.6c0.3-0.2,0.5-0.5,0.8-0.8c0.2-0.2,0.3-0.4,0.5-0.6s0.3-0.5,0.4-0.7s0.2-0.5,0.3-0.8
			c0.1-0.3,0.1-0.5,0.1-0.7s0-0.4-0.1-0.6c-0.1-0.3-0.2-0.5-0.3-0.8c-0.1-0.3-0.3-0.5-0.5-0.7c-0.2-0.2-0.4-0.3-0.7-0.3
			c-0.4,0-0.8,0.1-1.2,0.2c-0.4,0.1-0.8,0.4-1.2,0.6c-0.4,0.3-0.8,0.6-1.2,0.9c-0.4,0.3-0.7,0.7-1.1,1c-0.3,0.4-0.7,0.7-1,1
			c-0.3,0.3-0.6,0.6-0.8,0.9c-1,1.2-1.5,2.2-1.5,2.9v1.1c0,0.2-0.1,0.4-0.3,0.5c-0.2,0.1-0.5,0.2-0.7,0.2c-0.7,0-1.1-1-1.1-2.9
			c0-0.6,0-1.3,0.1-2c0.1-0.7,0.2-1.4,0.3-2.1c0.1-0.7,0.2-1.4,0.4-2.1c0.1-0.7,0.3-1.5,0.4-2.2c0.1-0.6,0.2-1.2,0.3-1.7
			c0.1-0.5,0.2-1,0.3-1.4c0.1-0.4,0.2-0.8,0.2-1.2c0.1-0.4,0.2-0.7,0.3-1.1c0-0.2,0.1-0.4,0.2-0.5c0.1-0.2,0.2-0.3,0.3-0.4
			c0.1-0.1,0.3-0.2,0.4-0.3c0.1-0.1,0.2-0.1,0.4-0.1c0.5,0,0.9,0.1,1.1,0.3c0.2,0.2,0.3,0.5,0.3,0.8c0,0,0,0.1-0.1,0.2
			c0,0.1-0.1,0.3-0.1,0.5c-0.1,0.2-0.1,0.4-0.2,0.7c-0.1,0.2-0.1,0.5-0.2,0.7c-0.1,0.2-0.1,0.4-0.1,0.5c0,0.1-0.1,0.2-0.1,0.2
			c-0.2,0.8-0.4,1.5-0.5,2.1c-0.2,0.6-0.3,1.3-0.5,1.8c-0.1,0.3-0.2,0.7-0.3,1.1c-0.1,0.4-0.2,0.8-0.3,1.2c-0.1,0.4-0.2,0.8-0.2,1.2
			c-0.1,0.4-0.1,0.7-0.2,1.1c0.3-0.4,0.6-0.8,1-1.2s0.8-0.8,1.2-1.3c0.4-0.4,0.9-0.8,1.4-1.2s0.9-0.7,1.4-1c1-0.6,1.9-0.9,2.8-0.9
			c0.5,0,1,0.1,1.5,0.3c0.5,0.2,0.9,0.5,1.2,0.9c0.3,0.4,0.6,0.7,0.8,1.2c0.2,0.4,0.3,0.9,0.3,1.3c0,0.1,0,0.3-0.1,0.6
			c-0.1,0.3-0.2,0.6-0.4,0.9c-0.1,0.3-0.3,0.6-0.4,0.9c-0.1,0.3-0.3,0.5-0.3,0.6c0.6-0.3,1.2-0.7,1.9-1.1c0.6-0.4,1.3-0.8,1.9-1.2
			s1.3-0.8,1.9-1.3c0.6-0.4,1.2-0.9,1.8-1.3c0.2-0.1,0.3-0.2,0.5-0.3c0.1,0,0.2-0.1,0.3-0.1c0.2,0,0.3,0.1,0.4,0.2
			C57.2,580.8,57.2,581,57.2,581.1z"/>
		<path class="st2" d="M75,580.8c0,0.1,0,0.1,0,0.3c0,0.1-0.1,0.3-0.1,0.4c0,0.1-0.1,0.3-0.2,0.4c-0.1,0.1-0.1,0.3-0.1,0.4
			c-0.1,0.2-0.2,0.4-0.3,0.7c-0.1,0.3-0.3,0.6-0.4,1c-0.2,0.4-0.3,0.7-0.5,1.1s-0.3,0.7-0.5,1.1c-0.1,0.4-0.3,0.7-0.4,1
			c-0.1,0.3-0.2,0.6-0.3,0.8c-0.1,0.2-0.2,0.5-0.3,0.9c-0.1,0.3-0.3,0.7-0.4,1.1c-0.1,0.4-0.3,0.8-0.5,1.2s-0.3,0.8-0.5,1.3
			c-0.2,0.4-0.3,0.8-0.4,1.2s-0.3,0.8-0.4,1.1c-0.1,0.2-0.2,0.5-0.2,0.7c-0.1,0.3-0.1,0.5-0.2,0.7s-0.3,0.4-0.4,0.6
			c-0.2,0.1-0.5,0.2-0.8,0.2c-0.1,0-0.3,0-0.4-0.1s-0.2-0.1-0.3-0.2c-0.1-0.1-0.1-0.2-0.2-0.3c0-0.1-0.1-0.2-0.1-0.3
			c0-0.2,0.1-0.4,0.2-0.7c0.1-0.3,0.2-0.6,0.4-0.9c0.2-0.3,0.3-0.7,0.5-1.1s0.3-0.8,0.5-1.1c0.2-0.6,0.5-1.1,0.7-1.6s0.4-1,0.6-1.4
			c0.2-0.4,0.3-0.7,0.4-1c0.1-0.3,0.1-0.4,0.1-0.5c0-0.1,0-0.1,0-0.2c0-0.1-0.1-0.1-0.2-0.1s-0.2,0.1-0.4,0.2
			c-0.2,0.1-0.5,0.3-0.8,0.4c-0.3,0.2-0.7,0.4-1.1,0.6s-0.8,0.4-1.2,0.6c-0.4,0.2-0.8,0.3-1.2,0.4c-0.4,0.1-0.8,0.2-1.2,0.2
			c-0.6,0-1.1-0.1-1.5-0.2s-0.8-0.4-1.1-0.6c-0.3-0.3-0.5-0.5-0.7-0.8c-0.2-0.3-0.2-0.6-0.2-0.9c0-0.2,0-0.5,0.1-0.9
			c0.1-0.3,0.1-0.7,0.2-1.1s0.2-0.8,0.4-1.2c0.1-0.4,0.3-0.8,0.5-1.2s0.3-0.8,0.5-1.1c0.2-0.3,0.4-0.6,0.5-0.8
			c0.2-0.3,0.5-0.5,0.7-0.6s0.4-0.2,0.6-0.2s0.3,0,0.4,0.1c0.1,0.1,0.2,0.1,0.3,0.2c0.1,0.1,0.1,0.2,0.1,0.3s0,0.3,0,0.4
			s-0.1,0.3-0.2,0.5c-0.1,0.3-0.3,0.6-0.5,0.9c-0.2,0.4-0.4,0.8-0.6,1.2c-0.2,0.5-0.4,0.9-0.6,1.4c-0.1,0.2-0.2,0.5-0.2,0.8
			s0,0.6,0,0.8s0.1,0.4,0.2,0.6c0.1,0.1,0.3,0.3,0.5,0.4s0.4,0.2,0.6,0.2s0.4,0.1,0.5,0.1c0.4,0,0.8-0.1,1.2-0.2
			c0.4-0.1,0.8-0.3,1.2-0.4c0.4-0.2,0.8-0.4,1.1-0.6c0.4-0.2,0.7-0.4,1.1-0.5c0.3-0.2,0.6-0.3,1-0.6c0.3-0.2,0.6-0.5,0.9-0.8
			c0.1-0.1,0.2-0.3,0.4-0.7c0.1-0.3,0.3-0.7,0.5-1.1c0.2-0.4,0.3-0.8,0.5-1.2s0.3-0.8,0.4-1.1c0.1-0.4,0.3-0.7,0.6-0.9
			c0.2-0.2,0.4-0.3,0.7-0.3c0.2,0,0.4,0,0.6,0.1c0.1,0.1,0.2,0.2,0.3,0.3s0.1,0.2,0.1,0.4C75,580.5,75,580.7,75,580.8z"/>
		<path class="st2" d="M115.2,576.2c0,0.1,0,0.2,0,0.4c0,0.1-0.1,0.3-0.1,0.4c-0.1,0.1-0.1,0.3-0.2,0.4c-0.1,0.1-0.1,0.2-0.2,0.3
			c-0.2,0.2-0.6,0.3-1.2,0.3c0-0.5-0.1-1-0.3-1.3c-0.1-0.2-0.2-0.3-0.4-0.4s-0.5-0.2-0.7-0.3c-0.3-0.1-0.5-0.1-0.8-0.2
			c-0.3,0-0.5-0.1-0.7-0.1c-0.4,0-0.9,0-1.3,0c-0.4,0-0.8,0-1.2,0.1s-0.8,0.1-1.2,0.2s-0.8,0.2-1.2,0.4c-0.3,0.1-0.7,0.3-1,0.4
			c-0.4,0.2-0.7,0.3-1,0.5s-0.6,0.4-0.8,0.7c-0.2,0.2-0.4,0.5-0.4,0.8c0,0.2,0.1,0.5,0.2,0.7c0.2,0.3,0.4,0.5,0.7,0.8s0.6,0.5,1,0.7
			s0.8,0.4,1.2,0.5c0.1,0,0.2,0.1,0.5,0.1c0.3,0.1,0.6,0.2,0.9,0.2c0.3,0.1,0.6,0.2,0.9,0.2c0.3,0.1,0.4,0.1,0.5,0.1
			c2.1,0.4,3.6,1,4.6,1.6c1,0.6,1.5,1.4,1.5,2.2c0,0.3-0.1,0.6-0.2,0.8c-0.2,0.3-0.3,0.6-0.6,0.8c-0.2,0.3-0.5,0.5-0.7,0.7
			c-0.3,0.2-0.5,0.4-0.7,0.5c-0.3,0.2-0.6,0.4-0.9,0.5c-0.3,0.2-0.7,0.4-1.1,0.5c-0.4,0.2-0.8,0.3-1.2,0.5c-0.4,0.2-0.8,0.3-1.3,0.4
			c-0.4,0.1-0.8,0.2-1.3,0.3s-0.9,0.2-1.4,0.2s-0.9,0.1-1.3,0.2c-0.4,0-0.8,0.1-1.1,0.1c-0.2,0-0.5,0-0.9-0.1s-0.8-0.1-1.1-0.2
			c-0.4-0.1-0.7-0.2-0.9-0.4c-0.3-0.1-0.4-0.3-0.4-0.5c0-0.1,0-0.2,0-0.4c0-0.1,0.1-0.3,0.1-0.4c0.1-0.1,0.1-0.3,0.2-0.4
			c0.1-0.1,0.2-0.1,0.3-0.1c0.2,0,0.4,0,0.6,0.1c0.2,0.1,0.4,0.1,0.7,0.2s0.6,0.1,1,0.2s0.8,0.1,1.4,0.1c0.6,0,1.1,0,1.7-0.1
			c0.6-0.1,1.2-0.2,1.7-0.4c0.6-0.2,1.1-0.3,1.6-0.6c0.5-0.2,1-0.4,1.4-0.6c0.2-0.1,0.4-0.2,0.6-0.4s0.5-0.3,0.7-0.5
			s0.4-0.4,0.5-0.5c0.1-0.2,0.2-0.4,0.2-0.6c0-0.3-0.3-0.6-0.8-0.8c-0.5-0.3-1-0.5-1.6-0.6c-0.5-0.1-1-0.3-1.4-0.3
			c-0.5-0.1-1.1-0.3-1.7-0.4c-0.6-0.2-1.3-0.4-2.1-0.6c-1.2-0.4-2.3-1-3.2-1.8s-1.3-1.7-1.3-2.8c0-0.5,0.2-1,0.6-1.5
			c0.4-0.5,0.9-0.9,1.6-1.3c0.7-0.4,1.4-0.8,2.3-1.1c0.8-0.3,1.7-0.6,2.6-0.7c0.2,0,0.4-0.1,0.7-0.1s0.5-0.1,0.8-0.1s0.6,0,0.8-0.1
			c0.3,0,0.5,0,0.7,0s0.5,0,0.8,0s0.7,0.1,1,0.1c0.4,0,0.7,0.1,1,0.2c0.3,0.1,0.6,0.1,0.8,0.2c0.5,0.2,0.8,0.5,1.1,0.8
			C115,575.6,115.2,575.9,115.2,576.2z"/>
		<path class="st2" d="M126.7,588.4c0,0.2,0,0.4-0.1,0.8c0,0.2-0.3,0.4-0.9,0.8c-0.5,0.4-0.9,0.5-1.1,0.5c-0.2,0-0.4,0-0.6-0.1
			c-0.1-0.1-0.3-0.1-0.3-0.3c-0.1-0.1-0.1-0.3-0.2-0.4c0-0.2,0-0.4,0-0.6c0-0.4,0-0.8,0.1-0.9c0-0.3,0.7-0.5,2-0.5h0.3
			c0.3,0,0.5,0.1,0.8,0.4C126.7,588.1,126.7,588.2,126.7,588.4z"/>
		<path class="st2" d="M170.2,575c0,0.3-0.1,0.6-0.3,0.9c-0.2,0.2-0.5,0.4-1,0.4c-0.2,0-0.3-0.1-0.5-0.2s-0.4-0.2-0.5-0.4
			c-0.1-0.1-0.3-0.2-0.5-0.3c-0.2-0.1-0.4-0.1-0.6-0.1c-1.1,0-2.6,0.3-4.4,0.9c-0.9,0.3-1.7,0.7-2.5,1.1s-1.5,0.9-2.3,1.4
			c-0.7,0.5-1.4,1.1-2.1,1.7c-0.7,0.6-1.3,1.3-1.8,1.9s-0.8,1.2-1.1,2c-0.2,0.8-0.4,1.5-0.4,2.3c0,0.4,0.2,0.7,0.6,1.1
			c0.4,0.4,0.9,0.6,1.3,0.7c0.6,0.1,1.2,0.2,2,0.2c0.6,0,1.2-0.1,1.9-0.2c0.7-0.1,1.3-0.3,2-0.5c0.7-0.2,1.3-0.5,1.9-0.8
			c0.6-0.3,1.2-0.6,1.7-0.9c0.2-0.1,0.4-0.3,0.6-0.4c0.2-0.2,0.4-0.4,0.6-0.6c0.2-0.2,0.4-0.4,0.6-0.6c0.2-0.2,0.3-0.4,0.4-0.5
			c0.1-0.1,0.1-0.2,0.1-0.3c0-0.1,0-0.3-0.1-0.4c-0.1-0.2-0.1-0.3-0.1-0.4c0-0.3,0.4-0.4,1.2-0.4c0.3,0,0.6,0.2,1.2,0.5
			c0.5,0.3,0.8,0.6,0.8,0.7c0,0-0.3,0.5-0.9,1.5c-0.3,0.5-0.5,0.8-0.7,1.1c-0.2,0.3-0.2,0.4-0.3,0.5c-0.2,0.3-0.3,0.6-0.5,1
			c-0.2,0.4-0.3,0.8-0.5,1.2c-0.3,0.9-0.5,1.6-0.5,1.9c0,0.1,0,0.2,0,0.2c0,0.1,0.1,0.2,0.1,0.2c0.1,0.1,0.1,0.1,0.2,0.2
			c0.1,0.1,0.1,0.1,0.1,0.1c0,0.2,0,0.4-0.1,0.5c-0.1,0.2-0.2,0.3-0.3,0.4s-0.3,0.2-0.5,0.3c-0.2,0.1-0.4,0.1-0.6,0.1
			c-0.5,0-0.8-0.1-1-0.4s-0.2-0.6-0.2-1.1c0-0.1,0-0.2,0-0.4c0-0.1,0-0.2,0-0.3c0.1-0.2,0.1-0.5,0.2-0.8c0-0.1,0.1-0.3,0.1-0.4
			c0-0.1,0.1-0.2,0.1-0.3c0.1-0.4,0.2-0.7,0.2-0.9c0-0.1,0-0.1-0.1-0.1c-0.2,0-0.8,0.2-1.8,0.6c-0.5,0.2-0.9,0.4-1.2,0.5
			s-0.5,0.2-0.6,0.2c-1.6,0.5-3.1,0.8-4.5,0.8c-0.9,0-1.9-0.2-2.9-0.5s-1.9-0.8-2.6-1.3c-0.7-0.6-1-1.3-1-2.1c0-2.3,1.3-4.6,3.8-7.1
			c1.1-1.1,2.2-2,3.2-2.7s2.3-1.4,3.8-2c0.2-0.1,0.5-0.2,0.8-0.3s0.6-0.2,1-0.3c0.7-0.2,1.5-0.4,2.2-0.6c0.7-0.2,1.4-0.3,2.1-0.4
			c0.4,0,1-0.1,1.8-0.1c0.3,0,0.6,0,0.8,0.1c0.3,0.1,0.5,0.2,0.7,0.4c0.2,0.2,0.4,0.4,0.5,0.6C170.2,574.5,170.2,574.7,170.2,575z"
			/>
		<path class="st2" d="M193.7,581.6c-0.1,0.1-0.2,0.3-0.3,0.4s-0.3,0.2-0.4,0.2c-0.2,0-0.3,0.1-0.5,0.1c-0.1,0-0.3,0-0.5-0.1
			c-0.2,0-0.4-0.1-0.5-0.1c-0.4,0-0.8,0.1-1.3,0.2c-0.5,0.2-1,0.4-1.5,0.6c-0.5,0.3-1,0.6-1.5,0.9c-0.5,0.3-0.9,0.6-1.3,1
			c-0.2,0.2-0.4,0.4-0.6,0.6c-0.2,0.2-0.4,0.4-0.6,0.7c-0.2,0.2-0.4,0.5-0.5,0.7c-0.2,0.2-0.3,0.5-0.3,0.7c0,0.1-0.1,0.3,0,0.5
			c0,0.2,0,0.4,0.1,0.6c0,0.2,0.1,0.4,0.1,0.7c0,0.2,0,0.4,0,0.7c0,0.1,0,0.2,0,0.4c0,0.1,0,0.2,0,0.3s-0.1,0.1-0.2,0.2
			c-0.1,0.1-0.2,0.2-0.3,0.2s-0.3,0.1-0.4,0.2c-0.1,0.1-0.3,0.1-0.4,0.1c-0.2,0-0.4-0.1-0.5-0.3c-0.1-0.2-0.3-0.4-0.4-0.7
			c-0.1-0.3-0.2-0.7-0.2-1.1s-0.1-0.9-0.1-1.4c0-0.1,0-0.4,0-0.6c0-0.3,0-0.6,0-0.9c0-0.3,0-0.6,0-0.8c0-0.2,0-0.4,0-0.4
			c0-0.1,0-0.3,0-0.5s0-0.5,0.1-0.7c0-0.3,0.1-0.5,0.1-0.8s0.1-0.5,0.1-0.8c0-0.1,0-0.2,0.1-0.4c0-0.2,0-0.4,0.1-0.5
			c0-0.2,0-0.4,0.1-0.5c0-0.2,0.1-0.3,0.1-0.4s0.1-0.2,0.2-0.3c0.1-0.1,0.2-0.2,0.4-0.4c0.1-0.1,0.3-0.2,0.5-0.3
			c0.2-0.1,0.3-0.1,0.5-0.1s0.4,0,0.5,0.1c0.1,0.1,0.2,0.1,0.3,0.2c0.1,0.1,0.1,0.2,0.2,0.3c0,0.1,0,0.2,0,0.2s0,0.1,0,0.2
			c0,0.1-0.1,0.2-0.1,0.4c-0.1,0.2-0.1,0.3-0.2,0.5c-0.1,0.2-0.1,0.3-0.2,0.5c-0.1,0.2-0.1,0.3-0.1,0.4c0,0.1-0.1,0.2-0.1,0.3
			s0,0.2,0,0.4s0,0.4-0.1,0.6c0,0.2,0,0.5-0.1,0.7c0,0.2,0,0.5,0,0.6s0,0.1,0,0.2s0,0.1,0,0.2c0.3-0.4,0.7-0.7,1.1-1.1
			c0.4-0.4,0.8-0.8,1.3-1.1c0.5-0.4,0.9-0.7,1.4-1.1c0.5-0.3,1-0.6,1.5-0.9s1-0.5,1.5-0.6c0.5-0.1,1-0.2,1.5-0.2
			c0.3,0,0.5,0.1,0.7,0.1c0.2,0.1,0.4,0.2,0.5,0.3s0.2,0.3,0.3,0.4c0.1,0.1,0.1,0.2,0.1,0.3l0,0
			C193.8,581.3,193.7,581.4,193.7,581.6z"/>
		<path class="st2" d="M224.2,583.3c0,0.2-0.1,0.4-0.3,0.7c-0.2,0.3-0.4,0.6-0.7,0.9c-0.3,0.3-0.7,0.7-1.1,1.1s-0.8,0.8-1.3,1.2
			c-0.5,0.5-1.1,0.9-1.6,1.3c-0.6,0.4-1.2,0.8-1.8,1.2c-1.3,0.8-2.4,1.2-3.4,1.2c-1.1,0-2-0.3-2.6-0.9c-0.6-0.6-1-1.4-1.3-2.3
			c-0.2-0.9-0.3-1.8-0.3-2.7c0-0.4,0.1-1,0.2-1.8c0.1-0.4,0.1-0.8,0.2-1.1s0.1-0.5,0.2-0.7c0.1-0.4,0.4-0.7,0.8-0.9
			c0.4-0.3,0.9-0.4,1.3-0.4c0.2,0,0.4,0.2,0.4,0.6c0,0.3,0,0.6-0.1,0.9s-0.1,0.7-0.2,1c-0.1,0.6-0.2,1.2-0.3,1.6
			c-0.1,0.5-0.1,0.9-0.1,1.3c0,0.8,0.1,1.6,0.4,2.4s0.7,1.2,1.4,1.2c0.7,0,1.5-0.2,2.4-0.6c0.4-0.2,0.9-0.5,1.3-0.7
			c0.4-0.3,0.9-0.6,1.4-0.9s0.9-0.6,1.3-1c0.4-0.3,0.8-0.7,1.2-1c0.4-0.3,0.8-0.7,1.1-1c0.3-0.3,0.6-0.6,0.8-0.8c0,0,0,0,0-0.1
			c0,0,0-0.1,0.1-0.1l0.1-0.1h0.1c0.1,0,0.2,0.1,0.3,0.3C224.2,583.1,224.2,583.2,224.2,583.3z M215.2,573.9c0,0.5-0.2,0.9-0.5,1.3
			c-0.3,0.4-0.7,0.5-1.3,0.5c-0.4,0-0.8,0-1.2-0.1c-0.4-0.1-0.7-0.2-0.7-0.4c0-0.4,0.1-0.7,0.4-1.1c0.3-0.3,0.6-0.6,1-0.8
			c0.3-0.2,0.5-0.2,0.6-0.2c0.5,0,0.9,0.1,1.2,0.2C215,573.3,215.2,573.6,215.2,573.9z"/>
		<path class="st2" d="M246.1,582c-0.1,0.5-0.1,1.1-0.2,1.8c0,0.6-0.1,1.4-0.2,2.2c0,0.3-0.1,0.6-0.1,1s-0.1,0.8-0.2,1.1
			c-0.1,0.4-0.1,0.8-0.2,1.2c-0.1,0.4-0.1,0.7-0.2,1c-0.1,0.4-0.2,0.9-0.3,1.4c-0.1,0.5-0.3,1-0.5,1.4c-0.2,0.5-0.4,0.9-0.7,1.3
			c-0.3,0.4-0.6,0.8-1,1.1c-0.4,0.3-0.8,0.6-1.3,0.8s-1.1,0.3-1.7,0.3c-0.4,0-0.8,0-1.3-0.1c-0.4-0.1-0.8-0.2-1.2-0.3
			c-0.4-0.1-0.8-0.3-1.2-0.5c-0.4-0.2-0.7-0.4-1.1-0.6s-0.7-0.5-1-0.8s-0.5-0.5-0.7-0.8s-0.3-0.5-0.3-0.8c0-0.2,0.1-0.4,0.3-0.4
			c0.1,0,0.1,0,0.2,0.1l0.1,0.1c0.1,0,0.1,0.1,0.1,0.1l0.1,0.1l0.1,0.1c1.8,1.4,3.7,2.1,5.7,2.1c0.7,0,1.2-0.1,1.6-0.4s0.8-0.6,1-1
			c0.3-0.4,0.4-0.9,0.6-1.4c0.1-0.5,0.2-1,0.3-1.5c0.1-0.3,0.1-0.6,0.1-0.9s0.1-0.6,0.1-1c0-0.3,0.1-0.7,0.1-1.1
			c0-0.4,0.1-0.8,0.1-1.2c-0.4,0.3-0.9,0.7-1.4,1.1c-0.6,0.4-1.2,0.7-1.8,1.1c-0.7,0.3-1.3,0.6-2,0.8c-0.7,0.2-1.3,0.3-1.8,0.3
			c-0.2,0-0.5,0-0.7-0.1s-0.4-0.2-0.5-0.4c-0.1-0.2-0.3-0.4-0.4-0.6c-0.1-0.3-0.1-0.5-0.1-0.8c0-0.4,0.1-0.9,0.3-1.4
			c0.2-0.5,0.4-1,0.7-1.5c0.3-0.5,0.6-1,1-1.5c0.3-0.5,0.7-0.9,1-1.3c0.3-0.4,0.7-0.8,1.2-1.2c0.5-0.4,1-0.8,1.5-1.1
			c0.5-0.3,1.1-0.6,1.7-0.8s1.1-0.3,1.7-0.3c0.5,0,0.9,0.1,1.4,0.3c0.4,0.2,0.7,0.5,1,0.8c0.1,0.1,0.1,0.2,0.1,0.4
			c0,0.2,0,0.4,0,0.6s0,0.4-0.1,0.7C246.1,581.5,246.1,581.7,246.1,582z M243.8,584.1c0-0.2,0.1-0.5,0.1-0.8c0-0.3,0.1-0.7,0.1-1.2
			c0-0.3,0.1-0.5,0.1-0.8c0-0.3,0-0.5,0-0.6c-0.1-0.2-0.2-0.4-0.4-0.4c-0.2-0.1-0.6-0.1-1-0.1c-0.4,0.2-0.9,0.5-1.3,0.9
			c-0.4,0.3-0.9,0.7-1.3,1.1s-0.8,0.8-1.1,1.2c-0.3,0.4-0.6,0.8-0.9,1.2c-0.3,0.4-0.5,0.9-0.7,1.3s-0.2,0.8-0.2,1.1
			c0,0.1,0,0.2,0.1,0.3s0.1,0.2,0.2,0.2c0.1,0.1,0.2,0.1,0.3,0.1c0.1,0,0.3,0,0.4,0c0.3,0,0.7-0.1,1-0.2c0.4-0.1,0.7-0.3,1.1-0.4
			c0.4-0.2,0.7-0.3,1-0.5c0.3-0.2,0.6-0.4,0.9-0.5c0.1-0.1,0.2-0.2,0.4-0.3c0.2-0.1,0.3-0.3,0.5-0.5c0.2-0.2,0.3-0.4,0.4-0.5
			C243.7,584.4,243.8,584.3,243.8,584.1z"/>
		<path class="st2" d="M282.2,580.7c0,0.1-0.1,0.3-0.2,0.4c-0.1,0.2-0.3,0.3-0.4,0.5c-0.2,0.2-0.4,0.3-0.6,0.5
			c-0.2,0.1-0.4,0.3-0.7,0.4c-0.2,0.1-0.4,0.2-0.6,0.3c-0.2,0.1-0.4,0.2-0.5,0.2c-0.2,0.1-0.6,0.2-0.9,0.2c-0.4,0.1-0.8,0.1-1.2,0.2
			c-0.4,0-0.8,0.1-1.2,0.1c-0.4,0-0.7,0-1,0c-0.1,0-0.3,0-0.5,0s-0.4-0.1-0.6-0.1s-0.4-0.1-0.6-0.2s-0.3-0.1-0.4-0.2
			c0.1,0.3,0.2,0.6,0.2,0.9c0.1,0.3,0.1,0.6,0.1,0.9c0,0.1,0,0.3-0.1,0.5c0,0.2-0.1,0.4-0.2,0.6c-0.1,0.2-0.1,0.4-0.2,0.6
			s-0.2,0.3-0.3,0.5c-0.2,0.3-0.5,0.6-0.7,0.9c-0.3,0.3-0.5,0.5-0.9,0.8c-0.3,0.2-0.7,0.5-1.1,0.7c-0.4,0.2-0.9,0.4-1.4,0.6
			c-0.6,0.2-1.1,0.3-1.7,0.4c-0.6,0.1-1.1,0.1-1.7,0.1c-0.4,0-0.7-0.1-1-0.3s-0.5-0.4-0.7-0.7c-0.2-0.3-0.4-0.7-0.5-1.1
			c-0.1-0.4-0.2-0.8-0.2-1.3c0-0.1,0-0.3,0-0.4c0-0.2,0.1-0.3,0.1-0.5s0.1-0.3,0.1-0.5s0.1-0.3,0.1-0.4c0.1-0.3,0.3-0.7,0.6-1.1
			c0.2-0.4,0.5-0.8,0.8-1.3c0.3-0.4,0.7-0.9,1.1-1.3s0.8-0.8,1.2-1.1c0.4-0.3,0.9-0.6,1.4-0.8c0.5-0.2,0.9-0.3,1.4-0.3
			c0.2,0,0.3,0,0.4,0.1c0.1,0,0.2,0.1,0.2,0.1c0.1,0.1,0.1,0.1,0.2,0.2c0.1,0.1,0.1,0.1,0.2,0.2l0.1,0.1c0.1,0,0.2,0,0.3,0
			c0.1,0,0.2,0,0.4,0c0.2,0,0.4,0.1,0.6,0.3c0.3,0.2,0.5,0.4,0.8,0.6c0.3,0.2,0.6,0.4,0.8,0.6c0.3,0.2,0.5,0.3,0.8,0.3
			c0.2,0,0.5,0,0.8,0s0.6,0,0.9,0s0.6,0,0.9-0.1c0.3,0,0.5-0.1,0.8-0.1c0.1,0,0.2-0.1,0.5-0.1s0.5-0.1,0.8-0.2
			c0.3-0.1,0.7-0.2,1-0.2c0.4-0.1,0.7-0.2,1-0.2c0.3-0.1,0.6-0.1,0.8-0.2c0.2,0,0.3-0.1,0.3-0.1c0.1,0,0.1,0,0.2,0
			C282.2,580.6,282.2,580.6,282.2,580.7z M271.4,582.5c-0.1-0.2-0.2-0.3-0.3-0.4c-0.2-0.1-0.3-0.3-0.6-0.4c-0.2-0.1-0.4-0.2-0.7-0.3
			c-0.2-0.1-0.4-0.1-0.6-0.1s-0.3,0-0.5,0.1c-0.2,0-0.3,0.1-0.5,0.2s-0.3,0.2-0.4,0.2c-0.1,0.1-0.3,0.2-0.4,0.2
			c-0.4,0.3-0.7,0.6-1,1.1s-0.6,1-0.9,1.5s-0.4,1.1-0.6,1.6s-0.2,1-0.2,1.4c0,0.2,0,0.3,0.1,0.5c0.1,0.2,0.2,0.3,0.3,0.4
			c0.1,0.1,0.3,0.2,0.5,0.3s0.4,0.1,0.6,0.1c0.6,0,1.1-0.1,1.5-0.2c0.4-0.1,0.9-0.4,1.3-0.7c0.4-0.3,0.7-0.6,1-1
			c0.3-0.4,0.5-0.8,0.7-1.3s0.4-1,0.5-1.5C271.4,583.5,271.4,583,271.4,582.5z"/>
		<path class="st2" d="M306.2,581.6c-0.1,0.1-0.2,0.3-0.3,0.4c-0.1,0.1-0.3,0.2-0.4,0.2c-0.2,0-0.3,0.1-0.5,0.1
			c-0.1,0-0.3,0-0.5-0.1c-0.2,0-0.4-0.1-0.5-0.1c-0.4,0-0.8,0.1-1.3,0.2c-0.5,0.2-1,0.4-1.5,0.6c-0.5,0.3-1,0.6-1.5,0.9
			c-0.5,0.3-0.9,0.6-1.3,1c-0.2,0.2-0.4,0.4-0.6,0.6s-0.4,0.4-0.6,0.7c-0.2,0.2-0.4,0.5-0.5,0.7c-0.2,0.2-0.3,0.5-0.3,0.7
			c0,0.1-0.1,0.3,0,0.5c0,0.2,0,0.4,0.1,0.6c0,0.2,0.1,0.4,0.1,0.7c0,0.2,0,0.4,0,0.7c0,0.1,0,0.2,0,0.4c0,0.1,0,0.2,0,0.3
			s-0.1,0.1-0.2,0.2s-0.2,0.2-0.3,0.2c-0.1,0.1-0.3,0.1-0.4,0.2s-0.3,0.1-0.4,0.1c-0.2,0-0.4-0.1-0.5-0.3c-0.1-0.2-0.3-0.4-0.4-0.7
			c-0.1-0.3-0.2-0.7-0.2-1.1s-0.1-0.9-0.1-1.4c0-0.1,0-0.4,0-0.6c0-0.3,0-0.6,0-0.9c0-0.3,0-0.6,0-0.8c0-0.2,0-0.4,0-0.4
			c0-0.1,0-0.3,0-0.5s0-0.5,0.1-0.7c0-0.3,0.1-0.5,0.1-0.8s0.1-0.5,0.1-0.8c0-0.1,0-0.2,0.1-0.4c0-0.2,0-0.4,0.1-0.5
			c0-0.2,0-0.4,0.1-0.5c0-0.2,0.1-0.3,0.1-0.4s0.1-0.2,0.2-0.3s0.2-0.2,0.4-0.4c0.1-0.1,0.3-0.2,0.5-0.3c0.2-0.1,0.3-0.1,0.5-0.1
			s0.4,0,0.5,0.1c0.1,0.1,0.2,0.1,0.3,0.2c0.1,0.1,0.1,0.2,0.2,0.3c0,0.1,0,0.2,0,0.2s0,0.1,0,0.2c0,0.1-0.1,0.2-0.1,0.4
			c-0.1,0.2-0.1,0.3-0.2,0.5s-0.1,0.3-0.2,0.5s-0.1,0.3-0.1,0.4c0,0.1-0.1,0.2-0.1,0.3s0,0.2,0,0.4s0,0.4-0.1,0.6
			c0,0.2,0,0.5-0.1,0.7c0,0.2,0,0.5,0,0.6s0,0.1,0,0.2s0,0.1,0,0.2c0.3-0.4,0.7-0.7,1.1-1.1c0.4-0.4,0.8-0.8,1.3-1.1
			c0.5-0.4,0.9-0.7,1.4-1.1c0.5-0.3,1-0.6,1.5-0.9s1-0.5,1.5-0.6c0.5-0.1,1-0.2,1.5-0.2c0.3,0,0.5,0.1,0.7,0.1s0.4,0.2,0.5,0.3
			s0.2,0.3,0.3,0.4c0.1,0.1,0.1,0.2,0.1,0.3l0,0C306.4,581.3,306.3,581.4,306.2,581.6z"/>
		<path class="st2" d="M332.4,587.1c0,0.1-0.1,0.3-0.2,0.4c-0.1,0.2-0.3,0.4-0.5,0.6c-0.2,0.2-0.4,0.5-0.7,0.7
			c-0.3,0.2-0.6,0.5-0.9,0.7c-0.2,0.1-0.4,0.3-0.8,0.4c-0.3,0.2-0.7,0.3-1.1,0.5c-0.4,0.1-0.8,0.3-1.3,0.4c-0.5,0.1-1,0.2-1.5,0.2
			c-0.6,0-1.2-0.1-1.7-0.3c-0.5-0.2-0.9-0.5-1.2-0.8c-0.3-0.3-0.5-0.7-0.7-1.2c-0.1-0.4-0.2-0.9-0.2-1.3c0-0.6,0-1.1,0.1-1.7
			c0.1-0.6,0.2-1.2,0.3-1.7c0.1-0.5,0.2-1,0.3-1.4c0.1-0.4,0.2-0.6,0.2-0.8c0-0.1,0-0.3,0-0.5s0.1-0.4,0.2-0.5
			c0.1-0.2,0.2-0.3,0.3-0.4c0.1-0.1,0.3-0.2,0.5-0.2c0.3,0,0.5,0,0.7,0.1s0.3,0.1,0.4,0.2s0.2,0.2,0.3,0.3c0.1,0.1,0.1,0.2,0.1,0.3
			c0,0.2-0.1,0.5-0.2,0.9c-0.1,0.4-0.3,0.8-0.5,1.3s-0.3,1-0.5,1.6c-0.1,0.6-0.2,1.2-0.2,1.8c0,0.3,0,0.6,0.1,1
			c0,0.3,0.1,0.7,0.3,0.9c0.1,0.3,0.3,0.5,0.6,0.7c0.3,0.2,0.6,0.3,1,0.3s0.7,0,1.1-0.1s0.8-0.2,1.1-0.4c0.4-0.2,0.7-0.3,1-0.5
			c0.3-0.2,0.6-0.3,0.8-0.5c0.2-0.2,0.5-0.3,0.7-0.5c0.2-0.1,0.4-0.3,0.5-0.4c0.2-0.1,0.3-0.2,0.4-0.3s0.2-0.1,0.3-0.1
			c0.2,0,0.3,0,0.4,0.1S332.4,587,332.4,587.1z M327.7,574.4c0,0.1,0,0.2-0.1,0.3c0,0.1-0.1,0.3-0.1,0.5c-0.1,0.2-0.1,0.3-0.2,0.5
			c-0.1,0.2-0.1,0.3-0.2,0.4s-0.2,0.2-0.3,0.3c-0.1,0.1-0.3,0.2-0.5,0.2s-0.3,0.1-0.5,0.2c-0.2,0-0.3,0.1-0.4,0.1s-0.1,0-0.2-0.1
			l-0.1-0.1c0-0.1,0-0.1,0-0.2c0-0.1,0-0.1,0-0.2l-0.1-0.4c0-0.1,0-0.1-0.1-0.2c0,0-0.1-0.1-0.1-0.2s-0.1-0.1-0.1-0.2s0-0.2,0-0.4
			c0-0.1,0-0.3,0.1-0.4c0.1-0.2,0.2-0.3,0.4-0.4c0.2-0.1,0.4-0.2,0.6-0.3s0.5-0.1,0.7-0.1c0.1,0,0.2,0,0.3,0.1
			c0.1,0,0.3,0.1,0.4,0.2c0.1,0.1,0.3,0.1,0.4,0.2C327.7,574.2,327.7,574.3,327.7,574.4z"/>
	</g>
	<g id="Ð" class="st3">
		<g>
			<path class="st4" d="M56.8,542.1l-1.1-1.5l-7.5,4.1l-0.6-1l7.7-4.2l-1.1-1.5l-7.6,4.2l-9-14.6H34l-9,14.5l-7.6-4.2l-1.1,1.5
				l7.7,4.2l-0.6,1l-7.4-4.1l-1.1,1.5l7.5,4.1l-4.2,6.9h5.6l2.8-4.6l8.6,4.7h1.5l8.5-4.7l2.7,4.6h5.5l-4.2-6.8L56.8,542.1z
				 M35.9,532.8l6.9,11.6l-6.8,3.7l-6.9-3.8L35.9,532.8z M35.9,551.4l-8.4-4.6l0.6-1l7.1,3.9h1.5l7-3.8l0.6,1L35.9,551.4z"/>
		</g>
	</g>
</g>
</svg>
