<?xml version="1.0" encoding="utf-8"?>
<!-- Generator: Adobe Illustrator 19.0.1, SVG Export Plug-In . SVG Version: 6.00 Build 0)  -->
<svg version="1.1" id="Layer_1" xmlns="http://www.w3.org/2000/svg" xmlns:xlink="http://www.w3.org/1999/xlink" x="0px" y="0px"
	 viewBox="-250 542 500 500" style="enable-background:new -250 542 500 500;" xml:space="preserve">
<style type="text/css">
	.st0{opacity:0.9;enable-background:new    ;}
	.st1{fill:#69685B;}
	.st2{fill:none;stroke:#69685B;stroke-width:0.7855;stroke-miterlimit:10;}
	.st3{fill:#6C6B65;}
	.st4{fill:#5EBB47;}
	.st5{fill:#FFFFFF;}
</style>
<g>
	<g id="marketing_group">
		<g class="st0">
			<path class="st1" d="M-72.1,875h2.6v13.9h-2.6v-10.6h-0.1l-5.2,6.8l-5.1-6.8l-0.1,0v10.6h-2.6V875h2.5l5.3,7L-72.1,875z"/>
			<path class="st1" d="M-47.5,888.9h-2.8l-2.2-4.1h-7.6l-2.2,4.1h-2.8l8.9-15.1L-47.5,888.9z M-59.5,883.6h6.4l-3.2-5.6
				L-59.5,883.6z"/>
			<path class="st1" d="M-41.3,875h6.5c6.3,0,6.8,3.1,6.8,4c0,1.4-1,2.7-4.5,3.9l6.8,6.1h-3.2l-6.1-5.8c-1.3,0-2.5,0-3.8,0v5.8h-2.6
				V875z M-36.2,881.9c3.6,0,5.7-1,5.7-3.1c0-1.9-1.4-2.7-5.6-2.7h-2.6v5.7H-36.2z"/>
			<path class="st1" d="M-17.8,881.1c1.8-0.1,6.1-2.5,8.6-6.3l2.6,0.8l-2.1,1.9c-3.3,3.1-5,3.9-6.6,4.4l10.9,7H-8l-9.6-6.6h-0.2v6.6
				h-2.6V875h2.6V881.1z"/>
			<path class="st1" d="M13.9,876.2H3.4v5H11v1.2H3.4v5.3h10.7v1.2H0.8V875h13.1V876.2z"/>
			<path class="st1" d="M35.8,876.2h-7.2v12.7H26v-12.7h-7V875h16.8V876.2z"/>
			<path class="st1" d="M53.1,876.2h-3.4v11.5h3.4v1.2h-9.4v-1.2H47v-11.5h-3.4V875h9.4V876.2z"/>
			<path class="st1" d="M62.8,875h3l7.6,10.4h0.1V875h2.6V889h-2.5l-8.2-11.3l-0.1,0v11.1h-2.6V875z"/>
			<path class="st1" d="M89.8,883.2v-1.2h8.6v7.2h-2.6v-1.4c-1.3,0.9-3.2,1.4-5.3,1.4c-2,0-7.6-0.2-7.6-6.9c0-5.5,3-7.6,7.9-7.6
				c4.3,0,6.2,1.7,6.3,3.8h-2.6c0.2-1.3-0.9-2.6-3.6-2.6c-5.2,0-5.4,4-5.4,6.1c0,1.9,0.2,5.9,5.1,5.9c2.4,0,5.1-1.1,5.1-3.9v-0.9
				H89.8z"/>
			<path class="st1" d="M131.7,883.2v-1.2h8.6v7.2h-2.6v-1.4c-1.3,0.9-3.2,1.4-5.3,1.4c-2,0-7.6-0.2-7.6-6.9c0-5.5,3-7.6,7.9-7.6
				c4.3,0,6.2,1.7,6.3,3.8h-2.6c0.2-1.3-0.9-2.6-3.6-2.6c-5.2,0-5.4,4-5.4,6.1c0,1.9,0.2,5.9,5.1,5.9c2.4,0,5.1-1.1,5.1-3.9v-0.9
				H131.7z"/>
			<path class="st1" d="M147.2,875h6.5c6.3,0,6.8,3.1,6.8,4c0,1.4-1,2.7-4.5,3.9l6.8,6.1h-3.2l-6.1-5.8c-1.3,0-2.5,0-3.8,0v5.8h-2.6
				V875z M152.3,881.9c3.6,0,5.7-1,5.7-3.1c0-1.9-1.4-2.7-5.6-2.7h-2.6v5.7H152.3z"/>
			<path class="st1" d="M174,874.7c7.3,0,7.7,4.6,7.7,7.2c0,1.9,0.2,7.2-7.7,7.2c-7.8,0-7.7-5.3-7.7-7.2
				C166.3,876.1,169.8,874.7,174,874.7z M179.1,881.9c0-1.3,0.3-6-5.1-6c-5.6,0-5.1,5.2-5.1,6c0,1.6-0.1,6,5.1,6
				C176.6,888,179.1,887,179.1,881.9z"/>
			<path class="st1" d="M201.9,875v10.3c0,2.6-3.6,3.9-6.9,3.9c-2.7,0-7-0.9-7-4.7V875h2.6v10.3c0,2,2.3,2.7,4.4,2.7
				c3.2,0,4.3-1.3,4.3-2.9V875H201.9z"/>
			<path class="st1" d="M210.1,875h6c4.5,0,7.2,1.5,7.2,4.3c0,2.9-3.5,4.2-8.4,4.2h-2.2v5.5h-2.6V875z M215.6,882.2c3,0,5.1-1,5.1-3
				c0-2.2-1.8-3.1-4.9-3.1h-3.1v6H215.6z"/>
		</g>
		<g class="st0">
			<path class="st2" d="M-72.1,875h2.6v13.9h-2.6v-10.6h-0.1l-5.2,6.8l-5.1-6.8l-0.1,0v10.6h-2.6V875h2.5l5.3,7L-72.1,875z"/>
			<path class="st2" d="M-47.5,888.9h-2.8l-2.2-4.1h-7.6l-2.2,4.1h-2.8l8.9-15.1L-47.5,888.9z M-59.5,883.6h6.4l-3.2-5.6
				L-59.5,883.6z"/>
			<path class="st2" d="M-41.3,875h6.5c6.3,0,6.8,3.1,6.8,4c0,1.4-1,2.7-4.5,3.9l6.8,6.1h-3.2l-6.1-5.8c-1.3,0-2.5,0-3.8,0v5.8h-2.6
				V875z M-36.2,881.9c3.6,0,5.7-1,5.7-3.1c0-1.9-1.4-2.7-5.6-2.7h-2.6v5.7H-36.2z"/>
			<path class="st2" d="M-17.8,881.1c1.8-0.1,6.1-2.5,8.6-6.3l2.6,0.8l-2.1,1.9c-3.3,3.1-5,3.9-6.6,4.4l10.9,7H-8l-9.6-6.6h-0.2v6.6
				h-2.6V875h2.6V881.1z"/>
			<path class="st2" d="M13.9,876.2H3.4v5H11v1.2H3.4v5.3h10.7v1.2H0.8V875h13.1V876.2z"/>
			<path class="st2" d="M35.8,876.2h-7.2v12.7H26v-12.7h-7V875h16.8V876.2z"/>
			<path class="st2" d="M53.1,876.2h-3.4v11.5h3.4v1.2h-9.4v-1.2H47v-11.5h-3.4V875h9.4V876.2z"/>
			<path class="st2" d="M62.8,875h3l7.6,10.4h0.1V875h2.6V889h-2.5l-8.2-11.3l-0.1,0v11.1h-2.6V875z"/>
			<path class="st2" d="M89.8,883.2v-1.2h8.6v7.2h-2.6v-1.4c-1.3,0.9-3.2,1.4-5.3,1.4c-2,0-7.6-0.2-7.6-6.9c0-5.5,3-7.6,7.9-7.6
				c4.3,0,6.2,1.7,6.3,3.8h-2.6c0.2-1.3-0.9-2.6-3.6-2.6c-5.2,0-5.4,4-5.4,6.1c0,1.9,0.2,5.9,5.1,5.9c2.4,0,5.1-1.1,5.1-3.9v-0.9
				H89.8z"/>
			<path class="st2" d="M131.7,883.2v-1.2h8.6v7.2h-2.6v-1.4c-1.3,0.9-3.2,1.4-5.3,1.4c-2,0-7.6-0.2-7.6-6.9c0-5.5,3-7.6,7.9-7.6
				c4.3,0,6.2,1.7,6.3,3.8h-2.6c0.2-1.3-0.9-2.6-3.6-2.6c-5.2,0-5.4,4-5.4,6.1c0,1.9,0.2,5.9,5.1,5.9c2.4,0,5.1-1.1,5.1-3.9v-0.9
				H131.7z"/>
			<path class="st2" d="M147.2,875h6.5c6.3,0,6.8,3.1,6.8,4c0,1.4-1,2.7-4.5,3.9l6.8,6.1h-3.2l-6.1-5.8c-1.3,0-2.5,0-3.8,0v5.8h-2.6
				V875z M152.3,881.9c3.6,0,5.7-1,5.7-3.1c0-1.9-1.4-2.7-5.6-2.7h-2.6v5.7H152.3z"/>
			<path class="st2" d="M174,874.7c7.3,0,7.7,4.6,7.7,7.2c0,1.9,0.2,7.2-7.7,7.2c-7.8,0-7.7-5.3-7.7-7.2
				C166.3,876.1,169.8,874.7,174,874.7z M179.1,881.9c0-1.3,0.3-6-5.1-6c-5.6,0-5.1,5.2-5.1,6c0,1.6-0.1,6,5.1,6
				C176.6,888,179.1,887,179.1,881.9z"/>
			<path class="st2" d="M201.9,875v10.3c0,2.6-3.6,3.9-6.9,3.9c-2.7,0-7-0.9-7-4.7V875h2.6v10.3c0,2,2.3,2.7,4.4,2.7
				c3.2,0,4.3-1.3,4.3-2.9V875H201.9z"/>
			<path class="st2" d="M210.1,875h6c4.5,0,7.2,1.5,7.2,4.3c0,2.9-3.5,4.2-8.4,4.2h-2.2v5.5h-2.6V875z M215.6,882.2c3,0,5.1-1,5.1-3
				c0-2.2-1.8-3.1-4.9-3.1h-3.1v6H215.6z"/>
		</g>
	</g>
	<g id="mur">
		<path class="st3" d="M-84.8,732.5c0,0-14,43.5-21,62.5l-22,63.5h-32l-19.2-63c-5.9-19.1-16.6-63.5-16.6-63.5v129.3l-33.4,0.1v-163
			h54.9l17.7,54.4c5.6,18.9,11.3,39.1,15.3,58.3h0.8c5.1-18.9,11.3-40.4,17.1-58.5l19.4-54.1h53.5l42.1,163l-76.5-0.1L-84.8,732.5z"
			/>
		<path class="st4" d="M218.2,747.8c0,11.3-3.5,20.9-10.4,28.8s-17.5,13.8-31.9,17.5v0.5l53,66.6h-39.1l-48.5-62.8H119v62.8H39.3
			l47.1-162.1h54.1c9,0,17.2,0.5,25,1.4c7.8,0.9,14.4,2.4,19.9,4.1c10.5,3.6,18.5,9,24.2,16.1C215.4,728,218.2,737,218.2,747.8z
			 M135.3,773.6c7.5,0,13.8-0.3,19-0.9s9.5-1.5,13.1-2.8c6.6-2.3,11.1-5.4,13.6-9.3s3.8-8.4,3.8-13.5c0-4.4-1-8.3-3-11.6
			c-2-3.4-5.4-6-10.1-7.9c-3.1-1.3-7-2.2-11.7-2.9s-10.5-0.9-17.4-0.9h-23.3v49.6L135.3,773.6L135.3,773.6z"/>
		<path class="st5" d="M18.1,864.2c-9.4,0-17.8-0.9-25.1-2.5c-7.5-1.8-14-4.1-19.7-7.4c-5.6-3.3-10.5-7.1-14.5-11.6
			c-4-4.6-7.2-9.7-9.6-15.6c-2-4.6-3.4-9.7-4.2-15.4c-0.9-5.6-1.3-11.9-1.3-18.9v-98h32.6v95.2c0,11.8,1.5,21,4.5,27.6
			c3.4,7.4,8.3,12.8,14.7,16c6.5,3.3,14.1,4.9,22.9,4.9s16.4-1.6,22.9-4.9c6.5-3.3,11.4-8.6,14.7-16c3-6.6,4.5-15.9,4.5-27.6v-95.3
			h32.9v98c0,7-0.4,13.3-1.3,18.9s-2.2,10.8-4.2,15.4c-2.4,5.8-5.6,11-9.6,15.6s-9,8.5-14.7,11.6c-5.8,3.3-12.5,5.6-20,7.4
			C35.9,863.3,27.5,864.2,18.1,864.2z"/>
		<path class="st4" d="M-23.6,699.1V792c0,11.5,1.5,20.5,4.5,26.9c3.4,7.3,8.3,12.4,14.7,15.6c6.5,3.3,14.1,4.8,22.9,4.8
			s16.4-1.6,22.9-4.8c6.5-3.3,11.4-8.4,14.7-15.6c3-6.5,4.5-15.4,4.5-26.9v-92.9H-23.6L-23.6,699.1z"/>
	</g>
</g>
</svg>
