<?xml version="1.0" encoding="utf-8"?>
<!-- Generator: Adobe Illustrator 19.0.1, SVG Export Plug-In . SVG Version: 6.00 Build 0)  -->
<svg version="1.1" id="Layer_1" xmlns="http://www.w3.org/2000/svg" xmlns:xlink="http://www.w3.org/1999/xlink" x="0px" y="0px"
	 viewBox="-55 147 500 500" style="enable-background:new -55 147 500 500;" xml:space="preserve">
<style type="text/css">
	.st0{opacity:0.9;enable-background:new    ;}
	.st1{fill:#69685B;}
	.st2{fill:none;stroke:#69685B;stroke-width:0.7855;stroke-miterlimit:10;}
	.st3{fill:#6C6B65;}
	.st4{fill:#5EBB47;}
</style>
<g>
	<g id="marketing_group">
		<g class="st0">
			<path class="st1" d="M125.9,478.2h2.6v13.9h-2.6v-10.6h-0.1l-5.2,6.8l-5.1-6.8h-0.1v10.6h-2.6v-13.9h2.5l5.3,7L125.9,478.2z"/>
			<path class="st1" d="M150.5,492.1h-2.8l-2.2-4.1h-7.6l-2.2,4.1h-2.8l8.9-15.1L150.5,492.1z M138.5,486.8h6.4l-3.2-5.6
				L138.5,486.8z"/>
			<path class="st1" d="M156.7,478.2h6.5c6.3,0,6.8,3.1,6.8,4c0,1.4-1,2.7-4.5,3.9l6.8,6.1h-3.2l-6.1-5.8c-1.3,0-2.5,0-3.8,0v5.8
				h-2.6L156.7,478.2L156.7,478.2z M161.8,485.1c3.6,0,5.7-1,5.7-3.1c0-1.9-1.4-2.7-5.6-2.7h-2.6v5.7L161.8,485.1L161.8,485.1z"/>
			<path class="st1" d="M180.2,484.3c1.8-0.1,6.1-2.5,8.6-6.3l2.6,0.8l-2.1,1.9c-3.3,3.1-5,3.9-6.6,4.4l10.9,7H190l-9.6-6.6h-0.2
				v6.6h-2.6v-13.9h2.6C180.2,478.2,180.2,484.3,180.2,484.3z"/>
			<path class="st1" d="M211.9,479.4h-10.5v5h7.6v1.2h-7.6v5.3h10.7v1.2h-13.3v-13.9h13.1C211.9,478.2,211.9,479.4,211.9,479.4z"/>
			<path class="st1" d="M233.8,479.4h-7.2v12.7H224v-12.7h-7v-1.2h16.8V479.4z"/>
			<path class="st1" d="M251.1,479.4h-3.4v11.5h3.4v1.2h-9.4v-1.2h3.3v-11.5h-3.4v-1.2h9.4v1.2H251.1z"/>
			<path class="st1" d="M260.8,478.2h3l7.6,10.4h0.1v-10.4h2.6v14h-2.5l-8.2-11.3h-0.1V492h-2.6L260.8,478.2L260.8,478.2z"/>
			<path class="st1" d="M287.8,486.4v-1.2h8.6v7.2h-2.6V491c-1.3,0.9-3.2,1.4-5.3,1.4c-2,0-7.6-0.2-7.6-6.9c0-5.5,3-7.6,7.9-7.6
				c4.3,0,6.2,1.7,6.3,3.8h-2.6c0.2-1.3-0.9-2.6-3.6-2.6c-5.2,0-5.4,4-5.4,6.1c0,1.9,0.2,5.9,5.1,5.9c2.4,0,5.1-1.1,5.1-3.9v-0.9
				h-5.9V486.4z"/>
			<path class="st1" d="M329.8,486.4v-1.2h8.6v7.2h-2.6V491c-1.3,0.9-3.2,1.4-5.3,1.4c-2,0-7.6-0.2-7.6-6.9c0-5.5,3-7.6,7.9-7.6
				c4.3,0,6.2,1.7,6.3,3.8h-2.6c0.2-1.3-0.9-2.6-3.6-2.6c-5.2,0-5.4,4-5.4,6.1c0,1.9,0.2,5.9,5.1,5.9c2.4,0,5.1-1.1,5.1-3.9v-0.9
				h-5.9V486.4z"/>
			<path class="st1" d="M345.3,478.2h6.5c6.3,0,6.8,3.1,6.8,4c0,1.4-1,2.7-4.5,3.9l6.8,6.1h-3.2l-6.1-5.8c-1.3,0-2.5,0-3.8,0v5.8
				h-2.6v-14H345.3z M350.3,485.1c3.6,0,5.7-1,5.7-3.1c0-1.9-1.4-2.7-5.6-2.7h-2.6v5.7L350.3,485.1L350.3,485.1z"/>
			<path class="st1" d="M372,477.9c7.3,0,7.7,4.6,7.7,7.2c0,1.9,0.2,7.2-7.7,7.2c-7.8,0-7.7-5.3-7.7-7.2
				C364.3,479.3,367.8,477.9,372,477.9z M377.1,485.1c0-1.3,0.3-6-5.1-6c-5.6,0-5.1,5.2-5.1,6c0,1.6-0.1,6,5.1,6
				C374.6,491.2,377.1,490.2,377.1,485.1z"/>
			<path class="st1" d="M399.9,478.2v10.3c0,2.6-3.6,3.9-6.9,3.9c-2.7,0-7-0.9-7-4.7v-9.5h2.6v10.3c0,2,2.3,2.7,4.4,2.7
				c3.2,0,4.3-1.3,4.3-2.9v-10.1H399.9z"/>
			<path class="st1" d="M408.1,478.2h6c4.5,0,7.2,1.5,7.2,4.3c0,2.9-3.5,4.2-8.4,4.2h-2.2v5.5h-2.6V478.2z M413.6,485.4
				c3,0,5.1-1,5.1-3c0-2.2-1.8-3.1-4.9-3.1h-3.1v6L413.6,485.4L413.6,485.4z"/>
		</g>
		<g class="st0">
			<path class="st2" d="M125.9,478.2h2.6v13.9h-2.6v-10.6h-0.1l-5.2,6.8l-5.1-6.8h-0.1v10.6h-2.6v-13.9h2.5l5.3,7L125.9,478.2z"/>
			<path class="st2" d="M150.5,492.1h-2.8l-2.2-4.1h-7.6l-2.2,4.1h-2.8l8.9-15.1L150.5,492.1z M138.5,486.8h6.4l-3.2-5.6
				L138.5,486.8z"/>
			<path class="st2" d="M156.7,478.2h6.5c6.3,0,6.8,3.1,6.8,4c0,1.4-1,2.7-4.5,3.9l6.8,6.1h-3.2l-6.1-5.8c-1.3,0-2.5,0-3.8,0v5.8
				h-2.6L156.7,478.2L156.7,478.2z M161.8,485.1c3.6,0,5.7-1,5.7-3.1c0-1.9-1.4-2.7-5.6-2.7h-2.6v5.7L161.8,485.1L161.8,485.1z"/>
			<path class="st2" d="M180.2,484.3c1.8-0.1,6.1-2.5,8.6-6.3l2.6,0.8l-2.1,1.9c-3.3,3.1-5,3.9-6.6,4.4l10.9,7H190l-9.6-6.6h-0.2
				v6.6h-2.6v-13.9h2.6C180.2,478.2,180.2,484.3,180.2,484.3z"/>
			<path class="st2" d="M211.9,479.4h-10.5v5h7.6v1.2h-7.6v5.3h10.7v1.2h-13.3v-13.9h13.1C211.9,478.2,211.9,479.4,211.9,479.4z"/>
			<path class="st2" d="M233.8,479.4h-7.2v12.7H224v-12.7h-7v-1.2h16.8V479.4z"/>
			<path class="st2" d="M251.1,479.4h-3.4v11.5h3.4v1.2h-9.4v-1.2h3.3v-11.5h-3.4v-1.2h9.4v1.2H251.1z"/>
			<path class="st2" d="M260.8,478.2h3l7.6,10.4h0.1v-10.4h2.6v14h-2.5l-8.2-11.3h-0.1V492h-2.6L260.8,478.2L260.8,478.2z"/>
			<path class="st2" d="M287.8,486.4v-1.2h8.6v7.2h-2.6V491c-1.3,0.9-3.2,1.4-5.3,1.4c-2,0-7.6-0.2-7.6-6.9c0-5.5,3-7.6,7.9-7.6
				c4.3,0,6.2,1.7,6.3,3.8h-2.6c0.2-1.3-0.9-2.6-3.6-2.6c-5.2,0-5.4,4-5.4,6.1c0,1.9,0.2,5.9,5.1,5.9c2.4,0,5.1-1.1,5.1-3.9v-0.9
				h-5.9V486.4z"/>
			<path class="st2" d="M329.8,486.4v-1.2h8.6v7.2h-2.6V491c-1.3,0.9-3.2,1.4-5.3,1.4c-2,0-7.6-0.2-7.6-6.9c0-5.5,3-7.6,7.9-7.6
				c4.3,0,6.2,1.7,6.3,3.8h-2.6c0.2-1.3-0.9-2.6-3.6-2.6c-5.2,0-5.4,4-5.4,6.1c0,1.9,0.2,5.9,5.1,5.9c2.4,0,5.1-1.1,5.1-3.9v-0.9
				h-5.9V486.4z"/>
			<path class="st2" d="M345.3,478.2h6.5c6.3,0,6.8,3.1,6.8,4c0,1.4-1,2.7-4.5,3.9l6.8,6.1h-3.2l-6.1-5.8c-1.3,0-2.5,0-3.8,0v5.8
				h-2.6v-14H345.3z M350.3,485.1c3.6,0,5.7-1,5.7-3.1c0-1.9-1.4-2.7-5.6-2.7h-2.6v5.7L350.3,485.1L350.3,485.1z"/>
			<path class="st2" d="M372,477.9c7.3,0,7.7,4.6,7.7,7.2c0,1.9,0.2,7.2-7.7,7.2c-7.8,0-7.7-5.3-7.7-7.2
				C364.3,479.3,367.8,477.9,372,477.9z M377.1,485.1c0-1.3,0.3-6-5.1-6c-5.6,0-5.1,5.2-5.1,6c0,1.6-0.1,6,5.1,6
				C374.6,491.2,377.1,490.2,377.1,485.1z"/>
			<path class="st2" d="M399.9,478.2v10.3c0,2.6-3.6,3.9-6.9,3.9c-2.7,0-7-0.9-7-4.7v-9.5h2.6v10.3c0,2,2.3,2.7,4.4,2.7
				c3.2,0,4.3-1.3,4.3-2.9v-10.1H399.9z"/>
			<path class="st2" d="M408.1,478.2h6c4.5,0,7.2,1.5,7.2,4.3c0,2.9-3.5,4.2-8.4,4.2h-2.2v5.5h-2.6V478.2z M413.6,485.4
				c3,0,5.1-1,5.1-3c0-2.2-1.8-3.1-4.9-3.1h-3.1v6L413.6,485.4L413.6,485.4z"/>
		</g>
	</g>
	<g>
		<path class="st3" d="M171.3,457.5c-5.6-3.3-10.5-7.1-14.5-11.6c-4-4.6-7.2-9.7-9.6-15.6c-2-4.6-3.4-9.7-4.2-15.4
			c-0.9-5.6-1.3-11.9-1.3-18.9v-94.3H94.3l-19.4,54.1c-5.8,18.1-12,39.6-17.1,58.5H57c-4-19.2-9.7-39.4-15.3-58.3L24,301.6H-31v163
			l33.4-0.1V335.2c0,0,10.7,44.4,16.6,63.5l19.2,63h32l22-63.5c7-19,21-62.5,21-62.5l0.1,128.9l76.5,0.1l0-0.1
			C182.8,462.8,176.7,460.6,171.3,457.5z"/>
	</g>
	<g>
		<path class="st4" d="M374,397.8v-0.5c14.4-3.7,25-9.6,31.9-17.5c6.9-7.9,10.4-17.5,10.4-28.8c0-10.8-2.8-19.8-8.6-27.1
			c-5.7-7.1-13.7-12.5-24.2-16.1c-5.5-1.7-12.1-3.2-19.9-4.1s-16-1.4-25-1.4h-47.1v93.6c0,7-0.4,13.3-1.3,18.9
			c-0.9,5.6-2.2,10.8-4.2,15.4c-2.4,5.8-5.6,11-9.6,15.6s-9,8.5-14.7,11.6c-5.4,3.1-11.6,5.3-18.4,7H317v-62.8h22.3l48.5,62.8H427
			L374,397.8z M352.3,375.9c-5.2,0.6-11.5,0.9-19,0.9l-16-0.2V327h23.3c6.9,0,12.7,0.2,17.4,0.9c4.7,0.7,8.6,1.6,11.7,2.9
			c4.7,1.9,8.1,4.5,10.1,7.9c2,3.3,3,7.2,3,11.6c0,5.1-1.3,9.6-3.8,13.5s-7,7-13.6,9.3C361.8,374.4,357.5,375.3,352.3,375.9z"/>
		<path class="st4" d="M178.8,420.8c3.4,7.4,8.3,12.8,14.7,16c6.5,3.3,14.1,4.9,22.9,4.9c8.8,0,16.4-1.6,22.9-4.9
			c6.5-3.3,11.4-8.6,14.7-16c3-6.6,4.5-15.9,4.5-27.6v-90.9h-84.1v92.9c0,1.9,0,3.7,0.1,5.5C175.1,408.9,176.5,415.7,178.8,420.8z"
			/>
	</g>
</g>
</svg>
