<?xml version="1.0" encoding="utf-8"?>
<!-- Generator: Adobe Illustrator 19.0.1, SVG Export Plug-In . SVG Version: 6.00 Build 0)  -->
<svg version="1.1" id="Layer_1" xmlns="http://www.w3.org/2000/svg" xmlns:xlink="http://www.w3.org/1999/xlink" x="0px" y="0px"
	 viewBox="-55 269 500 256" style="enable-background:new -55 269 500 256;" xml:space="preserve">
<style type="text/css">
	.st0{enable-background:new    ;}
	.st1{fill:#8D310A;}
	.st2{clip-path:url(#SVGID_2_);enable-background:new    ;}
	.st3{fill:#94340E;}
	.st4{fill:#983610;}
	.st5{fill:#9C3812;}
	.st6{fill:#9F3A13;}
	.st7{fill:#A33B15;}
	.st8{fill:#A73D16;}
	.st9{clip-path:url(#SVGID_4_);enable-background:new    ;}
	.st10{fill:#A13A14;}
	.st11{clip-path:url(#SVGID_6_);enable-background:new    ;}
	.st12{fill:#90330C;}
	.st13{clip-path:url(#SVGID_8_);enable-background:new    ;}
	.st14{clip-path:url(#SVGID_10_);enable-background:new    ;}
	.st15{fill:#A03A14;}
	.st16{clip-path:url(#SVGID_12_);enable-background:new    ;}
	.st17{fill:#A53C16;}
	.st18{clip-path:url(#SVGID_14_);enable-background:new    ;}
	.st19{clip-path:url(#SVGID_16_);enable-background:new    ;}
	.st20{clip-path:url(#SVGID_18_);enable-background:new    ;}
	.st21{clip-path:url(#SVGID_20_);enable-background:new    ;}
	.st22{clip-path:url(#SVGID_22_);enable-background:new    ;}
	.st23{clip-path:url(#SVGID_24_);enable-background:new    ;}
	.st24{clip-path:url(#SVGID_26_);enable-background:new    ;}
	.st25{clip-path:url(#SVGID_28_);enable-background:new    ;}
	.st26{clip-path:url(#SVGID_30_);enable-background:new    ;}
	.st27{clip-path:url(#SVGID_32_);enable-background:new    ;}
	.st28{clip-path:url(#SVGID_34_);enable-background:new    ;}
	.st29{fill:#A83D17;}
	.st30{clip-path:url(#SVGID_36_);enable-background:new    ;}
	.st31{clip-path:url(#SVGID_38_);enable-background:new    ;}
	.st32{clip-path:url(#SVGID_40_);enable-background:new    ;}
	.st33{clip-path:url(#SVGID_42_);enable-background:new    ;}
	.st34{clip-path:url(#SVGID_44_);enable-background:new    ;}
	.st35{clip-path:url(#SVGID_46_);enable-background:new    ;}
	.st36{clip-path:url(#SVGID_48_);enable-background:new    ;}
	.st37{clip-path:url(#SVGID_50_);enable-background:new    ;}
	.st38{clip-path:url(#SVGID_52_);enable-background:new    ;}
	.st39{clip-path:url(#SVGID_54_);enable-background:new    ;}
	.st40{clip-path:url(#SVGID_56_);enable-background:new    ;}
	.st41{clip-path:url(#SVGID_58_);enable-background:new    ;}
	.st42{clip-path:url(#SVGID_60_);enable-background:new    ;}
	.st43{clip-path:url(#SVGID_62_);enable-background:new    ;}
	.st44{fill:#A63D16;}
	.st45{clip-path:url(#SVGID_64_);enable-background:new    ;}
	.st46{fill:#A43C15;}
	.st47{clip-path:url(#SVGID_66_);enable-background:new    ;}
	.st48{clip-path:url(#SVGID_68_);enable-background:new    ;}
	.st49{clip-path:url(#SVGID_70_);enable-background:new    ;}
	.st50{clip-path:url(#SVGID_72_);enable-background:new    ;}
	.st51{clip-path:url(#SVGID_74_);enable-background:new    ;}
	.st52{clip-path:url(#SVGID_76_);enable-background:new    ;}
	.st53{clip-path:url(#SVGID_78_);enable-background:new    ;}
	.st54{clip-path:url(#SVGID_80_);enable-background:new    ;}
	.st55{clip-path:url(#SVGID_82_);enable-background:new    ;}
	.st56{clip-path:url(#SVGID_84_);enable-background:new    ;}
	.st57{fill:#D55024;}
	.st58{clip-path:url(#SVGID_86_);enable-background:new    ;}
	.st59{fill:url(#SVGID_87_);}
	.st60{fill:none;stroke:#FFFFFF;stroke-width:1.657;stroke-miterlimit:10;}
</style>
<g>
	<g>
		<g>
			<g class="st0">
				<g>
					<polygon class="st1" points="345.2,490.7 343.8,489.5 344,482.2 345.5,483.4 					"/>
				</g>
				<g class="st0">
					<g>
						<g>
							<g>
								<defs>
									<path id="SVGID_1_" d="M409.7,382.9l1.4,1.2c-3.6-3-8.2-4.6-13.3-5c-0.4,0-0.9,0-1.4,0c-4.7,0-9.8,1.5-15.2,4.3
										c-1.8,1-3.6,2.1-5.4,3.2c-1.4,0.9-2.7,1.9-4.1,2.9l-1.4-1.2c1.3-1,2.7-1.9,4.1-2.9c1.7-1.2,3.5-2.2,5.4-3.2
										c5.4-2.8,10.5-4.3,15.2-4.3c0.5,0,0.9,0,1.4,0C401.5,378.2,406.1,379.9,409.7,382.9z"/>
								</defs>
								<clipPath id="SVGID_2_">
									<use xlink:href="#SVGID_1_"  style="overflow:visible;"/>
								</clipPath>
								<g class="st2">
									<path class="st3" d="M371.9,389.5l-1.4-1.2c1.3-1,2.7-1.9,4.1-2.9s2.9-1.9,4.4-2.7l1.4,1.2c-1.5,0.8-3,1.7-4.4,2.7
										C374.5,387.6,373.2,388.5,371.9,389.5"/>
									<path class="st4" d="M380.2,384l-1.4-1.2c0.3-0.2,0.7-0.3,1-0.6c1.8-0.9,3.6-1.7,5.3-2.4l1.4,1.2c-1.7,0.7-3.5,1.4-5.3,2.4
										C380.9,383.5,380.6,383.7,380.2,384"/>
									<path class="st5" d="M386.5,381l-1.4-1.2c1.7-0.6,3.2-1.1,4.9-1.4l1.4,1.2C389.9,380,388.2,380.4,386.5,381"/>
									<path class="st6" d="M391.4,379.6l-1.4-1.2c1.5-0.3,2.9-0.5,4.3-0.5l1.4,1.2C394.3,379.1,392.9,379.3,391.4,379.6"/>
									<path class="st7" d="M395.7,379.1l-1.4-1.2c0.2,0,0.5,0,0.8,0c0.5,0,0.9,0,1.4,0c1,0.1,1.9,0.2,2.8,0.3l1.4,1.2
										c-0.9-0.2-1.9-0.2-2.8-0.3c-0.4,0-0.9,0-1.4,0C396.2,379.1,396,379.1,395.7,379.1"/>
									<path class="st8" d="M400.7,379.4l-1.4-1.2c3.9,0.7,7.5,2.2,10.4,4.6l1.4,1.2C408.2,381.6,404.7,380.1,400.7,379.4"/>
								</g>
							</g>
						</g>
					</g>
				</g>
				<g class="st0">
					<g>
						<g>
							<g>
								<defs>
									<path id="SVGID_3_" d="M370.5,390.5l-1.4-1.2c0.5-0.3,0.9-0.7,1.4-1l1.4,1.2C371.4,389.8,371,390.2,370.5,390.5z"/>
								</defs>
								<clipPath id="SVGID_4_">
									<use xlink:href="#SVGID_3_"  style="overflow:visible;"/>
								</clipPath>
								<g class="st9">
									<path class="st3" d="M370.5,390.5l-1.4-1.2c0.5-0.3,0.9-0.7,1.4-1l1.4,1.2C371.4,389.8,371,390.2,370.5,390.5"/>
								</g>
							</g>
						</g>
					</g>
				</g>
				<g>
					<polygon class="st10" points="355.6,393.1 354.2,392 369.1,389.3 370.5,390.5 					"/>
				</g>
				<g class="st0">
					<g>
						<g>
							<g>
								<defs>
									<path id="SVGID_5_" d="M297.3,486.4l-1.4-1.2c-2.2-1.8-4-3.8-5.3-6c-1.7-2.8-2.6-16.2-4.2-17.6l1.4,1.2
										c1.7,1.3,2.5,14.7,4.2,17.6C293.3,482.6,295.1,484.6,297.3,486.4z"/>
								</defs>
								<clipPath id="SVGID_6_">
									<use xlink:href="#SVGID_5_"  style="overflow:visible;"/>
								</clipPath>
								<g class="st11">
									<path class="st12" d="M297.3,486.4l-1.4-1.2c-2.2-1.8-4-3.8-5.3-6c-1.7-2.8-2.6-16.2-4.2-17.6l1.4,1.2
										c1.7,1.3,2.5,14.7,4.2,17.6C293.3,482.6,295.1,484.6,297.3,486.4"/>
								</g>
							</g>
						</g>
					</g>
				</g>
				<g class="st0">
					<g>
						<g>
							<g>
								<defs>
									<path id="SVGID_7_" d="M334.8,398.1l-1.4-1.2c1.5,0,2.6-0.1,3.8-0.3c1.1-0.2,2.2-0.4,3.1-0.7c1.3-0.3,2.7-0.7,4-1.2
										c1.5-0.5,3-0.9,4.4-1.3c1.8-0.6,3.7-1,5.6-1.3l1.4,1.2c-1.8,0.3-3.7,0.7-5.6,1.3c-1.4,0.4-2.9,0.9-4.4,1.3
										c-1.3,0.4-2.7,0.8-4,1.2c-1,0.3-2.1,0.5-3.1,0.7C337.4,398,336.3,398.1,334.8,398.1z"/>
								</defs>
								<clipPath id="SVGID_8_">
									<use xlink:href="#SVGID_7_"  style="overflow:visible;"/>
								</clipPath>
								<g class="st13">
									<path class="st7" d="M334.8,398.1l-1.4-1.2c0.3,0,0.7,0,1,0l1.4,1.2C335.5,398.1,335.2,398.1,334.8,398.1"/>
									<path class="st6" d="M335.8,398l-1.4-1.2c1,0,1.9-0.2,2.7-0.3c0.3-0.1,0.6-0.1,0.9-0.2l1.4,1.2c-0.3,0.1-0.6,0.1-0.9,0.2
										C337.7,398,336.8,398,335.8,398"/>
									<path class="st5" d="M339.5,397.6l-1.4-1.2c0.7-0.2,1.5-0.3,2.2-0.6c1.3-0.3,2.7-0.7,4-1.2c1.5-0.5,3-0.9,4.4-1.3
										c1.5-0.4,3-0.8,4.4-1.2l1.4,1.2c-1.5,0.3-3,0.7-4.4,1.2c-1.4,0.4-2.9,0.9-4.4,1.3c-1.3,0.4-2.7,0.8-4,1.2
										C341,397.3,340.2,397.5,339.5,397.6"/>
									<path class="st6" d="M354.5,393.4l-1.4-1.2c0.4-0.1,0.7-0.2,1.2-0.2l1.4,1.2C355.3,393.2,354.9,393.3,354.5,393.4"/>
								</g>
							</g>
						</g>
					</g>
				</g>
				<g class="st0">
					<g>
						<g>
							<g>
								<defs>
									<path id="SVGID_9_" d="M326.8,398.7l-1.4-1.2c2.2-0.4,4.6-0.6,6.8-0.7c0.4,0,0.7,0,1.2,0l1.4,1.2c-0.4,0-0.7,0-1.2,0
										C331.4,398.1,329.1,398.3,326.8,398.7z"/>
								</defs>
								<clipPath id="SVGID_10_">
									<use xlink:href="#SVGID_9_"  style="overflow:visible;"/>
								</clipPath>
								<g class="st14">
									<path class="st6" d="M326.8,398.7l-1.4-1.2c1.8-0.3,3.6-0.5,5.5-0.6l1.4,1.2C330.5,398.2,328.6,398.4,326.8,398.7"/>
									<path class="st7" d="M332.3,398.1l-1.4-1.2c0.4,0,0.9,0,1.3,0s0.7,0,1.2,0l1.4,1.2c-0.4,0-0.7,0-1.2,0
										S332.7,398.1,332.3,398.1"/>
								</g>
							</g>
						</g>
					</g>
				</g>
				<g>
					<polygon class="st15" points="318.1,400.7 316.6,399.5 325.4,397.5 326.8,398.7 					"/>
				</g>
				<g class="st0">
					<g>
						<g>
							<g>
								<defs>
									<path id="SVGID_11_" d="M300.3,404.3l-1.4-1.2c0.4,0,0.8,0,1.2,0c0.8,0,1.7,0,2.5-0.1c1.1,0,2.2-0.2,3.6-0.4
										c0.8-0.2,1.3-0.3,1.7-0.4c0.7-0.2,1.3-0.5,1.9-0.7c1-0.4,1.9-0.7,2.8-1.1c1.2-0.4,2.7-0.8,4-1.1l1.4,1.2
										c-1.4,0.2-2.7,0.7-4,1.1c-0.9,0.3-1.9,0.7-2.8,1.1c-0.6,0.2-1.2,0.5-1.9,0.7c-0.3,0.1-0.8,0.2-1.7,0.4
										c-1.3,0.2-2.6,0.3-3.6,0.4c-0.9,0-1.7,0.1-2.5,0.1C301.1,404.3,300.7,404.3,300.3,404.3z"/>
								</defs>
								<clipPath id="SVGID_12_">
									<use xlink:href="#SVGID_11_"  style="overflow:visible;"/>
								</clipPath>
								<g class="st16">
									<path class="st7" d="M300.3,404.3l-1.4-1.2c0.4,0,0.8,0,1.2,0c0.8,0,1.7,0,2.5-0.1h0.1l1.4,1.2H304c-0.9,0-1.7,0.1-2.5,0.1
										C301.1,404.3,300.7,404.3,300.3,404.3"/>
									<path class="st6" d="M304.2,404.3l-1.4-1.2c1-0.1,2.2-0.2,3.5-0.4c0.2,0,0.3-0.1,0.5-0.1l1.4,1.2c-0.2,0-0.3,0.1-0.5,0.1
										C306.3,404.1,305.2,404.3,304.2,404.3"/>
									<path class="st5" d="M308.2,403.8l-1.4-1.2c0.6-0.1,0.9-0.2,1.2-0.3c0.4-0.2,0.8-0.2,1.2-0.4l1.4,1.2
										c-0.4,0.2-0.8,0.3-1.2,0.4C309.1,403.6,308.7,403.7,308.2,403.8"/>
									<path class="st4" d="M310.6,403.1l-1.4-1.2c0.2-0.1,0.5-0.2,0.7-0.2c0.7-0.2,1.4-0.5,2.1-0.7l1.4,1.2
										c-0.7,0.2-1.3,0.5-2.1,0.7C311.1,402.9,310.8,403,310.6,403.1"/>
									<path class="st5" d="M313.3,402l-1.4-1.2c0.2-0.1,0.5-0.2,0.8-0.2c1.2-0.4,2.4-0.7,3.7-1l1.4,1.2c-1.2,0.2-2.5,0.6-3.7,1
										C313.8,401.8,313.6,401.9,313.3,402"/>
									<path class="st6" d="M317.8,400.7l-1.4-1.2c0.1,0,0.2,0,0.3-0.1l1.4,1.2C317.9,400.7,317.9,400.7,317.8,400.7"/>
								</g>
							</g>
						</g>
					</g>
				</g>
				<g>
					<polygon class="st17" points="296.1,404.3 294.7,403.2 298.9,403.2 300.3,404.3 					"/>
				</g>
				<g class="st0">
					<g>
						<g>
							<g>
								<defs>
									<path id="SVGID_13_" d="M295.6,404.2l-1.4-1.2c0.2,0.1,0.3,0.2,0.5,0.2l1.4,1.2C295.9,404.3,295.7,404.3,295.6,404.2z"/>
								</defs>
								<clipPath id="SVGID_14_">
									<use xlink:href="#SVGID_13_"  style="overflow:visible;"/>
								</clipPath>
								<g class="st18">
									<path class="st8" d="M295.6,404.2l-1.4-1.2c0.1,0.1,0.2,0.2,0.3,0.2l1.4,1.2C295.8,404.3,295.7,404.3,295.6,404.2"/>
									<path class="st7" d="M295.9,404.3l-1.4-1.2c0.1,0,0.1,0,0.2,0l1.4,1.2C296,404.3,296,404.3,295.9,404.3"/>
								</g>
							</g>
						</g>
					</g>
				</g>
				<g>
					<polygon class="st1" points="217.5,495.7 216.1,494.6 216.5,493.1 217.9,494.3 					"/>
				</g>
				<g class="st0">
					<g>
						<g>
							<g>
								<defs>
									<path id="SVGID_15_" d="M291.7,377.9l-1.4-1.2c0.4,0.3,0.7,0.6,1.2,0.9l1.4,1.2C292.5,378.5,292.1,378.2,291.7,377.9z"/>
								</defs>
								<clipPath id="SVGID_16_">
									<use xlink:href="#SVGID_15_"  style="overflow:visible;"/>
								</clipPath>
								<g class="st19">
									<path class="st8" d="M291.7,377.9l-1.4-1.2c0.4,0.3,0.7,0.6,1.2,0.9l1.4,1.2C292.5,378.5,292.1,378.2,291.7,377.9"/>
								</g>
							</g>
						</g>
					</g>
				</g>
				<g class="st0">
					<g>
						<g>
							<g>
								<defs>
									<path id="SVGID_17_" d="M291.3,397.7l1.4,1.2c-0.3-0.2-0.7-0.5-1.2-0.7s-1.4-0.3-2.6-0.3c-7.1,0.1-23.9,3.7-25.4,4.3
										l-1.4-1.2c1.5-0.6,18.4-4.3,25.4-4.3c1.2,0,2.1,0.1,2.6,0.3C290.5,397.2,290.9,397.5,291.3,397.7z"/>
								</defs>
								<clipPath id="SVGID_18_">
									<use xlink:href="#SVGID_17_"  style="overflow:visible;"/>
								</clipPath>
								<g class="st20">
									<path class="st4" d="M263.4,402.2L262,401h0.1L263.4,402.2C263.5,402.2,263.5,402.2,263.4,402.2"/>
									<path class="st5" d="M263.5,402.2l-1.4-1.2c0.7-0.2,3.7-1,7.5-1.7l1.4,1.2C267.2,401.2,264.3,401.9,263.5,402.2"/>
									<path class="st6" d="M271.1,400.4l-1.4-1.2c5.5-1.2,12.6-2.4,17-2.6l1.4,1.2C283.6,398,276.5,399.3,271.1,400.4"/>
									<path class="st7" d="M288,397.9l-1.4-1.2c0.3,0,0.6,0,0.9,0c0.7,0,1.4,0,1.9,0.1l1.4,1.2c-0.5-0.1-1.2-0.1-1.9-0.1
										C288.6,397.9,288.4,397.9,288,397.9"/>
									<path class="st8" d="M290.8,398l-1.4-1.2c0.2,0.1,0.5,0.1,0.7,0.2c0.5,0.2,0.8,0.4,1.2,0.7l1.4,1.2
										c-0.3-0.2-0.7-0.5-1.2-0.7C291.4,398.1,291.1,398,290.8,398"/>
								</g>
							</g>
						</g>
					</g>
				</g>
				<g class="st0">
					<g>
						<g>
							<g>
								<defs>
									<path id="SVGID_19_" d="M258,402.5l-1.4-1.2c0.4,0,1.9,0,2,0c0.7,0,1.3,0,2-0.1c0.2,0,0.7-0.1,1.5-0.2l1.4,1.2
										c-0.7,0.2-1.2,0.2-1.5,0.2c-0.7,0-1.3,0-2,0.1C260,402.5,258.5,402.5,258,402.5z"/>
								</defs>
								<clipPath id="SVGID_20_">
									<use xlink:href="#SVGID_19_"  style="overflow:visible;"/>
								</clipPath>
								<g class="st21">
									<path class="st7" d="M258,402.5l-1.4-1.2c0.4,0,1.9,0,2,0c0.7,0,1.3,0,2-0.1l0,0l1.4,1.2l0,0c-0.7,0-1.3,0-2,0.1
										C260,402.5,258.5,402.5,258,402.5"/>
									<path class="st6" d="M262,402.4l-1.4-1.2c0.2,0,0.6-0.1,1.1-0.2l1.4,1.2C262.6,402.4,262.3,402.4,262,402.4"/>
									<path class="st5" d="M263.1,402.3l-1.4-1.2c0.1,0,0.2-0.1,0.4-0.1l1.4,1.2C263.4,402.3,263.2,402.3,263.1,402.3"/>
								</g>
							</g>
						</g>
					</g>
				</g>
				<g>
					<polygon class="st1" points="178.5,495 177.1,493.8 176.9,491.9 178.3,493.1 					"/>
				</g>
				<g class="st0">
					<g>
						<g>
							<g>
								<defs>
									<path id="SVGID_21_" d="M250.3,403.3l-1.4-1.2c0.2,0,0.2-0.1,0.4-0.1l1.4,1.2C250.6,403.2,250.5,403.3,250.3,403.3z"/>
								</defs>
								<clipPath id="SVGID_22_">
									<use xlink:href="#SVGID_21_"  style="overflow:visible;"/>
								</clipPath>
								<g class="st22">
									<path class="st5" d="M250.3,403.3l-1.4-1.2c0.2,0,0.2-0.1,0.4-0.1l1.4,1.2C250.6,403.2,250.5,403.3,250.3,403.3"/>
								</g>
							</g>
						</g>
					</g>
				</g>
				<g class="st0">
					<g>
						<g>
							<g>
								<defs>
									<path id="SVGID_23_" d="M278.8,365.4l-1.4-1.2c1.5,1.2,3.1,2.2,5.1,3.1c0.2,0.1,0.3,0.2,0.5,0.3l1.4,1.2
										c-0.2-0.2-0.3-0.2-0.5-0.3C282,367.6,280.3,366.6,278.8,365.4z"/>
								</defs>
								<clipPath id="SVGID_24_">
									<use xlink:href="#SVGID_23_"  style="overflow:visible;"/>
								</clipPath>
								<g class="st23">
									<path class="st8" d="M278.8,365.4l-1.4-1.2c1.5,1.2,3.1,2.2,5.1,3.1c0.2,0.1,0.3,0.2,0.5,0.3l1.4,1.2
										c-0.2-0.2-0.3-0.2-0.5-0.3C282,367.6,280.3,366.6,278.8,365.4"/>
								</g>
							</g>
						</g>
					</g>
				</g>
				<g class="st0">
					<g>
						<g>
							<g>
								<defs>
									<path id="SVGID_25_" d="M273.8,380.6l-1.4-1.2c-1-0.7-1.7-1.8-2.4-2.8c-0.4-0.7-0.1-1.8,0.2-2.6c0.5-1.2,1.2-2.3,2-3.6
										l1.4,1.2c-0.7,1.2-1.5,2.3-2,3.6c-0.3,0.8-0.6,2-0.2,2.6C272,378.7,272.9,379.8,273.8,380.6z"/>
								</defs>
								<clipPath id="SVGID_26_">
									<use xlink:href="#SVGID_25_"  style="overflow:visible;"/>
								</clipPath>
								<g class="st24">
									<path class="st12" d="M273.8,380.6l-1.4-1.2c-1-0.7-1.7-1.8-2.4-2.8c-0.4-0.7-0.1-1.8,0.2-2.6c0.5-1.2,1.2-2.3,2-3.6
										l1.4,1.2c-0.7,1.2-1.5,2.3-2,3.6c-0.3,0.8-0.6,2-0.2,2.6C272,378.7,272.9,379.8,273.8,380.6"/>
								</g>
							</g>
						</g>
					</g>
				</g>
				<g class="st0">
					<g>
						<g>
							<g>
								<defs>
									<path id="SVGID_27_" d="M271.6,369.9l1.4,1.2c0.2,0.2,0.4,0.3,0.6,0.5l-1.4-1.2C272,370.2,271.9,370,271.6,369.9z"/>
								</defs>
								<clipPath id="SVGID_28_">
									<use xlink:href="#SVGID_27_"  style="overflow:visible;"/>
								</clipPath>
								<g class="st25">
									<path class="st12" d="M273.6,371.5l-1.4-1.2c-0.2-0.2-0.3-0.3-0.6-0.5l1.4,1.2C273.3,371.2,273.5,371.4,273.6,371.5"/>
								</g>
							</g>
						</g>
					</g>
				</g>
				<g class="st0">
					<g>
						<g>
							<g>
								<defs>
									<path id="SVGID_29_" d="M235.8,409.2l-1.4-1.2c0.6-0.2,1.1-0.3,1.6-0.5c1-0.5,2.1-1,3.1-1.5c1.3-0.7,2.7-1.3,4-1.9
										c1.9-0.8,3.9-1.6,5.9-2l1.4,1.2c-2,0.5-4,1.2-5.9,2c-1.3,0.6-2.7,1.2-4,1.9c-1,0.5-2.1,1-3.1,1.5
										C236.9,408.9,236.4,409.1,235.8,409.2z"/>
								</defs>
								<clipPath id="SVGID_30_">
									<use xlink:href="#SVGID_29_"  style="overflow:visible;"/>
								</clipPath>
								<g class="st26">
									<path class="st5" d="M235.8,409.2l-1.4-1.2c0.4-0.1,0.7-0.2,1.1-0.3l1.4,1.2C236.5,409.1,236.2,409.1,235.8,409.2"/>
									<path class="st4" d="M236.8,408.9l-1.4-1.2c0.2-0.1,0.3-0.2,0.5-0.2c1-0.5,2.1-1,3.1-1.5c1.3-0.7,2.7-1.3,4-1.9
										c0.7-0.3,1.5-0.7,2.2-0.9l1.4,1.2c-0.7,0.2-1.5,0.6-2.2,0.9c-1.3,0.6-2.7,1.2-4,1.9c-1,0.5-2.1,1-3.1,1.5
										C237.3,408.8,237.1,408.8,236.8,408.9"/>
									<path class="st5" d="M246.7,404.3l-1.4-1.2c1.2-0.4,2.4-0.8,3.6-1.1l1.4,1.2C249.1,403.6,247.9,403.9,246.7,404.3"/>
								</g>
							</g>
						</g>
					</g>
				</g>
				<g class="st0">
					<g>
						<g>
							<g>
								<defs>
									<path id="SVGID_31_" d="M234.9,409.2l-1.4-1.2c0.2,0,0.6,0,0.9,0l1.4,1.2C235.5,409.2,235.2,409.2,234.9,409.2z"/>
								</defs>
								<clipPath id="SVGID_32_">
									<use xlink:href="#SVGID_31_"  style="overflow:visible;"/>
								</clipPath>
								<g class="st27">
									<path class="st7" d="M234.9,409.2l-1.4-1.2c0.2,0,0.6,0,0.9,0l1.4,1.2C235.5,409.2,235.2,409.2,234.9,409.2"/>
								</g>
							</g>
						</g>
					</g>
				</g>
				<g>
					<polygon class="st17" points="233.7,409.2 232.3,408.1 233.5,408.1 234.9,409.2 					"/>
				</g>
				<g class="st0">
					<g>
						<g>
							<g>
								<defs>
									<path id="SVGID_33_" d="M230.7,409.4l-1.4-1.2c0.6-0.1,1.2-0.1,1.7-0.1c0.4,0,0.8,0,1.3,0l1.4,1.2c-0.4,0-0.8,0-1.3,0
										C231.9,409.3,231.3,409.3,230.7,409.4z"/>
								</defs>
								<clipPath id="SVGID_34_">
									<use xlink:href="#SVGID_33_"  style="overflow:visible;"/>
								</clipPath>
								<g class="st28">
									<path class="st6" d="M230.7,409.4l-1.4-1.2c0.5-0.1,1.1-0.1,1.6-0.1l1.4,1.2C231.7,409.3,231.2,409.3,230.7,409.4"/>
									<path class="st7" d="M232.2,409.3l-1.4-1.2c0.1,0,0.1,0,0.2,0c0.4,0,0.8,0,1.3,0l1.4,1.2c-0.4,0-0.8,0-1.3,0
										C232.4,409.3,232.3,409.3,232.2,409.3"/>
								</g>
							</g>
						</g>
					</g>
				</g>
				<g>
					<polygon class="st29" points="227.6,408.1 226.2,407 229.2,408.2 230.7,409.4 					"/>
				</g>
				<g class="st0">
					<g>
						<g>
							<g>
								<defs>
									<path id="SVGID_35_" d="M247.9,379.8l1.4,1.2c0.4,0.3,0.8,0.8,0.9,1.2c0.7,2.7-0.2,3.6-3.1,4.6c-0.8,0.3-2.1,0.9-2.2,1.5
										c-1,4.1-1.2,8.3,2.4,11.7c1.2,1.1,2.3,2.2,3.6,3.2l-1.4-1.2c-1.2-1.1-2.4-2.2-3.6-3.2c-3.6-3.3-3.3-7.5-2.4-11.7
										c0.2-0.6,1.4-1.2,2.2-1.5c3-1,3.7-2,3.1-4.6C248.7,380.6,248.3,380.1,247.9,379.8z"/>
								</defs>
								<clipPath id="SVGID_36_">
									<use xlink:href="#SVGID_35_"  style="overflow:visible;"/>
								</clipPath>
								<g class="st30">
									<path class="st12" d="M250.8,403.2l-1.4-1.2c-1.2-1.1-2.4-2.2-3.6-3.2c-3.6-3.3-3.3-7.5-2.4-11.7c0.1-0.2,0.2-0.4,0.4-0.6
										l1.4,1.2c-0.2,0.2-0.4,0.4-0.4,0.6c-1,4.1-1.2,8.3,2.4,11.7C248.4,401,249.6,402.1,250.8,403.2"/>
									<path class="st3" d="M245.3,387.7l-1.4-1.2c0.2-0.2,0.3-0.2,0.6-0.4l1.4,1.2C245.6,387.4,245.5,387.6,245.3,387.7"/>
									<path class="st4" d="M245.9,387.4l-1.4-1.2c0.3-0.2,0.7-0.3,1.1-0.5l1.4,1.2C246.6,387,246.2,387.2,245.9,387.4"/>
									<path class="st5" d="M246.9,386.9l-1.4-1.2c0.1,0,0.1-0.1,0.2-0.1c0.2-0.1,0.2-0.1,0.4-0.2l1.4,1.2
										c-0.2,0.1-0.2,0.1-0.4,0.2C247,386.8,246.9,386.9,246.9,386.9"/>
									<path class="st4" d="M247.5,386.6l-1.4-1.2c0.5-0.2,1-0.4,1.3-0.6l1.4,1.2C248.5,386.3,248,386.4,247.5,386.6"/>
									<path class="st3" d="M248.9,386l-1.4-1.2c0.2-0.2,0.5-0.2,0.7-0.4l1.4,1.2C249.3,385.8,249.1,385.9,248.9,386"/>
									<path class="st12" d="M249.5,385.6l-1.4-1.2c0.9-0.7,1.1-1.7,0.7-3.5c-0.1-0.4-0.5-0.9-0.9-1.2l1.4,1.2
										c0.4,0.3,0.8,0.8,0.9,1.2C250.6,383.9,250.4,384.9,249.5,385.6"/>
								</g>
							</g>
						</g>
					</g>
				</g>
				<g class="st0">
					<g>
						<g>
							<g>
								<defs>
									<path id="SVGID_37_" d="M251.7,354.5l-1.4-1.2c1.1,0.8,2.6,1.3,4.6,1.5c4.4,0.2,8.7,1.2,13,1.8c1.5,0.2,2.7,0.7,3.7,1.4
										l1.4,1.2c-1-0.8-2.3-1.2-3.7-1.4c-4.4-0.6-8.7-1.6-13-1.8C254.2,355.8,252.7,355.3,251.7,354.5z"/>
								</defs>
								<clipPath id="SVGID_38_">
									<use xlink:href="#SVGID_37_"  style="overflow:visible;"/>
								</clipPath>
								<g class="st31">
									<path class="st8" d="M251.7,354.5l-1.4-1.2c0.8,0.7,1.8,1.1,3.2,1.3l1.4,1.2C253.5,355.5,252.5,355,251.7,354.5"/>
									<path class="st7" d="M254.9,355.8l-1.4-1.2c0.4,0.1,0.9,0.1,1.4,0.2c2.6,0.2,5.1,0.5,7.5,0.9l1.4,1.2
										c-2.5-0.4-5-0.8-7.5-0.9C255.7,355.9,255.3,355.8,254.9,355.8"/>
									<path class="st8" d="M263.8,356.9l-1.4-1.2c0.6,0.1,1.1,0.2,1.7,0.2l1.4,1.2C264.9,357,264.3,356.9,263.8,356.9"/>
									<path class="st7" d="M265.5,357.1l-1.4-1.2c1.2,0.2,2.6,0.4,3.8,0.6c0.2,0,0.2,0,0.4,0.1l1.4,1.2c-0.2,0-0.2-0.1-0.4-0.1
										C268,357.5,266.7,357.4,265.5,357.1"/>
									<path class="st8" d="M269.7,357.8l-1.4-1.2c1.3,0.2,2.4,0.7,3.3,1.4l1.4,1.2C272.1,358.4,271.1,358,269.7,357.8"/>
								</g>
							</g>
						</g>
					</g>
				</g>
				<g class="st0">
					<g>
						<g>
							<g>
								<defs>
									<path id="SVGID_39_" d="M247.8,379.9l-1.4-1.2c-1.3-1.1-1.9-2.4-1.8-4.2c0.2-3.7-0.1-7.4-1.8-10.9
										c-0.2-0.3-0.3-0.6-0.6-0.7l1.4,1.2c0.2,0.2,0.4,0.4,0.6,0.7c1.7,3.5,2,7.1,1.8,10.9C245.9,377.5,246.5,378.9,247.8,379.9z"
										/>
								</defs>
								<clipPath id="SVGID_40_">
									<use xlink:href="#SVGID_39_"  style="overflow:visible;"/>
								</clipPath>
								<g class="st32">
									<path class="st12" d="M247.8,379.9l-1.4-1.2c-1.3-1.1-1.9-2.4-1.8-4.2c0.2-3.7-0.1-7.4-1.8-10.9c-0.2-0.3-0.3-0.6-0.6-0.7
										l1.4,1.2c0.2,0.2,0.4,0.4,0.6,0.7c1.7,3.5,2,7.1,1.8,10.9C245.9,377.5,246.5,378.9,247.8,379.9"/>
								</g>
							</g>
						</g>
					</g>
				</g>
				<g class="st0">
					<g>
						<g>
							<g>
								<defs>
									<path id="SVGID_41_" d="M206.5,382.2l-1.4-1.2c1.2,1,2.6,1.7,3.9,1.7c0.8,0,1.7-0.2,2.6-0.8l1.4,1.2
										c-0.9,0.6-1.7,0.8-2.6,0.8C209.1,383.9,207.8,383.2,206.5,382.2z"/>
								</defs>
								<clipPath id="SVGID_42_">
									<use xlink:href="#SVGID_41_"  style="overflow:visible;"/>
								</clipPath>
								<g class="st33">
									<path class="st8" d="M206.5,382.2l-1.4-1.2c1,0.8,2.1,1.4,3.1,1.6l1.4,1.2C208.6,383.6,207.5,383,206.5,382.2"/>
									<path class="st7" d="M209.7,383.8l-1.4-1.2c0.2,0.1,0.5,0.1,0.7,0.1c0.1,0,0.1,0,0.2,0l1.4,1.2c-0.1,0-0.1,0-0.2,0
										C210.2,383.9,209.9,383.9,209.7,383.8"/>
									<path class="st6" d="M210.6,383.9l-1.4-1.2c0.2,0,0.4,0,0.7-0.1l1.4,1.2C211,383.8,210.8,383.9,210.6,383.9"/>
									<path class="st5" d="M211.2,383.8l-1.4-1.2c0.2-0.1,0.4-0.1,0.7-0.2l1.4,1.2C211.7,383.7,211.4,383.7,211.2,383.8"/>
									<path class="st4" d="M211.9,383.6l-1.4-1.2c0.2-0.1,0.5-0.2,0.7-0.3l1.4,1.2C212.3,383.4,212.1,383.5,211.9,383.6"/>
									<path class="st3" d="M212.6,383.3l-1.4-1.2c0.2-0.1,0.3-0.2,0.4-0.2l1.4,1.2C212.8,383.1,212.7,383.2,212.6,383.3"/>
								</g>
							</g>
						</g>
					</g>
				</g>
				<g class="st0">
					<g>
						<g>
							<g>
								<defs>
									<path id="SVGID_43_" d="M246.2,346l1.4,1.2c-1.1-0.9-2.6-1.4-4.2-1.7c-1.5-0.2-3-0.3-4.5-0.5c-0.5,0-0.9,0-1.3,0
										c-3.6,0-5,1.2-6,4.8c-0.6,1.8-1.3,3.5-3,4.9c-0.9,0.8-1.5,2.1-2,3.1c-3.1,6.7-6,13.6-9.3,20.2c-0.8,1.7-2.8,3.1-4.3,4.9
										l-1.4-1.2c1.6-1.7,3.5-3.1,4.3-4.9c3.2-6.7,6.1-13.5,9.3-20.2c0.5-1.1,1.1-2.3,2-3.1c1.7-1.4,2.4-3.1,3-4.9
										c1.1-3.6,2.6-4.8,6-4.8c0.4,0,0.8,0,1.3,0c1.5,0.1,3,0.2,4.5,0.5C243.6,344.6,245.1,345.1,246.2,346z"/>
								</defs>
								<clipPath id="SVGID_44_">
									<use xlink:href="#SVGID_43_"  style="overflow:visible;"/>
								</clipPath>
								<g class="st34">
									<path class="st12" d="M213,383l-1.4-1.2c1.6-1.7,3.5-3.1,4.3-4.9c3.2-6.7,6.1-13.5,9.3-20.2c0.5-1.1,1.1-2.3,2-3.1
										c1.7-1.4,2.4-3.1,3-4.9c0.5-1.7,1.2-3,2.1-3.7l1.4,1.2c-0.9,0.7-1.6,2-2.1,3.7c-0.6,1.8-1.3,3.5-3,4.9
										c-0.9,0.8-1.5,2.1-2,3.1c-3.1,6.7-6,13.6-9.3,20.2C216.5,379.9,214.6,381.3,213,383"/>
									<path class="st3" d="M233.7,346.1l-1.4-1.2c0.2-0.2,0.4-0.3,0.6-0.4l1.4,1.2C234,345.8,233.9,345.9,233.7,346.1"/>
									<path class="st4" d="M234.3,345.7l-1.4-1.2c0.2-0.1,0.4-0.2,0.7-0.2l1.4,1.2C234.7,345.4,234.4,345.6,234.3,345.7"/>
									<path class="st5" d="M234.9,345.3l-1.4-1.2c0.2-0.1,0.5-0.2,0.8-0.2l1.4,1.2C235.4,345.2,235.2,345.3,234.9,345.3"/>
									<path class="st6" d="M235.8,345.2l-1.4-1.2c0.4-0.1,0.9-0.2,1.5-0.2l1.4,1.2C236.7,345,236.2,345.1,235.8,345.2"/>
									<path class="st7" d="M237.2,345l-1.4-1.2c0.2,0,0.3,0,0.5,0c0.4,0,0.8,0,1.3,0c1.5,0.1,3,0.2,4.5,0.5c0.1,0,0.1,0,0.2,0
										l1.4,1.2c-0.1,0-0.1,0-0.2,0c-1.5-0.2-3-0.3-4.5-0.5c-0.5,0-0.9,0-1.3,0C237.5,345,237.3,345,237.2,345"/>
									<path class="st8" d="M243.5,345.5l-1.4-1.2c1.6,0.2,3,0.7,4.1,1.7l1.4,1.2C246.5,346.3,245.1,345.8,243.5,345.5"/>
								</g>
							</g>
						</g>
					</g>
				</g>
				<g class="st0">
					<g>
						<g>
							<g>
								<defs>
									<path id="SVGID_45_" d="M181.2,369.3l-1.4-1.2l0.1,0.1c1.7,1.3,2.7,1.4,4.1,1.4c1.7,0,2.5,0,3.3,0.1
										c3.2,0.3,8.7,1.9,11.4,4.1l1.4,1.2c-2.7-2.2-8.2-3.8-11.4-4.1c-0.9-0.1-1.6-0.1-3.3-0.1
										C184.1,370.8,183.1,370.6,181.2,369.3C181.2,369.4,181.2,369.4,181.2,369.3z"/>
								</defs>
								<clipPath id="SVGID_46_">
									<use xlink:href="#SVGID_45_"  style="overflow:visible;"/>
								</clipPath>
								<g class="st35">
									<path class="st8" d="M181.2,369.3l-1.4-1.2l0.1,0.1c1.2,0.8,2,1.2,2.8,1.3l1.4,1.2C183.2,370.5,182.4,370.2,181.2,369.3
										C181.2,369.4,181.2,369.4,181.2,369.3"/>
									<path class="st7" d="M184.1,370.8l-1.4-1.2c0.4,0.1,0.8,0.1,1.3,0.1c1.7,0,2.5,0,3.3,0.1c0.4,0,0.8,0.1,1.2,0.2l1.4,1.2
										c-0.4-0.1-0.8-0.2-1.2-0.2c-0.9-0.1-1.6-0.1-3.3-0.1C184.9,370.9,184.5,370.8,184.1,370.8"/>
									<path class="st8" d="M189.9,371l-1.4-1.2c3.2,0.6,7.8,2,10.2,4l1.4,1.2C197.7,373.1,193.2,371.6,189.9,371"/>
								</g>
							</g>
						</g>
					</g>
				</g>
				<g class="st0">
					<g>
						<g>
							<g>
								<defs>
									<path id="SVGID_47_" d="M197.8,342.4l-1.4-1.2c0.2,0.2,0.5,0.4,0.8,0.6c0.8,0.4,1.7,0.8,2.2,1.3l1.4,1.2
										c-0.7-0.5-1.4-0.9-2.2-1.3C198.3,342.8,198.1,342.6,197.8,342.4z"/>
								</defs>
								<clipPath id="SVGID_48_">
									<use xlink:href="#SVGID_47_"  style="overflow:visible;"/>
								</clipPath>
								<g class="st36">
									<path class="st8" d="M197.8,342.4l-1.4-1.2c0.2,0.2,0.5,0.4,0.8,0.6c0.8,0.4,1.7,0.8,2.2,1.3l1.4,1.2
										c-0.7-0.5-1.4-0.9-2.2-1.3C198.3,342.8,198.1,342.6,197.8,342.4"/>
								</g>
							</g>
						</g>
					</g>
				</g>
				<g class="st0">
					<g>
						<g>
							<g>
								<defs>
									<path id="SVGID_49_" d="M185.7,361.9l-1.4-1.2c-0.7-0.5-1.1-1.2-1.4-2c-0.2-0.7-0.8-1.3-1.4-1.8l1.4,1.2
										c0.7,0.5,1.2,1.2,1.4,1.8C184.6,360.8,185.1,361.4,185.7,361.9z"/>
								</defs>
								<clipPath id="SVGID_50_">
									<use xlink:href="#SVGID_49_"  style="overflow:visible;"/>
								</clipPath>
								<g class="st37">
									<path class="st12" d="M185.7,361.9l-1.4-1.2c-0.7-0.5-1.1-1.2-1.4-2c-0.2-0.7-0.8-1.3-1.4-1.8l1.4,1.2
										c0.7,0.5,1.2,1.2,1.4,1.8C184.6,360.8,185.1,361.4,185.7,361.9"/>
								</g>
							</g>
						</g>
					</g>
				</g>
				<g class="st0">
					<g>
						<g>
							<g>
								<defs>
									<path id="SVGID_51_" d="M165.1,358.9l-1.4-1.2c0.2,0.2,0.3,0.2,0.5,0.3c5.4,2.9,4.5,2,11.3,5.7c0.1,0.1,0.2,0.2,0.4,0.2
										l1.4,1.2c-0.2-0.1-0.2-0.2-0.4-0.2c-6.7-3.7-5.8-2.7-11.3-5.7C165.5,359.2,165.3,359,165.1,358.9z"/>
								</defs>
								<clipPath id="SVGID_52_">
									<use xlink:href="#SVGID_51_"  style="overflow:visible;"/>
								</clipPath>
								<g class="st38">
									<path class="st8" d="M165.1,358.9l-1.4-1.2c0.2,0.2,0.3,0.2,0.5,0.3c5.4,2.9,4.5,2,11.3,5.7c0.1,0.1,0.2,0.2,0.4,0.2
										l1.4,1.2c-0.2-0.1-0.2-0.2-0.4-0.2c-6.7-3.7-5.8-2.7-11.3-5.7C165.5,359.2,165.3,359,165.1,358.9"/>
								</g>
							</g>
						</g>
					</g>
				</g>
				<g>
					<polygon class="st7" points="121.1,407.3 119.7,406.2 123.1,405.8 124.5,407 					"/>
				</g>
				<g class="st0">
					<g>
						<g>
							<g>
								<defs>
									<path id="SVGID_53_" d="M124.5,407l-1.4-1.2c-2.3-4.1-4.1-7.3-4.1-7.6l1.4,1.2C120.4,399.7,122.2,402.8,124.5,407z"/>
								</defs>
								<clipPath id="SVGID_54_">
									<use xlink:href="#SVGID_53_"  style="overflow:visible;"/>
								</clipPath>
								<g class="st39">
									<path class="st12" d="M124.5,407l-1.4-1.2c-2.3-4.1-4.1-7.3-4.1-7.6l1.4,1.2C120.4,399.7,122.2,402.8,124.5,407"/>
								</g>
							</g>
						</g>
					</g>
				</g>
				<g>
					<polygon class="st1" points="46.5,494.4 45.1,493.2 43.5,486.9 44.9,488 					"/>
				</g>
				<g class="st0">
					<g>
						<g>
							<g>
								<defs>
									<path id="SVGID_55_" d="M94,407.5l-1.4-1.2c2.1,0.2,2.6,0.1,3,0.1c1.3-0.2,2.6-0.4,3.8-0.7c1.5-0.2,3-0.5,4.5-0.7
										s3.1-0.3,4.6-0.3c0.7,0,1.3,0,2,0.1c3.3,0.2,6.5,0.7,9.4,1.5l1.4,1.2c-2.9-0.8-6-1.3-9.4-1.5c-0.7,0-1.3-0.1-2-0.1
										c-1.6,0-3.1,0.2-4.6,0.3c-1.4,0.2-2.9,0.5-4.5,0.7c-1.2,0.2-2.5,0.4-3.8,0.7C96.6,407.6,96.1,407.6,94,407.5z"/>
								</defs>
								<clipPath id="SVGID_56_">
									<use xlink:href="#SVGID_55_"  style="overflow:visible;"/>
								</clipPath>
								<g class="st40">
									<path class="st7" d="M94,407.5l-1.4-1.2c1.3,0.1,2.1,0.1,2.5,0.1l1.4,1.2C96,407.6,95.3,407.6,94,407.5"/>
									<path class="st6" d="M96.4,407.6l-1.4-1.2c0.2,0,0.4,0,0.6-0.1c1.3-0.2,2.6-0.4,3.8-0.7c1.5-0.2,3-0.5,4.5-0.7
										c1.2-0.2,2.3-0.3,3.6-0.3l1.4,1.2c-1.2,0.1-2.4,0.2-3.6,0.3c-1.4,0.2-2.9,0.5-4.5,0.7c-1.2,0.2-2.5,0.4-3.8,0.7
										C96.8,407.6,96.7,407.6,96.4,407.6"/>
									<path class="st7" d="M108.8,405.7l-1.4-1.2c0.3,0,0.7,0,1.1,0c0.7,0,1.3,0,2,0.1c1.7,0.1,3.4,0.2,5,0.6l1.4,1.2
										c-1.6-0.2-3.3-0.4-5-0.6c-0.7,0-1.3-0.1-2-0.1C109.4,405.7,109.1,405.7,108.8,405.7"/>
									<path class="st8" d="M116.8,406.3l-1.4-1.2c1.5,0.2,2.9,0.6,4.3,1l1.4,1.2C119.8,406.9,118.3,406.6,116.8,406.3"/>
								</g>
							</g>
						</g>
					</g>
				</g>
				<g class="st0">
					<g>
						<g>
							<g>
								<defs>
									<path id="SVGID_57_" d="M177,308l1.4,1.2c-4.3-3.5-9.6-4.6-9.3-4.5l-1.4-1.2C167.5,303.3,172.7,304.5,177,308z"/>
								</defs>
								<clipPath id="SVGID_58_">
									<use xlink:href="#SVGID_57_"  style="overflow:visible;"/>
								</clipPath>
								<g class="st41">
									<polyline class="st12" points="169.2,304.8 167.7,303.6 167.7,303.6 169.2,304.8 169.2,304.8 									"/>
									<polyline class="st3" points="169.2,304.8 167.7,303.6 167.7,303.6 169.2,304.8 169.2,304.8 									"/>
									<polyline class="st4" points="169.2,304.8 167.7,303.6 167.7,303.5 169.2,304.7 169.2,304.8 									"/>
									<path class="st5" d="M169.2,304.7l-1.4-1.2l0,0L169.2,304.7L169.2,304.7"/>
									<path class="st6" d="M169.2,304.7l-1.4-1.2l0,0L169.2,304.7L169.2,304.7"/>
									<path class="st7" d="M169.2,304.7l-1.4-1.2c0.1,0,0.1,0,0.2,0l1.4,1.2C169.3,304.8,169.2,304.7,169.2,304.7"/>
									<path class="st8" d="M169.4,304.8l-1.4-1.2c1.1,0.2,5.5,1.5,9,4.5l1.4,1.2C174.9,306.2,170.5,304.9,169.4,304.8"/>
								</g>
							</g>
						</g>
					</g>
				</g>
				<g class="st0">
					<g>
						<g>
							<g>
								<defs>
									<path id="SVGID_59_" d="M81.2,404.1l-1.4-1.2c2,0.1,4.1,0.5,6,1.2c1.2,0.4,2.5,0.8,3.7,1.2c1,0.3,2,0.7,3,1l1.4,1.2
										c-1-0.3-2-0.7-3-1c-1.2-0.4-2.5-0.8-3.7-1.2C85.2,404.6,83.2,404.2,81.2,404.1z"/>
								</defs>
								<clipPath id="SVGID_60_">
									<use xlink:href="#SVGID_59_"  style="overflow:visible;"/>
								</clipPath>
								<g class="st42">
									<path class="st7" d="M81.2,404.1l-1.4-1.2c0.8,0.1,1.7,0.2,2.6,0.2l1.4,1.2C82.8,404.3,82,404.2,81.2,404.1"/>
									<path class="st8" d="M83.7,404.4l-1.4-1.2c1.2,0.2,2.3,0.5,3.5,0.8c1.2,0.4,2.5,0.8,3.7,1.2c1,0.3,2,0.7,3,1l1.4,1.2
										c-1-0.3-2-0.7-3-1c-1.2-0.4-2.5-0.8-3.7-1.2C86.1,404.8,84.9,404.6,83.7,404.4"/>
								</g>
							</g>
						</g>
					</g>
				</g>
				<g class="st0">
					<g>
						<g>
							<g>
								<defs>
									<path id="SVGID_61_" d="M159.9,306.3l-1.4-1.2c0.2,0.2,0.3,0.2,0.5,0.2c0.7,0,1.5-0.7,3.3-1.2c1.7-0.4,3.1-0.7,4.4-0.7
										c0.4,0,0.7,0,1.2,0.1l1.4,1.2c-0.3-0.1-0.7-0.1-1.2-0.1c-1.2,0-2.7,0.2-4.4,0.7c-1.8,0.4-2.7,1.2-3.3,1.2
										C160.2,306.5,160,306.4,159.9,306.3z"/>
								</defs>
								<clipPath id="SVGID_62_">
									<use xlink:href="#SVGID_61_"  style="overflow:visible;"/>
								</clipPath>
								<g class="st43">
									<path class="st8" d="M159.9,306.3l-1.4-1.2c0.2,0.1,0.2,0.2,0.4,0.2l1.4,1.2C160.1,306.4,160,306.4,159.9,306.3"/>
									<path class="st7" d="M160.2,306.5l-1.4-1.2c0.1,0,0.1,0,0.2,0l0,0l1.4,1.2l0,0C160.3,306.5,160.3,306.5,160.2,306.5"/>
									<path class="st6" d="M160.4,306.5l-1.4-1.2c0.1,0,0.1,0,0.2,0l1.4,1.2C160.5,306.5,160.5,306.5,160.4,306.5"/>
									<path class="st5" d="M160.5,306.5l-1.4-1.2c0.1,0,0.2-0.1,0.2-0.1l1.4,1.2C160.7,306.4,160.6,306.4,160.5,306.5"/>
									<path class="st4" d="M160.8,306.4l-1.4-1.2c0.4-0.2,0.9-0.4,1.7-0.7l1.4,1.2C161.7,305.9,161.2,306.2,160.8,306.4"/>
									<path class="st5" d="M162.4,305.7l-1.4-1.2c0.3-0.2,0.7-0.2,1.2-0.3c0.4-0.1,0.7-0.2,1.2-0.2l1.4,1.2
										c-0.3,0.1-0.7,0.2-1.2,0.2C163.2,305.4,162.8,305.6,162.4,305.7"/>
									<path class="st6" d="M164.8,305.1l-1.4-1.2c1.1-0.2,2-0.3,2.9-0.4l1.4,1.2C166.8,304.7,165.9,304.8,164.8,305.1"/>
									<path class="st7" d="M167.7,304.7l-1.4-1.2c0.1,0,0.2,0,0.3,0c0.4,0,0.7,0,1.2,0.1l1.4,1.2c-0.3-0.1-0.7-0.1-1.2-0.1
										C167.9,304.7,167.8,304.7,167.7,304.7"/>
								</g>
							</g>
						</g>
					</g>
				</g>
				<g>
					<polygon class="st44" points="74,403.7 72.6,402.5 79.7,402.9 81.2,404.1 					"/>
				</g>
				<g class="st0">
					<g>
						<g>
							<g>
								<defs>
									<path id="SVGID_63_" d="M71.7,403.6l-1.4-1.2c0.7,0,1.6,0.1,2.3,0.2l1.4,1.2C73.2,403.6,72.5,403.6,71.7,403.6z"/>
								</defs>
								<clipPath id="SVGID_64_">
									<use xlink:href="#SVGID_63_"  style="overflow:visible;"/>
								</clipPath>
								<g class="st45">
									<path class="st7" d="M71.7,403.6l-1.4-1.2c0.7,0,1.6,0.1,2.3,0.2l1.4,1.2C73.2,403.6,72.5,403.6,71.7,403.6"/>
								</g>
							</g>
						</g>
					</g>
				</g>
				<g>
					<polygon class="st46" points="65.9,403.8 64.4,402.6 70.3,402.4 71.7,403.6 					"/>
				</g>
				<g class="st0">
					<g>
						<g>
							<g>
								<defs>
									<path id="SVGID_65_" d="M64.1,403.8l-1.4-1.2c0.7,0,1.2,0,1.7,0l1.4,1.2C65.4,403.8,64.9,403.8,64.1,403.8z"/>
								</defs>
								<clipPath id="SVGID_66_">
									<use xlink:href="#SVGID_65_"  style="overflow:visible;"/>
								</clipPath>
								<g class="st47">
									<path class="st7" d="M64.1,403.8l-1.4-1.2c0.7,0,1.2,0,1.7,0l1.4,1.2C65.4,403.8,64.9,403.8,64.1,403.8"/>
								</g>
							</g>
						</g>
					</g>
				</g>
				<g class="st0">
					<g>
						<g>
							<g>
								<defs>
									<path id="SVGID_67_" d="M153.9,299.8l1.4,1.2c-2.2-1.8-4.7-3.2-6-3.8l-1.4-1.2C149.2,296.5,151.7,298,153.9,299.8z"/>
								</defs>
								<clipPath id="SVGID_68_">
									<use xlink:href="#SVGID_67_"  style="overflow:visible;"/>
								</clipPath>
								<g class="st48">
									<path class="st8" d="M149.3,297.2l-1.4-1.2c1.3,0.5,3.8,2,6,3.8l1.4,1.2C153.2,299.2,150.6,297.7,149.3,297.2"/>
								</g>
							</g>
						</g>
					</g>
				</g>
				<g class="st0">
					<g>
						<g>
							<g>
								<defs>
									<path id="SVGID_69_" d="M151,308.6l-1.4-1.2c0.1-1.1-2.6-3.3-3.8-6.6c-0.7-2.1-4.1-4.1-3-4.9c0.3-0.2,0.8-0.4,1.6-0.4
										c0.7,0,1.8,0.2,3.5,0.5l1.4,1.2c-1.6-0.3-2.7-0.5-3.5-0.5c-0.7,0-1.2,0.2-1.6,0.4c-1.2,0.7,2.2,2.8,3,4.9
										C148.4,305.2,151.1,307.5,151,308.6z"/>
								</defs>
								<clipPath id="SVGID_70_">
									<use xlink:href="#SVGID_69_"  style="overflow:visible;"/>
								</clipPath>
								<g class="st49">
									<path class="st12" d="M151,308.6l-1.4-1.2c0.1-1.1-2.6-3.3-3.8-6.6c-0.7-2-4-4.1-3.1-4.8l1.4,1.2c-0.9,0.7,2.3,2.8,3.1,4.8
										C148.4,305.2,151.1,307.5,151,308.6"/>
									<path class="st3" d="M144.2,297.1l-1.4-1.2c0,0,0.1,0,0.1-0.1l0.1-0.1l1.4,1.2C144.4,297,144.3,297,144.2,297.1
										L144.2,297.1"/>
									<path class="st4" d="M144.4,297l-1.4-1.2c0.1-0.1,0.2-0.1,0.3-0.2l1.4,1.2C144.5,296.9,144.5,297,144.4,297"/>
									<path class="st5" d="M144.7,296.9l-1.4-1.2c0.1,0,0.2-0.1,0.3-0.1l1.4,1.2C145,296.8,144.8,296.8,144.7,296.9"/>
									<path class="st6" d="M145,296.8l-1.4-1.2c0.2,0,0.4-0.1,0.6-0.1l1.4,1.2C145.5,296.7,145.2,296.7,145,296.8"/>
									<path class="st7" d="M145.6,296.7l-1.4-1.2c0.1,0,0.1,0,0.2,0c0.5,0,1.2,0.1,2,0.2l1.4,1.2c-0.8-0.2-1.5-0.2-2-0.2
										C145.8,296.7,145.7,296.7,145.6,296.7"/>
									<path class="st8" d="M147.9,296.9l-1.4-1.2c0.4,0.1,0.9,0.2,1.4,0.2l1.4,1.2C148.8,297,148.3,297,147.9,296.9"/>
								</g>
							</g>
						</g>
					</g>
				</g>
				<g class="st0">
					<g>
						<g>
							<g>
								<defs>
									<path id="SVGID_71_" d="M120.3,399.3l-1.4-1.2c-6.1-13.8-8.9-40.4-3.6-59.6c4.8-17.1,18.5-26.9,24.9-27.7l1.4,1.2
										c-6.5,0.7-20.2,10.5-24.9,27.7C111.4,358.9,114.1,385.4,120.3,399.3z"/>
								</defs>
								<clipPath id="SVGID_72_">
									<use xlink:href="#SVGID_71_"  style="overflow:visible;"/>
								</clipPath>
								<g class="st50">
									<path class="st12" d="M120.3,399.3l-1.4-1.2c-6.1-13.8-8.9-40.4-3.6-59.6c2.8-10,8.7-17.6,14.4-22.2l1.4,1.2
										c-5.7,4.6-11.6,12.2-14.4,22.2C111.4,358.9,114.1,385.4,120.3,399.3"/>
									<path class="st3" d="M131.1,317.5l-1.4-1.2c1.7-1.3,3.3-2.5,4.9-3.3l1.4,1.2C134.4,315,132.8,316.1,131.1,317.5"/>
									<path class="st4" d="M136,314.2l-1.4-1.2c1.1-0.6,2.1-1.1,3-1.4l1.4,1.2C138.1,313.1,137,313.6,136,314.2"/>
									<path class="st5" d="M139,312.8l-1.4-1.2c0.7-0.2,1.3-0.4,1.9-0.6l1.4,1.2C140.3,312.4,139.7,312.5,139,312.8"/>
									<path class="st6" d="M140.9,312.2l-1.4-1.2c0.2-0.1,0.6-0.1,0.8-0.2l1.4,1.2C141.5,312.1,141.1,312.1,140.9,312.2"/>
								</g>
							</g>
						</g>
					</g>
				</g>
				<g class="st0">
					<g>
						<g>
							<g>
								<defs>
									<path id="SVGID_73_" d="M137.3,303.2l-1.4-1.2c0.8,0,3.7,2.7,7.2,3.1c4.1,0.5,4.1,2.3,6.5,2.3l1.4,1.2
										c-2.4,0-2.5-1.8-6.5-2.3C141,305.8,138.1,303.2,137.3,303.2z"/>
								</defs>
								<clipPath id="SVGID_74_">
									<use xlink:href="#SVGID_73_"  style="overflow:visible;"/>
								</clipPath>
								<g class="st51">
									<path class="st7" d="M137.3,303.2l-1.4-1.2h0.1L137.3,303.2L137.3,303.2"/>
									<path class="st8" d="M137.3,303.2l-1.4-1.2c0.9,0.2,3.6,2.5,6.8,3l1.4,1.2C140.9,305.7,138.3,303.3,137.3,303.2"/>
									<path class="st7" d="M144.1,306.2l-1.4-1.2c0.1,0,0.2,0,0.3,0.1c0.2,0,0.3,0.1,0.5,0.1l1.4,1.2c-0.2,0-0.3-0.1-0.5-0.1
										C144.4,306.2,144.3,306.2,144.1,306.2"/>
									<path class="st8" d="M145,306.3l-1.4-1.2c3.2,0.5,3.7,1.9,5.4,2.2l1.4,1.2C148.7,308.2,148.2,306.9,145,306.3"/>
									<path class="st7" d="M150.3,308.5l-1.4-1.2c0.2,0,0.4,0.1,0.7,0.1l1.4,1.2C150.8,308.6,150.6,308.6,150.3,308.5"/>
								</g>
							</g>
						</g>
					</g>
				</g>
				<g class="st0">
					<g>
						<g>
							<g>
								<defs>
									<path id="SVGID_75_" d="M139.9,310.9l-1.4-1.2c-3.8-3.1-4-7.7-2.7-7.7l1.4,1.2C135.9,303.2,136.2,307.8,139.9,310.9z"/>
								</defs>
								<clipPath id="SVGID_76_">
									<use xlink:href="#SVGID_75_"  style="overflow:visible;"/>
								</clipPath>
								<g class="st52">
									<path class="st12" d="M139.9,310.9l-1.4-1.2c-3.4-2.7-3.9-6.8-3.1-7.6l1.4,1.2C136,304.1,136.5,308.1,139.9,310.9"/>
									<path class="st3" d="M136.9,303.3l-1.4-1.2l0.1-0.1L136.9,303.3C137,303.3,136.9,303.3,136.9,303.3"/>
									<path class="st4" d="M137,303.3l-1.4-1.2h0.1L137,303.3C137.1,303.3,137,303.3,137,303.3"/>
									<path class="st5" d="M137.1,303.2l-1.4-1.2h0.1L137.1,303.2C137.2,303.2,137.1,303.2,137.1,303.2"/>
									<path class="st6" d="M137.2,303.2l-1.4-1.2h0.1L137.2,303.2C137.3,303.2,137.2,303.2,137.2,303.2"/>
									<path class="st7" d="M137.3,303.2l-1.4-1.2l0,0L137.3,303.2L137.3,303.2"/>
								</g>
							</g>
						</g>
					</g>
				</g>
				<g>
					<polygon class="st1" points="-24.1,497.2 -25.5,496 -25.9,485.4 -24.5,486.5 					"/>
				</g>
				<g class="st0">
					<g>
						<g>
							<g>
								<defs>
									<path id="SVGID_77_" d="M44.2,394.6l-1.4-1.2c2.5,0.7,4.9,1.7,7.1,2.9c1.7,0.9,3.4,1.8,5,2.7c1.4,0.8,2.8,1.6,4.2,2.3
										c0.7,0.4,1.5,0.7,2.2,0.9c0.9,0.2,1.3,0.2,1.3,0.2l1.4,1.2c-0.1,0-0.5,0-1.3-0.2c-0.7-0.2-1.5-0.5-2.2-0.9
										c-1.4-0.7-2.8-1.5-4.2-2.3c-1.6-0.9-3.2-1.8-5-2.7C49,396.3,46.6,395.3,44.2,394.6z"/>
								</defs>
								<clipPath id="SVGID_78_">
									<use xlink:href="#SVGID_77_"  style="overflow:visible;"/>
								</clipPath>
								<g class="st53">
									<path class="st8" d="M44.2,394.6l-1.4-1.2c2.5,0.7,4.9,1.7,7.1,2.9c1.7,0.9,3.4,1.8,5,2.7c1.4,0.8,2.8,1.6,4.2,2.3
										c0.7,0.4,1.5,0.7,2.2,0.9c0.4,0.1,0.7,0.2,0.9,0.2l1.4,1.2c-0.2,0-0.5-0.1-0.9-0.2c-0.7-0.2-1.5-0.5-2.2-0.9
										c-1.4-0.7-2.8-1.5-4.2-2.3c-1.6-0.9-3.2-1.8-5-2.7C49,396.3,46.6,395.3,44.2,394.6"/>
									<path class="st7" d="M63.7,403.7l-1.4-1.2c0.3,0.1,0.4,0.1,0.5,0.1l1.4,1.2C64.1,403.8,63.9,403.8,63.7,403.7"/>
								</g>
							</g>
						</g>
					</g>
				</g>
				<g class="st0">
					<g>
						<g>
							<g>
								<defs>
									<path id="SVGID_79_" d="M-24.5,486.5l-1.4-1.2c-0.2-3.7,0.4-7.1,1.6-10.2c0.7-1.8,1.5-3.6,2.2-5.5c0.6-1.2,1.1-2.7,1.6-4.1
										l1.4,1.2c-0.5,1.5-1,2.9-1.6,4.1c-0.8,1.8-1.6,3.6-2.2,5.5C-24,479.4-24.6,482.8-24.5,486.5z"/>
								</defs>
								<clipPath id="SVGID_80_">
									<use xlink:href="#SVGID_79_"  style="overflow:visible;"/>
								</clipPath>
								<g class="st54">
									<path class="st12" d="M-24.5,486.5l-1.4-1.2c-0.2-3.7,0.4-7.1,1.6-10.2c0.7-1.8,1.5-3.6,2.2-5.5c0.6-1.2,1.1-2.7,1.6-4.1
										l1.4,1.2c-0.5,1.5-1,2.9-1.6,4.1c-0.8,1.8-1.6,3.6-2.2,5.5C-24,479.4-24.6,482.8-24.5,486.5"/>
								</g>
							</g>
						</g>
					</g>
				</g>
				<g>
					<polygon class="st29" points="25.2,389.3 23.8,388.1 42.7,393.5 44.2,394.6 					"/>
				</g>
				<g>
					<polygon class="st1" points="25.2,390.5 23.8,389.3 23.8,388.1 25.2,389.3 					"/>
				</g>
				<g class="st0">
					<g>
						<g>
							<g>
								<defs>
									<path id="SVGID_81_" d="M-19.1,466.7l-1.4-1.2c0.1-0.2,0.2-1,0.2-3c-0.1-1.9-0.2-3.8-0.4-5.7c-0.2-2-0.4-3.9-0.7-5.7
										c-0.2-1.9-0.4-3.6-0.7-5.3c-0.2-1.9-0.3-3.6-0.4-5.3l1.4,1.2c0.1,1.6,0.2,3.4,0.4,5.3c0.2,1.7,0.4,3.4,0.7,5.3
										c0.2,1.8,0.4,3.7,0.7,5.7c0.2,1.9,0.3,3.8,0.4,5.7C-18.7,465.7-19,466.6-19.1,466.7z"/>
								</defs>
								<clipPath id="SVGID_82_">
									<use xlink:href="#SVGID_81_"  style="overflow:visible;"/>
								</clipPath>
								<g class="st55">
									<path class="st12" d="M-19.1,466.7l-1.4-1.2c0.1-0.2,0.2-1,0.2-3c-0.1-1.9-0.2-3.8-0.4-5.7c-0.2-2-0.4-3.9-0.7-5.7
										c-0.2-1.9-0.4-3.6-0.7-5.3c-0.2-1.9-0.3-3.6-0.4-5.3l1.4,1.2c0.1,1.6,0.2,3.4,0.4,5.3c0.2,1.7,0.4,3.4,0.7,5.3
										c0.2,1.8,0.4,3.7,0.7,5.7c0.2,1.9,0.3,3.8,0.4,5.7C-18.7,465.7-19,466.6-19.1,466.7"/>
								</g>
							</g>
						</g>
					</g>
				</g>
				<g>
					<polygon class="st1" points="-20.9,441.7 -22.3,440.5 -22.8,426.8 -21.4,427.9 					"/>
				</g>
				<g class="st0">
					<g>
						<g>
							<g>
								<defs>
									<path id="SVGID_83_" d="M-0.1,382.5l-1.4-1.2c5,0.1,9.3,0.9,13.5,2.5c2.2,0.8,4.5,1.8,6.5,2.8c1.7,0.9,3.6,1.8,5.2,2.7
										l1.4,1.2c-1.7-0.9-3.5-1.8-5.2-2.7c-2.1-1.1-4.3-2-6.5-2.8C9.2,383.4,4.9,382.5-0.1,382.5z"/>
								</defs>
								<clipPath id="SVGID_84_">
									<use xlink:href="#SVGID_83_"  style="overflow:visible;"/>
								</clipPath>
								<g class="st56">
									<path class="st7" d="M-0.1,382.5l-1.4-1.2c2.2,0,4.3,0.2,6.3,0.6l1.4,1.2C4.2,382.7,2.1,382.5-0.1,382.5"/>
									<path class="st8" d="M6.3,383l-1.4-1.2c2.5,0.4,4.9,1.1,7.2,1.9c2.2,0.8,4.5,1.8,6.5,2.8c1.7,0.9,3.6,1.8,5.2,2.7l1.4,1.2
										c-1.7-0.9-3.5-1.8-5.2-2.7c-2.1-1.1-4.3-2-6.5-2.8C11.1,384,8.8,383.5,6.3,383"/>
								</g>
							</g>
						</g>
					</g>
				</g>
				<g>
					<path class="st57" d="M419.9,399.5c1,4.7,1.2,9.9,0.5,15.3c-0.4,3.4-1.2,7-2.2,10.4s-2.3,6.8-3.9,9.9c-1.5,3.1-3.3,6-5.3,8.8
						c-2.1,2.8-4.4,5.4-6.9,7.6c-2.6,2.2-5.3,4.1-8.3,5.7c-2.8,1.5-5.9,2.5-9,3.1l-0.7,10.2c0.5,0.7,0.9,1.2,1.3,1.8
						c2,2.7,3,5.9,2.7,9.2l-0.8,11.1l-11-0.5c-1.9-0.1-3.7-0.4-5.5-0.8c-1-0.2-2-0.6-3-0.9c-0.6-0.2-1.2-0.4-2-0.6
						c-0.1,0-0.5-0.1-1.3-0.1c-0.7,0.1-1.1,0.2-1.4,0.3c-0.8,0.2-1.6,0.5-2.3,0.7c-1.4,0.3-2.8,0.6-4.2,0.6l-11.5-0.7l0.2-7.3
						c-1.6,1.6-3.3,3-5.3,4.2c-2.7,1.7-5.9,3.1-9.4,4.1s-7.4,1.6-11.5,1.6c-4.4,0-8.3-0.5-11.8-1.7c-3.4-1.2-6.5-2.7-8.9-4.5
						c-2.7-2-4.9-4.3-6.4-6.9c-1.8-2.9-2.7-17.1-4.4-17.6c-1.7,0-1.9,5.7-3.7,13.6c-1.8,8.2,0.7,19.6,0.8,20.3l-17,0.1
						c-2,0-4-0.2-5.7-0.8c-1-0.3-2-0.7-3-1.1c-2.8-0.1-3.7,0-4.6,0.2c-1,0.2-2,0.3-3,0.5c-1.4,0.2-2.9,0.3-4.5,0.3s-3-0.1-4.3-0.3
						c-0.8-0.2-1.6-0.2-2.4-0.4c-0.5-0.1-0.9-0.2-1.4-0.2l-2,0.2c-0.6,0.1-1.1,0.2-1.7,0.3c-1.1,0.2-2.2,0.2-3.5,0.3l-14.4,0.2
						l0.4-1.4c-0.9,0.2-1.9,0.2-2.9,0.4c-1.3,0.2-2.7,0.2-4.1,0.2c-2.1,0-3.7-0.1-5.4-0.3c-1.2-0.2-2.3-0.3-3.5-0.5
						c-1-0.2-2-0.3-3-0.5c-0.5-0.1-1.1-0.1-1.7-0.1c-1.5,0.2-2.2,0.3-2.9,0.5c-0.8,0.2-1.7,0.3-2.5,0.5c-1.4,0.2-2.7,0.4-3.9,0.4
						h-9.5L178,493c-0.4,0.2-0.8,0.3-1.2,0.5c-3,1.1-6.4,1.6-10,1.7c-0.7,0-1.3,0-1.9,0c-1.7-0.1-3.5-0.2-5.1-0.5
						c-1.3-0.2-2.7-0.5-4-0.7c-1.2-0.2-2.3-0.4-3.5-0.7c-0.8-0.2-1.7-0.2-2.6-0.2c-1.5,0.2-2.2,0.2-3,0.4c-1,0.2-2.1,0.3-3.1,0.5
						c-1.1,0.2-2.2,0.2-3.4,0.2c-0.4,0-0.8,0-1.2,0l-11.5-0.4c-2.3,0.6-4.8,0.8-7.5,0.8c-2.2,0-3.8-0.1-5.4-0.3
						c-1.2-0.2-2.5-0.3-3.7-0.5c-1.1-0.2-2.2-0.3-3.2-0.4c-0.8-0.1-1.6-0.2-2.4-0.2c-1.4,0.2-2.1,0.2-2.7,0.4
						c-0.9,0.2-1.9,0.3-2.8,0.5c-1.2,0.2-2.6,0.3-3.9,0.3l-18.3-0.2c-0.8-0.4-2.1-0.4-3.4-0.4h-2.9l-2.3,0.6c-1,0.2-2,0.3-3,0.3
						c-1.9,0-3.2-0.1-4.6-0.2c-1-0.2-2-0.3-3-0.5c-0.7-0.2-1.6-0.2-2.3-0.4c-0.4-0.1-0.8-0.1-1.2-0.1c-1.2,0.1-1.8,0.2-2.5,0.3
						c-0.7,0.1-1.4,0.2-2.2,0.3c-1.2,0.2-2.4,0.2-3.6,0.2l-1.7-6.4c-2.5,2.2-5.3,4.1-8.5,5.5c-3.9,1.7-8.1,2.6-12.7,2.7
						c-2.7,0-5-0.2-7-0.5c-1.9-0.3-3.8-0.7-5.7-1c-1.7-0.3-3.5-0.7-5.2-0.9c-1.2-0.1-2.5-0.2-3.8-0.2c-0.4,0-0.8,0.1-1.3,0.2
						c-1.2,0.3-2.4,0.7-3.5,1c-1.4,0.4-2.7,0.9-4.1,1.2c-2.2,0.7-4.3,1.1-6.4,1.1l-10.7,0.2l-0.3-10.7c-0.2-3.7,0.4-7.1,1.6-10.2
						c0.7-1.8,1.5-3.6,2.2-5.5c0.6-1.2,1.1-2.7,1.6-4.1c0.1-0.2,0.2-1,0.2-3c-0.1-1.9-0.2-3.8-0.4-5.7c-0.2-2-0.4-3.9-0.7-5.7
						c-0.2-1.9-0.4-3.6-0.7-5.3c-0.2-1.9-0.3-3.6-0.4-5.3l-0.5-13.8c-0.1-0.2-1-4.1-2.2-6.4c-2.2-4.4-3.3-9-3.5-13.8
						c-0.2-5.4,1.3-10.4,4.3-14.5c2.7-3.7,6.3-6.5,10.8-8.4c3.6-1.5,7.5-2.3,11.8-2.3c5,0.1,9.3,0.9,13.5,2.5
						c2.2,0.8,4.5,1.8,6.5,2.8c1.7,0.9,3.6,1.8,5.2,2.7l-0.1-1.2l19.1,5.4c2.5,0.7,4.9,1.7,7.1,2.9c1.7,0.9,3.4,1.8,5,2.7
						c1.4,0.8,2.8,1.6,4.2,2.3c0.7,0.4,1.5,0.7,2.2,0.9c0.9,0.2,1.3,0.2,1.3,0.2c0.7,0,1.2,0,1.7,0l5.8-0.2c0.7,0,1.6,0.1,2.3,0.2
						l7.1,0.4c2,0.1,4.1,0.5,6,1.2c1.2,0.4,2.5,0.8,3.7,1.2c1,0.3,2,0.7,3,1c2.1,0.2,2.6,0.1,3,0.1c1.3-0.2,2.6-0.4,3.8-0.7
						c1.5-0.2,3-0.5,4.5-0.7s3.1-0.3,4.6-0.3c0.7,0,1.3,0,2,0.1c3.3,0.2,6.5,0.7,9.4,1.5l3.3-0.3c-2.3-4.1-4.1-7.3-4.1-7.6
						c-6.1-13.8-8.9-40.4-3.6-59.6c4.8-17.1,18.5-26.9,24.9-27.7c-5.5-2.9-6-8.9-4.5-8.9c0.8,0,3.7,2.7,7.2,3.1
						c4.1,0.5,4.1,2.3,6.5,2.3c0.1-1.1-2.6-3.3-3.8-6.6c-0.7-2.1-4.1-4.1-3-4.9c0.3-0.2,0.8-0.4,1.6-0.4s1.8,0.2,3.5,0.5
						c2.2,0.9,8,4.6,9.7,7.9c0.6,1.1,0.9,1.5,1.4,1.5c0.7,0,1.5-0.7,3.3-1.2c1.7-0.4,3.1-0.7,4.4-0.7c0.4,0,0.7,0,1.2,0.1
						c-0.4-0.4,13.6,3,14.6,13.7c0.4,1.7,0.7,3.6,1.2,5.4c0.2,0.9,0.5,1.9,1.1,2.7c2.5,3.6,5.1,7.2,7.7,10.9
						c0.8,1.1,1.5,2.3,2.4,3.3c0.7,0.8,1.5,1.7,2.5,2.3c1.7,1,3.6,1.6,3.3,4.1c-0.2,1.7,0.7,3.6-0.5,5.3c-0.4,0.6-0.2,1.4-0.2,2.2
						c-0.2,3.3-1.3,4.6-4.8,5.6c-2.2,2.9-5.1,2.4-7.4,2.7c-2.7,0.1-4-1.2-4.7-3c-0.3-0.8-1-1.7-1.8-2.2c-1.1-0.7-2.3-1.2-3.6-1.7
						c-4.9-1.6-12.7-6.7-16.2-6.6c-0.8,0-1.4,0.2-1.7,0.9c-1.6,3.4,3.6,8.3,4.6,8.9c5.4,2.9,4.5,2,11.3,5.7c1.1,0.6,3.5,3.8,4.5,4.5
						c1.7,1.3,2.7,1.4,4.1,1.4c1.7,0,2.5,0,3.3,0.1c3.6,0.3,10.1,2.3,12.3,5.1c2.2,2.7,5.6,8,9.4,8c0.8,0,1.7-0.2,2.6-0.8
						c1.6-1.7,3.5-3.1,4.3-4.9c3.2-6.7,6.1-13.5,9.3-20.2c0.5-1.1,1.1-2.3,2-3.1c1.7-1.4,2.4-3.1,3-4.9c1.1-3.6,2.6-4.8,6-4.8
						c0.4,0,0.8,0,1.3,0c1.5,0.1,3,0.2,4.5,0.5c3.1,0.5,5.5,1.8,6.1,4.8c0.7,3.5,2.5,5.4,6.8,5.6c4.4,0.2,8.7,1.2,13,1.8
						c2,0.2,3.6,1,4.7,2.5c2.5,3.5,5.6,6.4,9.9,8.4c0.7,0.3,1.2,1.1,1.6,1.7c1.7,3.3,4.1,6.1,7.4,8.5v1.5c-4.1,1.3-8.3,1.8-12.5,1.8
						c-0.9,0-1.8,0-2.7-0.1c-2.8-0.1-4.8-2.2-6.1-4.3c-0.4-0.7-0.1-1.8,0.2-2.6c0.5-1.2,1.2-2.3,2-3.6c-1.2-1.1-2.5-1.9-4.1-1.8
						c-1.5,0.2-2,0.2-2.4,0.2c-1.8,0-3.5-0.6-5-1.7c-1.9-1.4-4-2.7-6-3.9c-0.5,1.6-0.3,2.8,0.1,3.9s1,2.2,1.8,3.1
						c3,3.4,3.2,7.2,1.9,11.3c-1.4,4.3-1.9,8.6-0.1,12.9c0.2,0.4-0.1,1.1-0.2,1.6c-0.5,1.8-1.1,3.7-1.6,5.6c0.4,0,1.9,0,2,0
						c0.7,0,1.3,0,2-0.1c0.2,0,0.7-0.1,1.5-0.2c1.5-0.6,18.4-4.3,25.4-4.3c1.2,0,2.1,0.1,2.6,0.3c3.7,1.6,2.9,6.1,4.6,6.1l4.2,0.1
						c0.4,0,0.8,0,1.2,0c0.8,0,1.7,0,2.5-0.1c1.1,0,2.2-0.2,3.6-0.4c0.8-0.2,1.3-0.3,1.7-0.4c0.7-0.2,1.3-0.5,1.9-0.7
						c1-0.4,1.9-0.7,2.8-1.1c1.2-0.4,2.7-0.8,4-1.1l8.8-1.9c2.2-0.4,4.6-0.6,6.8-0.7c0.4,0,0.7,0,1.2,0c1.5,0,2.6-0.1,3.8-0.3
						c1.1-0.2,2.2-0.4,3.1-0.7c1.3-0.3,2.7-0.7,4-1.2c1.5-0.5,3-0.9,4.4-1.3c1.8-0.6,3.7-1,5.6-1.3l14.8-2.7c0.5-0.3,0.9-0.7,1.4-1
						c1.3-1,2.7-1.9,4.1-2.9c1.7-1.2,3.5-2.2,5.4-3.2c5.4-2.8,10.5-4.3,15.2-4.3c0.5,0,0.9,0,1.4,0c5.9,0.3,11.1,2.6,15,6.5
						C416.5,389.2,418.8,393.9,419.9,399.5z M250.3,403.3c0.2,0,0.2-0.1,0.4-0.1c-1.2-1.1-2.4-2.2-3.6-3.2
						c-3.6-3.3-3.3-7.5-2.4-11.7c0.2-0.6,1.4-1.2,2.2-1.5c3-1,3.7-2,3.1-4.6c-0.2-0.6-0.8-1.2-1.4-1.6c-2-1.2-2.9-2.7-2.8-4.9
						c0.2-3.7-0.1-7.4-1.8-10.9c-0.4-0.8-0.9-1-1.4-1c-0.4,0-0.8,0.2-1.3,0.2c-1.2,0.2-1.5,0.7-1.3,1.8c0.6,3.7,1.1,7.5,1.7,11.2
						c0.7,4.9-0.6,9.7-1.2,14.6c-0.2,1.7-0.5,3.5-0.8,5.3c-0.4,2.7-1.7,4.7-4.6,6c-0.5,0.2-0.9,0.5-1.5,0.7c-2.8,0.8-5.2,1.9-6,4.6
						l3.1,1.2c0.6-0.1,1.2-0.1,1.7-0.1c0.4,0,0.8,0,1.3,0h1.2c0.2,0,0.6,0,0.9,0c0.6-0.2,1.1-0.3,1.6-0.5c1-0.5,2.1-1,3.1-1.5
						c1.3-0.7,2.7-1.3,4-1.9C246.4,404.4,248.4,403.8,250.3,403.3"/>
				</g>
				<g class="st0">
					<g>
						<g>
							<g>
								<defs>
									<path id="SVGID_85_" d="M-21.4,427.9l-1.4-1.2c-0.1-0.2-1-4.1-2.2-6.4c-2.2-4.4-3.3-9-3.5-13.8c-0.2-5.4,1.3-10.4,4.3-14.5
										c2.7-3.7,6.3-6.5,10.8-8.4c3.6-1.5,7.5-2.3,11.8-2.3l1.4,1.2c-4.3,0-8.3,0.8-11.8,2.3c-4.4,1.8-8,4.7-10.8,8.4
										c-3,4.1-4.5,9.1-4.3,14.5c0.2,4.8,1.3,9.4,3.5,13.8C-22.4,423.8-21.5,427.7-21.4,427.9z"/>
								</defs>
								<clipPath id="SVGID_86_">
									<use xlink:href="#SVGID_85_"  style="overflow:visible;"/>
								</clipPath>
								<g class="st58">
									<path class="st12" d="M-21.4,427.9l-1.4-1.2c-0.1-0.2-1-4.1-2.2-6.4c-2.2-4.4-3.3-9-3.5-13.8c-0.2-5.4,1.3-10.4,4.3-14.5
										c1.2-1.7,2.7-3.2,4.3-4.6l1.4,1.2c-1.7,1.3-3.1,2.9-4.3,4.6c-3,4.1-4.5,9.1-4.3,14.5c0.2,4.8,1.3,9.4,3.5,13.8
										C-22.4,423.8-21.5,427.7-21.4,427.9"/>
									<path class="st3" d="M-18.3,388.6l-1.4-1.2c1.2-0.9,2.4-1.8,3.7-2.6l1.4,1.2C-15.9,386.9-17.2,387.7-18.3,388.6"/>
									<path class="st4" d="M-14.6,386.1l-1.4-1.2c0.8-0.5,1.7-0.9,2.7-1.3c0.4-0.2,0.7-0.3,1.2-0.5l1.4,1.2
										c-0.4,0.2-0.8,0.3-1.2,0.5C-12.9,385.2-13.8,385.6-14.6,386.1"/>
									<path class="st5" d="M-10.7,384.3l-1.4-1.2c1.3-0.5,2.7-0.9,4.2-1.2l1.4,1.2C-8,383.5-9.4,383.8-10.7,384.3"/>
									<path class="st6" d="M-6.6,383.1l-1.4-1.2c1.7-0.3,3.5-0.6,5.2-0.7l1.4,1.2C-3.1,382.5-4.8,382.8-6.6,383.1"/>
									<path class="st7" d="M-1.3,382.5l-1.4-1.2c0.4,0,0.8,0,1.2,0l1.4,1.2C-0.5,382.5-0.9,382.5-1.3,382.5"/>
								</g>
							</g>
						</g>
					</g>
				</g>
			</g>
		</g>
	</g>
	<g>
		
			<linearGradient id="SVGID_87_" gradientUnits="userSpaceOnUse" x1="201.8345" y1="420.9265" x2="185.3907" y2="302.5846" gradientTransform="matrix(1 0 0 -1 0 800)">
			<stop  offset="0.494" style="stop-color:#FFD400"/>
			<stop  offset="0.8064" style="stop-color:#F7902C"/>
		</linearGradient>
		<path class="st59" d="M90.1,480.1c-0.6-0.8-1.1-2-1.7-3.3c-0.6-1.4-1.2-3-1.7-4.9c-0.7-2-1.2-4.1-2-6.5c-0.7-2.5-1.5-5.1-2.2-8
			c-0.8-3.1-1.7-6.2-2.6-9.5c-1-3.5-2-7-3.1-10.7c-1.2-3.8-2.3-7.6-3.5-11.3c-0.2-1.2-0.2-2.4,0-3.5c0.1-1.1,0.2-2.1,0.4-3.1
			c0.2-1,0.3-2,0.4-3c0.2-1,0.2-2.1,0-3.4c-1.3-0.4-2.7-0.6-3.9-0.6c-1.2,0-2.5,0-3.6,0.1c-1.2,0.1-2.5,0.1-3.8,0.1
			c-1.3,0-2.7-0.2-4.3-0.7c-1.6-0.4-3.1-1.1-4.6-1.8c-1.5-0.8-3.1-1.7-4.6-2.6c-1.6-0.9-3.2-1.7-4.8-2.7c-1.7-0.9-3.4-1.6-5.1-2.1
			c0.3,1.2,0.8,2.4,1.4,3.5c0.6,1.1,1.2,2.1,1.7,3.1c0.6,1,1.2,1.9,1.7,2.9c0.5,0.9,0.9,1.9,1.2,2.8c0,4.1,0.2,8.5,0.5,12.8
			c0.2,4.2,0.7,8.4,1,12.4c0.4,3.9,0.7,7.6,1.2,11.2c0.4,3.4,0.7,6.6,1,9.6c0.2,2.8,0.4,5.5,0.5,7.8s0.1,4.3-0.1,6
			c-0.2,1.7-0.5,3.1-0.9,4.2c-0.5,1.2-1.2,1.9-2,2.4h0.2c0.7,0,1.5-0.1,2.2-0.2s1.3-0.2,2.1-0.3c0.7-0.1,1.3-0.2,2.1-0.3
			c0.7-0.1,1.4-0.2,2.2-0.2c1,0,1.9,0.1,2.8,0.2c0.9,0.2,1.8,0.2,2.7,0.4c0.9,0.2,1.8,0.3,2.7,0.4c0.9,0.2,1.7,0.2,2.6,0.2
			c0.2,0,0.3,0,0.5,0s0.3,0,0.5-0.1c-1.2-0.7-2.3-1.7-3.1-2.7c-0.8-1-1.5-2.2-1.7-3.4c-0.2-0.5-0.2-1-0.2-1.5s0-1,0.1-1.5l12.1,0.4
			c0.4,0.7,0.7,1.4,0.8,2.2c0.1,0.5,0.1,1,0.1,1.4c0,0.5-0.1,1-0.2,1.4c-0.1,0.5-0.2,0.9-0.2,1.4s0,0.9,0.1,1.4
			c1.2,0,2.4-0.1,3.5-0.2s2.2-0.2,3.2-0.2c0.9,0,1.8,0.1,2.7,0.2c0.9,0.1,1.8,0.2,2.7,0.2c0.8,0.1,1.7,0.2,2.6,0.2
			c0.8,0.1,1.6,0.2,2.3,0.2C91.2,481.5,90.7,481,90.1,480.1z M61.5,466l0.6-22l9.2,22.6L61.5,466z M42.6,462.7c0.2,3,0,5.6-0.7,8.1
			s-2,4.6-3.6,6.4c-1.7,1.8-3.8,3.3-6.3,4.3c-2.6,1.1-5.5,1.7-8.7,1.7c-1.7,0-3.5-0.1-5.2-0.4c-1.8-0.3-3.6-0.6-5.5-1
			c-1.8-0.3-3.7-0.7-5.6-1s-3.9-0.5-5.9-0.5c-1.3,0-2.7,0.2-4,0.5c-1.4,0.3-2.7,0.7-4.1,1.2s-2.7,0.8-4,1.2
			c-1.2,0.4-2.4,0.6-3.4,0.6c-0.1-2.2,0.2-4.1,0.7-5.8c0.6-1.7,1.2-3.3,2-5s1.3-3.5,1.9-5.3c0.6-1.9,0.7-4.1,0.7-6.9
			c-0.1-2.2-0.3-4.4-0.6-6.5c-0.2-2.1-0.5-4.1-0.7-6s-0.5-3.6-0.7-5.3c-0.2-1.7-0.3-3.1-0.4-4.5c1.1,0.2,2.2,1.1,3.3,2.6
			s2.4,3.4,3.8,5.6s3,4.6,4.7,7.1s3.6,4.9,5.9,7c2.2,2.2,4.6,4,7.3,5.4s5.6,2.2,8.7,2.4c0.7,0,1.5-0.1,2.2-0.3
			c0.7-0.2,1.2-0.7,1.6-1.2s0.7-1.1,1-1.7c0.2-0.7,0.3-1.3,0.2-2.1c-0.2-2.5-0.9-4.9-2.1-7c-1.2-2.2-2.7-4.3-4.6-6.4
			s-4.1-4.2-6.5-6.3s-5.1-4.3-7.8-6.5s-5.6-4.6-8.3-7c-2.8-2.5-5.4-5.1-7.7-7.8c-2.4-2.7-4.3-5.6-5.9-8.7s-2.4-6.2-2.6-9.4
			c-0.2-2.9,0.5-5.5,2.1-7.5c1.5-2.1,3.5-3.6,6-4.6c2.4-1,5.2-1.5,8.3-1.4c3,0.1,6.1,0.7,9.3,1.9c1.9,0.7,3.8,1.5,5.6,2.4
			c1.7,0.9,3.5,1.7,5.1,2.7c1.7,0.9,3.2,1.7,4.8,2.5c1.6,0.8,3.1,1.5,4.6,2c1,0.3,1.9,0.6,2.7,0.7s1.7,0.2,2.4,0.2
			c0.7,0,1.5,0.1,2.2,0.2s1.5,0.2,2.3,0.6c-0.8,4.4-1.7,8.8-2.8,13.3c-1.1,4.6-2.2,9.3-3.3,14.1c-0.4-1.4-0.8-2.8-1.3-4.4
			c-0.5-1.5-1.1-3.1-1.8-4.6c-0.7-1.5-1.5-3-2.4-4.5s-2.1-2.8-3.3-4.1c-1.3-1.3-2.8-2.5-4.6-3.6c-1.7-1.1-3.7-2-6-2.7
			c-1-0.3-2-0.5-2.9-0.5s-1.7,0.2-2.4,0.5s-1.2,0.8-1.7,1.5c-0.4,0.7-0.6,1.5-0.5,2.6c0.1,1.2,0.7,2.7,2,4.5
			c1.2,1.7,2.8,3.6,4.8,5.6c1.9,2,4.1,4.1,6.5,6.2c2.3,2.2,4.6,4.3,7,6.5c2.3,2.2,4.6,4.5,6.7,6.9c2.2,2.3,4.1,4.6,5.7,7
			c1.7,2.3,3,4.8,4.1,7.2C41.7,457.5,42.4,460.1,42.6,462.7z M138,441.2c-0.6-2.9-1.4-5.8-2.6-8.7c-1.2-3-2.8-5.7-4.9-8.1
			c-2.2-2.5-4.8-4.6-8-6.3c-3.3-1.7-7.2-2.7-11.8-3c-1.5-0.1-3,0-4.3,0.2c-1.4,0.2-2.8,0.4-4.1,0.7c-1.4,0.2-2.8,0.5-4.2,0.7
			c-1.5,0.2-3,0.2-4.6,0.2c-1.2-0.1-2.2-0.2-3.4-0.7c-1.2-0.3-2.3-0.7-3.5-1.2c-1.2-0.4-2.3-0.8-3.5-1.2c-1.2-0.4-2.3-0.6-3.5-0.7
			c0.2,0.9,0.8,2.2,1.7,3.6c0.9,1.4,1.8,2.9,2.8,4.5s1.9,3.1,2.8,4.7s1.5,3.1,1.8,4.5l10.4,42.1c0.2,0.9,0.2,1.7,0.2,2.7
			c-0.1,0.8-0.2,1.7-0.6,2.4c-0.2,0.7-0.6,1.5-1,2.2c-0.3,0.7-0.7,1.4-1.1,2.2c0.9,0,1.7-0.1,2.6-0.2c0.8-0.1,1.7-0.2,2.4-0.4
			c0.8-0.2,1.6-0.3,2.4-0.4c0.8-0.2,1.7-0.2,2.6-0.2c1.2,0,2.5,0.1,3.7,0.2c1.2,0.2,2.4,0.3,3.6,0.5s2.3,0.3,3.6,0.5
			c1.2,0.2,2.3,0.2,3.6,0.2c2.8,0,5.2-0.2,7.1-1c2-0.7,3.6-1.7,4.9-2.9c1.3-1.2,2.4-2.7,3.1-4.4c0.8-1.7,1.4-3.6,1.8-5.5
			c0.4-2,0.7-4,0.8-6.1c0.2-2.2,0.2-4.1,0.2-6c0-2.2-0.1-4.5-0.2-7C138.8,446.7,138.5,444,138,441.2z M124,470.9
			c-0.4,0.7-1.1,1.2-1.8,1.7c-0.7,0.5-1.7,0.8-2.7,1.2c-1,0.2-2.1,0.4-3.1,0.3c-0.4,0-0.8,0-1.2-0.1c-0.4,0-0.8-0.1-1.2-0.2l-7-44.3
			c0.6-0.1,1.2-0.2,1.7-0.2c0.6-0.1,1.2-0.1,1.8,0c1.3,0.1,2.7,0.3,4,0.7c1.3,0.4,2.5,1,3.6,1.8c1.1,0.7,1.9,1.7,2.6,2.7
			s1.1,2.2,1.2,3.5l2.7,30.6C124.6,469.5,124.4,470.3,124,470.9z M413.6,402c-0.8-3.6-2.3-6.5-4.5-8.6c-2.1-2.1-4.8-3.2-8-3.4
			c-3.1-0.2-6.8,0.8-10.9,3c-1.5,0.7-2.9,1.6-4.2,2.5c-1.3,0.9-2.6,1.8-3.9,2.7c-1.2,0.9-2.5,1.7-3.7,2.7c-1.2,0.8-2.5,1.6-3.8,2.2
			c-1.2,0.6-2.2,1-3.3,1.2c-1,0.2-2,0.3-2.9,0.4s-1.8,0.2-2.7,0.3c-0.9,0.2-1.8,0.5-2.7,1c0,1,0.2,1.8,0.5,2.6
			c0.3,0.7,0.7,1.6,1.2,2.6c0.4,1,0.8,2.2,1.2,3.6c0.3,1.4,0.5,3.2,0.4,5.6l-1,50.1c0,1.3-0.2,2.5-0.6,3.5c-0.4,1.1-0.8,2-1.2,2.8
			c-0.4,0.8-0.8,1.6-1.2,2.2c-0.3,0.7-0.5,1.2-0.6,1.8c0.6,0,1.2,0,1.8-0.2c0.7-0.2,1.3-0.3,2-0.6c0.7-0.2,1.5-0.4,2.2-0.6
			c0.8-0.2,1.7-0.2,2.7-0.2c1.3,0.1,2.6,0.2,3.6,0.4s2,0.5,2.9,0.8s1.8,0.6,2.7,0.8c0.9,0.2,1.9,0.4,3,0.5c0-0.7-0.2-1.3-0.7-1.9
			c-0.5-0.7-1-1.3-1.6-2.1c-0.6-0.7-1.1-1.7-1.6-2.7c-0.4-1-0.7-2.2-0.6-3.6l1-22.1c1.5,0.4,2.9,0.7,4.3,0.7c1.4,0.1,2.8,0,4.1-0.2
			c2.2-0.3,4.4-1,6.4-2.1c2.1-1.1,4.1-2.4,5.9-4.1c1.9-1.7,3.6-3.6,5.1-5.8c1.6-2.2,3-4.6,4.2-7.2c1.2-2.7,2.3-5.4,3.1-8.2
			c0.8-2.9,1.4-5.8,1.7-8.6C414.5,409.6,414.4,405.7,413.6,402z M393.2,421c-0.1,1.7-0.4,3.6-1,5.4c-0.5,1.8-1.2,3.5-2.1,5
			c-0.8,1.5-1.8,2.7-3.1,3.8c-1.2,1-2.4,1.7-3.9,2.1c-0.5,0.1-1.1,0.2-1.7,0.2s-1.2,0-1.8-0.1l1.7-23.9c0.7-0.6,1.4-1.1,2.1-1.6
			c0.7-0.4,1.3-0.7,1.9-1.1c1.4-0.6,2.7-0.7,3.6-0.4c1,0.3,1.9,1,2.6,2s1.2,2.2,1.4,3.7C393.3,417.7,393.3,419.2,393.2,421z
			 M276.6,408.4c0.9-0.4,1.9-0.8,2.9-1c-1.1,4.9-2.2,9.6-3.2,14.2c-1.1,4.4-1.7,8.7-2.2,12.8c-0.2,1.2-0.2,2.5-0.2,3.8
			c-0.1,1.2-0.1,2.5,0,3.6c-1-1.6-2.1-3.4-3.1-5.3c-1.1-2-2.2-3.7-3.6-5.4c-1.3-1.7-2.9-3-4.7-3.9c-1.7-0.9-3.9-1.2-6.3-0.7
			c-0.6,0.1-1.2,0.2-1.9,0.5c-0.7,0.2-1.3,0.5-2,0.9c-0.6,0.4-1.2,0.8-1.6,1.3c-0.4,0.5-0.6,1.2-0.7,1.9l-0.2,18.2h1.9
			c1.1-0.2,2.2-0.4,3.1-0.9c1-0.5,1.9-1,2.8-1.7s1.8-1.4,2.7-2.2c0.8-0.8,1.7-1.6,2.6-2.3c-0.1,0.9-0.2,1.8-0.3,2.8
			c-0.2,0.9-0.3,1.9-0.6,2.8c-0.2,0.9-0.4,1.9-0.6,2.8s-0.2,1.9-0.3,2.8c-0.1,1.5,0,3,0.2,4.4s0.5,2.8,0.7,4.1
			c-1,0.1-1.8-0.1-2.6-0.5c-0.7-0.4-1.6-0.8-2.3-1.3c-0.7-0.5-1.6-0.9-2.4-1.3c-0.8-0.4-1.7-0.6-2.7-0.4l-2.2,0.2l-0.2,14.7
			c0,0.7,0.2,1.2,0.4,1.6s0.7,0.7,1.2,0.8c0.5,0.2,1,0.2,1.6,0.3c0.6,0.1,1.2,0.1,1.7,0c1.5-0.1,2.8-0.3,3.9-0.8
			c1.2-0.5,2.2-1.2,3-1.9c0.9-0.8,1.7-1.7,2.4-2.7c0.7-1,1.5-2.1,2.2-3.1c0.7-1.1,1.6-2.2,2.4-3.2c0.8-1.1,1.8-2.1,3-2.9
			c-0.2,0.9-0.2,1.8-0.4,2.7c-0.1,0.9-0.2,1.8-0.3,2.7c-0.3,3.4-0.4,6.7-0.3,9.9c0.2,3.1,0.6,6.1,1.3,8.9c-0.9,0-1.7-0.1-2.5-0.3
			c-0.7-0.2-1.6-0.5-2.3-0.8c-0.7-0.3-1.6-0.6-2.3-0.8c-0.7-0.2-1.6-0.3-2.5-0.3c-1,0-2,0.1-3,0.2c-0.9,0.2-1.9,0.3-2.8,0.4
			c-0.9,0.2-1.8,0.3-2.8,0.4c-0.9,0.2-1.9,0.2-2.9,0.2c-0.8,0-1.7-0.1-2.4-0.2c-0.7-0.2-1.5-0.2-2.2-0.4c-0.7-0.2-1.4-0.2-2.1-0.4
			s-1.4-0.2-2.1-0.2c-0.7,0-1.2,0.1-1.7,0.2s-1.1,0.2-1.6,0.2c-0.5,0.1-1.1,0.2-1.7,0.2c-0.6,0.1-1.2,0.2-1.8,0.2
			c1.2-4.2,1.9-8.8,2.2-13.6c0.3-5.1,0.4-10.3,0.2-15.9c-0.2-5.5-0.7-11.1-1.4-16.9c-0.7-6-2-12.1-3.6-18.1c0.7-0.2,1.2-0.2,1.8-0.2
			s1.2,0,1.8,0s1.2,0,1.9,0s1.3-0.1,2.1-0.2c1.2-0.2,2.5-0.7,3.6-1.2c1.2-0.5,2.4-1.1,3.6-1.7s2.4-1.2,3.6-1.7
			c1.2-0.6,2.5-1,3.8-1.3c1.1-0.2,2.2-0.4,3.2-0.4s2.1,0,3.1,0c1.1,0,2.2,0,3.3,0s2.3-0.2,3.6-0.5c1.1-0.2,2.1-0.6,3.1-1
			s1.9-0.9,2.8-1.4C274.8,409.3,275.7,408.8,276.6,408.4z M186.6,439.8c-0.6-2.7-1.3-5.5-2.5-8.1c-1.1-2.7-2.7-5.1-4.6-7.3
			c-2-2.2-4.5-4-7.4-5.4c-3-1.4-6.5-2.2-10.7-2.4c-1.3-0.1-2.7,0-4,0.2c-1.2,0.2-2.6,0.4-3.8,0.6s-2.6,0.4-3.9,0.6
			c-1.3,0.2-2.7,0.2-4.2,0.2c-1-0.1-2-0.2-3-0.5s-2-0.6-3-0.9s-2-0.7-3-0.9c-1-0.3-2-0.5-3-0.5c0.1,0.7,0.5,1.7,1.1,2.9
			c0.6,1.2,1.2,2.4,2,3.7c0.7,1.3,1.3,2.7,2,4.1c0.6,1.4,1,2.7,1.2,3.9l5.3,41.6c0.2,1,0.1,2-0.1,2.9c-0.2,0.9-0.5,1.8-0.9,2.7
			c-0.4,0.9-0.8,1.7-1.3,2.6c-0.5,0.8-1,1.7-1.4,2.5c0.9,0.1,1.8,0,2.7-0.1s1.7-0.2,2.7-0.4s1.7-0.3,2.7-0.4s1.8-0.2,2.8-0.1
			c1.3,0.1,2.7,0.2,4,0.4c1.3,0.2,2.6,0.5,3.9,0.7c1.2,0.2,2.6,0.5,3.8,0.7s2.6,0.3,3.9,0.4c3.1,0.2,5.7-0.2,8-0.9
			c2.2-0.7,4.1-1.8,5.5-3.2c1.5-1.4,2.7-3.1,3.6-5s1.6-4,2.1-6.1c0.5-2.2,0.7-4.4,0.9-6.6s0.2-4.4,0.2-6.4c0-2.2-0.1-4.6-0.2-7.2
			C187.5,445.2,187.2,442.5,186.6,439.8z M171.5,470.4c-0.5,0.7-1.2,1.4-2,1.9s-1.8,0.9-2.9,1.2s-2.2,0.3-3.4,0.3
			c-0.4,0-0.8-0.1-1.2-0.1c-0.4-0.1-0.8-0.2-1.2-0.3l-3.6-44.3c0.6-0.1,1.2-0.1,1.7-0.2c0.6-0.1,1.1-0.1,1.7,0
			c1.2,0.1,2.5,0.2,3.7,0.7c1.2,0.4,2.3,0.9,3.3,1.6s1.7,1.5,2.3,2.5c0.6,0.9,0.9,2,1,3.2l1.4,31C172.2,468.7,172,469.6,171.5,470.4
			z M356.6,404.7c1.4-0.4,2.9-0.7,4.4-1c-0.2,1.2-0.7,2.4-1.6,3.6c-0.8,1.2-1.7,2.7-2.7,4.2c-1,1.6-1.9,3.4-2.8,5.4
			s-1.5,4.3-1.9,6.9l-6.5,46.6c-0.2,1.3-0.8,2.7-1.9,4.1s-2.6,2.7-4.5,3.9c-1.8,1.2-4.1,2.2-6.6,2.8c-2.5,0.7-5.4,1.1-8.6,1.1
			s-6-0.4-8.5-1.2c-2.4-0.8-4.4-1.8-6-3c-1.7-1.2-2.9-2.5-3.8-3.9s-1.4-2.7-1.5-4l-3.8-46.3c-0.1-1.4-0.4-2.6-0.8-3.5
			s-0.9-1.7-1.4-2.2c-0.5-0.6-1-1.2-1.3-1.7c-0.4-0.5-0.7-1.1-0.7-1.8c1-0.2,2-0.2,3.1-0.2c1.2,0,2.4,0,3.7,0.1c1.3,0,2.8,0,4.4,0
			c1.6-0.1,3.3-0.2,5.1-0.6c1.2-0.2,2.2-0.4,3.2-0.7c1-0.3,1.8-0.6,2.7-0.9c0.8-0.3,1.7-0.7,2.5-0.9c0.8-0.2,1.7-0.5,2.7-0.7
			c0,0.7-0.2,1.4-0.7,2.2c-0.5,0.7-1.1,1.7-1.7,2.7c-0.6,1.1-1.2,2.3-1.6,3.7c-0.5,1.4-0.7,3.1-0.7,5l0.1,45.1
			c0,0.5,0.2,0.9,0.6,1.3s0.8,0.7,1.4,1c0.6,0.2,1.2,0.5,2,0.6c0.7,0.2,1.5,0.2,2.3,0.2s1.7-0.2,2.6-0.3c0.8-0.2,1.6-0.5,2.2-0.9
			c0.7-0.4,1.2-0.9,1.6-1.5s0.7-1.2,0.7-2l3.2-47.6c0.1-1-0.1-2-0.5-2.9s-0.8-1.8-1.2-2.7c-0.5-0.8-0.9-1.7-1.3-2.7
			c-0.4-0.9-0.6-1.9-0.5-3.1c2-0.3,3.9-0.5,5.8-0.4s4-0.1,6-0.4c1.4-0.2,2.9-0.6,4.3-1s2.9-0.8,4.3-1.2
			C353.7,405.7,355.2,405.2,356.6,404.7z M232.5,466.4c0.8-1.1,1.7-2.2,2.5-3.1c-0.2,0.9-0.3,1.9-0.6,3c-0.2,1-0.5,2-0.7,3.1
			c-0.2,1-0.5,2-0.7,3s-0.4,1.9-0.6,2.8c-0.2,0.9-0.2,1.8-0.1,2.7c0.1,0.8,0.2,1.7,0.3,2.3c0.2,0.7,0.2,1.3,0.4,1.9
			c0.1,0.6,0.2,1.1,0.1,1.5c-0.7,0-1.4-0.1-2.1-0.2c-0.6-0.2-1.2-0.2-1.7-0.4c-0.6-0.2-1.1-0.3-1.7-0.4c-0.6-0.2-1.2-0.2-1.8-0.2
			c-1.1,0-2.1,0.1-3.1,0.2s-2,0.2-3,0.4c-1,0.2-2,0.2-3,0.4c-1,0.1-2.1,0.2-3.2,0.2c-1.2,0-2.5-0.1-3.6-0.2
			c-1.2-0.2-2.2-0.3-3.3-0.5s-2.2-0.3-3.2-0.5s-2.2-0.2-3.3-0.2c-0.8,0-1.7,0.1-2.7,0.2c-0.9,0.2-1.7,0.3-2.6,0.5
			c-0.8,0.2-1.7,0.3-2.4,0.5s-1.4,0.2-1.9,0.2c-0.1-0.7,0.1-1.2,0.5-1.7c0.4-0.4,0.9-0.8,1.4-1.3c0.6-0.4,1-1,1.4-1.5
			c0.4-0.6,0.6-1.3,0.5-2.3l-5.4-46.4c-0.2-2-0.7-3.6-1.4-4.7s-1.4-2.1-2.2-2.8c-0.8-0.7-1.5-1.4-2.2-2.1s-1.2-1.6-1.3-2.8
			c1.6-0.1,3.1,0,4.7,0.2c1.5,0.2,3.1,0.5,4.5,0.8c1.5,0.2,2.9,0.6,4.3,0.8c1.4,0.2,2.9,0.3,4.5,0.2c1.8-0.1,3.6-0.3,5.3-0.9
			c1.7-0.5,3.5-1.1,5.1-1.7c1.7-0.6,3.4-1.2,5.1-1.7c1.7-0.5,3.5-0.8,5.3-0.9c0,0.5-0.7,1.2-1.8,2.3c-1.2,1-2.5,2.2-3.8,3.7
			c-1.3,1.4-2.6,3.1-3.6,4.8c-1.1,1.7-1.6,3.6-1.6,5.6c-0.1,2.7-0.1,5.1-0.1,7.5c0,2.2,0,4.4,0,6.5v19.9c0,2.7,0.1,4.7,0.1,6.3
			c0.1,1.5,0.2,2.7,0.6,3.4c0.3,0.7,0.8,1.3,1.6,1.6s1.7,0.4,3,0.4c1.8,0,3.5-0.2,4.9-0.6c1.5-0.3,2.8-0.8,4-1.5s2.3-1.4,3.3-2.2
			c1-0.9,1.9-1.8,2.8-2.8C230.9,468.5,231.7,467.5,232.5,466.4z"/>
		<path class="st60" d="M90.1,480.1c-0.6-0.8-1.1-2-1.7-3.3c-0.6-1.4-1.2-3-1.7-4.9c-0.7-2-1.2-4.1-2-6.5c-0.7-2.5-1.5-5.1-2.2-8
			c-0.8-3.1-1.7-6.2-2.6-9.5c-1-3.5-2-7-3.1-10.7c-1.2-3.8-2.3-7.6-3.5-11.3c-0.2-1.2-0.2-2.4,0-3.5c0.1-1.1,0.2-2.1,0.4-3.1
			c0.2-1,0.3-2,0.4-3c0.2-1,0.2-2.1,0-3.4c-1.3-0.4-2.7-0.6-3.9-0.6c-1.2,0-2.5,0-3.6,0.1c-1.2,0.1-2.5,0.1-3.8,0.1
			c-1.3,0-2.7-0.2-4.3-0.7c-1.6-0.4-3.1-1.1-4.6-1.8c-1.5-0.8-3.1-1.7-4.6-2.6c-1.6-0.9-3.2-1.7-4.8-2.7c-1.7-0.9-3.4-1.6-5.1-2.1
			c0.3,1.2,0.8,2.4,1.4,3.5c0.6,1.1,1.2,2.1,1.7,3.1c0.6,1,1.2,1.9,1.7,2.9c0.5,0.9,0.9,1.9,1.2,2.8c0,4.1,0.2,8.5,0.5,12.8
			c0.2,4.2,0.7,8.4,1,12.4c0.4,3.9,0.7,7.6,1.2,11.2c0.4,3.4,0.7,6.6,1,9.6c0.2,2.8,0.4,5.5,0.5,7.8s0.1,4.3-0.1,6
			c-0.2,1.7-0.5,3.1-0.9,4.2c-0.5,1.2-1.2,1.9-2,2.4h0.2c0.7,0,1.5-0.1,2.2-0.2s1.3-0.2,2.1-0.3c0.7-0.1,1.3-0.2,2.1-0.3
			c0.7-0.1,1.4-0.2,2.2-0.2c1,0,1.9,0.1,2.8,0.2c0.9,0.2,1.8,0.2,2.7,0.4c0.9,0.2,1.8,0.3,2.7,0.4c0.9,0.2,1.7,0.2,2.6,0.2
			c0.2,0,0.3,0,0.5,0s0.3,0,0.5-0.1c-1.2-0.7-2.3-1.7-3.1-2.7c-0.8-1-1.5-2.2-1.7-3.4c-0.2-0.5-0.2-1-0.2-1.5s0-1,0.1-1.5l12.1,0.4
			c0.4,0.7,0.7,1.4,0.8,2.2c0.1,0.5,0.1,1,0.1,1.4c0,0.5-0.1,1-0.2,1.4c-0.1,0.5-0.2,0.9-0.2,1.4s0,0.9,0.1,1.4
			c1.2,0,2.4-0.1,3.5-0.2s2.2-0.2,3.2-0.2c0.9,0,1.8,0.1,2.7,0.2c0.9,0.1,1.8,0.2,2.7,0.2c0.8,0.1,1.7,0.2,2.6,0.2
			c0.8,0.1,1.6,0.2,2.3,0.2C91.2,481.5,90.7,481,90.1,480.1z M61.5,466l0.6-22l9.2,22.6L61.5,466z M42.6,462.7c0.2,3,0,5.6-0.7,8.1
			s-2,4.6-3.6,6.4c-1.7,1.8-3.8,3.3-6.3,4.3c-2.6,1.1-5.5,1.7-8.7,1.7c-1.7,0-3.5-0.1-5.2-0.4c-1.8-0.3-3.6-0.6-5.5-1
			c-1.8-0.3-3.7-0.7-5.6-1s-3.9-0.5-5.9-0.5c-1.3,0-2.7,0.2-4,0.5c-1.4,0.3-2.7,0.7-4.1,1.2s-2.7,0.8-4,1.2
			c-1.2,0.4-2.4,0.6-3.4,0.6c-0.1-2.2,0.2-4.1,0.7-5.8c0.6-1.7,1.2-3.3,2-5s1.3-3.5,1.9-5.3c0.6-1.9,0.7-4.1,0.7-6.9
			c-0.1-2.2-0.3-4.4-0.6-6.5c-0.2-2.1-0.5-4.1-0.7-6s-0.5-3.6-0.7-5.3c-0.2-1.7-0.3-3.1-0.4-4.5c1.1,0.2,2.2,1.1,3.3,2.6
			s2.4,3.4,3.8,5.6s3,4.6,4.7,7.1s3.6,4.9,5.9,7c2.2,2.2,4.6,4,7.3,5.4s5.6,2.2,8.7,2.4c0.7,0,1.5-0.1,2.2-0.3
			c0.7-0.2,1.2-0.7,1.6-1.2s0.7-1.1,1-1.7c0.2-0.7,0.3-1.3,0.2-2.1c-0.2-2.5-0.9-4.9-2.1-7c-1.2-2.2-2.7-4.3-4.6-6.4
			s-4.1-4.2-6.5-6.3s-5.1-4.3-7.8-6.5s-5.6-4.6-8.3-7c-2.8-2.5-5.4-5.1-7.7-7.8c-2.4-2.7-4.3-5.6-5.9-8.7s-2.4-6.2-2.6-9.4
			c-0.2-2.9,0.5-5.5,2.1-7.5c1.5-2.1,3.5-3.6,6-4.6c2.4-1,5.2-1.5,8.3-1.4c3,0.1,6.1,0.7,9.3,1.9c1.9,0.7,3.8,1.5,5.6,2.4
			c1.7,0.9,3.5,1.7,5.1,2.7c1.7,0.9,3.2,1.7,4.8,2.5c1.6,0.8,3.1,1.5,4.6,2c1,0.3,1.9,0.6,2.7,0.7s1.7,0.2,2.4,0.2
			c0.7,0,1.5,0.1,2.2,0.2s1.5,0.2,2.3,0.6c-0.8,4.4-1.7,8.8-2.8,13.3c-1.1,4.6-2.2,9.3-3.3,14.1c-0.4-1.4-0.8-2.8-1.3-4.4
			c-0.5-1.5-1.1-3.1-1.8-4.6c-0.7-1.5-1.5-3-2.4-4.5s-2.1-2.8-3.3-4.1c-1.3-1.3-2.8-2.5-4.6-3.6c-1.7-1.1-3.7-2-6-2.7
			c-1-0.3-2-0.5-2.9-0.5s-1.7,0.2-2.4,0.5s-1.2,0.8-1.7,1.5c-0.4,0.7-0.6,1.5-0.5,2.6c0.1,1.2,0.7,2.7,2,4.5
			c1.2,1.7,2.8,3.6,4.8,5.6c1.9,2,4.1,4.1,6.5,6.2c2.3,2.2,4.6,4.3,7,6.5c2.3,2.2,4.6,4.5,6.7,6.9c2.2,2.3,4.1,4.6,5.7,7
			c1.7,2.3,3,4.8,4.1,7.2C41.7,457.5,42.4,460.1,42.6,462.7z M138,441.2c-0.6-2.9-1.4-5.8-2.6-8.7c-1.2-3-2.8-5.7-4.9-8.1
			c-2.2-2.5-4.8-4.6-8-6.3c-3.3-1.7-7.2-2.7-11.8-3c-1.5-0.1-3,0-4.3,0.2c-1.4,0.2-2.8,0.4-4.1,0.7c-1.4,0.2-2.8,0.5-4.2,0.7
			c-1.5,0.2-3,0.2-4.6,0.2c-1.2-0.1-2.2-0.2-3.4-0.7c-1.2-0.3-2.3-0.7-3.5-1.2c-1.2-0.4-2.3-0.8-3.5-1.2c-1.2-0.4-2.3-0.6-3.5-0.7
			c0.2,0.9,0.8,2.2,1.7,3.6c0.9,1.4,1.8,2.9,2.8,4.5s1.9,3.1,2.8,4.7s1.5,3.1,1.8,4.5l10.4,42.1c0.2,0.9,0.2,1.7,0.2,2.7
			c-0.1,0.8-0.2,1.7-0.6,2.4c-0.2,0.7-0.6,1.5-1,2.2c-0.3,0.7-0.7,1.4-1.1,2.2c0.9,0,1.7-0.1,2.6-0.2c0.8-0.1,1.7-0.2,2.4-0.4
			c0.8-0.2,1.6-0.3,2.4-0.4c0.8-0.2,1.7-0.2,2.6-0.2c1.2,0,2.5,0.1,3.7,0.2c1.2,0.2,2.4,0.3,3.6,0.5s2.3,0.3,3.6,0.5
			c1.2,0.2,2.3,0.2,3.6,0.2c2.8,0,5.2-0.2,7.1-1c2-0.7,3.6-1.7,4.9-2.9c1.3-1.2,2.4-2.7,3.1-4.4c0.8-1.7,1.4-3.6,1.8-5.5
			c0.4-2,0.7-4,0.8-6.1c0.2-2.2,0.2-4.1,0.2-6c0-2.2-0.1-4.5-0.2-7C138.8,446.7,138.5,444,138,441.2z M124,470.9
			c-0.4,0.7-1.1,1.2-1.8,1.7c-0.7,0.5-1.7,0.8-2.7,1.2c-1,0.2-2.1,0.4-3.1,0.3c-0.4,0-0.8,0-1.2-0.1c-0.4,0-0.8-0.1-1.2-0.2l-7-44.3
			c0.6-0.1,1.2-0.2,1.7-0.2c0.6-0.1,1.2-0.1,1.8,0c1.3,0.1,2.7,0.3,4,0.7c1.3,0.4,2.5,1,3.6,1.8c1.1,0.7,1.9,1.7,2.6,2.7
			s1.1,2.2,1.2,3.5l2.7,30.6C124.6,469.5,124.4,470.3,124,470.9z M413.6,402c-0.8-3.6-2.3-6.5-4.5-8.6c-2.1-2.1-4.8-3.2-8-3.4
			c-3.1-0.2-6.8,0.8-10.9,3c-1.5,0.7-2.9,1.6-4.2,2.5c-1.3,0.9-2.6,1.8-3.9,2.7c-1.2,0.9-2.5,1.7-3.7,2.7c-1.2,0.8-2.5,1.6-3.8,2.2
			c-1.2,0.6-2.2,1-3.3,1.2c-1,0.2-2,0.3-2.9,0.4s-1.8,0.2-2.7,0.3c-0.9,0.2-1.8,0.5-2.7,1c0,1,0.2,1.8,0.5,2.6
			c0.3,0.7,0.7,1.6,1.2,2.6c0.4,1,0.8,2.2,1.2,3.6c0.3,1.4,0.5,3.2,0.4,5.6l-1,50.1c0,1.3-0.2,2.5-0.6,3.5c-0.4,1.1-0.8,2-1.2,2.8
			c-0.4,0.8-0.8,1.6-1.2,2.2c-0.3,0.7-0.5,1.2-0.6,1.8c0.6,0,1.2,0,1.8-0.2c0.7-0.2,1.3-0.3,2-0.6c0.7-0.2,1.5-0.4,2.2-0.6
			c0.8-0.2,1.7-0.2,2.7-0.2c1.3,0.1,2.6,0.2,3.6,0.4s2,0.5,2.9,0.8s1.8,0.6,2.7,0.8c0.9,0.2,1.9,0.4,3,0.5c0-0.7-0.2-1.3-0.7-1.9
			c-0.5-0.7-1-1.3-1.6-2.1c-0.6-0.7-1.1-1.7-1.6-2.7c-0.4-1-0.7-2.2-0.6-3.6l1-22.1c1.5,0.4,2.9,0.7,4.3,0.7c1.4,0.1,2.8,0,4.1-0.2
			c2.2-0.3,4.4-1,6.4-2.1c2.1-1.1,4.1-2.4,5.9-4.1c1.9-1.7,3.6-3.6,5.1-5.8c1.6-2.2,3-4.6,4.2-7.2c1.2-2.7,2.3-5.4,3.1-8.2
			c0.8-2.9,1.4-5.8,1.7-8.6C414.5,409.6,414.4,405.7,413.6,402z M393.2,421c-0.1,1.7-0.4,3.6-1,5.4c-0.5,1.8-1.2,3.5-2.1,5
			c-0.8,1.5-1.8,2.7-3.1,3.8c-1.2,1-2.4,1.7-3.9,2.1c-0.5,0.1-1.1,0.2-1.7,0.2s-1.2,0-1.8-0.1l1.7-23.9c0.7-0.6,1.4-1.1,2.1-1.6
			c0.7-0.4,1.3-0.7,1.9-1.1c1.4-0.6,2.7-0.7,3.6-0.4c1,0.3,1.9,1,2.6,2s1.2,2.2,1.4,3.7C393.3,417.7,393.3,419.2,393.2,421z
			 M276.6,408.4c0.9-0.4,1.9-0.8,2.9-1c-1.1,4.9-2.2,9.6-3.2,14.2c-1.1,4.4-1.7,8.7-2.2,12.8c-0.2,1.2-0.2,2.5-0.2,3.8
			c-0.1,1.2-0.1,2.5,0,3.6c-1-1.6-2.1-3.4-3.1-5.3c-1.1-2-2.2-3.7-3.6-5.4c-1.3-1.7-2.9-3-4.7-3.9c-1.7-0.9-3.9-1.2-6.3-0.7
			c-0.6,0.1-1.2,0.2-1.9,0.5c-0.7,0.2-1.3,0.5-2,0.9c-0.6,0.4-1.2,0.8-1.6,1.3c-0.4,0.5-0.6,1.2-0.7,1.9l-0.2,18.2h1.9
			c1.1-0.2,2.2-0.4,3.1-0.9c1-0.5,1.9-1,2.8-1.7s1.8-1.4,2.7-2.2c0.8-0.8,1.7-1.6,2.6-2.3c-0.1,0.9-0.2,1.8-0.3,2.8
			c-0.2,0.9-0.3,1.9-0.6,2.8c-0.2,0.9-0.4,1.9-0.6,2.8s-0.2,1.9-0.3,2.8c-0.1,1.5,0,3,0.2,4.4s0.5,2.8,0.7,4.1
			c-1,0.1-1.8-0.1-2.6-0.5c-0.7-0.4-1.6-0.8-2.3-1.3c-0.7-0.5-1.6-0.9-2.4-1.3c-0.8-0.4-1.7-0.6-2.7-0.4l-2.2,0.2l-0.2,14.7
			c0,0.7,0.2,1.2,0.4,1.6s0.7,0.7,1.2,0.8c0.5,0.2,1,0.2,1.6,0.3c0.6,0.1,1.2,0.1,1.7,0c1.5-0.1,2.8-0.3,3.9-0.8
			c1.2-0.5,2.2-1.2,3-1.9c0.9-0.8,1.7-1.7,2.4-2.7c0.7-1,1.5-2.1,2.2-3.1c0.7-1.1,1.6-2.2,2.4-3.2c0.8-1.1,1.8-2.1,3-2.9
			c-0.2,0.9-0.2,1.8-0.4,2.7c-0.1,0.9-0.2,1.8-0.3,2.7c-0.3,3.4-0.4,6.7-0.3,9.9c0.2,3.1,0.6,6.1,1.3,8.9c-0.9,0-1.7-0.1-2.5-0.3
			c-0.7-0.2-1.6-0.5-2.3-0.8c-0.7-0.3-1.6-0.6-2.3-0.8c-0.7-0.2-1.6-0.3-2.5-0.3c-1,0-2,0.1-3,0.2c-0.9,0.2-1.9,0.3-2.8,0.4
			c-0.9,0.2-1.8,0.3-2.8,0.4c-0.9,0.2-1.9,0.2-2.9,0.2c-0.8,0-1.7-0.1-2.4-0.2c-0.7-0.2-1.5-0.2-2.2-0.4c-0.7-0.2-1.4-0.2-2.1-0.4
			s-1.4-0.2-2.1-0.2c-0.7,0-1.2,0.1-1.7,0.2s-1.1,0.2-1.6,0.2c-0.5,0.1-1.1,0.2-1.7,0.2c-0.6,0.1-1.2,0.2-1.8,0.2
			c1.2-4.2,1.9-8.8,2.2-13.6c0.3-5.1,0.4-10.3,0.2-15.9c-0.2-5.5-0.7-11.1-1.4-16.9c-0.7-6-2-12.1-3.6-18.1c0.7-0.2,1.2-0.2,1.8-0.2
			s1.2,0,1.8,0s1.2,0,1.9,0s1.3-0.1,2.1-0.2c1.2-0.2,2.5-0.7,3.6-1.2c1.2-0.5,2.4-1.1,3.6-1.7s2.4-1.2,3.6-1.7
			c1.2-0.6,2.5-1,3.8-1.3c1.1-0.2,2.2-0.4,3.2-0.4s2.1,0,3.1,0c1.1,0,2.2,0,3.3,0s2.3-0.2,3.6-0.5c1.1-0.2,2.1-0.6,3.1-1
			s1.9-0.9,2.8-1.4C274.8,409.3,275.7,408.8,276.6,408.4z M186.6,439.8c-0.6-2.7-1.3-5.5-2.5-8.1c-1.1-2.7-2.7-5.1-4.6-7.3
			c-2-2.2-4.5-4-7.4-5.4c-3-1.4-6.5-2.2-10.7-2.4c-1.3-0.1-2.7,0-4,0.2c-1.2,0.2-2.6,0.4-3.8,0.6s-2.6,0.4-3.9,0.6
			c-1.3,0.2-2.7,0.2-4.2,0.2c-1-0.1-2-0.2-3-0.5s-2-0.6-3-0.9s-2-0.7-3-0.9c-1-0.3-2-0.5-3-0.5c0.1,0.7,0.5,1.7,1.1,2.9
			c0.6,1.2,1.2,2.4,2,3.7c0.7,1.3,1.3,2.7,2,4.1c0.6,1.4,1,2.7,1.2,3.9l5.3,41.6c0.2,1,0.1,2-0.1,2.9c-0.2,0.9-0.5,1.8-0.9,2.7
			c-0.4,0.9-0.8,1.7-1.3,2.6c-0.5,0.8-1,1.7-1.4,2.5c0.9,0.1,1.8,0,2.7-0.1s1.7-0.2,2.7-0.4s1.7-0.3,2.7-0.4s1.8-0.2,2.8-0.1
			c1.3,0.1,2.7,0.2,4,0.4c1.3,0.2,2.6,0.5,3.9,0.7c1.2,0.2,2.6,0.5,3.8,0.7s2.6,0.3,3.9,0.4c3.1,0.2,5.7-0.2,8-0.9
			c2.2-0.7,4.1-1.8,5.5-3.2c1.5-1.4,2.7-3.1,3.6-5s1.6-4,2.1-6.1c0.5-2.2,0.7-4.4,0.9-6.6s0.2-4.4,0.2-6.4c0-2.2-0.1-4.6-0.2-7.2
			C187.5,445.2,187.2,442.5,186.6,439.8z M171.5,470.4c-0.5,0.7-1.2,1.4-2,1.9s-1.8,0.9-2.9,1.2s-2.2,0.3-3.4,0.3
			c-0.4,0-0.8-0.1-1.2-0.1c-0.4-0.1-0.8-0.2-1.2-0.3l-3.6-44.3c0.6-0.1,1.2-0.1,1.7-0.2c0.6-0.1,1.1-0.1,1.7,0
			c1.2,0.1,2.5,0.2,3.7,0.7c1.2,0.4,2.3,0.9,3.3,1.6s1.7,1.5,2.3,2.5c0.6,0.9,0.9,2,1,3.2l1.4,31C172.2,468.7,172,469.6,171.5,470.4
			z M356.6,404.7c1.4-0.4,2.9-0.7,4.4-1c-0.2,1.2-0.7,2.4-1.6,3.6c-0.8,1.2-1.7,2.7-2.7,4.2c-1,1.6-1.9,3.4-2.8,5.4
			s-1.5,4.3-1.9,6.9l-6.5,46.6c-0.2,1.3-0.8,2.7-1.9,4.1s-2.6,2.7-4.5,3.9c-1.8,1.2-4.1,2.2-6.6,2.8c-2.5,0.7-5.4,1.1-8.6,1.1
			s-6-0.4-8.5-1.2c-2.4-0.8-4.4-1.8-6-3c-1.7-1.2-2.9-2.5-3.8-3.9s-1.4-2.7-1.5-4l-3.8-46.3c-0.1-1.4-0.4-2.6-0.8-3.5
			s-0.9-1.7-1.4-2.2c-0.5-0.6-1-1.2-1.3-1.7c-0.4-0.5-0.7-1.1-0.7-1.8c1-0.2,2-0.2,3.1-0.2c1.2,0,2.4,0,3.7,0.1c1.3,0,2.8,0,4.4,0
			c1.6-0.1,3.3-0.2,5.1-0.6c1.2-0.2,2.2-0.4,3.2-0.7c1-0.3,1.8-0.6,2.7-0.9c0.8-0.3,1.7-0.7,2.5-0.9c0.8-0.2,1.7-0.5,2.7-0.7
			c0,0.7-0.2,1.4-0.7,2.2c-0.5,0.7-1.1,1.7-1.7,2.7c-0.6,1.1-1.2,2.3-1.6,3.7c-0.5,1.4-0.7,3.1-0.7,5l0.1,45.1
			c0,0.5,0.2,0.9,0.6,1.3s0.8,0.7,1.4,1c0.6,0.2,1.2,0.5,2,0.6c0.7,0.2,1.5,0.2,2.3,0.2s1.7-0.2,2.6-0.3c0.8-0.2,1.6-0.5,2.2-0.9
			c0.7-0.4,1.2-0.9,1.6-1.5s0.7-1.2,0.7-2l3.2-47.6c0.1-1-0.1-2-0.5-2.9s-0.8-1.8-1.2-2.7c-0.5-0.8-0.9-1.7-1.3-2.7
			c-0.4-0.9-0.6-1.9-0.5-3.1c2-0.3,3.9-0.5,5.8-0.4s4-0.1,6-0.4c1.4-0.2,2.9-0.6,4.3-1s2.9-0.8,4.3-1.2
			C353.7,405.7,355.2,405.2,356.6,404.7z M232.5,466.4c0.8-1.1,1.7-2.2,2.5-3.1c-0.2,0.9-0.3,1.9-0.6,3c-0.2,1-0.5,2-0.7,3.1
			c-0.2,1-0.5,2-0.7,3s-0.4,1.9-0.6,2.8c-0.2,0.9-0.2,1.8-0.1,2.7c0.1,0.8,0.2,1.7,0.3,2.3c0.2,0.7,0.2,1.3,0.4,1.9
			c0.1,0.6,0.2,1.1,0.1,1.5c-0.7,0-1.4-0.1-2.1-0.2c-0.6-0.2-1.2-0.2-1.7-0.4c-0.6-0.2-1.1-0.3-1.7-0.4c-0.6-0.2-1.2-0.2-1.8-0.2
			c-1.1,0-2.1,0.1-3.1,0.2s-2,0.2-3,0.4c-1,0.2-2,0.2-3,0.4c-1,0.1-2.1,0.2-3.2,0.2c-1.2,0-2.5-0.1-3.6-0.2
			c-1.2-0.2-2.2-0.3-3.3-0.5s-2.2-0.3-3.2-0.5s-2.2-0.2-3.3-0.2c-0.8,0-1.7,0.1-2.7,0.2c-0.9,0.2-1.7,0.3-2.6,0.5
			c-0.8,0.2-1.7,0.3-2.4,0.5s-1.4,0.2-1.9,0.2c-0.1-0.7,0.1-1.2,0.5-1.7c0.4-0.4,0.9-0.8,1.4-1.3c0.6-0.4,1-1,1.4-1.5
			c0.4-0.6,0.6-1.3,0.5-2.3l-5.4-46.4c-0.2-2-0.7-3.6-1.4-4.7s-1.4-2.1-2.2-2.8c-0.8-0.7-1.5-1.4-2.2-2.1s-1.2-1.6-1.3-2.8
			c1.6-0.1,3.1,0,4.7,0.2c1.5,0.2,3.1,0.5,4.5,0.8c1.5,0.2,2.9,0.6,4.3,0.8c1.4,0.2,2.9,0.3,4.5,0.2c1.8-0.1,3.6-0.3,5.3-0.9
			c1.7-0.5,3.5-1.1,5.1-1.7c1.7-0.6,3.4-1.2,5.1-1.7c1.7-0.5,3.5-0.8,5.3-0.9c0,0.5-0.7,1.2-1.8,2.3c-1.2,1-2.5,2.2-3.8,3.7
			c-1.3,1.4-2.6,3.1-3.6,4.8c-1.1,1.7-1.6,3.6-1.6,5.6c-0.1,2.7-0.1,5.1-0.1,7.5c0,2.2,0,4.4,0,6.5v19.9c0,2.7,0.1,4.7,0.1,6.3
			c0.1,1.5,0.2,2.7,0.6,3.4c0.3,0.7,0.8,1.3,1.6,1.6s1.7,0.4,3,0.4c1.8,0,3.5-0.2,4.9-0.6c1.5-0.3,2.8-0.8,4-1.5s2.3-1.4,3.3-2.2
			c1-0.9,1.9-1.8,2.8-2.8C230.9,468.5,231.7,467.5,232.5,466.4z"/>
	</g>
</g>
</svg>
