<?xml version="1.0" encoding="utf-8"?>
<!-- Generator: Adobe Illustrator 19.0.1, SVG Export Plug-In . SVG Version: 6.00 Build 0)  -->
<svg version="1.1" id="Layer_1" xmlns="http://www.w3.org/2000/svg" xmlns:xlink="http://www.w3.org/1999/xlink" x="0px" y="0px"
	 viewBox="0 0 792 612" style="enable-background:new 0 0 792 612;" xml:space="preserve">
<style type="text/css">
	.st0{fill:#ED1C2E;}
	.st1{fill:#FFFFFF;}
	.st2{fill-rule:evenodd;clip-rule:evenodd;fill:#FFFFFF;}
</style>
<circle class="st0" cx="-415" cy="314.1" r="144"/>
<g>
	<circle class="st1" cx="-445.8" cy="375.6" r="56.9"/>
	<path class="st0" d="M-439.2,389.4c7.8-3.7,11.1-13.1,7.4-20.9c-3.7-7.8-13.1-11.1-20.9-7.4c-7.8,3.7-11.1,13.1-7.4,20.9
		C-456.3,389.9-447,393.2-439.2,389.4 M-432.8,402.8c15-7.2,21.4-25.2,14.2-40.2c-7.2-15-25.2-21.4-40.2-14.2
		c-15,7.2-21.4,25.1-14.2,40.2C-465.8,403.6-447.8,409.9-432.8,402.8z M-486.7,395.1c-10.8-22.6-1.2-49.7,21.4-60.5
		c22.6-10.8,49.7-1.2,60.5,21.3c10.8,22.6,1.2,49.7-21.4,60.5C-448.9,427.3-475.9,417.7-486.7,395.1z"/>
</g>
<path class="st2" d="M-351.9,208.1c-3.3-3.6-7.2-6.2-11.7-8.1c-4.3-1.8-8.8-2.6-13.5-2.5c-2.9,0.1-5.8,0.6-8.6,1.4
	c-1.7,0.5-3.3,1.1-4.9,1.9c-1.3,0.6-2.6,1.3-3.8,2.1c-4,2.6-7.4,5.8-10.3,9.5c-3.3,4.3-5.8,9-7.6,14c-1.4,3.8-2.3,7.7-2.8,11.7
	c-0.3,2.4-0.4,4.7-0.4,7.1c0,4.1,0.4,8.1,1.3,12.1c0.7,3.3,0.9,6.7,0.5,10.1c-0.4,4.1-1.5,8-3.1,11.8c-1.5,3.6-3.4,6.9-5.7,10
	c-0.5,0.8-1,1.6-1.4,2.4c-1,2.1-0.8,4.2,0.5,6.2c1.4,2.2,3.1,4.1,5,5.7c4.2,3.7,9.1,6.2,14.6,7.6c4.1,1,8.2,1.2,12.3,0.2
	c1.7-0.4,2.9-1.3,3.4-3.1c0.2-0.6,0.3-1.3,0.4-1.9c0.1-0.6,0.2-1.1,0.3-1.7c0.5-2.7,1.3-5.4,2.4-7.9c1-2.3,2.2-4.5,3.6-6.6
	c2.4-3.6,5.2-6.8,8.5-9.6c1.4-1.2,3-2.3,4.6-3.4c2.3-1.5,4.4-3.3,6.4-5.1c1.8-1.6,3.4-3.3,4.9-5.3c1.6-2.1,3.1-4.1,4.5-6.3
	c2.6-4,4.8-8.3,6.5-12.8c1.8-4.8,2.9-9.7,3-14.8c0.1-4.9-0.6-9.6-2.2-14C-346.8,214.9-349,211.3-351.9,208.1z"/>
<path class="st2" d="M-325.5,311.8c-5-9.8-32.4-33-41.3-19.7c-9.5,14.2-4.9,30-27.6,30.3c-20.2,0-55-20.7-38.5-44.1
	c6.9-9.8,10.9-16.5,0.6-23.6c-9-6.2-19.7-11.7-30.9-12.1c-23.1-0.7-32.6,20.8-22.2,39.5c12.4,22.4,34.4,41.4,56.9,52.4
	c21.8,10.7,49.6,16,74.2,15.2C-332.3,349.1-313.3,335.4-325.5,311.8C-326.8,309.3-324.1,314.4-325.5,311.8z"/>
<circle class="st0" cx="377.9" cy="314.3" r="144"/>
<path class="st2" d="M341.7,216.3c-8.8,26.6-10,23-18.6,49c9.9,4.7,2,11.2,1.7,17.1c10.8,7,11.4,8.8,7.2,21.4
	c-4.8,14.4-9.6,28.9-14.4,43.3c-4,12-5.6,13-18.2,12.1c-0.5,1.4-1,2.8-1.6,4.3c-3.2,9.4-4.3,10.1-14,7.3c-15-4.4-23-15.5-26.9-29.9
	c-6.6-24.6,3.5-54.5,24-69.6c5.9-4.3,13.5-6.2,20.2-9.4c1.8-0.9,4.1-2.4,4.6-4.1c8.3-24.3,9.1-19.4,17-43.8
	c4.2-12.9,14.4-18.7,27.2-14.5c40.7,13.4,81.4,26.9,122.1,40.4c11.7,3.9,17.2,14.1,13.4,25.8c-8.1,25-9.3,20.5-17.4,45.5
	c-0.6,1.8,0.4,4.9,1.8,6.4c27.4,30.3,9.4,89.7-30.2,99.3c-8.4,2-16.4,0.9-24.2-2.9c-4.6-2.2-7-5-4.1-10.1c0.6-1,0.7-2.2,1.1-3.2
	c-11-7.7-11.4-9.1-7.1-22.1c4.7-14.3,9.5-28.5,14.2-42.8c3.9-11.9,5.7-13.1,18.4-12.1c0.9-2.8,2-5.7,2.9-8.7c1.1-3.6,1.9-7.3,7-7.4
	c1,0,2.5-1.8,2.9-3.1c8.4-24.9,9.3-20.5,17.8-46.2C426.2,244.2,384.3,230.4,341.7,216.3z"/>
<circle class="st0" cx="1201.1" cy="314" r="144"/>
<path class="st2" d="M1166.2,409.3c16.3,6.3,24.7,15.4,40,19.8c43,12.2,85.5-18.1,61.4-68c-3.7-7.6-13.1-16.3-17.2-23.7
	c-4.4-7.9-6.3-16.1-7.4-24.9c-2.1-16.2-13.8-32.4-31.6-32.9c-18.2-0.5-31.1,8.1-44.3,19.5c-6.7,5.7-13.6,11.2-21.1,15.7
	c-8.1,4.8-17,8-25.5,12c-14.7,6.9-27.7,20.5-27.9,38.2c-0.1,14.1,8.8,26.1,26.8,33.7C1125.7,401.3,1148.9,402.6,1166.2,409.3z"/>
<ellipse transform="matrix(0.9153 0.4028 -0.4028 0.9153 207.7613 -431.3941)" class="st2" cx="1129.5" cy="278.2" rx="26.1" ry="34.3"/>
<ellipse transform="matrix(0.8912 0.4536 -0.4536 0.8912 237.2862 -515.0763)" class="st2" cx="1192.4" cy="237.1" rx="24.8" ry="35.9"/>
<ellipse transform="matrix(0.8684 0.4959 -0.4959 0.8684 287.405 -591.1984)" class="st2" cx="1257.5" cy="245.8" rx="24.9" ry="36.1"/>
<ellipse transform="matrix(0.8684 0.4959 -0.4959 0.8684 321.7944 -598.1982)" class="st2" cx="1287.9" cy="307.1" rx="27.1" ry="36.1"/>
<g>
	<circle class="st1" cx="365.9" cy="351.2" r="56.9"/>
	<path class="st0" d="M350.7,353.6c1.3,8.5,9.4,14.4,17.9,13c8.5-1.3,14.4-9.4,13-17.9c-1.3-8.5-9.4-14.4-17.9-13
		C355.2,337.1,349.4,345.1,350.7,353.6 M336.1,355.9c2.6,16.4,18,27.6,34.4,25.1c16.4-2.6,27.6-18,25-34.4
		c-2.6-16.4-18-27.6-34.4-25C344.8,324.1,333.5,339.5,336.1,355.9z M358.8,306.4c24.7-3.9,47.9,13,51.8,37.7
		c3.9,24.7-13,48-37.7,51.9c-24.7,3.9-48-13-51.9-37.7C317.2,333.6,334.1,310.3,358.8,306.4z"/>
</g>
<g>
	<circle class="st1" cx="1192.3" cy="355.4" r="56.9"/>
	<path class="st0" d="M1177.1,357.8c1.3,8.5,9.4,14.4,17.9,13c8.5-1.3,14.4-9.4,13-17.9c-1.3-8.5-9.4-14.4-17.9-13
		C1181.6,341.2,1175.8,349.2,1177.1,357.8 M1162.5,360.1c2.6,16.4,18,27.6,34.4,25.1c16.4-2.6,27.6-18,25-34.4
		c-2.6-16.4-18-27.6-34.4-25C1171.1,328.2,1159.9,343.6,1162.5,360.1z M1185.2,310.6c24.7-3.9,47.9,13,51.8,37.7
		c3.9,24.7-13,48-37.7,51.9c-24.7,3.9-48-13-51.9-37.7C1143.6,337.7,1160.5,314.5,1185.2,310.6z"/>
</g>
</svg>
