<?xml version="1.0" encoding="utf-8"?>
<!-- Generator: Adobe Illustrator 22.0.1, SVG Export Plug-In . SVG Version: 6.00 Build 0)  -->
<svg version="1.1" id="Layer_1" xmlns="http://www.w3.org/2000/svg" xmlns:xlink="http://www.w3.org/1999/xlink" x="0px" y="0px"
	 viewBox="0 0 500 434" style="enable-background:new 0 0 500 434;" xml:space="preserve">
<style type="text/css">
	.st0{stroke:#FFFFFF;stroke-miterlimit:10;}
	.st1{fill:url(#SVGID_1_);}
	.st2{fill:url(#SVGID_2_);}
</style>
<g>
	<g>
		<path class="st0" d="M408.9,120.5L234.5,90.2L67.8,118.5v47l166.7-43.4L257,245.7c0,12.9,10.4,23.3,23.3,23.3l115.4,11.3
			c12.9,0,23.3-10.4,23.3-23.3l13.2-113.2C432.2,130.9,421.7,120.5,408.9,120.5z"/>
		<polygon class="st0" points="140.3,155 197.8,140.6 194,261.5 154.8,257.9 		"/>
		
			<linearGradient id="SVGID_1_" gradientUnits="userSpaceOnUse" x1="259.7271" y1="555.2973" x2="406.3875" y2="555.2973" gradientTransform="matrix(1 0 0 1 0 -356)">
			<stop  offset="0" style="stop-color:#1B75BC"/>
			<stop  offset="0.2087" style="stop-color:#308D74"/>
			<stop  offset="0.5056" style="stop-color:#8DC63F"/>
			<stop  offset="0.7279" style="stop-color:#FFD100"/>
			<stop  offset="1" style="stop-color:#ED1C24"/>
		</linearGradient>
		<path class="st1" d="M379.9,252.8v-0.4c0.2-1.8,1.6-3.1,3.1-3l12.6,1c1.5,0.1,2.4,1.7,2.1,3.4l-0.1,0.4c-0.3,1.7-1.7,3-3.2,2.9
			l-12.3-0.9C380.8,256.1,379.7,254.6,379.9,252.8z M383.3,247.8l12.7,1c1.5,0.1,3-1.3,3.3-3.1l0.1-0.4c0.3-1.9-0.7-3.5-2.2-3.6
			l-13-1c-1.5-0.1-3,1.3-3.2,3.2l-0.1,0.4C380.7,246.1,381.8,247.7,383.3,247.8z M384.4,238.9l13.1,1c1.5,0.1,3.1-1.4,3.4-3.3
			l0.1-0.5c0.3-2-0.7-3.7-2.2-3.8l-13.4-1c-1.6-0.1-3,1.4-3.3,3.4l-0.1,0.5C381.8,237.1,382.8,238.7,384.4,238.9z M385.6,229.4
			l13.4,1c1.6,0.1,3.2-1.4,3.5-3.5l0.1-0.5c0.4-2.1-0.7-3.9-2.3-4l-13.8-1.1c-1.6-0.1-3.1,1.5-3.4,3.6l-0.1,0.5
			C382.9,227.5,384,229.3,385.6,229.4z M386.8,219.4l13.9,1.1c1.6,0.1,3.3-1.5,3.7-3.7l0.1-0.5c0.4-2.2-0.7-4.2-2.3-4.3l-14.2-1.1
			c-1.7-0.1-3.3,1.6-3.5,3.8l-0.1,0.5C384.1,217.4,385.2,219.2,386.8,219.4z M388.1,208.7l14.3,1.1c1.7,0.1,3.4-1.6,3.8-4l0.1-0.6
			c0.4-2.4-0.6-4.4-2.4-4.6l-14.7-1.2c-1.7-0.1-3.4,1.7-3.6,4.1l-0.1,0.6C385.3,206.6,386.5,208.6,388.1,208.7z M362.4,254.7
			l12.4,0.9c1.5,0.1,2.8-1.2,3-2.9v-0.4c0.2-1.8-0.9-3.3-2.4-3.4l-12.7-1c-1.5-0.1-2.8,1.3-2.9,3v0.4
			C359.8,253.1,361,254.6,362.4,254.7z M362.9,246.2l12.7,1c1.5,0.1,2.9-1.3,3.1-3.1v-0.4c0.2-1.9-0.9-3.5-2.4-3.6l-13-1
			c-1.5-0.1-2.9,1.3-3,3.2v0.4C360.3,244.5,361.4,246.1,362.9,246.2z M363.4,237.2l13.1,1c1.5,0.1,3-1.4,3.2-3.3l0.1-0.5
			c0.2-2-0.9-3.7-2.5-3.8l-13.4-1c-1.6-0.1-2.9,1.4-3,3.4v0.5C360.7,235.4,361.9,237.1,363.4,237.2z M364,227.7l13.5,1
			c1.6,0.1,3.1-1.5,3.3-3.5l0.1-0.5c0.2-2.1-0.9-3.9-2.5-4.1l-13.8-1.1c-1.6-0.1-3,1.5-3.1,3.6v0.5
			C361.2,225.8,362.4,227.6,364,227.7z M364.5,217.6l13.9,1.1c1.6,0.1,3.2-1.5,3.4-3.8l0.1-0.5c0.2-2.2-0.9-4.2-2.6-4.3L365,209
			c-1.7-0.1-3.1,1.6-3.3,3.9v0.5C361.7,215.6,362.9,217.5,364.5,217.6z M365.2,206.9l14.4,1.1c1.7,0.1,3.3-1.7,3.5-4l0.1-0.6
			c0.3-2.4-0.9-4.5-2.7-4.6l-14.7-1.2c-1.7-0.1-3.2,1.7-3.4,4.1v0.6C362.2,204.7,363.5,206.8,365.2,206.9z M365.8,195.4l14.8,1.2
			c1.7,0.1,3.4-1.8,3.7-4.3l0.1-0.6c0.3-2.6-1-4.8-2.7-4.9l-15.2-1.2c-1.8-0.1-3.4,1.9-3.5,4.4v0.6
			C362.8,193.1,364.1,195.3,365.8,195.4z M366.5,183.2l15.3,1.2c1.8,0.1,3.5-1.9,3.8-4.6l0.1-0.6c0.3-2.7-1-5.1-2.8-5.3l-15.8-1.3
			c-1.9-0.2-3.5,2-3.6,4.8v0.7C363.4,180.7,364.7,183,366.5,183.2z M367.3,170.1l15.9,1.3c1.9,0.2,3.6-2,4-4.9l0.1-0.7
			c0.3-2.9-1-5.5-2.9-5.7l-16.4-1.3c-1.9-0.2-3.6,2.2-3.8,5.1v0.7C364,167.4,365.4,169.9,367.3,170.1z M342.6,253.2l12.4,0.9
			c1.5,0.1,2.7-1.2,2.8-3v-0.4c0.1-1.8-1.1-3.3-2.6-3.4l-12.7-1c-1.5-0.1-2.7,1.3-2.7,3.1v0.4C339.9,251.6,341.1,253.1,342.6,253.2z
			 M342.5,244.7l12.8,1c1.5,0.1,2.8-1.3,2.9-3.1v-0.4c0.1-1.9-1.1-3.5-2.6-3.6l-13.1-1c-1.5-0.1-2.8,1.4-2.7,3.2v0.4
			C339.7,243,341,244.6,342.5,244.7z M342.4,235.6l13.1,1c1.5,0.1,2.9-1.4,3-3.3v-0.5c0.1-2-1.1-3.7-2.7-3.9l-13.5-1
			c-1.6-0.1-2.8,1.4-2.8,3.4v0.5C339.6,233.8,340.8,235.5,342.4,235.6z M342.3,226.1l13.5,1c1.6,0.1,3-1.5,3-3.5v-0.5
			c0.1-2.1-1.2-4-2.8-4.1l-13.9-1.1c-1.6-0.1-2.9,1.5-2.9,3.7v0.5C339.4,224.1,340.7,225.9,342.3,226.1z M342.2,215.9l14,1.1
			c1.6,0.1,3.1-1.6,3.1-3.8v-0.5c0.1-2.3-1.2-4.2-2.9-4.4l-14.3-1.1c-1.7-0.1-3,1.6-3,3.9v0.5C339.2,213.9,340.6,215.8,342.2,215.9z
			 M342.1,205.1l14.4,1.1c1.7,0.1,3.2-1.7,3.3-4v-0.6c0.1-2.4-1.2-4.5-3-4.6l-14.8-1.2c-1.7-0.1-3.1,1.8-3.1,4.2v0.6
			C339,202.9,340.4,204.9,342.1,205.1z M342,193.5l14.9,1.2c1.7,0.1,3.3-1.8,3.4-4.3v-0.6c0.1-2.6-1.3-4.8-3.1-5l-15.3-1.2
			c-1.8-0.1-3.2,1.9-3.2,4.5v0.6C338.8,191.2,340.3,193.4,342,193.5z M341.9,181.2l15.4,1.2c1.8,0.1,3.4-1.9,3.5-4.6v-0.7
			c0.1-2.8-1.3-5.2-3.2-5.3l-15.8-1.3c-1.9-0.2-3.3,2-3.3,4.8v0.7C338.6,178.7,340.1,181,341.9,181.2z M341.8,168l15.9,1.3
			c1.9,0.2,3.5-2.1,3.6-5v-0.7c0.1-3-1.4-5.5-3.3-5.7l-16.4-1.4c-1.9-0.2-3.5,2.2-3.4,5.2v0.7C338.3,165.3,339.9,167.8,341.8,168z
			 M341.7,153.8l16.5,1.4c1.9,0.2,3.6-2.2,3.8-5.3V149c0.1-3.2-1.4-6-3.4-6.1l-17-1.4c-2-0.2-3.6,2.4-3.5,5.6v0.8
			C338.1,151,339.7,153.6,341.7,153.8z M322.6,251.7l12.5,0.9c1.5,0.1,2.6-1.2,2.6-3v-0.4c0-1.8-1.3-3.4-2.8-3.5l-12.7-1
			c-1.5-0.1-2.6,1.3-2.4,3.1v0.4C319.8,250.1,321.2,251.6,322.6,251.7z M322,243.1l12.8,1c1.5,0.1,2.7-1.3,2.6-3.2v-0.4
			c0-1.9-1.3-3.6-2.9-3.7l-13.1-1c-1.5-0.1-2.7,1.4-2.5,3.3v0.5C319.1,241.4,320.5,243,322,243.1z M321.3,234l13.2,1
			c1.5,0.1,2.8-1.4,2.7-3.4v-0.5c-0.1-2-1.4-3.8-3-3.9l-13.5-1c-1.6-0.1-2.7,1.4-2.6,3.5v0.5C318.3,232.2,319.7,233.9,321.3,234z
			 M320.6,224.4l13.6,1.1c1.6,0.1,2.9-1.5,2.8-3.6v-0.5c-0.1-2.1-1.4-4-3.1-4.1l-13.9-1.1c-1.6-0.1-2.8,1.5-2.6,3.7v0.5
			C317.5,222.5,319,224.3,320.6,224.4z M319.8,214.1l14,1.1c1.6,0.1,2.9-1.6,2.9-3.8v-0.5c-0.1-2.3-1.5-4.3-3.2-4.4l-14.4-1.1
			c-1.7-0.1-2.9,1.6-2.7,3.9v0.5C316.7,212.1,318.2,214,319.8,214.1z M319,203.2l14.5,1.1c1.7,0.1,3-1.7,3-4.1v-0.6
			c-0.1-2.4-1.5-4.5-3.3-4.7l-14.8-1.2c-1.7-0.1-3,1.8-2.8,4.2v0.6C315.7,201.1,317.3,203.1,319,203.2z M302.6,250.2l12.5,0.9
			c1.5,0.1,2.5-1.2,2.4-3v-0.4c-0.2-1.8-1.5-3.4-3-3.5l-12.8-1c-1.5-0.1-2.5,1.3-2.2,3.1l0.1,0.4
			C299.8,248.5,301.2,250.1,302.6,250.2z M301.4,241.5l12.8,1c1.5,0.1,2.6-1.3,2.4-3.2v-0.5c-0.2-1.9-1.6-3.6-3.1-3.7l-13.1-1
			c-1.5-0.1-2.6,1.4-2.3,3.3l0.1,0.5C298.5,239.8,299.9,241.4,301.4,241.5z M300.1,232.4l13.2,1c1.6,0.1,2.7-1.4,2.5-3.4v-0.5
			c-0.2-2-1.6-3.8-3.2-3.9l-13.5-1c-1.6-0.1-2.6,1.5-2.3,3.5l0.1,0.5C297.1,230.6,298.6,232.3,300.1,232.4z M298.8,222.7l13.6,1.1
			c1.6,0.1,2.8-1.5,2.6-3.6v-0.5c-0.2-2.1-1.7-4-3.3-4.2l-14-1.1c-1.6-0.1-2.7,1.6-2.4,3.7l0.1,0.5
			C295.6,220.8,297.2,222.6,298.8,222.7z M297.3,212.4l14.1,1.1c1.6,0.1,2.8-1.6,2.6-3.8v-0.5c-0.2-2.3-1.8-4.3-3.5-4.4l-14.4-1.1
			c-1.7-0.1-2.8,1.7-2.5,4l0.1,0.5C294,210.3,295.7,212.3,297.3,212.4z M295.8,201.4l14.5,1.1c1.7,0.1,2.9-1.7,2.7-4.1l-0.1-0.6
			c-0.2-2.4-1.8-4.6-3.6-4.7l-14.9-1.2c-1.8-0.1-2.9,1.8-2.5,4.2l0.1,0.6C292.4,199.2,294.1,201.3,295.8,201.4z M294.1,189.7l15,1.2
			c1.8,0.1,3-1.8,2.8-4.4l-0.1-0.6c-0.2-2.6-1.9-4.9-3.7-5l-15.4-1.2c-1.8-0.1-3,1.9-2.6,4.5l0.1,0.6
			C290.6,187.4,292.4,189.6,294.1,189.7z M292.4,177.2l15.5,1.3c1.8,0.1,3.1-1.9,2.9-4.7l-0.1-0.7c-0.3-2.8-2-5.2-3.9-5.4l-16-1.3
			c-1.9-0.2-3.1,2.1-2.6,4.9l0.1,0.7C288.7,174.7,290.5,177,292.4,177.2z M282.6,248.7l12.5,0.9c1.5,0.1,2.4-1.2,2.2-3l-0.1-0.4
			c-0.3-1.8-1.7-3.4-3.3-3.5l-12.8-1c-1.5-0.1-2.4,1.3-2,3.1l0.1,0.4C279.6,247,281.1,248.6,282.6,248.7z M280.8,240l12.9,1
			c1.5,0.1,2.5-1.3,2.2-3.2l-0.1-0.5c-0.3-1.9-1.8-3.6-3.4-3.7l-13.2-1c-1.6-0.1-2.5,1.4-2.1,3.3l0.1,0.5
			C277.7,238.2,279.3,239.9,280.8,240z M278.9,230.8l13.3,1c1.6,0.1,2.6-1.4,2.3-3.4l-0.1-0.5c-0.3-2-1.9-3.8-3.5-3.9l-13.6-1
			c-1.6-0.1-2.5,1.5-2.1,3.5l0.1,0.5C275.7,228.9,277.4,230.7,278.9,230.8z M276.9,221l13.7,1.1c1.6,0.1,2.6-1.5,2.3-3.6l-0.1-0.5
			c-0.3-2.2-2-4.1-3.6-4.2l-14-1.1c-1.6-0.1-2.6,1.6-2.1,3.7l0.1,0.5C273.6,219,275.3,220.9,276.9,221z M274.8,210.6l14.1,1.1
			c1.7,0.1,2.7-1.6,2.4-3.9l-0.1-0.5c-0.4-2.3-2-4.3-3.7-4.4l-14.5-1.1c-1.7-0.1-2.7,1.7-2.2,4l0.1,0.5
			C271.3,208.5,273.1,210.5,274.8,210.6z M272.5,199.6l14.6,1.1c1.7,0.1,2.8-1.7,2.4-4.1l-0.1-0.6c-0.4-2.5-2.1-4.6-3.9-4.7l-15-1.2
			c-1.8-0.1-2.8,1.8-2.2,4.3l0.1,0.6C268.9,197.4,270.8,199.4,272.5,199.6z M270,187.8l15,1.2c1.8,0.1,2.9-1.8,2.5-4.4l-0.1-0.6
			c-0.4-2.6-2.2-4.9-4.1-5.1l-15.5-1.2c-1.8-0.1-2.8,1.9-2.3,4.6l0.1,0.6C266.4,185.4,268.3,187.6,270,187.8z M267.4,175.2l15.6,1.3
			c1.8,0.1,3-2,2.5-4.7l-0.1-0.7c-0.4-2.8-2.3-5.3-4.2-5.4l-16-1.3c-1.9-0.2-2.9,2.1-2.3,4.9l0.1,0.7
			C263.6,172.7,265.6,175,267.4,175.2z M264.7,161.6l16.1,1.3c1.9,0.2,3.1-2.1,2.6-5.1l-0.1-0.7c-0.5-3-2.5-5.7-4.4-5.8l-16.6-1.4
			c-2-0.2-3,2.2-2.4,5.3l0.2,0.7C260.7,159,262.8,161.5,264.7,161.6z"/>
	</g>
	
		<linearGradient id="SVGID_2_" gradientUnits="userSpaceOnUse" x1="104.2" y1="675.15" x2="395.8" y2="675.15" gradientTransform="matrix(1 0 0 1 0 -356)">
		<stop  offset="0" style="stop-color:#1B75BC"/>
		<stop  offset="0.2087" style="stop-color:#308D74"/>
		<stop  offset="0.5056" style="stop-color:#8DC63F"/>
		<stop  offset="0.7279" style="stop-color:#FFD100"/>
		<stop  offset="1" style="stop-color:#ED1C24"/>
	</linearGradient>
	<path class="st2" d="M104.2,294.4h8.7l29.3,40.3l29.2-40.3h8v49.3h-9v-34.3l-24.7,34.3H138l-24.8-34.2v34.2h-9V294.4L104.2,294.4z
		 M232.1,336.5c5.5,0,8.3-1.8,8.3-5.3v-36.7h9.3v36.7c0,8.4-5.9,12.6-17.6,12.6h-26.2c-11.7,0-17.6-4.3-17.6-12.8v-36.6h9.3V331
		c0,3.6,2.8,5.5,8.3,5.5H232.1z M300.2,313.9c11.7,0,17.6,3.6,17.6,10.7v8.8c0,7-5.9,10.5-17.6,10.5h-42.1v-7.3h42.1
		c5.5,0,8.3-1.1,8.3-3.2v-8.8c0-2.2-2.8-3.4-8.3-3.4H274c-11.7,0-17.6-3.6-17.6-10.7v-5.4c0-7.1,5.9-10.7,17.6-10.7h40.7v7.3H274
		c-5.5,0-8.3,1.1-8.3,3.4v5.4c0,2.2,2.8,3.4,8.3,3.4L300.2,313.9L300.2,313.9z M324.5,294.4h9.3v49.3h-9.3V294.4z M395.8,336.5v7.3
		h-37.6c-11.7,0-17.6-3.8-17.6-11.4v-26.6c0-7.6,5.9-11.4,17.6-11.4h37.6v7.3h-37.6c-5.5,0-8.3,1.4-8.3,4.1v26.6
		c0,2.7,2.8,4.1,8.3,4.1H395.8z"/>
</g>
</svg>
