<?xml version="1.0" encoding="utf-8"?>
<!-- Generator: Adobe Illustrator 21.1.0, SVG Export Plug-In . SVG Version: 6.00 Build 0)  -->
<svg version="1.1" id="Layer_1" xmlns="http://www.w3.org/2000/svg" xmlns:xlink="http://www.w3.org/1999/xlink" x="0px" y="0px"
	 viewBox="0 0 792 612" enable-background="new 0 0 792 612" xml:space="preserve">
<g>
	<g>
		<path stroke="#FFFFFF" stroke-miterlimit="10" d="M554.9,209.5l-174.4-30.3l-166.7,28.3v47l166.7-43.4L403,334.7
			c0,12.9,10.4,23.3,23.3,23.3l115.4,11.3c12.9,0,23.3-10.4,23.3-23.3l13.2-113.2C578.2,219.9,567.7,209.5,554.9,209.5z"/>
		<polygon stroke="#FFFFFF" stroke-miterlimit="10" points="286.3,244 343.8,229.6 340,350.5 300.8,346.9 		"/>
		<linearGradient id="SVGID_1_" gradientUnits="userSpaceOnUse" x1="405.7039" y1="288.308" x2="552.4329" y2="288.308">
			<stop  offset="0" style="stop-color:#1B75BC"/>
			<stop  offset="0.2087" style="stop-color:#308D74"/>
			<stop  offset="0.5056" style="stop-color:#8DC63F"/>
			<stop  offset="0.7279" style="stop-color:#FFD100"/>
			<stop  offset="1" style="stop-color:#ED1C24"/>
		</linearGradient>
		<path fill="url(#SVGID_1_)" d="M525.9,341.8l0-0.4c0.2-1.8,1.6-3.1,3.1-3l12.6,1c1.5,0.1,2.4,1.7,2.1,3.4l-0.1,0.4
			c-0.3,1.7-1.7,3-3.2,2.9l-12.3-0.9C526.8,345.1,525.7,343.6,525.9,341.8z M529.3,336.8l12.7,1c1.5,0.1,3-1.3,3.3-3.1l0.1-0.4
			c0.3-1.9-0.7-3.5-2.2-3.6l-13-1c-1.5-0.1-3,1.3-3.2,3.2l-0.1,0.4C526.7,335.1,527.8,336.7,529.3,336.8z M530.4,327.9l13.1,1
			c1.5,0.1,3.1-1.4,3.4-3.3l0.1-0.5c0.3-2-0.7-3.7-2.2-3.8l-13.4-1c-1.6-0.1-3,1.4-3.3,3.4l-0.1,0.5
			C527.8,326.1,528.8,327.7,530.4,327.9z M531.6,318.4l13.4,1c1.6,0.1,3.2-1.4,3.5-3.5l0.1-0.5c0.4-2.1-0.7-3.9-2.3-4l-13.8-1.1
			c-1.6-0.1-3.1,1.5-3.4,3.6l-0.1,0.5C528.9,316.5,530,318.3,531.6,318.4z M532.8,308.4l13.9,1.1c1.6,0.1,3.3-1.5,3.7-3.7l0.1-0.5
			c0.4-2.2-0.7-4.2-2.3-4.3l-14.2-1.1c-1.7-0.1-3.3,1.6-3.5,3.8l-0.1,0.5C530.1,306.4,531.2,308.2,532.8,308.4z M534.1,297.7
			l14.3,1.1c1.7,0.1,3.4-1.6,3.8-4l0.1-0.6c0.4-2.4-0.6-4.4-2.4-4.6l-14.7-1.2c-1.7-0.1-3.4,1.7-3.6,4.1l-0.1,0.6
			C531.3,295.6,532.5,297.6,534.1,297.7z M508.4,343.7l12.4,0.9c1.5,0.1,2.8-1.2,3-2.9l0-0.4c0.2-1.8-0.9-3.3-2.4-3.4l-12.7-1
			c-1.5-0.1-2.8,1.3-2.9,3l0,0.4C505.8,342.1,507,343.6,508.4,343.7z M508.9,335.2l12.7,1c1.5,0.1,2.9-1.3,3.1-3.1l0-0.4
			c0.2-1.9-0.9-3.5-2.4-3.6l-13-1c-1.5-0.1-2.9,1.3-3,3.2l0,0.4C506.3,333.5,507.4,335.1,508.9,335.2z M509.4,326.2l13.1,1
			c1.5,0.1,3-1.4,3.2-3.3l0.1-0.5c0.2-2-0.9-3.7-2.5-3.8l-13.4-1c-1.6-0.1-2.9,1.4-3,3.4l0,0.5C506.7,324.4,507.9,326.1,509.4,326.2
			z M510,316.7l13.5,1c1.6,0.1,3.1-1.5,3.3-3.5l0.1-0.5c0.2-2.1-0.9-3.9-2.5-4.1l-13.8-1.1c-1.6-0.1-3,1.5-3.1,3.6l0,0.5
			C507.2,314.8,508.4,316.6,510,316.7z M510.5,306.6l13.9,1.1c1.6,0.1,3.2-1.5,3.4-3.8l0.1-0.5c0.2-2.2-0.9-4.2-2.6-4.3L511,298
			c-1.7-0.1-3.1,1.6-3.3,3.9l0,0.5C507.7,304.6,508.9,306.5,510.5,306.6z M511.2,295.9l14.4,1.1c1.7,0.1,3.3-1.7,3.5-4l0.1-0.6
			c0.3-2.4-0.9-4.5-2.7-4.6l-14.7-1.2c-1.7-0.1-3.2,1.7-3.4,4.1l0,0.6C508.2,293.7,509.5,295.8,511.2,295.9z M511.8,284.4l14.8,1.2
			c1.7,0.1,3.4-1.8,3.7-4.3l0.1-0.6c0.3-2.6-1-4.8-2.7-4.9l-15.2-1.2c-1.8-0.1-3.4,1.9-3.5,4.4l0,0.6
			C508.8,282.1,510.1,284.3,511.8,284.4z M512.5,272.2l15.3,1.2c1.8,0.1,3.5-1.9,3.8-4.6l0.1-0.6c0.3-2.7-1-5.1-2.8-5.3l-15.8-1.3
			c-1.9-0.2-3.5,2-3.6,4.8l0,0.7C509.4,269.7,510.7,272,512.5,272.2z M513.3,259.1l15.9,1.3c1.9,0.2,3.6-2,4-4.9l0.1-0.7
			c0.3-2.9-1-5.5-2.9-5.7l-16.4-1.3c-1.9-0.2-3.6,2.2-3.8,5.1l0,0.7C510,256.4,511.4,258.9,513.3,259.1z M488.6,342.2l12.4,0.9
			c1.5,0.1,2.7-1.2,2.8-3l0-0.4c0.1-1.8-1.1-3.3-2.6-3.4l-12.7-1c-1.5-0.1-2.7,1.3-2.7,3.1l0,0.4
			C485.9,340.6,487.1,342.1,488.6,342.2z M488.5,333.7l12.8,1c1.5,0.1,2.8-1.3,2.9-3.1l0-0.4c0.1-1.9-1.1-3.5-2.6-3.6l-13.1-1
			c-1.5-0.1-2.8,1.4-2.7,3.2l0,0.4C485.7,332,487,333.6,488.5,333.7z M488.4,324.6l13.1,1c1.5,0.1,2.9-1.4,3-3.3l0-0.5
			c0.1-2-1.1-3.7-2.7-3.9l-13.5-1c-1.6-0.1-2.8,1.4-2.8,3.4l0,0.5C485.6,322.8,486.8,324.5,488.4,324.6z M488.3,315.1l13.5,1
			c1.6,0.1,3-1.5,3-3.5l0-0.5c0.1-2.1-1.2-4-2.8-4.1l-13.9-1.1c-1.6-0.1-2.9,1.5-2.9,3.7l0,0.5C485.4,313.1,486.7,314.9,488.3,315.1
			z M488.2,304.9l14,1.1c1.6,0.1,3.1-1.6,3.1-3.8l0-0.5c0.1-2.3-1.2-4.2-2.9-4.4l-14.3-1.1c-1.7-0.1-3,1.6-3,3.9l0,0.5
			C485.2,302.9,486.6,304.8,488.2,304.9z M488.1,294.1l14.4,1.1c1.7,0.1,3.2-1.7,3.3-4l0-0.6c0.1-2.4-1.2-4.5-3-4.6l-14.8-1.2
			c-1.7-0.1-3.1,1.8-3.1,4.2l0,0.6C485,291.9,486.4,293.9,488.1,294.1z M488,282.5l14.9,1.2c1.7,0.1,3.3-1.8,3.4-4.3l0-0.6
			c0.1-2.6-1.3-4.8-3.1-5l-15.3-1.2c-1.8-0.1-3.2,1.9-3.2,4.5l0,0.6C484.8,280.2,486.3,282.4,488,282.5z M487.9,270.2l15.4,1.2
			c1.8,0.1,3.4-1.9,3.5-4.6l0-0.7c0.1-2.8-1.3-5.2-3.2-5.3l-15.8-1.3c-1.9-0.2-3.3,2-3.3,4.8l0,0.7
			C484.6,267.7,486.1,270,487.9,270.2z M487.8,257l15.9,1.3c1.9,0.2,3.5-2.1,3.6-5l0-0.7c0.1-3-1.4-5.5-3.3-5.7l-16.4-1.4
			c-1.9-0.2-3.5,2.2-3.4,5.2l0,0.7C484.3,254.3,485.9,256.8,487.8,257z M487.7,242.8l16.5,1.4c1.9,0.2,3.6-2.2,3.8-5.3l0-0.8
			c0.1-3.2-1.4-6-3.4-6.1l-17-1.4c-2-0.2-3.6,2.4-3.5,5.6l0,0.8C484.1,240,485.7,242.6,487.7,242.8z M468.6,340.7l12.5,0.9
			c1.5,0.1,2.6-1.2,2.6-3l0-0.4c0-1.8-1.3-3.4-2.8-3.5l-12.7-1c-1.5-0.1-2.6,1.3-2.4,3.1l0,0.4C465.8,339.1,467.2,340.6,468.6,340.7
			z M468,332.1l12.8,1c1.5,0.1,2.7-1.3,2.6-3.2l0-0.4c0-1.9-1.3-3.6-2.9-3.7l-13.1-1c-1.5-0.1-2.7,1.4-2.5,3.3l0,0.5
			C465.1,330.4,466.5,332,468,332.1z M467.3,323l13.2,1c1.5,0.1,2.8-1.4,2.7-3.4l0-0.5c-0.1-2-1.4-3.8-3-3.9l-13.5-1
			c-1.6-0.1-2.7,1.4-2.6,3.5l0,0.5C464.3,321.2,465.7,322.9,467.3,323z M466.6,313.4l13.6,1.1c1.6,0.1,2.9-1.5,2.8-3.6l0-0.5
			c-0.1-2.1-1.4-4-3.1-4.1l-13.9-1.1c-1.6-0.1-2.8,1.5-2.6,3.7l0,0.5C463.5,311.5,465,313.3,466.6,313.4z M465.8,303.1l14,1.1
			c1.6,0.1,2.9-1.6,2.9-3.8l0-0.5c-0.1-2.3-1.5-4.3-3.2-4.4l-14.4-1.1c-1.7-0.1-2.9,1.6-2.7,3.9l0,0.5
			C462.7,301.1,464.2,303,465.8,303.1z M465,292.2l14.5,1.1c1.7,0.1,3-1.7,3-4.1l0-0.6c-0.1-2.4-1.5-4.5-3.3-4.7l-14.8-1.2
			c-1.7-0.1-3,1.8-2.8,4.2l0,0.6C461.7,290.1,463.3,292.1,465,292.2z M448.6,339.2l12.5,0.9c1.5,0.1,2.5-1.2,2.4-3l0-0.4
			c-0.2-1.8-1.5-3.4-3-3.5l-12.8-1c-1.5-0.1-2.5,1.3-2.2,3.1l0.1,0.4C445.8,337.5,447.2,339.1,448.6,339.2z M447.4,330.5l12.8,1
			c1.5,0.1,2.6-1.3,2.4-3.2l0-0.5c-0.2-1.9-1.6-3.6-3.1-3.7l-13.1-1c-1.5-0.1-2.6,1.4-2.3,3.3l0.1,0.5
			C444.5,328.8,445.9,330.4,447.4,330.5z M446.1,321.4l13.2,1c1.6,0.1,2.7-1.4,2.5-3.4l0-0.5c-0.2-2-1.6-3.8-3.2-3.9l-13.5-1
			c-1.6-0.1-2.6,1.5-2.3,3.5l0.1,0.5C443.1,319.6,444.6,321.3,446.1,321.4z M444.8,311.7l13.6,1.1c1.6,0.1,2.8-1.5,2.6-3.6l0-0.5
			c-0.2-2.1-1.7-4-3.3-4.2l-14-1.1c-1.6-0.1-2.7,1.6-2.4,3.7l0.1,0.5C441.6,309.8,443.2,311.6,444.8,311.7z M443.3,301.4l14.1,1.1
			c1.6,0.1,2.8-1.6,2.6-3.8l0-0.5c-0.2-2.3-1.8-4.3-3.5-4.4l-14.4-1.1c-1.7-0.1-2.8,1.7-2.5,4l0.1,0.5
			C440,299.3,441.7,301.3,443.3,301.4z M441.8,290.4l14.5,1.1c1.7,0.1,2.9-1.7,2.7-4.1l-0.1-0.6c-0.2-2.4-1.8-4.6-3.6-4.7l-14.9-1.2
			c-1.8-0.1-2.9,1.8-2.5,4.2l0.1,0.6C438.4,288.2,440.1,290.3,441.8,290.4z M440.1,278.7l15,1.2c1.8,0.1,3-1.8,2.8-4.4l-0.1-0.6
			c-0.2-2.6-1.9-4.9-3.7-5l-15.4-1.2c-1.8-0.1-3,1.9-2.6,4.5l0.1,0.6C436.6,276.4,438.4,278.6,440.1,278.7z M438.4,266.2l15.5,1.3
			c1.8,0.1,3.1-1.9,2.9-4.7l-0.1-0.7c-0.3-2.8-2-5.2-3.9-5.4l-16-1.3c-1.9-0.2-3.1,2.1-2.6,4.9l0.1,0.7
			C434.7,263.7,436.5,266,438.4,266.2z M428.6,337.7l12.5,0.9c1.5,0.1,2.4-1.2,2.2-3l-0.1-0.4c-0.3-1.8-1.7-3.4-3.3-3.5l-12.8-1
			c-1.5-0.1-2.4,1.3-2,3.1l0.1,0.4C425.6,336,427.1,337.6,428.6,337.7z M426.8,329l12.9,1c1.5,0.1,2.5-1.3,2.2-3.2l-0.1-0.5
			c-0.3-1.9-1.8-3.6-3.4-3.7l-13.2-1c-1.6-0.1-2.5,1.4-2.1,3.3l0.1,0.5C423.7,327.2,425.3,328.9,426.8,329z M424.9,319.8l13.3,1
			c1.6,0.1,2.6-1.4,2.3-3.4l-0.1-0.5c-0.3-2-1.9-3.8-3.5-3.9l-13.6-1c-1.6-0.1-2.5,1.5-2.1,3.5l0.1,0.5
			C421.7,317.9,423.4,319.7,424.9,319.8z M422.9,310l13.7,1.1c1.6,0.1,2.6-1.5,2.3-3.6l-0.1-0.5c-0.3-2.2-2-4.1-3.6-4.2l-14-1.1
			c-1.6-0.1-2.6,1.6-2.1,3.7l0.1,0.5C419.6,308,421.3,309.9,422.9,310z M420.8,299.6l14.1,1.1c1.7,0.1,2.7-1.6,2.4-3.9l-0.1-0.5
			c-0.4-2.3-2-4.3-3.7-4.4l-14.5-1.1c-1.7-0.1-2.7,1.7-2.2,4l0.1,0.5C417.3,297.5,419.1,299.5,420.8,299.6z M418.5,288.6l14.6,1.1
			c1.7,0.1,2.8-1.7,2.4-4.1l-0.1-0.6c-0.4-2.5-2.1-4.6-3.9-4.7l-15-1.2c-1.8-0.1-2.8,1.8-2.2,4.3l0.1,0.6
			C414.9,286.4,416.8,288.4,418.5,288.6z M416,276.8l15,1.2c1.8,0.1,2.9-1.8,2.5-4.4l-0.1-0.6c-0.4-2.6-2.2-4.9-4.1-5.1l-15.5-1.2
			c-1.8-0.1-2.8,1.9-2.3,4.6l0.1,0.6C412.4,274.4,414.3,276.6,416,276.8z M413.4,264.2l15.6,1.3c1.8,0.1,3-2,2.5-4.7l-0.1-0.7
			c-0.4-2.8-2.3-5.3-4.2-5.4l-16-1.3c-1.9-0.2-2.9,2.1-2.3,4.9l0.1,0.7C409.6,261.7,411.6,264,413.4,264.2z M410.7,250.7l16.1,1.3
			c1.9,0.2,3.1-2.1,2.6-5.1l-0.1-0.7c-0.5-3-2.5-5.7-4.4-5.8l-16.6-1.4c-2-0.2-3,2.2-2.4,5.3l0.2,0.7
			C406.7,248,408.8,250.5,410.7,250.7z"/>
	</g>
	<linearGradient id="SVGID_2_" gradientUnits="userSpaceOnUse" x1="250.1839" y1="408.1195" x2="541.8161" y2="408.1195">
		<stop  offset="0" style="stop-color:#1B75BC"/>
		<stop  offset="0.2087" style="stop-color:#308D74"/>
		<stop  offset="0.5056" style="stop-color:#8DC63F"/>
		<stop  offset="0.7279" style="stop-color:#FFD100"/>
		<stop  offset="1" style="stop-color:#ED1C24"/>
	</linearGradient>
	<path fill="url(#SVGID_2_)" d="M250.2,383.4h8.7l29.3,40.3l29.2-40.3h8v49.3h-9v-34.3l-24.7,34.3H284l-24.8-34.2v34.2h-9V383.4z
		 M378.1,425.5c5.5,0,8.3-1.8,8.3-5.3v-36.7h9.3v36.7c0,8.4-5.9,12.6-17.6,12.6h-26.2c-11.7,0-17.6-4.3-17.6-12.8v-36.6h9.3V420
		c0,3.6,2.8,5.5,8.3,5.5H378.1z M446.2,402.9c11.7,0,17.6,3.6,17.6,10.7v8.8c0,7-5.9,10.5-17.6,10.5h-42.1v-7.3h42.1
		c5.5,0,8.3-1.1,8.3-3.2v-8.8c0-2.2-2.8-3.4-8.3-3.4H420c-11.7,0-17.6-3.6-17.6-10.7v-5.4c0-7.1,5.9-10.7,17.6-10.7h40.7v7.3H420
		c-5.5,0-8.3,1.1-8.3,3.4v5.4c0,2.2,2.8,3.4,8.3,3.4H446.2z M470.5,383.4h9.3v49.3h-9.3V383.4z M541.8,425.5v7.3h-37.6
		c-11.7,0-17.6-3.8-17.6-11.4v-26.6c0-7.6,5.9-11.4,17.6-11.4h37.6v7.3h-37.6c-5.5,0-8.3,1.4-8.3,4.1v26.6c0,2.7,2.8,4.1,8.3,4.1
		H541.8z"/>
</g>
</svg>
