<?xml version="1.0" encoding="utf-8"?>
<!-- Generator: Adobe Illustrator 22.0.1, SVG Export Plug-In . SVG Version: 6.00 Build 0)  -->
<svg version="1.1" id="Layer_1" xmlns="http://www.w3.org/2000/svg" xmlns:xlink="http://www.w3.org/1999/xlink" x="0px" y="0px"
	 viewBox="0 0 500 434" style="enable-background:new 0 0 500 434;" xml:space="preserve">
<style type="text/css">
	.st0{fill:#1E1E1E;}
	.st1{opacity:0.7;fill:url(#SVGID_1_);enable-background:new    ;}
	.st2{fill:url(#SVGID_2_);}
</style>
<g>
	<path class="st0" d="M413.1,121.6L235.7,91.5L66,119.7v46.9l169.7-43.3l22.9,123.1c0,12.8,10.7,23.3,23.8,23.3L399.7,281
		c13.1,0,23.8-10.4,23.8-23.3l13.4-112.9C436.9,132,426.3,121.6,413.1,121.6z"/>
	<polygon class="st0" points="139.8,156 198.3,141.7 194.4,262.3 154.5,258.6 	"/>
	<path d="M156.7,300.6c0-7.4,5.9-11.2,17.8-11.2l28.8,0c11.9,0,17.9,3.7,17.9,11.2l0,29.6c0,7.4-5.9,11.1-17.8,11l-28.8,0
		c-11.9,0-17.9-3.7-17.9-11.2L156.7,300.6z M203.4,333.6c5.6,0,8.4-1.1,8.4-3.4l0-29.6c0-2.3-2.8-3.5-8.4-3.6l-28.8,0
		c-5.6,0-8.5,1.2-8.4,3.5l0,29.5c0,2.3,2.8,3.5,8.4,3.6L203.4,333.6z"/>
	<path d="M136.3,317.3l-41.1,0l0,23.6l-9.4,0l-0.1-51.8l9.4,0l0,20.6l41.1,0l0-20.6l9.4,0l0.1,51.8l-9.4,0L136.3,317.3z"/>
	<path d="M276.1,333.3c5.6,0,8.4-1.9,8.4-5.6l-0.1-38.6l9.4,0l0.1,38.6c0,8.8-6,13.2-17.9,13.3l-26.6,0c-11.9,0-17.9-4.4-17.9-13.4
		l-0.1-38.5l9.4,0l0.1,38.5c0,3.9,2.8,5.7,8.5,5.7L276.1,333.3z"/>
	<path d="M347.1,309.4c11.9,0,17.9,3.7,17.9,11.2l0,9.2c0,7.4-5.9,11.1-17.8,11l-42.8,0l0-7.6l42.8,0c5.6,0,8.4-1.1,8.4-3.4l0-9.2
		c0-2.3-2.8-3.5-8.4-3.6l-26.6,0c-11.9,0-17.9-3.7-17.9-11.2l0-5.7c0-7.4,5.9-11.2,17.8-11.2l41.4,0l0,7.6l-41.4,0
		c-5.6,0-8.5,1.2-8.4,3.5l0,5.7c0,2.3,2.8,3.5,8.4,3.6L347.1,309.4z"/>
	<path d="M383,317.3l0,16l42.1,0l0,7.6l-51.6,0l-0.1-51.8l51.6,0l0,7.6l-42.1,0l0,13l39.9,0l0,7.6L383,317.3z"/>
	
		<linearGradient id="SVGID_1_" gradientUnits="userSpaceOnUse" x1="302.5051" y1="279.8196" x2="453.0779" y2="279.8196" gradientTransform="matrix(1 0 0 -1 0 436)">
		<stop  offset="0" style="stop-color:#F5CC56"/>
		<stop  offset="1" style="stop-color:#C3962C"/>
	</linearGradient>
	<path class="st1" d="M453.1,55.6l-92.5,201.2l-58.1-6.4L453.1,55.6z"/>
	
		<linearGradient id="SVGID_2_" gradientUnits="userSpaceOnUse" x1="291.7354" y1="237.8584" x2="360.6209" y2="237.8584" gradientTransform="matrix(1 0 0 -1 0 436)">
		<stop  offset="0" style="stop-color:#F5CC56"/>
		<stop  offset="1" style="stop-color:#C3962C"/>
	</linearGradient>
	<polygon class="st2" points="360.6,256.8 298.7,249.5 291.7,139.5 335.9,141.7 	"/>
</g>
</svg>
