<?xml version="1.0" encoding="utf-8"?>
<!-- Generator: Adobe Illustrator 21.1.0, SVG Export Plug-In . SVG Version: 6.00 Build 0)  -->
<svg version="1.1" id="Layer_1" xmlns="http://www.w3.org/2000/svg" xmlns:xlink="http://www.w3.org/1999/xlink" x="0px" y="0px"
	 viewBox="0 0 500 434" enable-background="new 0 0 500 434" xml:space="preserve">
<g>
	<path fill="#1E1E1E" d="M401.2,140.1l-174.7-29.7l-167,27.8v46.2l167-42.6L249,263c0,12.6,10.5,22.9,23.4,22.9l115.6,11.1
		c12.9,0,23.4-10.2,23.4-22.9L424.6,163C424.6,150.3,414.1,140.1,401.2,140.1z"/>
	<polygon fill="#1E1E1E" points="132.2,173.9 189.7,159.8 185.9,278.5 146.6,274.9 	"/>
	<path d="M148.6,318.2c-0.1-7.3,5.7-11.1,17.4-11.3l28.3-0.4c11.7-0.2,17.7,3.4,17.8,10.8l0.4,29.1c0.1,7.3-5.7,11-17.4,11.1
		l-28.3,0.4c-11.7,0.2-17.7-3.4-17.8-10.8L148.6,318.2z M195,350.1c5.5-0.1,8.3-1.2,8.2-3.5l-0.4-29.1c0-2.3-2.8-3.4-8.3-3.4
		l-28.3,0.4c-5.5,0.1-8.3,1.3-8.2,3.6l0.4,29c0,2.3,2.8,3.4,8.3,3.4L195,350.1z"/>
	<path d="M128.8,335l-40.4,0.6l0.3,23.2l-9.3,0.1l-0.8-51l9.3-0.1l0.3,20.3l40.4-0.6l-0.3-20.3l9.3-0.1l0.8,51l-9.3,0.1L128.8,335z"
		/>
	<path d="M266.6,348.8c5.5-0.1,8.2-2,8.2-5.6l-0.6-38l9.3-0.1l0.6,38c0.1,8.7-5.7,13.1-17.4,13.3l-26.2,0.4
		c-11.7,0.2-17.7-4.1-17.8-12.9l-0.6-37.9l9.3-0.1l0.6,37.9c0.1,3.8,2.8,5.6,8.4,5.5L266.6,348.8z"/>
	<path d="M336.1,324.3c11.7-0.2,17.7,3.4,17.8,10.8l0.1,9.1c0.1,7.3-5.7,11-17.4,11.1l-42.1,0.6l-0.1-7.5l42.1-0.6
		c5.5-0.1,8.3-1.2,8.2-3.5l-0.1-9.1c0-2.3-2.8-3.4-8.3-3.4l-26.2,0.4c-11.7,0.2-17.7-3.4-17.8-10.8l-0.1-5.6
		c-0.1-7.3,5.7-11.1,17.4-11.3l40.7-0.6l0.1,7.5l-40.7,0.6c-5.5,0.1-8.3,1.3-8.2,3.6l0.1,5.6c0,2.3,2.8,3.4,8.3,3.4L336.1,324.3z"/>
	<path d="M371.5,331.6l0.2,15.7l41.4-0.6l0.1,7.5l-50.8,0.7l-0.8-51l50.8-0.7l0.1,7.5l-41.4,0.6l0.2,12.8l39.3-0.6l0.1,7.5
		L371.5,331.6z"/>
	<linearGradient id="SVGID_1_" gradientUnits="userSpaceOnUse" x1="292.2851" y1="174.0546" x2="440.5102" y2="174.0546">
		<stop  offset="0" style="stop-color:#F5CC56"/>
		<stop  offset="1" style="stop-color:#C3962C"/>
	</linearGradient>
	<path opacity="0.7" fill="url(#SVGID_1_)" d="M440.5,75.1l-91,198l-57.2-6.3L440.5,75.1z"/>
	<linearGradient id="SVGID_2_" gradientUnits="userSpaceOnUse" x1="281.6872" y1="215.376" x2="349.4729" y2="215.376">
		<stop  offset="0" style="stop-color:#F5CC56"/>
		<stop  offset="1" style="stop-color:#C3962C"/>
	</linearGradient>
	<polygon fill="url(#SVGID_2_)" points="349.5,273.1 288.6,265.9 281.7,157.7 325.2,159.8 	"/>
</g>
</svg>
