<?xml version="1.0" encoding="utf-8"?>
<!-- Generator: Adobe Illustrator 19.0.1, SVG Export Plug-In . SVG Version: 6.00 Build 0)  -->
<svg version="1.1" id="Layer_1" xmlns:sketch="http://www.bohemiancoding.com/sketch/ns"
	 xmlns="http://www.w3.org/2000/svg" xmlns:xlink="http://www.w3.org/1999/xlink" x="0px" y="0px" viewBox="-280 372 50 50"
	 style="enable-background:new -280 372 50 50;" xml:space="preserve">
<style type="text/css">
	.st0{fill:#535353;}
</style>
<title>Facebook</title>
<description>Created with Sketch (http://www.bohemiancoding.com/sketch)</description>
<path class="st0" d="M-255,372c-13.8,0-25,11.2-25,25s11.2,25,25,25s25-11.2,25-25S-241.2,372-255,372z M-255,419
	c-12.2,0-22-9.8-22-22s9.8-22,22-22s22,9.8,22,22S-242.8,419-255,419z M-253.2,408v-11h3.3l0.4-3.8h-3.7l0-1.9c0-1,0.1-1.5,1.6-1.5
	h2V386h-3.3c-3.9,0-5.3,1.8-5.3,4.9v2.3h-2.4v3.8h2.4v11H-253.2z"/>
</svg>
