<?xml version="1.0" encoding="utf-8"?>
<!-- Generator: Adobe Illustrator 19.0.1, SVG Export Plug-In . SVG Version: 6.00 Build 0)  -->
<svg version="1.1" id="Layer_1" xmlns:sketch="http://www.bohemiancoding.com/sketch/ns"
	 xmlns="http://www.w3.org/2000/svg" xmlns:xlink="http://www.w3.org/1999/xlink" x="0px" y="0px" viewBox="-280 372 50 50"
	 style="enable-background:new -280 372 50 50;" xml:space="preserve">
<style type="text/css">
	.st0{fill:#9E9E9E;}
</style>
<title>LinkedIn</title>
<description>Created with Sketch (http://www.bohemiancoding.com/sketch)</description>
<g>
	<path class="st0" d="M-255,372c-13.8,0-25,11.2-25,25s11.2,25,25,25s25-11.2,25-25S-241.2,372-255,372z M-255,419
		c-12.2,0-22-9.8-22-22s9.8-22,22-22s22,9.8,22,22S-242.8,419-255,419z"/>
	<rect x="-266" y="392.1" class="st0" width="4.7" height="14.5"/>
	<path class="st0" d="M-263.3,385c-1.6,0-2.7,1.1-2.7,2.5s1,2.5,2.6,2.5l0,0c1.6,0,2.7-1.1,2.7-2.5
		C-260.7,386.1-261.7,385-263.3,385z"/>
	<path class="st0" d="M-249.4,392.1c-2.5,0-3.6,1.4-4.2,2.4v-2.1h-4.7c0.1,1.4,0,14.5,0,14.5h4.7v-8.1c0-0.4,0-0.9,0.2-1.2
		c0.3-0.9,1.1-1.8,2.4-1.8c1.7,0,2.4,1.3,2.4,3.3v7.8h4.7v-8.3C-244,394.2-246.3,392.1-249.4,392.1z"/>
</g>
</svg>
