<?xml version="1.0" encoding="utf-8"?>
<!-- Generator: Adobe Illustrator 19.0.1, SVG Export Plug-In . SVG Version: 6.00 Build 0)  -->
<svg version="1.1" id="Capa_1" xmlns="http://www.w3.org/2000/svg" xmlns:xlink="http://www.w3.org/1999/xlink" x="0px" y="0px"
	 viewBox="-263 188.5 362.9 362.9" style="enable-background:new -263 188.5 362.9 362.9;" xml:space="preserve">
<style type="text/css">
	.st0{fill:none;stroke:#FFFFFF;stroke-width:10;stroke-linecap:round;stroke-linejoin:round;stroke-miterlimit:10;}
</style>
<path class="st0" d="M72.5,269.1c0-5.6-4.6-10.1-10.3-10.1h-287.5c-5.7,0-10.3,4.5-10.3,10.1V354v116.8c0,5.6,4.6,10.1,10.3,10.1
	H62.2c5.7,0,10.3-4.5,10.3-10.1V269.1z"/>
<line class="st0" x1="72.5" y1="370" x2="-235.5" y2="370"/>
<path class="st0" d="M-112.3,370.9v30.2c0,5.6,4.6,10.1,10.3,10.1H-61c5.7,0,10.3-4.5,10.3-10.1v-30.2"/>
<path class="st0" d="M-132.8,257.1V237c0-5.6,4.6-10.1,10.3-10.1h82.1c5.7,0,10.3,4.5,10.3,10.1v20.2"/>
</svg>
