<?xml version="1.0" encoding="utf-8"?>
<!-- Generator: Adobe Illustrator 19.0.0, SVG Export Plug-In . SVG Version: 6.00 Build 0)  -->
<svg version="1.1" id="Layer_1" xmlns="http://www.w3.org/2000/svg" xmlns:xlink="http://www.w3.org/1999/xlink" x="0px" y="0px"
	 viewBox="-491 614.3 608.3 201.1" style="enable-background:new -491 614.3 608.3 201.1;" xml:space="preserve">
<style type="text/css">
	.st0{fill:#FFFFFF;}
</style>
<path class="st0" d="M-414,637.3c-23.8,10.1-29.8,60-28,99.9v75.6h-49v-75.6c0-15.6,1.4-29.3,3.7-40.8c2.3-11.9,5.5-22,9.6-30.7
	c4.1-8.7,8.3-16,13.3-22s10.1-11,15.1-14.7c10.5-7.8,22.5-12.4,35.3-14.2V637.3L-414,637.3z"/>
<path class="st0" d="M-320.1,812.9H-369v-75.6c1.8-39.9-4.1-89.8-28-99.9v-22.5c12.8,1.8,24.8,6.4,35.3,14.2
	c5,3.7,10.1,8.7,15.1,14.7s9.6,13.3,13.3,22c4.1,8.7,7.3,18.8,9.6,30.7c2.3,11.9,3.7,25.7,3.7,40.8v75.6H-320.1z"/>
<path class="st0" d="M-230.2,805.1c-15.6-5-28.9-14.2-39.4-22.5c-31.2-25.2-32.5-56.8-32.5-77v-90.8h67.8c16-0.5,30.3,1.8,42.6,6.4
	c5.5,1.8,10.5,4.1,15.6,7.3c5,3.2,9.6,6.9,13.8,11.5c4.1,4.6,7.3,10.1,9.6,16.5c2.3,6.4,3.7,14.2,3.7,22.5c0,8.7-0.9,16-3.7,22.5
	c-2.3,6.4-5.5,11.9-9.2,16.5c-3.7,4.6-7.8,8.7-12.8,11.9c-4.6,3.2-9.6,6-14.7,7.8c-11.5,4.6-24.8,7.8-39.9,8.3v-20.6
	c6-0.9,11.5-2.8,16-6c4.1-2.8,7.3-6.9,10.5-12.8c3.2-5.5,5-13.8,5-24.8c0-10.5-1.4-18.8-4.1-25.2c-2.8-6.4-6.4-11-11-14.7
	c-4.6-3.2-9.6-5.5-15.6-6.4c-6-0.9-11.9-1.4-18.3-1.4h-6c0,0-4.6,72.4,2.8,100.4c11.5,43.1,61.4,56.8,105.9,57.3
	c31.2,0.5,57.3,0.5,57.3,0.5s0,14.7,0,20.2C-106,813.3-180.2,822-230.2,805.1z"/>
<path class="st0" d="M-77.1,674.4c-5.5,11.5-8.7,27.5-8.7,48.1v51.8h-50.4V722c0.9-18.8,5-35.8,11.9-50.9
	c3.2-6.4,23.4-56.8,104.5-56.4c0,15.1,0,8.3,0,17.9C-61.1,636.9-71.6,663-77.1,674.4z"/>
<path class="st0" d="M116.8,813.8H49c-16,0.5-30.3-1.8-42.6-6.4c-5.5-1.8-10.5-4.1-15.6-7.3c-5-3.2-9.6-6.9-13.8-11.5
	c-4.1-4.6-6.9-10.1-9.6-16.5c-2.3-6.4-3.7-14.2-3.7-22.9s1.4-16,3.7-22.9c2.3-6.4,5.5-11.9,9.2-17c3.7-4.6,7.8-8.7,12.8-11.9
	c4.6-3.2,9.6-6,14.7-8.3c11.5-5,24.8-7.8,39.9-8.3v20.6c-6,0.9-11.5,2.8-16,6c-4.1,2.8-7.3,6.9-10.5,12.8c-3.2,6-5,13.8-5,24.8
	c0,10.5,1.4,18.8,4.1,25.2c2.8,6.4,6.4,11,11,14.7c4.6,3.2,9.6,5.5,15.6,6.4s11.9,1.4,18.3,1.4h6v-70.6c0-11.5-0.9-21.5-2.8-29.8
	c-1.8-8.7-4.1-16-6.9-22c-2.8-6.4-6.4-11.5-10.1-15.6c-3.7-4.1-7.8-7.3-11.5-10.1c-9.2-6-20.2-12.4-32.1-12.4h-5.5v-17.9H5
	c14.7,0,27,1.4,38,4.6c11,3.2,20.6,7.3,28.9,12.4c8.3,5,15.1,11,20.2,17.4c5.5,6.4,9.6,12.8,13.3,19.7c7.8,15.6,11.9,33.9,11.9,53.6
	v91.7L116.8,813.8L116.8,813.8z"/>
</svg>
