<svg version="1.1" xmlns="http://www.w3.org/2000/svg" xmlns:xlink="http://www.w3.org/1999/xlink" width="436" height="580"><style xmlns="http://www.w3.org/1999/xhtml"></style><defs/><g transform="translate(0,0)"><g><rect fill="#FFFFFF" stroke="none" x="0" y="0" width="436" height="580"/></g><g transform="translate(0,0) matrix(1,0,0,1,80,0)"><g><g transform="translate(0,0) scale(1,0.4)"><g><path fill="#FFFFFF" stroke="none" d="M 0 0 L 100 0 Q 100 0 100 0 L 100 100 Q 100 100 100 100 L 0 100 Q 0 100 0 100 L 0 0 Q 0 0 0 0 Z"/><g transform="scale(1,2.5)"><path fill="none" stroke="none" d="M 0 0 L 100 0 Q 100 0 100 0 L 100 40 Q 100 40 100 40 L 0 40 Q 0 40 0 40 L 0 0 Q 0 0 0 0 Z"/><path fill="none" stroke="#666666" d="M 0 0 M 0 0 L 100 0 Q 100 0 100 0 L 100 40 Q 100 40 100 40 L 0 40 Q 0 40 0 40 L 0 0 Q 0 0 0 0 Z" stroke-miterlimit="10" stroke-width="2"/></g></g></g></g></g><g transform="matrix(1,0,0,1,90,13)"><g><g><rect fill="rgb(0,0,0)" stroke="none" x="0" y="0" width="80" height="14" fill-opacity="0"/></g></g><g><g><rect fill="rgb(0,0,0)" stroke="none" x="0" y="0" width="80" height="14" fill-opacity="0"/></g></g><g><g><rect fill="rgb(0,0,0)" stroke="none" x="23.9951171875" y="0" width="34" height="14" fill-opacity="0"/></g></g><g><g><rect fill="rgb(0,0,0)" stroke="none" x="23.9951171875" y="0" width="34" height="14" fill-opacity="0"/></g><text fill="rgb(102, 102, 102)" stroke="none" font-family="Arial" font-size="12px" font-style="normal" font-weight="normal" text-decoration="" line-height="14px" x="23" y="12">H</text><text fill="rgb(102, 102, 102)" stroke="none" font-family="Arial" font-size="12px" font-style="normal" font-weight="normal" text-decoration="" line-height="14px" x="32" y="12">o</text><text fill="rgb(102, 102, 102)" stroke="none" font-family="Arial" font-size="12px" font-style="normal" font-weight="normal" text-decoration="" line-height="14px" x="39" y="12">m</text><text fill="rgb(102, 102, 102)" stroke="none" font-family="Arial" font-size="12px" font-style="normal" font-weight="normal" text-decoration="" line-height="14px" x="49" y="12">e</text></g></g><g transform="translate(0,0) matrix(1,0,0,1,165,62.5)"><g><g transform="translate(0,0) scale(1,0.4)"><g><path fill="#FFFFFF" stroke="none" d="M 0 0 L 100 0 Q 100 0 100 0 L 100 100 Q 100 100 100 100 L 0 100 Q 0 100 0 100 L 0 0 Q 0 0 0 0 Z"/><g transform="scale(1,2.5)"><path fill="none" stroke="none" d="M 0 0 L 100 0 Q 100 0 100 0 L 100 40 Q 100 40 100 40 L 0 40 Q 0 40 0 40 L 0 0 Q 0 0 0 0 Z"/><path fill="none" stroke="#666666" d="M 0 0 M 0 0 L 100 0 Q 100 0 100 0 L 100 40 Q 100 40 100 40 L 0 40 Q 0 40 0 40 L 0 0 Q 0 0 0 0 Z" stroke-miterlimit="10" stroke-width="2"/></g></g></g></g></g><g transform="matrix(1,0,0,1,175,76)"><g><g><rect fill="rgb(0,0,0)" stroke="none" x="0" y="0" width="80" height="14" fill-opacity="0"/></g></g><g><g><rect fill="rgb(0,0,0)" stroke="none" x="0" y="0" width="80" height="14" fill-opacity="0"/></g></g><g><g><rect fill="rgb(0,0,0)" stroke="none" x="17.9921875" y="0" width="46" height="14" fill-opacity="0"/></g></g><g><g><rect fill="rgb(0,0,0)" stroke="none" x="17.9921875" y="0" width="46" height="14" fill-opacity="0"/></g><text fill="rgb(102, 102, 102)" stroke="none" font-family="Arial" font-size="12px" font-style="normal" font-weight="normal" text-decoration="" line-height="14px" x="17" y="12">D</text><text fill="rgb(102, 102, 102)" stroke="none" font-family="Arial" font-size="12px" font-style="normal" font-weight="normal" text-decoration="" line-height="14px" x="26" y="12">r</text><text fill="rgb(102, 102, 102)" stroke="none" font-family="Arial" font-size="12px" font-style="normal" font-weight="normal" text-decoration="" line-height="14px" x="30" y="12">a</text><text fill="rgb(102, 102, 102)" stroke="none" font-family="Arial" font-size="12px" font-style="normal" font-weight="normal" text-decoration="" line-height="14px" x="37" y="12">w</text><text fill="rgb(102, 102, 102)" stroke="none" font-family="Arial" font-size="12px" font-style="normal" font-weight="normal" text-decoration="" line-height="14px" x="45" y="12">i</text><text fill="rgb(102, 102, 102)" stroke="none" font-family="Arial" font-size="12px" font-style="normal" font-weight="normal" text-decoration="" line-height="14px" x="48" y="12">n</text><text fill="rgb(102, 102, 102)" stroke="none" font-family="Arial" font-size="12px" font-style="normal" font-weight="normal" text-decoration="" line-height="14px" x="55" y="12">g</text></g></g><g transform="translate(0,0) matrix(1,0,0,1,165,520)"><g><g transform="translate(0,0) scale(1,0.4)"><g><path fill="#FFFFFF" stroke="none" d="M 0 0 L 100 0 Q 100 0 100 0 L 100 100 Q 100 100 100 100 L 0 100 Q 0 100 0 100 L 0 0 Q 0 0 0 0 Z"/><g transform="scale(1,2.5)"><path fill="none" stroke="none" d="M 0 0 L 100 0 Q 100 0 100 0 L 100 40 Q 100 40 100 40 L 0 40 Q 0 40 0 40 L 0 0 Q 0 0 0 0 Z"/><path fill="none" stroke="#666666" d="M 0 0 M 0 0 L 100 0 Q 100 0 100 0 L 100 40 Q 100 40 100 40 L 0 40 Q 0 40 0 40 L 0 0 Q 0 0 0 0 Z" stroke-miterlimit="10" stroke-width="2"/></g></g></g></g></g><g transform="matrix(1,0,0,1,175,533)"><g><g><rect fill="rgb(0,0,0)" stroke="none" x="0" y="0" width="80" height="14" fill-opacity="0"/></g></g><g><g><rect fill="rgb(0,0,0)" stroke="none" x="0" y="0" width="80" height="14" fill-opacity="0"/></g></g><g><g><rect fill="rgb(0,0,0)" stroke="none" x="20.9892578125" y="0" width="40" height="14" fill-opacity="0"/></g></g><g><g><rect fill="rgb(0,0,0)" stroke="none" x="20.9892578125" y="0" width="40" height="14" fill-opacity="0"/></g><text fill="rgb(102, 102, 102)" stroke="none" font-family="Arial" font-size="12px" font-style="normal" font-weight="normal" text-decoration="" line-height="14px" x="20" y="12">S</text><text fill="rgb(102, 102, 102)" stroke="none" font-family="Arial" font-size="12px" font-style="normal" font-weight="normal" text-decoration="" line-height="14px" x="28" y="12">e</text><text fill="rgb(102, 102, 102)" stroke="none" font-family="Arial" font-size="12px" font-style="normal" font-weight="normal" text-decoration="" line-height="14px" x="35" y="12">a</text><text fill="rgb(102, 102, 102)" stroke="none" font-family="Arial" font-size="12px" font-style="normal" font-weight="normal" text-decoration="" line-height="14px" x="42" y="12">r</text><text fill="rgb(102, 102, 102)" stroke="none" font-family="Arial" font-size="12px" font-style="normal" font-weight="normal" text-decoration="" line-height="14px" x="46" y="12">c</text><text fill="rgb(102, 102, 102)" stroke="none" font-family="Arial" font-size="12px" font-style="normal" font-weight="normal" text-decoration="" line-height="14px" x="52" y="12">h</text></g></g><g transform="translate(0,0) matrix(1,0,0,1,165,119.16666666666666)"><g><g transform="translate(0,0) scale(1,0.4)"><g><path fill="#FFFFFF" stroke="none" d="M 0 0 L 100 0 Q 100 0 100 0 L 100 100 Q 100 100 100 100 L 0 100 Q 0 100 0 100 L 0 0 Q 0 0 0 0 Z"/><g transform="scale(1,2.5)"><path fill="none" stroke="none" d="M 0 0 L 100 0 Q 100 0 100 0 L 100 40 Q 100 40 100 40 L 0 40 Q 0 40 0 40 L 0 0 Q 0 0 0 0 Z"/><path fill="none" stroke="#666666" d="M 0 0 M 0 0 L 100 0 Q 100 0 100 0 L 100 40 Q 100 40 100 40 L 0 40 Q 0 40 0 40 L 0 0 Q 0 0 0 0 Z" stroke-miterlimit="10" stroke-width="2"/></g></g></g></g></g><g transform="matrix(1,0,0,1,175,132)"><g><g><rect fill="rgb(0,0,0)" stroke="none" x="0" y="0" width="80" height="14" fill-opacity="0"/></g></g><g><g><rect fill="rgb(0,0,0)" stroke="none" x="0" y="0" width="80" height="14" fill-opacity="0"/></g></g><g><g><rect fill="rgb(0,0,0)" stroke="none" x="27.6630859375" y="0" width="26" height="14" fill-opacity="0"/></g></g><g><g><rect fill="rgb(0,0,0)" stroke="none" x="27.6630859375" y="0" width="26" height="14" fill-opacity="0"/></g><text fill="rgb(102, 102, 102)" stroke="none" font-family="Arial" font-size="12px" font-style="normal" font-weight="normal" text-decoration="" line-height="14px" x="27" y="12">Q</text><text fill="rgb(102, 102, 102)" stroke="none" font-family="Arial" font-size="12px" font-style="normal" font-weight="normal" text-decoration="" line-height="14px" x="36" y="12">u</text><text fill="rgb(102, 102, 102)" stroke="none" font-family="Arial" font-size="12px" font-style="normal" font-weight="normal" text-decoration="" line-height="14px" x="43" y="12">i</text><text fill="rgb(102, 102, 102)" stroke="none" font-family="Arial" font-size="12px" font-style="normal" font-weight="normal" text-decoration="" line-height="14px" x="46" y="12">z</text></g></g><g transform="translate(0,0) matrix(1,0,0,1,165,175.83333333333331)"><g><g transform="translate(0,0) scale(1,0.4)"><g><path fill="#FFFFFF" stroke="none" d="M 0 0 L 100 0 Q 100 0 100 0 L 100 100 Q 100 100 100 100 L 0 100 Q 0 100 0 100 L 0 0 Q 0 0 0 0 Z"/><g transform="scale(1,2.5)"><path fill="none" stroke="none" d="M 0 0 L 100 0 Q 100 0 100 0 L 100 40 Q 100 40 100 40 L 0 40 Q 0 40 0 40 L 0 0 Q 0 0 0 0 Z"/><path fill="none" stroke="#666666" d="M 0 0 M 0 0 L 100 0 Q 100 0 100 0 L 100 40 Q 100 40 100 40 L 0 40 Q 0 40 0 40 L 0 0 Q 0 0 0 0 Z" stroke-miterlimit="10" stroke-width="2"/></g></g></g></g></g><g transform="matrix(1,0,0,1,175,189)"><g><g><rect fill="rgb(0,0,0)" stroke="none" x="0" y="0" width="80" height="14" fill-opacity="0"/></g></g><g><g><rect fill="rgb(0,0,0)" stroke="none" x="0" y="0" width="80" height="14" fill-opacity="0"/></g></g><g><g><rect fill="rgb(0,0,0)" stroke="none" x="20.65234375" y="0" width="40" height="14" fill-opacity="0"/></g></g><g><g><rect fill="rgb(0,0,0)" stroke="none" x="20.65234375" y="0" width="40" height="14" fill-opacity="0"/></g><text fill="rgb(102, 102, 102)" stroke="none" font-family="Arial" font-size="12px" font-style="normal" font-weight="normal" text-decoration="" line-height="14px" x="20" y="12">D</text><text fill="rgb(102, 102, 102)" stroke="none" font-family="Arial" font-size="12px" font-style="normal" font-weight="normal" text-decoration="" line-height="14px" x="29" y="12">o</text><text fill="rgb(102, 102, 102)" stroke="none" font-family="Arial" font-size="12px" font-style="normal" font-weight="normal" text-decoration="" line-height="14px" x="35" y="12">n</text><text fill="rgb(102, 102, 102)" stroke="none" font-family="Arial" font-size="12px" font-style="normal" font-weight="normal" text-decoration="" line-height="14px" x="42" y="12">a</text><text fill="rgb(102, 102, 102)" stroke="none" font-family="Arial" font-size="12px" font-style="normal" font-weight="normal" text-decoration="" line-height="14px" x="49" y="12">t</text><text fill="rgb(102, 102, 102)" stroke="none" font-family="Arial" font-size="12px" font-style="normal" font-weight="normal" text-decoration="" line-height="14px" x="52" y="12">e</text></g></g><g transform="translate(0,0) matrix(1,0,0,1,165,232.5)"><g><g transform="translate(0,0) scale(1,0.4)"><g><path fill="#FFFFFF" stroke="none" d="M 0 0 L 100 0 Q 100 0 100 0 L 100 100 Q 100 100 100 100 L 0 100 Q 0 100 0 100 L 0 0 Q 0 0 0 0 Z"/><g transform="scale(1,2.5)"><path fill="none" stroke="none" d="M 0 0 L 100 0 Q 100 0 100 0 L 100 40 Q 100 40 100 40 L 0 40 Q 0 40 0 40 L 0 0 Q 0 0 0 0 Z"/><path fill="none" stroke="#666666" d="M 0 0 M 0 0 L 100 0 Q 100 0 100 0 L 100 40 Q 100 40 100 40 L 0 40 Q 0 40 0 40 L 0 0 Q 0 0 0 0 Z" stroke-miterlimit="10" stroke-width="2"/></g></g></g></g></g><g transform="matrix(1,0,0,1,175,246)"><g><g><rect fill="rgb(0,0,0)" stroke="none" x="0" y="0" width="80" height="14" fill-opacity="0"/></g></g><g><g><rect fill="rgb(0,0,0)" stroke="none" x="0" y="0" width="80" height="14" fill-opacity="0"/></g></g><g><g><rect fill="rgb(0,0,0)" stroke="none" x="16.650390625" y="0" width="48" height="14" fill-opacity="0"/></g></g><g><g><rect fill="rgb(0,0,0)" stroke="none" x="16.650390625" y="0" width="48" height="14" fill-opacity="0"/></g><text fill="rgb(102, 102, 102)" stroke="none" font-family="Arial" font-size="12px" font-style="normal" font-weight="normal" text-decoration="" line-height="14px" x="16" y="12">S</text><text fill="rgb(102, 102, 102)" stroke="none" font-family="Arial" font-size="12px" font-style="normal" font-weight="normal" text-decoration="" line-height="14px" x="24" y="12">e</text><text fill="rgb(102, 102, 102)" stroke="none" font-family="Arial" font-size="12px" font-style="normal" font-weight="normal" text-decoration="" line-height="14px" x="31" y="12">a</text><text fill="rgb(102, 102, 102)" stroke="none" font-family="Arial" font-size="12px" font-style="normal" font-weight="normal" text-decoration="" line-height="14px" x="37" y="12">s</text><text fill="rgb(102, 102, 102)" stroke="none" font-family="Arial" font-size="12px" font-style="normal" font-weight="normal" text-decoration="" line-height="14px" x="43" y="12">o</text><text fill="rgb(102, 102, 102)" stroke="none" font-family="Arial" font-size="12px" font-style="normal" font-weight="normal" text-decoration="" line-height="14px" x="50" y="12">n</text><text fill="rgb(102, 102, 102)" stroke="none" font-family="Arial" font-size="12px" font-style="normal" font-weight="normal" text-decoration="" line-height="14px" x="57" y="12">s</text></g></g><g transform="translate(0,0) matrix(1,0,0,1,165,345.5)"><g><g transform="translate(0,0) scale(1,0.4)"><g><path fill="#FFFFFF" stroke="none" d="M 0 0 L 100 0 Q 100 0 100 0 L 100 100 Q 100 100 100 100 L 0 100 Q 0 100 0 100 L 0 0 Q 0 0 0 0 Z"/><g transform="scale(1,2.5)"><path fill="none" stroke="none" d="M 0 0 L 100 0 Q 100 0 100 0 L 100 40 Q 100 40 100 40 L 0 40 Q 0 40 0 40 L 0 0 Q 0 0 0 0 Z"/><path fill="none" stroke="#666666" d="M 0 0 M 0 0 L 100 0 Q 100 0 100 0 L 100 40 Q 100 40 100 40 L 0 40 Q 0 40 0 40 L 0 0 Q 0 0 0 0 Z" stroke-miterlimit="10" stroke-width="2"/></g></g></g></g></g><g transform="matrix(1,0,0,1,175,359)"><g><g><rect fill="rgb(0,0,0)" stroke="none" x="0" y="0" width="80" height="14" fill-opacity="0"/></g></g><g><g><rect fill="rgb(0,0,0)" stroke="none" x="0" y="0" width="80" height="14" fill-opacity="0"/></g></g><g><g><rect fill="rgb(0,0,0)" stroke="none" x="26.6640625" y="0" width="28" height="14" fill-opacity="0"/></g></g><g><g><rect fill="rgb(0,0,0)" stroke="none" x="26.6640625" y="0" width="28" height="14" fill-opacity="0"/></g><text fill="rgb(102, 102, 102)" stroke="none" font-family="Arial" font-size="12px" font-style="normal" font-weight="normal" text-decoration="" line-height="14px" x="26" y="12">C</text><text fill="rgb(102, 102, 102)" stroke="none" font-family="Arial" font-size="12px" font-style="normal" font-weight="normal" text-decoration="" line-height="14px" x="35" y="12">l</text><text fill="rgb(102, 102, 102)" stroke="none" font-family="Arial" font-size="12px" font-style="normal" font-weight="normal" text-decoration="" line-height="14px" x="37" y="12">i</text><text fill="rgb(102, 102, 102)" stroke="none" font-family="Arial" font-size="12px" font-style="normal" font-weight="normal" text-decoration="" line-height="14px" x="40" y="12">p</text><text fill="rgb(102, 102, 102)" stroke="none" font-family="Arial" font-size="12px" font-style="normal" font-weight="normal" text-decoration="" line-height="14px" x="47" y="12">s</text></g></g><g transform="translate(0,0) matrix(1,0,0,1,165,460)"><g><g transform="translate(0,0) scale(1,0.4)"><g><path fill="#FFFFFF" stroke="none" d="M 0 0 L 100 0 Q 100 0 100 0 L 100 100 Q 100 100 100 100 L 0 100 Q 0 100 0 100 L 0 0 Q 0 0 0 0 Z"/><g transform="scale(1,2.5)"><path fill="none" stroke="none" d="M 0 0 L 100 0 Q 100 0 100 0 L 100 40 Q 100 40 100 40 L 0 40 Q 0 40 0 40 L 0 0 Q 0 0 0 0 Z"/><path fill="none" stroke="#666666" d="M 0 0 M 0 0 L 100 0 Q 100 0 100 0 L 100 40 Q 100 40 100 40 L 0 40 Q 0 40 0 40 L 0 0 Q 0 0 0 0 Z" stroke-miterlimit="10" stroke-width="2"/></g></g></g></g></g><g transform="matrix(1,0,0,1,175,473)"><g><g><rect fill="rgb(0,0,0)" stroke="none" x="0" y="0" width="80" height="14" fill-opacity="0"/></g></g><g><g><rect fill="rgb(0,0,0)" stroke="none" x="0" y="0" width="80" height="14" fill-opacity="0"/></g></g><g><g><rect fill="rgb(0,0,0)" stroke="none" x="28.8876953125" y="0" width="24" height="14" fill-opacity="0"/></g></g><g><g><rect fill="rgb(0,0,0)" stroke="none" x="28.8876953125" y="0" width="24" height="14" fill-opacity="0"/></g><text fill="rgb(102, 102, 102)" stroke="none" font-family="Arial" font-size="12px" font-style="normal" font-weight="normal" text-decoration="" line-height="14px" x="28" y="12">T</text><text fill="rgb(102, 102, 102)" stroke="none" font-family="Arial" font-size="12px" font-style="normal" font-weight="normal" text-decoration="" line-height="14px" x="35" y="12">i</text><text fill="rgb(102, 102, 102)" stroke="none" font-family="Arial" font-size="12px" font-style="normal" font-weight="normal" text-decoration="" line-height="14px" x="38" y="12">p</text><text fill="rgb(102, 102, 102)" stroke="none" font-family="Arial" font-size="12px" font-style="normal" font-weight="normal" text-decoration="" line-height="14px" x="45" y="12">s</text></g></g><g transform="matrix(1,0,0,1,125.5,35.5)"><g transform="translate(0,0)"><g transform="translate(-327,91.5) translate(201.5,-127) matrix(1,0,0,1,0,0)"><g><path fill="none" stroke="#666666" d="M 130 40 L 130 129.16666666666666 Q 130 139.16666666666666 140 139.16666666666666 L 165 139.16666666666666" stroke-miterlimit="10" stroke-width="2"/></g></g></g></g><g transform="matrix(1,0,0,1,125.5,35.5)"><g transform="translate(0,0)"><g transform="translate(-330,100.5) translate(204.5,-136) matrix(1,0,0,1,0,0)"><g><path fill="none" stroke="#666666" d="M 130 40 L 130 185.83333333333331 Q 130 195.83333333333331 140 195.83333333333331 L 165 195.83333333333331" stroke-miterlimit="10" stroke-width="2"/></g></g></g></g><g transform="matrix(1,0,0,1,125.5,35.5)"><g transform="translate(0,0)"><g transform="translate(-327,99.5) translate(201.5,-135) matrix(1,0,0,1,0,0)"><g><path fill="none" stroke="#666666" d="M 130 40 L 130 72.5 Q 130 82.5 140 82.5 L 165 82.5" stroke-miterlimit="10" stroke-width="2"/></g></g></g></g><g transform="translate(0,0) matrix(1,0,0,1,240,290)"><g><g transform="translate(0,0) scale(1,0.4)"><g><path fill="#FFFFFF" stroke="none" d="M 0 0 L 100 0 Q 100 0 100 0 L 100 100 Q 100 100 100 100 L 0 100 Q 0 100 0 100 L 0 0 Q 0 0 0 0 Z"/><g transform="scale(1,2.5)"><path fill="none" stroke="none" d="M 0 0 L 100 0 Q 100 0 100 0 L 100 40 Q 100 40 100 40 L 0 40 Q 0 40 0 40 L 0 0 Q 0 0 0 0 Z"/><path fill="none" stroke="#666666" d="M 0 0 M 0 0 L 100 0 Q 100 0 100 0 L 100 40 Q 100 40 100 40 L 0 40 Q 0 40 0 40 L 0 0 Q 0 0 0 0 Z" stroke-miterlimit="10" stroke-width="2"/></g></g></g></g></g><g transform="matrix(1,0,0,1,250,303)"><g><g><rect fill="rgb(0,0,0)" stroke="none" x="0" y="0" width="80" height="14" fill-opacity="0"/></g></g><g><g><rect fill="rgb(0,0,0)" stroke="none" x="0" y="0" width="80" height="14" fill-opacity="0"/></g></g><g><g><rect fill="rgb(0,0,0)" stroke="none" x="15.3173828125" y="0" width="50" height="14" fill-opacity="0"/></g></g><g><g><rect fill="rgb(0,0,0)" stroke="none" x="15.3173828125" y="0" width="50" height="14" fill-opacity="0"/></g><text fill="rgb(102, 102, 102)" stroke="none" font-family="Arial" font-size="12px" font-style="normal" font-weight="normal" text-decoration="" line-height="14px" x="15" y="12">E</text><text fill="rgb(102, 102, 102)" stroke="none" font-family="Arial" font-size="12px" font-style="normal" font-weight="normal" text-decoration="" line-height="14px" x="23" y="12">p</text><text fill="rgb(102, 102, 102)" stroke="none" font-family="Arial" font-size="12px" font-style="normal" font-weight="normal" text-decoration="" line-height="14px" x="29" y="12">i</text><text fill="rgb(102, 102, 102)" stroke="none" font-family="Arial" font-size="12px" font-style="normal" font-weight="normal" text-decoration="" line-height="14px" x="32" y="12">s</text><text fill="rgb(102, 102, 102)" stroke="none" font-family="Arial" font-size="12px" font-style="normal" font-weight="normal" text-decoration="" line-height="14px" x="38" y="12">o</text><text fill="rgb(102, 102, 102)" stroke="none" font-family="Arial" font-size="12px" font-style="normal" font-weight="normal" text-decoration="" line-height="14px" x="45" y="12">d</text><text fill="rgb(102, 102, 102)" stroke="none" font-family="Arial" font-size="12px" font-style="normal" font-weight="normal" text-decoration="" line-height="14px" x="52" y="12">e</text><text fill="rgb(102, 102, 102)" stroke="none" font-family="Arial" font-size="12px" font-style="normal" font-weight="normal" text-decoration="" line-height="14px" x="58" y="12">s</text></g></g><g transform="matrix(1,0,0,1,210.5,268)"><g transform="translate(0,0)"><g transform="translate(-154,-243) translate(-56.5,-25) matrix(1,0,0,1,0,0)"><g><path fill="none" stroke="#666666" d="M 215 272.5 L 215 300 Q 215 310 225 310 L 240 310" stroke-miterlimit="10" stroke-width="2"/></g></g></g></g><g transform="matrix(1,0,0,1,125.5,35.5)"><g transform="translate(0,0)"><g transform="translate(-335,-80) translate(209.5,44.5) matrix(1,0,0,1,0,0)"><g><path fill="none" stroke="#666666" d="M 130 40 L 130 470 Q 130 480 140 480 L 165 480" stroke-miterlimit="10" stroke-width="2"/></g></g></g></g><g transform="matrix(1,0,0,1,125.5,35.5)"><g transform="translate(0,0)"><g transform="translate(-329,-82) translate(203.5,46.5) matrix(1,0,0,1,0,0)"><g><path fill="none" stroke="#666666" d="M 130 40 L 130 355.5 Q 130 365.5 140 365.5 L 165 365.5" stroke-miterlimit="10" stroke-width="2"/></g></g></g></g><g transform="matrix(1,0,0,1,125.5,35.5)"><g transform="translate(0,0)"><g transform="translate(-329,99.5) translate(203.5,-135) matrix(1,0,0,1,0,0)"><g><path fill="none" stroke="#666666" d="M 130 40 L 130 242.5 Q 130 252.5 140 252.5 L 165 252.5" stroke-miterlimit="10" stroke-width="2"/></g></g></g></g><g transform="translate(0,0) matrix(1,0,0,1,310,345.5)"><g><g transform="translate(0,0) scale(1,0.4)"><g><path fill="#FFFFFF" stroke="none" d="M 0 0 L 100 0 Q 100 0 100 0 L 100 100 Q 100 100 100 100 L 0 100 Q 0 100 0 100 L 0 0 Q 0 0 0 0 Z"/><g transform="scale(1,2.5)"><path fill="none" stroke="none" d="M 0 0 L 100 0 Q 100 0 100 0 L 100 40 Q 100 40 100 40 L 0 40 Q 0 40 0 40 L 0 0 Q 0 0 0 0 Z"/><path fill="none" stroke="#666666" d="M 0 0 M 0 0 L 100 0 Q 100 0 100 0 L 100 40 Q 100 40 100 40 L 0 40 Q 0 40 0 40 L 0 0 Q 0 0 0 0 Z" stroke-miterlimit="10" stroke-width="2"/></g></g></g></g></g><g transform="matrix(1,0,0,1,320,359)"><g><g><rect fill="rgb(0,0,0)" stroke="none" x="0" y="0" width="80" height="14" fill-opacity="0"/></g></g><g><g><rect fill="rgb(0,0,0)" stroke="none" x="0" y="0" width="80" height="14" fill-opacity="0"/></g></g><g><g><rect fill="rgb(0,0,0)" stroke="none" x="5.6435546875" y="0" width="70" height="14" fill-opacity="0"/></g></g><g><g><rect fill="rgb(0,0,0)" stroke="none" x="5.6435546875" y="0" width="70" height="14" fill-opacity="0"/></g><text fill="rgb(102, 102, 102)" stroke="none" font-family="Arial" font-size="12px" font-style="normal" font-weight="normal" text-decoration="" line-height="14px" x="5" y="12">P</text><text fill="rgb(102, 102, 102)" stroke="none" font-family="Arial" font-size="12px" font-style="normal" font-weight="normal" text-decoration="" line-height="14px" x="13" y="12">l</text><text fill="rgb(102, 102, 102)" stroke="none" font-family="Arial" font-size="12px" font-style="normal" font-weight="normal" text-decoration="" line-height="14px" x="16" y="12">a</text><text fill="rgb(102, 102, 102)" stroke="none" font-family="Arial" font-size="12px" font-style="normal" font-weight="normal" text-decoration="" line-height="14px" x="22" y="12">y</text><text fill="rgb(102, 102, 102)" stroke="none" font-family="Arial" font-size="12px" font-style="normal" font-weight="normal" text-decoration="" line-height="14px" x="32" y="12">e</text><text fill="rgb(102, 102, 102)" stroke="none" font-family="Arial" font-size="12px" font-style="normal" font-weight="normal" text-decoration="" line-height="14px" x="38" y="12">p</text><text fill="rgb(102, 102, 102)" stroke="none" font-family="Arial" font-size="12px" font-style="normal" font-weight="normal" text-decoration="" line-height="14px" x="45" y="12">i</text><text fill="rgb(102, 102, 102)" stroke="none" font-family="Arial" font-size="12px" font-style="normal" font-weight="normal" text-decoration="" line-height="14px" x="48" y="12">s</text><text fill="rgb(102, 102, 102)" stroke="none" font-family="Arial" font-size="12px" font-style="normal" font-weight="normal" text-decoration="" line-height="14px" x="54" y="12">o</text><text fill="rgb(102, 102, 102)" stroke="none" font-family="Arial" font-size="12px" font-style="normal" font-weight="normal" text-decoration="" line-height="14px" x="61" y="12">d</text><text fill="rgb(102, 102, 102)" stroke="none" font-family="Arial" font-size="12px" font-style="normal" font-weight="normal" text-decoration="" line-height="14px" x="67" y="12">e</text></g></g><g transform="matrix(1,0,0,1,285.5,325.5)"><g transform="translate(0,0)"><g transform="translate(-571,-258) translate(285.5,-67.5) matrix(1,0,0,1,0,0)"><g><path fill="none" stroke="#666666" d="M 290 330 L 290 355.5 Q 290 365.5 300 365.5 L 310 365.5" stroke-miterlimit="10" stroke-width="2"/></g></g></g></g><g transform="translate(0,0) matrix(1,0,0,1,240,400)"><g><g transform="translate(0,0) scale(1,0.4)"><g><path fill="#FFFFFF" stroke="none" d="M 0 0 L 100 0 Q 100 0 100 0 L 100 100 Q 100 100 100 100 L 0 100 Q 0 100 0 100 L 0 0 Q 0 0 0 0 Z"/><g transform="scale(1,2.5)"><path fill="none" stroke="none" d="M 0 0 L 100 0 Q 100 0 100 0 L 100 40 Q 100 40 100 40 L 0 40 Q 0 40 0 40 L 0 0 Q 0 0 0 0 Z"/><path fill="none" stroke="#666666" d="M 0 0 M 0 0 L 100 0 Q 100 0 100 0 L 100 40 Q 100 40 100 40 L 0 40 Q 0 40 0 40 L 0 0 Q 0 0 0 0 Z" stroke-miterlimit="10" stroke-width="2"/></g></g></g></g></g><g transform="matrix(1,0,0,1,250,413)"><g><g><rect fill="rgb(0,0,0)" stroke="none" x="0" y="0" width="80" height="14" fill-opacity="0"/></g></g><g><g><rect fill="rgb(0,0,0)" stroke="none" x="0" y="0" width="80" height="14" fill-opacity="0"/></g></g><g><g><rect fill="rgb(0,0,0)" stroke="none" x="12.654296875" y="0" width="56" height="14" fill-opacity="0"/></g></g><g><g><rect fill="rgb(0,0,0)" stroke="none" x="12.654296875" y="0" width="56" height="14" fill-opacity="0"/></g><text fill="rgb(102, 102, 102)" stroke="none" font-family="Arial" font-size="12px" font-style="normal" font-weight="normal" text-decoration="" line-height="14px" x="12" y="12">P</text><text fill="rgb(102, 102, 102)" stroke="none" font-family="Arial" font-size="12px" font-style="normal" font-weight="normal" text-decoration="" line-height="14px" x="20" y="12">l</text><text fill="rgb(102, 102, 102)" stroke="none" font-family="Arial" font-size="12px" font-style="normal" font-weight="normal" text-decoration="" line-height="14px" x="23" y="12">a</text><text fill="rgb(102, 102, 102)" stroke="none" font-family="Arial" font-size="12px" font-style="normal" font-weight="normal" text-decoration="" line-height="14px" x="29" y="12">y</text><text fill="rgb(102, 102, 102)" stroke="none" font-family="Arial" font-size="12px" font-style="normal" font-weight="normal" text-decoration="" line-height="14px" x="39" y="12">a</text><text fill="rgb(102, 102, 102)" stroke="none" font-family="Arial" font-size="12px" font-style="normal" font-weight="normal" text-decoration="" line-height="14px" x="49" y="12">c</text><text fill="rgb(102, 102, 102)" stroke="none" font-family="Arial" font-size="12px" font-style="normal" font-weight="normal" text-decoration="" line-height="14px" x="55" y="12">l</text><text fill="rgb(102, 102, 102)" stroke="none" font-family="Arial" font-size="12px" font-style="normal" font-weight="normal" text-decoration="" line-height="14px" x="57" y="12">i</text><text fill="rgb(102, 102, 102)" stroke="none" font-family="Arial" font-size="12px" font-style="normal" font-weight="normal" text-decoration="" line-height="14px" x="60" y="12">p</text></g></g><g transform="matrix(1,0,0,1,210.5,381)"><g transform="translate(0,0)"><g transform="translate(-719,-154) translate(508.5,-227) matrix(1,0,0,1,0,0)"><g><path fill="none" stroke="#666666" d="M 215 385.5 L 215 410 Q 215 420 225 420 L 240 420" stroke-miterlimit="10" stroke-width="2"/></g></g></g></g><g transform="matrix(1,0,0,1,125.5,35.5)"><g transform="translate(0,0)"><g transform="translate(-129,-41) translate(3.5,5.5) matrix(1,0,0,1,0,0)"><g><path fill="none" stroke="#666666" d="M 130 40 L 130 530 Q 130 540 140 540 L 165 540" stroke-miterlimit="10" stroke-width="2"/></g></g></g></g></g></svg>